<?xml version="1.0" encoding="UTF-8"?>
<!DOCTYPE svg PUBLIC "-//W3C//DTD SVG 1.1//EN" "http://www.w3.org/Graphics/SVG/1.1/DTD/svg11.dtd">
<!-- Creator: CorelDRAW -->
<svg xmlns="http://www.w3.org/2000/svg" xml:space="preserve" width="24px" height="24px" style="shape-rendering:geometricPrecision; text-rendering:geometricPrecision; image-rendering:optimizeQuality; fill-rule:evenodd; clip-rule:evenodd"
viewBox="0 0 24 24"
 xmlns:xlink="http://www.w3.org/1999/xlink">
 <defs>
  <style type="text/css">
   <![CDATA[
    .fil24 {fill:none}
    .fil16 {fill:#8FCDFF}
    .fil25 {fill:#EDA54E}
    .fil19 {fill:#D8F392}
    .fil33 {fill:#86A158;fill-rule:nonzero}
    .fil34 {fill:#9BC44A;fill-rule:nonzero}
    .fil30 {fill:#AB6C28;fill-rule:nonzero}
    .fil32 {fill:#B87630;fill-rule:nonzero}
    .fil17 {fill:#D1EAFF;fill-rule:nonzero}
    .fil29 {fill:#FFD199;fill-rule:nonzero}
    .fil0 {fill:black;fill-opacity:0.000000}
    .fil1 {fill:black;fill-opacity:0.003922}
    .fil2 {fill:black;fill-opacity:0.007843}
    .fil3 {fill:black;fill-opacity:0.015686}
    .fil4 {fill:black;fill-opacity:0.019608}
    .fil5 {fill:black;fill-opacity:0.023529}
    .fil6 {fill:black;fill-opacity:0.027451}
    .fil7 {fill:black;fill-opacity:0.031373}
    .fil8 {fill:black;fill-opacity:0.035294}
    .fil9 {fill:black;fill-opacity:0.043137}
    .fil10 {fill:black;fill-opacity:0.047059}
    .fil11 {fill:black;fill-opacity:0.050980}
    .fil12 {fill:black;fill-opacity:0.054902}
    .fil13 {fill:black;fill-opacity:0.058824}
    .fil28 {fill:#763E17;fill-opacity:0.439216}
    .fil21 {fill:#86A158;fill-opacity:0.439216}
    .fil26 {fill:#FFB75E;fill-rule:nonzero;fill-opacity:0.439216}
    .fil35 {fill:#9C5F22;fill-rule:nonzero;fill-opacity:0.501961}
    .fil23 {fill:#F8EBB3;fill-opacity:0.580392}
    .fil27 {fill:url(#id0)}
    .fil20 {fill:url(#id1)}
    .fil15 {fill:url(#id2)}
    .fil31 {fill:url(#id3)}
    .fil22 {fill:url(#id4)}
    .fil18 {fill:url(#id5);fill-rule:nonzero}
    .fil14 {fill:url(#id6);fill-rule:nonzero;fill-opacity:0.501961}
   ]]>
  </style>
  <linearGradient id="id0" gradientUnits="userSpaceOnUse" x1="11.9515" y1="12.9164" x2="12.3949" y2="21.4899">
   <stop offset="0" style="stop-color:#8C551E"/>
   <stop offset="1" style="stop-color:#804716"/>
  </linearGradient>
  <linearGradient id="id1" gradientUnits="userSpaceOnUse" x1="11.534" y1="4.91503" x2="12.5037" y2="16.7413">
   <stop offset="0" style="stop-color:#C0E36F"/>
   <stop offset="0.419608" style="stop-color:#ACD156"/>
   <stop offset="1" style="stop-color:#9EC444"/>
  </linearGradient>
  <linearGradient id="id2" gradientUnits="userSpaceOnUse" x1="12.1103" y1="6.57728" x2="11.6734" y2="11.2956">
   <stop offset="0" style="stop-color:#9D6123"/>
   <stop offset="0.568627" style="stop-color:#B3732A"/>
   <stop offset="1" style="stop-color:#C48231"/>
  </linearGradient>
  <linearGradient id="id3" gradientUnits="userSpaceOnUse" x1="11.8897" y1="8.43966" x2="11.8897" y2="10.6751">
   <stop offset="0" style="stop-color:#FFB861"/>
   <stop offset="1" style="stop-color:#FAB764"/>
  </linearGradient>
  <linearGradient id="id4" gradientUnits="userSpaceOnUse" x1="12.1057" y1="10.6751" x2="12.1057" y2="20.1335">
   <stop offset="0" style="stop-color:#E69D45"/>
   <stop offset="1" style="stop-color:#D49242"/>
  </linearGradient>
  <linearGradient id="id5" gradientUnits="userSpaceOnUse" x1="12.0201" y1="9.93976" x2="12.0201" y2="2.92226">
   <stop offset="0" style="stop-color:#4E87B4"/>
   <stop offset="1" style="stop-color:#66A1D1"/>
  </linearGradient>
  <linearGradient id="id6" gradientUnits="userSpaceOnUse" x1="8.41641" y1="5.21069" x2="7.7463" y2="22.9415">
   <stop offset="0" style="stop-color:#F8FFC4"/>
   <stop offset="1" style="stop-color:#ADD158"/>
  </linearGradient>
 </defs>
 <g id="Слой_x0020_1">
  <metadata id="CorelCorpID_0Corel-Layer"/>
  <g id="_86437288">
   <path id="_86569272" class="fil0" d="M11.3886 20.5017c7.61732,-0.293955 11.0246,0.324286 12.5054,1.18404l0 2.28191c-0.068599,0.012756 -0.140316,0.0243781 -0.215151,0.0354333l-23.3835 0 0 -2.05117c1.44852,-0.633548 4.5332,-1.19736 11.0932,-1.45022z"/>
   <g>
    <path id="_90450048" class="fil1" d="M11.4155 20.6786c7.62582,-0.283467 11.0382,0.371058 12.4785,1.24073l0 2.00808c-0.151371,0.0294805 -0.3189,0.0544256 -0.50202,0.0756856l-23.0966 0 0 -1.85274c1.406,-0.642619 4.47537,-1.22486 11.1201,-1.47176z"/>
    <path id="_86499048" class="fil2" d="M11.4424 20.8558c7.61193,-0.271561 11.0521,0.417263 12.4516,1.28949l0 1.74219c-0.241514,0.0501736 -0.530366,0.0875912 -0.862306,0.115654l-22.7363 0 0 -1.66083c1.36886,-0.648005 4.43654,-1.24725 11.147,-1.4865z"/>
    <path id="_87168208" class="fil3" d="M11.4696 21.033c7.5748,-0.257388 11.0682,0.4612 12.4243,1.32804l0 1.48707c-0.346396,0.076536 -0.80618,0.125292 -1.36262,0.155056l-6.63142 0c-0.619942,-0.00368507 -1.25661,-0.00453547 -1.90546,0l-13.6424 0 -0.0566934 -0.0093544 0 -1.46864c1.33626,-0.648572 4.42322,-1.26256 11.1743,-1.49217z"/>
    <path id="_45789168" class="fil4" d="M11.4963 21.2101c7.51272,-0.241514 11.0921,0.50287 12.3977,1.35611l0 1.243c-0.501169,0.119056 -1.29233,0.172915 -2.29495,0.193891l-2.99681 0c-1.90121,-0.0192757 -4.10999,-0.0513075 -6.39019,0l-11.5258 0c-0.141733,-0.0167245 -0.272412,-0.0348664 -0.390901,-0.0549926l0 -1.25094c1.30707,-0.64347 4.43966,-1.26965 11.2009,-1.48707z"/>
    <path id="_46155664" class="fil5" d="M11.5232 21.387c7.42683,-0.223655 11.1292,0.540855 12.3708,1.37198l0 1.01169c-1.56445,0.402806 -6.63454,0.0858904 -12.006,0.212317l-0.859188 0.0201261 -9.88732 0c-0.331373,-0.0266459 -0.614839,-0.0598115 -0.846148,-0.0997803l0 -1.04599c1.27815,-0.632414 4.48955,-1.26738 11.2278,-1.47034z"/>
    <path id="_46051384" class="fil6" d="M11.5496 21.5645c7.32138,-0.203813 11.1913,0.576288 12.3444,1.37708l0 0.790872c-1.40543,0.401672 -6.56112,0.109135 -11.996,0.222521 -0.814967,0.017008 -1.61945,0.0334491 -2.40437,0.0481894l-7.64737 0c-0.655659,-0.0308979 -1.18262,-0.077103 -1.55085,-0.142017l0 -0.855786c1.243,-0.61569 4.57374,-1.25462 11.2542,-1.44086z"/>
    <path id="_86680040" class="fil7" d="M11.5774 21.7419c7.19921,-0.182553 11.2891,0.608887 12.3166,1.37085l0 0.582524c-1.2087,0.397704 -6.47041,0.131245 -11.9847,0.231592 -1.7711,0.0323152 -3.50308,0.0617958 -5.07717,0.0762526l-3.35086 0c-1.46297,-0.0198427 -2.58777,-0.0739848 -3.18588,-0.182553l0 -0.679753c1.19481,-0.592729 4.69138,-1.23223 11.282,-1.39891z"/>
    <path id="_93002240" class="fil8" d="M11.6037 21.9194c7.08979,-0.159308 11.4691,0.644887 12.2903,1.36121l0 0.375027c-0.932039,0.395153 -6.33945,0.156757 -11.9742,0.243215 -5.28269,0.081355 -10.2598,0.140033 -11.6244,-0.116788l0 -0.517894c1.12338,-0.563815 4.83963,-1.19991 11.3083,-1.34477z"/>
    <path id="_135623192" class="fil9" d="M11.6306 22.0962c7.08894,-0.136348 11.8892,0.706683 12.2633,1.3717l0 0.130962c-0.407342,0.411877 -6.08348,0.198143 -11.964,0.271561 -5.35752,0.0668982 -10.4577,0.110552 -11.6346,-0.124442l0 -0.369641c1.01141,-0.529799 5.01198,-1.15881 11.3353,-1.28014z"/>
    <path id="_20916312" class="fil10" d="M11.6576 22.2734c6.86783,-0.1063 12.1318,0.716604 12.1437,1.3065 0.0116221,0.374176 -5.84197,0.20523 -11.8603,0.262207 -5.46978,0.0521579 -10.7315,0.0802211 -11.6457,-0.129261l0 -0.230175c0.819786,-0.490964 5.18801,-1.11402 11.3622,-1.20927z"/>
    <path id="_86377768" class="fil11" d="M11.6845 22.4506c6.36241,-0.0708667 11.9918,0.656793 11.9994,1.16193 0.00793707,0.267309 -5.80738,0.16356 -11.7321,0.201545 -5.69428,0.0368507 -11.2324,0.047339 -11.6564,-0.135781l0 -0.0805046c0.398554,-0.44646 5.29233,-1.07944 11.3891,-1.14719z"/>
    <path id="_46509656" class="fil12" d="M11.7114 22.6277c5.85642,-0.0354333 11.8515,0.597265 11.8557,1.01708 0.0034016,0.161009 -5.77308,0.122174 -11.6051,0.140883 -5.83205,0.0192757 -11.5802,0.0110552 -11.5802,-0.117922 0,-0.391184 5.47233,-1.00461 11.3296,-1.04004z"/>
   </g>
   <path id="_45924832" class="fil13" d="M11.7378 22.8052c5.35157,0 11.712,0.537453 11.712,0.872511 0,0.109135 -22.9549,0.104883 -22.9549,0.00311813 0,-0.334774 5.89157,-0.875629 11.2429,-0.875629z"/>
  </g>
  <path class="fil14" d="M19.3693 7.441l0.00538587 6.03784 -0.156474 0 -0.0051024 -6.03784 0 -1.82326 0.000566934 0 0.0008504 -3.16519c0.0541422,0.029764 0.1063,0.055276 0.155623,0.0751187l-0.00141733 3.09007 0.000566934 0 0 1.82326zm-15.1286 6.11863l-0.0051024 -6.1552 0 -0.880164 -0.000283467 0 0 -0.0929771 0 -4.06718c0,-0.0566934 0.0034016,-0.11282 0.0110552,-0.167812 0.0504571,-0.00907094 0.104599,-0.0167245 0.16271,-0.0240947 -0.0116221,0.0617958 -0.0175749,0.125859 -0.0175749,0.191907l0 3.9742 0.000283467 0 0 0.0929771 0 0.973142 0.00538587 6.1552 -0.156474 0z"/>
  <path class="fil15" d="M3.35568 6.46701l17.5412 0.741833c0.254553,0.000566934 0.325136,0.208348 0.462901,0.386932l0.613139 0.444476 -0.179151 2.97895c-0.0124725,0.2126 -0.208348,0.387216 -0.462618,0.387216l-18.9322 0c-0.253986,0 -0.454114,-0.174332 -0.462618,-0.387216l-0.125576 -2.59712 1.08199 -1.56785c0.127277,-0.184537 0.208348,-0.387783 0.462901,-0.387216z"/>
  <path class="fil16" d="M4.51393 4.00397l-0.034016 -2.61158c0,-0.256537 0.16271,-0.462901 0.299624,-0.646304 0.176033,-0.261356 0.600666,-0.440507 0.897739,-0.440507l13.0692 -0.0617958c0.526681,-0.00226773 0.986464,0.515059 0.980795,1.15116 -0.00878747,0.884983 0.0439374,1.74559 0.0445043,2.60818l0.0059528 8.23556 -15.3421 0 0.0762526 -8.15619c0,-0.0260789 0.000566934,-0.0527248 0.00198427,-0.0785203z"/>
  <path class="fil17" d="M4.06435 1.6699c0.051591,-0.00907094 0.104032,-0.0141733 0.157608,-0.0141733l0 0.00113387 0.62958 -0.746652 14.2391 -0.0192757c0.372475,0.0374176 0.459783,0.572886 0.69421,0.801644l0.0017008 0.123875 0.0249451 0.0076536 0.0104883 0.229892c-0.241797,-0.154489 -0.309546,-0.223655 -0.618241,-0.323719l-14.3341 0.0136064 -0.621076 0.20523 0 0c-0.051024,0 -0.100914,0.00623627 -0.14882,0.0175749l-0.00368507 -0.136348 -0.0226773 0.0051024 -0.00907094 -0.165545z"/>
  <path class="fil18" d="M4.05726 4.14854l-0.0371342 -2.59826 -0.00198427 -0.0059528c0,-0.423499 0.223939,-0.697045 0.422082,-0.939409l0.0008504 0.0008504 0.00963787 -0.0116221c0.145135,-0.193324 0.367656,-0.350365 0.607469,-0.458082l-0.000283467 -0.0008504c0.249451,-0.112253 0.532918,-0.178017 0.769329,-0.178017l0 0.00198427 12.6188 -0.0235277 0.00198427 -0.00198427 0.0136064 0 0.00396854 0.00198427c0.423499,0.004252 0.816101,0.19134 1.09957,0.491531 0.275246,0.291404 0.450996,0.69421 0.45298,1.13869l0.00198427 0.00198427 0 0.017008 -0.00198427 0.00396854c-0.00481894,0.466303 0.00992134,0.937992 0.0240947,1.40571 0.0119056,0.395436 0.0243781,0.790022 0.0246616,1.19821l0.00623627 8.23584 0.000283467 0.500035 -0.498335 0 -15.1051 -0.0379846 -0.503154 0 0.0051024 -0.504004 0.0833392 -8.15619 0 -0.00963787 0.00198427 -0.072284zm0.958968 -2.60421l0.0374176 2.60534 -0.498051 0.0059528 0.498051 0.0136064 -0.00226773 0.0788038 -0.0782368 7.64255 14.1036 0.0379846 -0.0059528 -7.73581c0,-0.379846 -0.0124725,-0.774998 -0.0246616,-1.171 -0.0144568,-0.470838 -0.0291971,-0.945362 -0.0240947,-1.43689l-0.00198427 0 0 -0.017008 0.00198427 0c-0.00113387,-0.177167 -0.0725675,-0.339593 -0.183686,-0.456948 -0.102332,-0.108001 -0.237545,-0.1766 -0.376727,-0.179151l0 0.00198427 -0.0136064 0 0 -0.00198427 -12.6188 0.0235277 -0.00198427 0.00198427c-0.102332,0 -0.234994,0.0328821 -0.358869,0.0884416l-0.00198427 0c-0.0986464,0.0442208 -0.181702,0.0972291 -0.21997,0.149104l-0.0138899 0.0175749 -0.0189923 0.0232443 0 0.00198427c-0.0915598,0.111969 -0.195309,0.238963 -0.195309,0.306711l-0.00198427 0z"/>
  <path class="fil19" d="M20.7379 8.35774l0.0314648 0.192757 -17.6481 -0.104599 0 -4.16838c0,-0.256821 0.101765,-0.492382 0.269577,-0.676068 0.214584,-0.261073 0.540571,-0.428318 0.902842,-0.428318l15.3157 0.104599c0.643753,0.0008504 1.21494,0.530083 1.20785,1.17015l-0.046772 3.90986 -0.0325987 0z"/>
  <path class="fil20" d="M3.10453 8.49408l-0.00311813 -2.61158c0,-0.256821 0.101765,-0.492949 0.270144,-0.676068 0.214584,-0.261073 0.464319,-0.16271 0.827156,-0.16271l15.6664 -0.00878747c0.64347,0.0008504 1.01651,0.286301 1.00914,0.923251 -0.0107717,0.884983 0.0538587,1.78131 0.0547091,2.64361l0.0076536 8.02098 -17.8275 0.0884416 -0.0076536 -8.13833c0,-0.0263624 0.00113387,-0.0527248 0.00311813,-0.0788038z"/>
  <path class="fil21" d="M3.10311 7.15073l-0.00113387 -1.05563c6.13167,-0.0195592 11.6411,0.0861739 17.7711,-0.0263624 -0.00198427,0.360286 0.0076536,0.721706 0.0195592,1.08199l-17.7895 0z"/>
  <path class="fil22" d="M1.93891 10.7482l0.0331656 -1.69655c0,-0.187938 0.0890086,-0.36057 0.235561,-0.49465 0.187938,-0.191057 0.472823,-0.313514 0.790022,-0.313514l18.2164 -0.004252c0.562965,-0.000283467 1.0562,0.375027 1.04826,0.84218 -0.0110552,0.648572 0.0124725,1.0888 0.0124725,1.72008l0 10.907c0,0.468004 -0.451846,0.85692 -1.00234,0.85692 -6.60137,0 -7.0742,0.00453547 -18.3335,0.00453547 -0.550493,0 -1.00234,-0.385798 -1.00234,-0.857204l0 -10.9067c0,-0.0195592 0.0008504,-0.038835 0.00226773,-0.0578272z"/>
  <polygon class="fil23" points="1.8037,15.0493 4.06548,15.0493 4.06548,15.208 4.08702,18.1716 4.12132,18.1501 4.12132,18.2085 1.78896,18.2085 "/>
  <path class="fil23" d="M22.0169 15.087l-1.94146 -0.0291971 0 0.139749 0.00396854 2.96705c0,0.0167245 -0.00623627,0.0357168 -0.0113387,0.0547091l1.94883 0 0 -3.13231z"/>
  <path class="fil24" d="M1.89186 8.79796c0,-0.189072 0.089292,-0.362554 0.236695,-0.497484 0.189072,-0.19219 0.475374,-0.315215 0.794557,-0.315215l17.942 0c0.5658,0 1.06243,0.376444 1.05393,0.846999"/>
  <path class="fil25" d="M22.0846 8.01247l0.963504 2.78506c-0.0068032,0.153922 -0.0581107,0.289987 -0.315499,0.300475 -7.23379,0 -14.4055,0.0445043 -21.6393,0.0445043 -0.132662,-0.00368507 -0.337042,-0.0518744 -0.317483,-0.226207l0.97626 -2.90383 20.3325 0z"/>
  <polygon class="fil26" points="12.1261,21.3459 16.7299,16.8416 15.0099,16.8416 14.8412,16.8416 14.8412,16.7931 18.8367,16.938 19.2463,17.0604 12.267,22.5529 12.1551,22.6518 12.0431,22.5529 5.04656,17.0298 5.04883,17.0242 8.84842,16.8314 8.84842,16.8796 8.67919,16.8796 7.10226,16.8796 "/>
  <polygon class="fil27" points="12.1837,21.3822 17.6739,17.0647 15.0215,17.0647 15.0181,13.0242 8.99128,13.0242 9.00489,17.0647 6.67252,17.0647 "/>
  <path class="fil28" d="M16.7223 18.0733l0.951882 -1.00801 -2.6524 0 -0.004252 -4.04082 -6.02594 0 0.0025512 1.00829 6.02339 0 0.004252 4.11679 1.70052 -0.0762526zm-7.72022 -1.00801l-2.32925 0 1.4094 0.970023 0.922401 0.0379846 -0.0025512 -1.00801z"/>
  <path class="fil29" d="M20.9179 7.05322l0.0623627 0c0.164978,0.000566934 0.157608,0.0456382 0.0748352,-0.13408l-0.185387 -0.4252 0.176033 -0.645737 0.871944 1.6991c0.152505,0.293672 0.271561,0.356885 -0.122174,0.480193l-0.0547091 0.111119 -0.100064 -0.000566934 -19.454 0 -0.0549926 0.0269293c-0.393735,-0.123308 -0.374743,-0.324003 -0.221671,-0.617674l0.836794 -1.28836 0.0184253 0.577989 -0.043087 0.164694c-0.0830558,0.179718 -0.112253,0.0816384 0.0521579,0.081355l0.0629296 0c6.24506,-0.0221104 11.8364,0.0881582 18.0806,-0.029764z"/>
  <path class="fil30" d="M1.01538 10.7184l0.0059528 -0.313514 1.01509 0 -0.0068032 0.351215 0 0.0218269 -0.00198427 0.0280632 0.0017008 0 0 10.9067c0,0.0802211 0.0442208,0.158458 0.115371,0.218836 0.0926936,0.0793707 0.226207,0.128977 0.377294,0.128977l12.0213 -0.000566934 6.95656 -0.0017008 0 -0.00226773c0.150521,0 0.28375,-0.0498902 0.376444,-0.128977 0.0717171,-0.0612288 0.116505,-0.139466 0.116505,-0.218553l0 -10.907 -0.0017008 -0.39657 1.01566 0c0.0025512,0.163844 0.00453547,0.309262 0.00453547,0.39657l0 10.907c0,0.389483 -0.182269,0.740982 -0.47424,0.990716 -0.270711,0.230742 -0.638084,0.375594 -1.03721,0.375594l0 -0.00198427 -6.95656 0.0017008 -12.0213 0.00453547c-0.398838,0 -0.767345,-0.143718 -1.03777,-0.37531 -0.291687,-0.249451 -0.473673,-0.599816 -0.473673,-0.991l0 -10.9067 0.00198427 -0.00992134 0.000566934 -0.0289136 0 -0.0198427 0.00198427 -0.0289136 0.000283467 0z"/>
  <path class="fil31" d="M22.0857 8.08844l0.958685 2.62122c-0.0068032,0.153922 -0.0581107,0.289987 -0.315499,0.300475 -7.23379,0 -14.4234,0.0181419 -21.6571,0.0181419 -0.132662,-0.00368507 -0.337042,-0.0521579 -0.317483,-0.226207l0.998937 -2.67819 0.373609 -0.0371342 19.9589 0.0017008z"/>
  <path class="fil32" d="M20.9802 5.68351l1.52363 2.02707 0.0017008 0.0025512c0.117072,0.170647 0.167245,0.305577 0.253986,0.540288l0.114237 0.299057 0.982212 2.48856 -0.94763 0.266742 -0.982212 -2.48856 -0.0008504 -0.0025512 -0.117072 -0.305861 -0.0017008 -0.004252c-0.0674651,-0.182836 -0.107434,-0.288569 -0.172348,-0.383814l-0.0017008 -0.0025512 -0.872227 -1.29743 0.21997 -1.13925zm-21.0185 5.43434l0.974275 -2.57926 0.080788 -0.229608c0.0742683,-0.21912 0.157608,-0.458933 0.249451,-0.595847l1.77564 -2.04238 0.038835 1.30877 -0.922401 1.14067 -0.0034016 0.004252c-0.0345829,0.0501736 -0.101481,0.244348 -0.162143,0.422649l-0.0008504 0.0025512 -0.0805046 0.229608 -0.0034016 0.00878747 -0.97796 2.58805 -0.968323 -0.258238z"/>
  <polygon class="fil30" points="23.9697,12 0.0167245,12 0.0167245,11.0186 23.9697,11.0186 "/>
  <path class="fil33" d="M3.01892 7.06343l-0.0189923 -2.60563c0,-0.188505 0.0377011,-0.372192 0.1063,-0.544256l0.000566934 0.000283467c0.0694494,-0.174616 0.170364,-0.33279 0.293388,-0.468004l0.000566934 0.000566934c0.153639,-0.181135 0.345263,-0.330239 0.560697,-0.432003 0.0992134,-0.0470555 0.203246,-0.0844731 0.311247,-0.111402l0 1.08256c-0.0442208,0.0328821 -0.0844731,0.0705832 -0.118773,0.112536l-0.0155907 0.0195592c-0.0464886,0.0513075 -0.0836227,0.107717 -0.1063,0.165261l0 0.00198427c-0.0206931,0.051591 -0.0320317,0.110269 -0.0320317,0.172915l0.0189923 2.60563 -1.00007 0zm16.5567 -4.18851c0.336475,0.0629296 0.644887,0.225356 0.884416,0.45383 0.313798,0.299908 0.515059,0.716321 0.513925,1.17554l0.00198427 0 0 0.00992134 -0.00198427 0.0059528 -0.0178584 2.50528 -0.996102 0 0.0178584 -2.51123 -0.00198427 0 0 -0.00992134 0.00198427 0c0.000283467,-0.171781 -0.0802211,-0.333073 -0.205513,-0.452696l-0.00198427 -0.00198427c-0.0572603,-0.0547091 -0.123308,-0.100631 -0.194742,-0.135214l0 -1.03947z"/>
  <path class="fil34" d="M4.2727 2.90298c0.12841,-0.0323152 0.26249,-0.0493232 0.399688,-0.0493232l0 0.00198427 14.5957 -0.0093544 0 -0.00198427 0.0110552 0 0.00396854 0.00198427c0.0992134,0.00113387 0.197009,0.0107717 0.292538,0.0286301l0 1.03947c-0.0918432,-0.0445043 -0.193041,-0.0702998 -0.296506,-0.0720006l0 0.00198427 -0.0110552 0 0 -0.00198427 -14.5957 0.0093544 0 0.00198427c-0.102898,0 -0.200128,0.0229608 -0.285168,0.0632131 -0.0405358,0.0192757 -0.0788038,0.0422366 -0.114521,0.068599l0 -1.08256z"/>
  <polygon class="fil35" points="22.6059,13.0633 1.64552,13.0633 1.64552,11.8923 22.6059,11.8923 "/>
 </g>
</svg>
