<?xml version="1.0" encoding="UTF-8"?>
<!DOCTYPE svg PUBLIC "-//W3C//DTD SVG 1.1//EN" "http://www.w3.org/Graphics/SVG/1.1/DTD/svg11.dtd">
<!-- Creator: CorelDRAW -->
<svg xmlns="http://www.w3.org/2000/svg" xml:space="preserve" width="128px" height="128px" style="shape-rendering:geometricPrecision; text-rendering:geometricPrecision; image-rendering:optimizeQuality; fill-rule:evenodd; clip-rule:evenodd"
viewBox="0 0 128 128"
 xmlns:xlink="http://www.w3.org/1999/xlink">
 <defs>
  <style type="text/css">
   <![CDATA[
    .fil58 {fill:none}
    .fil16 {fill:#73B2E6}
    .fil14 {fill:#8FCDFF}
    .fil86 {fill:#9BBA65}
    .fil39 {fill:#BDE06B}
    .fil62 {fill:#C48231}
    .fil24 {fill:#D4C2B2}
    .fil63 {fill:#EDA54E}
    .fil22 {fill:#F5ECE4}
    .fil88 {fill:#F3F3F3}
    .fil36 {fill:white;fill-rule:nonzero}
    .fil84 {fill:#804716;fill-rule:nonzero}
    .fil42 {fill:#86A158;fill-rule:nonzero}
    .fil85 {fill:#9BBA65;fill-rule:nonzero}
    .fil19 {fill:#A1D5FF;fill-rule:nonzero}
    .fil69 {fill:#C48231;fill-rule:nonzero}
    .fil38 {fill:#C4AE9A;fill-rule:nonzero}
    .fil18 {fill:#CFEDFF;fill-rule:nonzero}
    .fil37 {fill:#D0F280;fill-rule:nonzero}
    .fil67 {fill:#FFB75E;fill-rule:nonzero}
    .fil68 {fill:#FFD199;fill-rule:nonzero}
    .fil87 {fill:#F3F3F3;fill-rule:nonzero}
    .fil41 {fill:#F8FFC4;fill-rule:nonzero}
    .fil0 {fill:black;fill-opacity:0.000000}
    .fil43 {fill:#5C3106;fill-opacity:0.000000}
    .fil25 {fill:#789440;fill-opacity:0.000000}
    .fil72 {fill:#BD7E31;fill-opacity:0.000000}
    .fil89 {fill:#C48231;fill-opacity:0.000000}
    .fil1 {fill:black;fill-opacity:0.007843}
    .fil73 {fill:#BD7E31;fill-opacity:0.007843}
    .fil90 {fill:#C48231;fill-opacity:0.007843}
    .fil2 {fill:black;fill-opacity:0.011765}
    .fil44 {fill:#5C3106;fill-opacity:0.011765}
    .fil26 {fill:#789440;fill-opacity:0.011765}
    .fil74 {fill:#BD7E31;fill-opacity:0.019608}
    .fil91 {fill:#C48231;fill-opacity:0.019608}
    .fil3 {fill:black;fill-opacity:0.019608}
    .fil4 {fill:black;fill-opacity:0.023529}
    .fil45 {fill:#5C3106;fill-opacity:0.027451}
    .fil27 {fill:#789440;fill-opacity:0.027451}
    .fil75 {fill:#BD7E31;fill-opacity:0.027451}
    .fil92 {fill:#C48231;fill-opacity:0.027451}
    .fil5 {fill:black;fill-opacity:0.031373}
    .fil76 {fill:#BD7E31;fill-opacity:0.035294}
    .fil93 {fill:#C48231;fill-opacity:0.035294}
    .fil6 {fill:black;fill-opacity:0.035294}
    .fil46 {fill:#5C3106;fill-opacity:0.039216}
    .fil28 {fill:#789440;fill-opacity:0.039216}
    .fil7 {fill:black;fill-opacity:0.043137}
    .fil77 {fill:#BD7E31;fill-opacity:0.043137}
    .fil94 {fill:#C48231;fill-opacity:0.043137}
    .fil8 {fill:black;fill-opacity:0.050980}
    .fil47 {fill:#5C3106;fill-opacity:0.054902}
    .fil29 {fill:#789440;fill-opacity:0.054902}
    .fil78 {fill:#BD7E31;fill-opacity:0.054902}
    .fil95 {fill:#C48231;fill-opacity:0.054902}
    .fil9 {fill:black;fill-opacity:0.054902}
    .fil10 {fill:black;fill-opacity:0.062745}
    .fil79 {fill:#BD7E31;fill-opacity:0.062745}
    .fil96 {fill:#C48231;fill-opacity:0.062745}
    .fil48 {fill:#5C3106;fill-opacity:0.066667}
    .fil30 {fill:#789440;fill-opacity:0.066667}
    .fil11 {fill:black;fill-opacity:0.066667}
    .fil80 {fill:#BD7E31;fill-opacity:0.070588}
    .fil97 {fill:#C48231;fill-opacity:0.070588}
    .fil12 {fill:black;fill-opacity:0.074510}
    .fil13 {fill:black;fill-opacity:0.078431}
    .fil49 {fill:#5C3106;fill-opacity:0.078431}
    .fil31 {fill:#789440;fill-opacity:0.078431}
    .fil81 {fill:#BD7E31;fill-opacity:0.078431}
    .fil98 {fill:#C48231;fill-opacity:0.078431}
    .fil50 {fill:#5C3106;fill-opacity:0.094118}
    .fil32 {fill:#789440;fill-opacity:0.094118}
    .fil51 {fill:#5C3106;fill-opacity:0.105882}
    .fil33 {fill:#789440;fill-opacity:0.105882}
    .fil52 {fill:#5C3106;fill-opacity:0.121569}
    .fil34 {fill:#789440;fill-opacity:0.121569}
    .fil99 {fill:#46749C;fill-opacity:0.219608}
    .fil60 {fill:#F8EBB3;fill-opacity:0.219608}
    .fil82 {fill:#FFC57F;fill-opacity:0.321569}
    .fil15 {fill:#548ABA;fill-opacity:0.439216}
    .fil66 {fill:#693E19;fill-opacity:0.439216}
    .fil23 {fill:#9BBA65;fill-opacity:0.439216}
    .fil64 {fill:#FFB75E;fill-rule:nonzero;fill-opacity:0.439216}
    .fil59 {fill:#F8EBB3;fill-opacity:0.501961}
    .fil71 {fill:#FFD199;fill-opacity:0.501961}
    .fil55 {fill:#9F6223;fill-rule:nonzero;fill-opacity:0.501961}
    .fil56 {fill:#FFB75E;fill-rule:nonzero;fill-opacity:0.780392}
    .fil61 {fill:url(#id0)}
    .fil40 {fill:url(#id1)}
    .fil65 {fill:url(#id2)}
    .fil21 {fill:url(#id3)}
    .fil70 {fill:url(#id4)}
    .fil53 {fill:url(#id5)}
    .fil83 {fill:url(#id6);fill-rule:nonzero}
    .fil57 {fill:url(#id7);fill-rule:nonzero}
    .fil20 {fill:url(#id8);fill-rule:nonzero}
    .fil54 {fill:url(#id9);fill-opacity:0.121569}
    .fil35 {fill:url(#id10);fill-rule:nonzero;fill-opacity:0.501961}
    .fil17 {fill:url(#id11);fill-rule:nonzero;fill-opacity:0.501961}
   ]]>
  </style>
  <linearGradient id="id0" gradientUnits="userSpaceOnUse" x1="64.0024" y1="64.8138" x2="64.0024" y2="50.3286">
   <stop offset="0" style="stop-color:#9D6123"/>
   <stop offset="0.568627" style="stop-color:#B3732A"/>
   <stop offset="1" style="stop-color:#C48231"/>
  </linearGradient>
  <linearGradient id="id1" gradientUnits="userSpaceOnUse" x1="61.0862" y1="22.2723" x2="66.5028" y2="88.331">
   <stop offset="0" style="stop-color:#C0E36F"/>
   <stop offset="0.419608" style="stop-color:#ACD156"/>
   <stop offset="1" style="stop-color:#9EC444"/>
  </linearGradient>
  <linearGradient id="id2" gradientUnits="userSpaceOnUse" x1="63.413" y1="75.0682" x2="65.6512" y2="116.332">
   <stop offset="0" style="stop-color:#8C551E"/>
   <stop offset="1" style="stop-color:#804716"/>
  </linearGradient>
  <linearGradient id="id3" gradientUnits="userSpaceOnUse" xlink:href="#id0" x1="65.2685" y1="33.4717" x2="62.6417" y2="61.8374">
  </linearGradient>
  <linearGradient id="id4" gradientUnits="userSpaceOnUse" x1="63.837" y1="46.9801" x2="63.837" y2="59.8566">
   <stop offset="0" style="stop-color:#FFB861"/>
   <stop offset="1" style="stop-color:#FAB764"/>
  </linearGradient>
  <linearGradient id="id5" gradientUnits="userSpaceOnUse" x1="64.2811" y1="58.62" x2="64.2811" y2="111.981">
   <stop offset="0" style="stop-color:#E69D45"/>
   <stop offset="1" style="stop-color:#D49242"/>
  </linearGradient>
  <linearGradient id="id6" gradientUnits="userSpaceOnUse" x1="63.4673" y1="34.1756" x2="64.3295" y2="64.2232">
   <stop offset="0" style="stop-color:#C48231"/>
   <stop offset="1" style="stop-color:#985C21"/>
  </linearGradient>
  <linearGradient id="id7" gradientUnits="userSpaceOnUse" xlink:href="#id0" x1="64.0579" y1="110.218" x2="64.9036" y2="59.957">
  </linearGradient>
  <linearGradient id="id8" gradientUnits="userSpaceOnUse" x1="63.5653" y1="58.5302" x2="63.5653" y2="20.2325">
   <stop offset="0" style="stop-color:#4E87B4"/>
   <stop offset="1" style="stop-color:#66A1D1"/>
  </linearGradient>
  <linearGradient id="id9" gradientUnits="userSpaceOnUse" x1="59.1574" y1="126.426" x2="58.7417" y2="79.3439">
   <stop offset="0" style="stop-color:#FFC57F"/>
   <stop offset="1" style="stop-color:#FFC57F"/>
  </linearGradient>
  <linearGradient id="id10" gradientUnits="userSpaceOnUse" x1="43.3978" y1="33.578" x2="39.356" y2="134.053">
   <stop offset="0" style="stop-color:#F8FFC4"/>
   <stop offset="1" style="stop-color:#ADD158"/>
  </linearGradient>
  <linearGradient id="id11" gradientUnits="userSpaceOnUse" xlink:href="#id10" x1="44.345" y1="27.7917" x2="40.5655" y2="127.82">
  </linearGradient>
 </defs>
 <g id="Слой_x0020_1">
  <metadata id="CorelCorpID_0Corel-Layer"/>
  <g id="_86521512">
   <path id="_86130576" class="fil0" d="M62.2366 108.579c57.0704,-2.52287 60.3031,7.343 60.5511,15.24 0.248035,7.89813 -25.1413,3.27169 -58.4157,4.6347 -33.2732,1.36301 -59.1598,1.90042 -59.1598,-3.95438 0,-5.8548 -0.0460636,-13.3962 57.0243,-15.9203z"/>
   <g>
    <path id="_86130328" class="fil1" d="M62.3642 109.55c54.7259,-2.32916 59.9334,7.01111 60.1614,14.4427 0.229137,7.31348 -25.3078,3.05319 -58.1204,4.31108 -32.815,1.25789 -58.8102,1.74215 -58.8102,-3.6839 0,-5.54534 2.04215,-12.7395 56.7692,-15.0699z"/>
    <path id="_86128952" class="fil2" d="M62.487 110.522c52.3825,-2.13428 59.5649,6.6804 59.774,13.6443 0.210239,6.73 -25.4743,2.83586 -57.8275,3.98863 -32.3555,1.15277 -58.4594,1.58388 -58.4594,-3.41225 0,-5.23707 4.13037,-12.0852 56.5129,-14.2206z"/>
    <path id="_86127576" class="fil3" d="M62.6134 111.494c50.0392,-1.94058 59.1952,6.3485 59.3866,12.847 0.19016,6.14417 -25.6409,2.61736 -57.5357,3.66501 -31.8961,1.04765 -58.1074,1.42561 -58.1074,-3.14177 0,-4.92762 6.2174,-11.4285 56.2566,-13.3702z"/>
    <path id="_86126200" class="fil4" d="M62.7386 112.466c47.697,-1.74687 58.8267,6.01661 58.998,12.0486 0.172443,5.5607 -25.8062,2.40121 -57.2416,3.34256 -31.4354,0.942531 -57.7578,1.26852 -57.7578,-2.8713 0,-4.61817 8.30561,-10.773 56.0015,-12.5198z"/>
    <path id="_86124824" class="fil5" d="M62.8638 113.437c45.3525,-1.55199 58.457,5.6859 58.6094,11.2513 0.152364,4.97605 -25.9728,2.1827 -56.9487,3.01893 -30.9772,0.837412 -57.407,1.11025 -57.407,-2.59964 0,-4.3099 10.3938,-10.1174 55.7464,-11.6706z"/>
    <path id="_86514880" class="fil6" d="M62.989 114.41c43.0092,-1.35828 58.0873,5.354 58.2208,10.4541 0.133466,4.39139 -26.1381,1.9642 -56.6546,2.69531 -30.5177,0.732292 -57.0562,0.95198 -57.0562,-2.32916 0,-4.00044 12.4809,-9.46075 55.4901,-10.8202z"/>
    <path id="_86513504" class="fil7" d="M63.1165 115.382c40.6659,-1.16458 57.7176,5.02211 57.8322,9.65563 0.114568,3.80674 -26.3047,1.74687 -56.3617,2.37286 -30.0571,0.625992 -56.7054,0.793711 -56.7054,-2.05869 0,-3.69099 14.5691,-8.80523 55.2349,-9.96981z"/>
    <path id="_86512128" class="fil8" d="M63.2429 116.355c38.3213,-0.970878 57.3479,4.69022 57.4424,8.85838 0.0968516,3.22209 -26.47,1.52837 -56.0676,2.04924 -29.5976,0.520873 -56.3546,0.635441 -56.3546,-1.78821 0,-3.38154 16.6573,-8.14853 54.9798,-9.1194z"/>
    <path id="_86510752" class="fil9" d="M63.3669 117.326c35.978,-0.775994 56.9794,4.3595 57.055,8.06112 0.0767726,2.63743 -26.6377,1.30986 -55.7747,1.72561 -29.1393,0.415753 -56.005,0.477171 -56.005,-1.51655 0,-3.07327 18.7455,-7.49301 54.7247,-8.27018z"/>
    <path id="_86020216" class="fil10" d="M63.4921 118.298c33.6347,-0.582291 56.6098,4.02761 56.6664,7.26269 0.0578747,2.05396 -26.8019,1.09371 -55.4806,1.40317 -28.6787,0.310634 -55.6542,0.320083 -55.6542,-1.24608 0,-2.76381 20.8325,-6.83749 54.4684,-7.41978z"/>
    <path id="_86016888" class="fil11" d="M63.6185 119.27c31.2913,-0.388587 56.2401,3.69571 56.279,6.46543 0.0377957,1.46813 -26.9684,0.875208 -55.1889,1.07954 -28.2192,0.205514 -55.3034,0.161813 -55.3034,-0.975603 0,-2.45436 22.9219,-6.18078 54.2133,-6.56937z"/>
    <path id="_86016912" class="fil12" d="M63.7425 120.242c28.948,-0.193703 55.8727,3.365 55.8905,5.667 0.020079,0.884657 -27.135,0.657882 -54.896,0.757096 -27.7586,0.100395 -54.9515,0.00354335 -54.9515,-0.703946 0,-2.14609 25.009,-5.52645 53.957,-5.72015z"/>
   </g>
   <path id="_86521552" class="fil13" d="M63.8677 121.216c26.6047,0 55.503,3.03311 55.503,4.86974 0,0.600007 -109.206,0.558668 -109.206,0 0,-1.83664 27.0984,-4.86974 53.703,-4.86974z"/>
  </g>
  <path class="fil14" d="M105.964 33.5496l0.14764 1.08545 -85.566 -0.206695 0 -24.0074c0,-1.44923 0.481896,-2.78035 1.27679,-3.81383 1.01812,-1.47403 2.56184,-2.41775 4.28155,-2.41775l74.5108 0.206695c3.05082,0.0070867 5.75794,2.98941 5.72369,6.60244l-0.220869 22.5511 -0.153545 0z"/>
  <path class="fil15" d="M20.5975 12.0651l-0.00118112 -0.0342524 0 -1.55907c0,-1.44923 0.481896,-2.78035 1.27679,-3.81383 0.809065,-1.16931 1.94648,-2.00554 3.24217,-2.30082l0.459454 6.18905 0.812608 0.192522c-0.798435,1.78467 -4.97959,2.85358 -5.66346,1.539 -0.683867,-1.3134 -0.0803159,-0.140553 -0.12638,-0.212601z"/>
  <path class="fil15" d="M102.81 4.72211l-0.478352 5.70007 -0.812608 0.193703c0.660244,1.47403 3.18783,3.30949 4.79652,2.4579l0.0224412 -2.27837c0.0259846,-2.70594 -1.48703,-5.06109 -3.528,-6.0733z"/>
  <path class="fil16" d="M20.5089 27.9783l-0.0129923 -14.7321c0,-1.44805 0.481896,-2.78035 1.27679,-3.81383 1.01812,-1.47403 2.56184,-2.41775 4.28155,-2.41775l74.5108 0.207877c3.05082,0.0070867 5.71897,2.89846 5.67999,6.49496 -0.0543314,4.99494 0.255121,10.0478 0.258665,14.914l0.0342524 45.2486 -86.0078 0.455911 -0.0342524 -45.9124c0,-0.148821 0.00472447,-0.297641 0.0129923,-0.445281z"/>
  <path class="fil17" d="M106.14 40.3741l0.0283468 34.0634 -0.881113 0 -0.0295279 -34.0634 0 -10.2852 0.00236223 0 0.00472447 -17.8561c0.305909,0.167719 0.601189,0.310634 0.87757,0.42284l-0.00472447 17.4333 0.00236223 0 0 10.2852zm-85.3487 34.5193l-0.0295279 -34.7248 0 -4.96542 -0.00236223 0 0 -0.524416 0 -22.9456c0,-0.321264 0.0212601,-0.636622 0.0637803,-0.947256 0.284649,-0.050788 0.590558,-0.0944894 0.917728,-0.135828 -0.0661425,0.349611 -0.100395,0.711032 -0.100395,1.08308l0 22.4211 0.00236223 0 0 0.524416 0 5.48983 0.030709 34.7248 -0.882294 0z"/>
  <path class="fil18" d="M25.1873 6.17015c0.29646,-0.0555125 0.60237,-0.0838593 0.917728,-0.0838593l0 0.00236223 74.5108 0.206695 0 -0.00236223 0.0767726 0 0.00590558 0.00236223c0.672056,0.0106301 1.3134,0.150002 1.9075,0.400399l-0.0921271 1.1008c-0.603551,-0.284649 -1.226,-0.446462 -1.82128,-0.455911l0 0.00236223 -0.0767726 0 0 -0.00236223 -74.5108 -0.207877 0 0.00236223c-0.281106,0 -0.562212,0.030709 -0.839774,0.090946l-0.0779537 -1.05592zm81.1486 6.43945c0.00944894,0.170081 0.0153545,0.342524 0.0153545,0.517329l0.00236223 0 0 0.0803159 -0.231499 0.106301 0 -0.0803159 0.00236223 0c0,-0.173624 -0.00826782,-0.346067 -0.0259846,-0.516148 0.0814971,-0.0295279 0.160632,-0.0661425 0.237404,-0.107482z"/>
  <path class="fil19" d="M20.8444 12.495c0,-3.33075 1.82955,-5.79928 4.39139,-6.27409l0.0779537 1.05592c-1.72797,0.368508 -3.33311,1.83546 -3.98391,3.7843 -0.188979,0.565755 -0.294098,1.18466 -0.294098,1.83191l-0.191341 -0.398036z"/>
  <path class="fil20" d="M21.4833 6.52921l0.00472447 -0.00472447m-0.00472447 0.00472447l0.00472447 -0.00472447m85.5081 33.8544l0.0295279 34.0079 -0.881113 0 -0.0295279 -34.0079 0 -10.2863 0.00236223 0 0.00472447 -18.9463 0 -0.0129923 0.0070867 -0.324807c-0.00236223,-1.51537 -0.556306,-2.90437 -1.43151,-3.93194l-0.00236223 0c-0.883475,-1.04056 -2.09294,-1.71498 -3.39571,-1.80002l-0.295279 -0.0106301 -74.9005 -0.100395c-0.774813,0 -1.51419,0.21142 -2.17562,0.583472 -0.685048,0.386225 -1.28978,0.95198 -1.76695,1.64293l-0.0153545 0.0212601c-0.36969,0.479533 -0.664969,1.0323 -0.864578,1.62994 -0.19016,0.564574 -0.294098,1.18466 -0.294098,1.83191l0 23.483 0.00118112 0 0 0.524416 0 5.48983 0.030709 34.6705 -0.881113 0 -0.030709 -34.6705 0 -4.96542 -0.00236223 0 0 -0.524416 0 -24.0074c0,-0.773632 0.128742,-1.52364 0.361422,-2.21814 0.236223,-0.709851 0.585834,-1.36183 1.02167,-1.93231 0.557487,-0.807884 1.26498,-1.46931 2.06577,-1.9205 0.773632,-0.435832 1.64057,-0.681504 2.55003,-0.682686l74.9112 0.100395 0.0106301 0 0.30709 0.0106301 0.0129923 0c1.52482,0.0968516 2.93862,0.887019 3.96855,2.09884l0 0.00118112c1.03702,1.22009 1.69136,2.87248 1.69254,4.68785l0 0.0129923 -0.0070867 0.323626 -0.00590558 18.9357 0.00236223 0 0 10.2863z"/>
  <path class="fil19" d="M102.504 6.79851c2.0764,0.871664 3.56815,3.09807 3.72997,5.91385 -0.0767726,0.0413391 -0.155907,0.0779537 -0.237404,0.107482 -0.220869,-2.19688 -1.81774,-4.08548 -3.58469,-4.92053l0.0921271 -1.1008z"/>
  <path class="fil21" d="M15.7986 32.5681l97.3134 0.311815c1.43624,0.00472447 1.83309,1.17757 2.61145,2.18507l5.10361 8.69066 -1.00985 16.8061c-0.070867,1.19883 -1.17639,2.18389 -2.61145,2.18389l-106.804 0c-1.43388,0 -2.56302,-0.98387 -2.61145,-2.18389l-0.707489 -16.9644 6.10401 -8.84538c0.718119,-1.03938 1.17521,-2.18743 2.61145,-2.18389z"/>
  <path class="fil22" d="M108.924 40.3198l0.15827 1.08545 -91.6381 -0.662607 0 -24.0074c0,-1.44923 0.511424,-2.78035 1.35828,-3.81383 1.08427,-1.47403 2.7272,-2.41775 4.55675,-2.41775l79.8718 0.0543314c3.24689,0.00118112 6.12882,2.98941 6.0922,6.60244l-0.236223 23.1593 -0.162994 0z"/>
  <path class="fil23" d="M17.4451 18.3286l-0.00118112 -0.0342524 0 -1.55907c0,-1.44923 0.511424,-2.78035 1.35828,-3.81383 0.861034,-1.16931 2.07168,-2.00554 3.45004,-2.30082l0.488982 6.18905 0.865759 0.192522c-0.849223,1.78467 -5.30085,2.8524 -6.02842,1.539 -0.727568,-1.3134 -0.0850404,-0.140553 -0.133466,-0.212601z"/>
  <path class="fil23" d="M105.567 11.0871l-0.509061 5.70007 -0.864578 0.193703c0.701583,1.47403 3.39217,3.30949 5.10479,2.4579l0.0248035 -2.27837c0.0271657,-2.70594 -1.5827,-5.06227 -3.75595,-6.0733z"/>
  <path class="fil24" d="M17.4581 34.5453l-0.0129923 -14.7321c0,-1.44923 0.511424,-2.78035 1.35828,-3.81383 1.08427,-1.47403 2.7272,-2.41775 4.55675,-2.41775l79.8718 0.0543314c3.24689,0.00118112 6.08748,2.902 6.04614,6.49614 -0.0566936,4.99612 0.270476,10.656 0.2752,15.5222l0.0366146 45.2486 -92.1094 0 -0.0354335 -45.9124c0,-0.148821 0.00354335,-0.297641 0.0129923,-0.445281z"/>
  <g id="_86349496">
   <path id="_86301752" class="fil25" d="M17.4545 23.946l92.0279 0.155907c-0.0803159,-1.55671 -0.199609,-3.1335 -0.210239,-4.70557l-91.8248 0.0685048 0.0070867 4.48116z"/>
   <g>
    <path id="_86300864" class="fil26" d="M17.4545 23.6259l92.0102 0.155907c-0.0850404,-1.55789 -0.198428,-3.13468 -0.193703,-4.70439l-91.8236 0.0685048 0.0070867 4.47998z"/>
    <path id="_86299976" class="fil27" d="M17.4534 23.3058l91.9948 0.155907c-0.0885838,-1.55789 -0.196065,-3.13587 -0.174805,-4.70321l-91.8271 0.0685048 0.0070867 4.4788z"/>
    <path id="_86195760" class="fil28" d="M17.4534 22.9869l91.9759 0.154726c-0.0885838,-1.52718 -0.184254,-3.06972 -0.151183,-4.60281l0 -0.0992138 -91.8318 0.0685048 0.0070867 4.4788z"/>
    <path id="_86195384" class="fil29" d="M17.4534 22.6668l91.957 0.155907c-0.0826782,-1.42325 -0.162994,-2.8583 -0.132285,-4.28391 0.00354335,-0.141734 -0.00944894,-0.281106 -0.0377957,-0.418115l-91.7952 0.0685048 0.00826782 4.47761z"/>
    <path id="_86194496" class="fil30" d="M17.4522 22.3467l91.9405 0.155907c-0.0755915,-1.31813 -0.142915,-2.64452 -0.114568,-3.96383 0.00590558,-0.25394 -0.040158,-0.499612 -0.131104,-0.737017l-91.6925 0.0685048 -0.00944894 0.178349 0.0070867 4.29808z"/>
    <path id="_86193624" class="fil31" d="M17.4522 22.0266l91.9216 0.155907c-0.0673237,-1.21183 -0.122836,-2.43192 -0.0956705,-3.64375 0.00826782,-0.36969 -0.0933082,-0.725206 -0.284649,-1.0571l-91.4751 0.0696859c-0.0484258,0.161813 -0.0732292,0.32835 -0.0732292,0.49725l0.0070867 3.978z"/>
    <path id="_86503184" class="fil32" d="M17.451 21.7077l91.9051 0.155907c-0.0590558,-1.10671 -0.102757,-2.21814 -0.0779537,-3.32484 0.0106301,-0.490164 -0.171262,-0.954342 -0.501975,-1.37482l-91.1314 0.0685048c-0.129923,0.259846 -0.199609,0.533865 -0.199609,0.816152l0.00590558 3.6591z"/>
    <path id="_86503224" class="fil33" d="M17.451 21.3877l91.8885 0.155907c-0.0496069,-1.00159 -0.0838593,-2.00554 -0.0614181,-3.00476 0.0129923,-0.617724 -0.277562,-1.19529 -0.788986,-1.69372l-90.6495 0.0685048c-0.255121,0.353154 -0.394493,0.734655 -0.394493,1.13505l0.00590558 3.33902z"/>
   </g>
   <path id="_86500968" class="fil34" d="M17.4498 21.0688l91.8744 0.154726c-0.0413391,-0.894105 -0.0661425,-1.79175 -0.0460636,-2.68468 0.0165356,-0.754734 -0.421659,-1.44805 -1.15868,-2.01262l-90.0106 0.0673237c-0.424021,0.435832 -0.663788,0.93072 -0.663788,1.45514l0.00472447 3.02012z"/>
  </g>
  <path class="fil35" d="M109.219 46.8407l0.030709 34.0622 -0.937807 0 -0.030709 -34.0622 0 -10.2863 0.00118112 0 0.00590558 -17.8561c0.324807,0.167719 0.640165,0.310634 0.934263,0.421659l-0.00590558 17.4345 0.00236223 0 0 10.2863zm-91.4066 34.0622l-0.0318902 -34.726 0 -4.96423 -0.00236223 0 0 -0.524416 0 -22.9456c0,-0.321264 0.0224412,-0.636622 0.0685048,-0.947256 0.302366,-0.050788 0.629535,-0.0944894 0.976784,-0.135828 -0.0696859,0.348429 -0.106301,0.711032 -0.106301,1.08308l0 22.4211 0.00236223 0 0 0.524416 0 5.48865 0.0318902 34.726 -0.938988 0z"/>
  <path class="fil36" d="M22.3833 13.1931c0.316539,-0.0555125 0.641346,-0.0838593 0.976784,-0.0838593l0 0.00236223 79.8718 0.0543314 0 -0.00236223 0.0814971 0 0.00590558 0.00236223c0.715757,0.0106301 1.39844,0.150002 2.03034,0.400399l-0.0980327 1.1008c-0.642528,-0.284649 -1.30513,-0.446462 -1.93821,-0.457092l0 0.00236223 -0.0814971 0 0 -0.00236223 -79.8718 -0.0543314 0 0.00236223c-0.298823,0 -0.597645,0.030709 -0.892924,0.090946l-0.0838593 -1.05592zm86.9373 6.28709c0.00944894,0.170081 0.0153545,0.342524 0.0153545,0.516148l0.00236223 0 0 0.0803159 -0.245672 0.107482 0 -0.0814971 0.00236223 0c0,-0.171262 -0.00944894,-0.344886 -0.0271657,-0.514967 0.0862215,-0.0295279 0.171262,-0.0661425 0.252759,-0.107482z"/>
  <path class="fil37" d="M17.7085 19.4672c0,-3.33075 1.94884,-5.79928 4.67486,-6.27409l0.0838593 1.05592c-1.84018,0.368508 -3.54808,1.83546 -4.24021,3.7843 -0.201971,0.564574 -0.312996,1.18466 -0.312996,1.83191l-0.205514 -0.398036z"/>
  <path class="fil38" d="M18.4172 12.7159l0.00354335 -0.00472447m-0.00354335 0.00472447l0.00354335 -0.00472447m91.5779 34.3103l0.030709 34.0079 -0.937807 0 -0.030709 -34.0079 0 -10.2863 0.00118112 0 0.00590558 -19.5558 0 -0.0118112 0.00826782 -0.324807c-0.00354335,-1.51655 -0.592921,-2.90437 -1.52482,-3.93194l-0.00236223 0c-0.940169,-1.04056 -2.22759,-1.71734 -3.61422,-1.80002l-0.314177 -0.0106301 -80.2864 0.0519691c-0.82442,0 -1.61222,0.21142 -2.31499,0.583472 -0.72993,0.386225 -1.37364,0.95198 -1.88152,1.64293l-0.0165356 0.0212601c-0.392131,0.478352 -0.707489,1.0323 -0.92009,1.62994 -0.201971,0.564574 -0.312996,1.18466 -0.312996,1.83191l0 23.483 0.00236223 0 0 0.524416 0 5.48983 0.0318902 34.6705 -0.937807 0 -0.0330713 -34.6705 0 -4.96542 -0.00236223 0 0 -0.524416 0 -24.0074c0,-0.773632 0.13701,-1.52482 0.385044,-2.21814 0.251578,-0.709851 0.62363,-1.36183 1.08663,-1.93231 0.594102,-0.807884 1.34647,-1.46931 2.19924,-1.9205 0.823238,-0.435832 1.74569,-0.681504 2.71421,-0.682686l80.2971 -0.0519691 0.0118112 0 0.327169 0.0106301 0.0129923 0c1.62285,0.0968516 3.12878,0.887019 4.22486,2.09884l-0.00118112 0.00118112c1.10434,1.22009 1.8012,2.87248 1.80238,4.68785l0 0.0118112 -0.0070867 0.324807 -0.00590558 19.5439 0.00236223 0 0 10.2863z"/>
  <path class="fil37" d="M105.35 13.5663c2.20987,0.871664 3.79847,3.09807 3.97092,5.91385 -0.0814971,0.0413391 -0.166537,0.0779537 -0.252759,0.107482 -0.235042,-2.19806 -1.93585,-4.08548 -3.81619,-4.92053l0.0980327 -1.1008z"/>
  <path class="fil39" d="M113.357 47.8801l0.177168 1.08545 -100.047 -0.162994 0 -24.0074c0,-1.44805 0.572842,-2.78035 1.5201,-3.81383 1.21183,-1.47403 3.04964,-2.41775 5.09534,-2.41775l86.8877 0.162994c3.63075,0.0070867 6.85402,2.98941 6.81268,6.60244l-0.263389 22.5511 -0.183073 0z"/>
  <path class="fil23" d="M13.4884 26.3885l-0.00118112 -0.0342524 0 -1.55907c0,-1.44805 0.572842,-2.78035 1.5201,-3.81383 0.961429,-1.16931 2.31617,-2.00554 3.85871,-2.29963l0.546857 6.18787 0.967335 0.192522c-0.950799,1.78467 -5.92803,2.8524 -6.74182,1.539 -0.81379,-1.3134 -0.0956705,-0.140553 -0.150002,-0.212601z"/>
  <path class="fil23" d="M109.703 19.4577l-0.569298 5.70007 -0.967335 0.193703c0.785443,1.47403 3.79493,3.30949 5.70952,2.4579l0.0271657 -2.27837c0.0318902,-2.70594 -1.77049,-5.06227 -4.20005,-6.0733z"/>
  <path class="fil40" d="M13.5037 42.6052l-0.0153545 -14.7321c0,-1.44923 0.572842,-2.77917 1.5201,-3.81383 1.21183,-1.47403 3.04964,-2.41775 5.09534,-2.41775l86.8877 0.162994c3.63075,0.00590558 6.80678,2.90082 6.76071,6.49614 -0.0637803,4.99494 0.303547,10.0478 0.308272,14.914l0.0413391 45.2486 -100.572 0.499612 -0.0413391 -45.9124c0,-0.148821 0.00472447,-0.297641 0.0153545,-0.445281z"/>
  <path class="fil37" d="M13.8356 27.1208c0,-3.33075 2.17798,-5.79928 5.22644,-6.27409l0.0944894 1.05592c-2.05751,0.368508 -3.96737,1.83546 -4.74218,3.7843 -0.225593,0.564574 -0.350792,1.18466 -0.350792,1.83191l-0.227956 -0.398036z"/>
  <path class="fil41" d="M18.9605 21.1007c0.354335,-0.0555125 0.718119,-0.0838593 1.09253,-0.0838593l0 0.00236223 86.8877 0.0625992 0 -0.00236223 0.0921271 0 0.00590558 0.00236223c0.799616,0.0106301 1.5638,0.150002 2.27129,0.400399l-0.109844 1.1008c-0.7193,-0.284649 -1.45986,-0.446462 -2.16735,-0.455911l0 0.00236223 -0.0921271 0 0 -0.00236223 -86.8877 -0.0637803 0 0.00236223c-0.334256,0 -0.668512,0.030709 -0.998044,0.090946l-0.0944894 -1.05592zm94.7894 6.39575c0.0118112,0.170081 0.0177168,0.342524 0.0177168,0.516148l0.00236223 0 0 0.0803159 -0.2752 0.107482 0 -0.0814971 0.00354335 0c0,-0.172443 -0.0106301,-0.344886 -0.0318902,-0.514967 0.0968516,-0.0295279 0.192522,-0.0661425 0.283468,-0.107482z"/>
  <path class="fil37" d="M109.259 21.507c2.4709,0.871664 4.2473,3.09807 4.43982,5.91385 -0.090946,0.0413391 -0.186616,0.0779537 -0.283468,0.107482 -0.262208,-2.19806 -2.16381,-4.08548 -4.26619,-4.92053l0.109844 -1.1008z"/>
  <path class="fil42" d="M14.6033 20.6495l0.00472447 -0.00472447m-0.00472447 0.00472447l0.00472447 -0.00472447m99.3721 33.8107l0.0342524 34.0079 -1.04883 0 -0.0342524 -34.0079 0 -10.2863 0.00236223 0 0.00590558 -18.9475 0 -0.0118112 0.00944894 -0.325988c-0.00472447,-1.51537 -0.663788,-2.90319 -1.70553,-3.93076l-0.00236223 0c-1.05119,-1.04056 -2.50397,-1.78112 -4.05359,-1.86498l-0.351973 -0.00944894 -86.733 0.0070867c-0.921271,0 -1.80238,0.21142 -2.58901,0.583472 -0.816152,0.386225 -1.53545,0.95198 -2.10357,1.64293l-0.0188979 0.0212601c-0.439375,0.478352 -0.792529,1.0323 -1.02875,1.62994 -0.225593,0.564574 -0.350792,1.18466 -0.350792,1.83191l0 23.483 0.00236223 0 0 0.524416 0 5.48983 0.0366146 34.6705 -1.04883 0 -0.0366146 -34.6705 0 -4.96542 -0.00236223 0 0 -0.524416 0 -24.0074c0,-0.773632 0.152364,-1.52482 0.429927,-2.21814 0.281106,-0.709851 0.696859,-1.36183 1.21537,-1.93231 0.664969,-0.807884 1.50592,-1.46813 2.46027,-1.9205 0.918909,-0.435832 1.95121,-0.681504 3.03429,-0.682686l86.7459 -0.0070867 0.0118112 0 0.366146 0.00944894 0.0153545 0c1.8142,0.0980327 3.51028,0.95198 4.73628,2.16381l-0.00118112 0.00118112c1.23545,1.22009 2.01499,2.87248 2.01617,4.68785l0 0.0118112 -0.00944894 0.324807 -0.00590558 18.9357 0.00236223 0 0 10.2863z"/>
  <g id="_86431656">
   <path id="_86915576" class="fil43" d="M9.98752 33.8307l105.486 -0.764183c0.0212601,4.42919 0.320083,8.88082 0.325988,13.186l0.00590558 7.08316 -105.815 -0.340162 -0.0070867 -7.40678c0,-0.148821 0.00590558,-0.297641 0.0153545,-0.445281l-0.0106301 -11.3127z"/>
   <g>
    <path id="_86589592" class="fil44" d="M9.98871 35.2008l105.501 -0.765364c0.0649614,3.97564 0.304728,7.95482 0.309453,11.8171l0.0070867 8.45089 -105.815 -0.341343 -0.00826782 -8.77334c0,-0.148821 0.00590558,-0.297641 0.0153545,-0.445281l-0.00944894 -9.94264z"/>
    <path id="_86551408" class="fil45" d="M9.98989 36.5686l105.528 -0.764183c0.0874027,3.51855 0.276381,7.03001 0.281106,10.4482l0.00826782 9.81626 -105.815 -0.340162 -0.00944894 -10.1399c0,-0.148821 0.00590558,-0.297641 0.0153545,-0.445281l-0.00826782 -8.57491z"/>
    <path id="_86456696" class="fil46" d="M9.99107 37.9387l105.565 -0.765364c0.0956705,3.05909 0.240948,6.10401 0.24331,9.07925l0.00944894 11.1828 -105.815 -0.340162 -0.0106301 -11.5064c0,-0.148821 0.00590558,-0.297641 0.0153545,-0.445281l-0.0070867 -7.20481z"/>
    <path id="_86532608" class="fil47" d="M9.99225 39.3076l105.61 -0.765364c0.0897649,2.59846 0.194884,5.1792 0.197247,7.71033l0.0106301 12.5482 -105.815 -0.340162 -0.0118112 -12.8718c0,-0.148821 0.00590558,-0.297641 0.0153545,-0.445281l-0.00590558 -5.8359z"/>
    <path id="_86549608" class="fil48" d="M9.99343 40.6777l105.656 -0.764183c0.0755915,2.1331 0.14764,4.2532 0.150002,6.33905l0.0129923 13.9159 -105.816 -0.340162 -0.0129923 -14.2395c0,-0.148821 0.00590558,-0.297641 0.0153545,-0.445281l-0.00472447 -4.4658z"/>
    <path id="_86374528" class="fil49" d="M9.99461 42.0466l105.703 -0.765364c0.0555125,1.67128 0.100395,3.33193 0.101576,4.97132l0.0141734 15.2813 -105.816 -0.338981 -0.0141734 -15.6061c0,-0.148821 0.00590558,-0.297641 0.0153545,-0.445281l-0.00354335 -3.09689z"/>
    <path id="_86064408" class="fil50" d="M9.99697 43.4167l105.743 -0.765364c0.0330713,1.20828 0.0578747,2.41066 0.0590558,3.60123l0.0153545 16.6478 -105.816 -0.340162 -0.0153545 -16.9715c0,-0.148821 0.00590558,-0.297641 0.0153545,-0.445281l-0.00118112 -1.72679z"/>
    <path id="_86567856" class="fil51" d="M9.99815 44.7844l105.775 -0.765364c0.0153545,0.748828 0.0248035,1.49293 0.0259846,2.23349l0.0165356 18.0144 -105.816 -0.340162 -0.0165356 -18.338c0,-0.148821 0.00590558,-0.297641 0.0153545,-0.445281l0 -0.35906z"/>
   </g>
   <polygon id="_86431680" class="fil52" points="9.9828,46.1545 115.793,45.388 115.799,46.2525 115.817,65.6323 10.0005,65.2921 "/>
  </g>
  <path class="fil53" d="M7.37962 59.0322l0.186616 -9.57059c0,-1.06064 0.500794,-2.03388 1.32876,-2.79098 1.06064,-1.07718 2.66814,-1.76813 4.45754,-1.76813l101.86 -0.0248035c3.17602,-0.00118112 5.95992,2.11538 5.91385,4.75163 -0.0637803,3.66028 0.0696859,6.14063 0.0696859,9.70406l0 61.5315c0,2.64334 -2.54885,4.83549 -5.65401,4.83549 -37.2418,0 -39.0017,0.0248035 -102.521,0.0248035 -3.10516,0 -5.65401,-2.17562 -5.65401,-4.83549l0 -61.5315c0,-0.109844 0.00354335,-0.218507 0.0129923,-0.325988z"/>
  <path class="fil54" d="M10.01 52.8798l0.985051 0 0 72.5218c-0.346067,-0.114568 -0.675599,-0.257483 -0.985051,-0.425202l0 -72.0966zm111.105 0c0.020079,2.12247 0.0803159,4.03942 0.0803159,6.45362l0 61.5315c0,0.492526 -0.0885838,0.968516 -0.251578,1.41734l0 -69.4024 0.171262 0zm-2.19097 71.8473c-0.305909,0.197247 -0.636622,0.368508 -0.985051,0.510242l0 -72.3576 0.985051 0 0 71.8473zm-2.95515 0.959067c-0.140553,0.00944894 -0.283468,0.0141734 -0.427564,0.0141734l-0.557487 0 0 -72.8206 0.985051 0 0 72.8064zm-3.00476 0.0141734l-0.985051 0 0 -72.8206 0.985051 0 0 72.8206zm-3.00594 0l-0.985051 0 0 -72.8206 0.985051 0 0 72.8206zm-3.00476 0l-0.985051 0.00118112 0 -72.8218 0.985051 0 0 72.8206zm-2.97878 0.00118112l-0.985051 0 0 -71.3442 0.985051 0 0 71.3442zm-3.00476 0l-0.985051 0 0 -71.3442 0.985051 0 0 71.3442zm-3.00594 0.00118112l-0.985051 0 0 -71.3454 0.985051 0 0 71.3454zm-3.00476 0.00118112l-0.985051 0 0 -71.3465 0.985051 0 0 71.3465zm-2.95515 0.00118112l-0.985051 0 0 -71.3477 0.985051 0 0 71.3477zm-3.00476 0l-0.985051 0.00118112 0 -71.3489 0.985051 0 0 71.3477zm-3.00594 0.00236223l-0.985051 0 0 -71.3501 0.985051 0 0 71.3501zm-3.00476 0.00118112l-0.985051 0 0 -71.3513 0.985051 0 0 71.3513zm-3.02956 0.00118112l-0.985051 0.00118112 0 -70.7265 0.985051 0 0 70.7253zm-3.00476 0.00236223l-0.985051 0 0 -70.7276 0.985051 0 0 70.7276zm-3.00594 0l-0.985051 0.00118112 0 -70.7288 0.985051 0 0 70.7276zm-3.00476 0.00236223l-0.985051 0 0 -70.73 0.985051 0 0 70.73zm-2.95515 0.00118112l-0.985051 0 0 -70.7312 0.985051 0 0 70.7312zm-3.00476 0.00118112l-0.985051 0 0 -70.7324 0.985051 0 0 70.7324zm-3.00594 0.00118112l-0.985051 0 0 -70.7335 0.985051 0 0 70.7335zm-3.00476 0.00118112l-0.985051 0 0 -70.7347 0.985051 0 0 70.7347zm-2.97641 0.00118112l-0.985051 0 0 -73.4667 0.985051 0 0 73.4667zm-3.00476 0l-0.985051 0 0 -73.4667 0.985051 0 0 73.4667zm-3.00594 0.00118112l-0.985051 0 0 -73.4678 0.985051 0 0 73.4678zm-3.00476 0l-0.985051 0 0 -73.4678 0.985051 0 0 73.4678zm-2.95515 0.00118112l-0.985051 0 0 -73.469 0.985051 0 0 73.469zm-3.00476 0l-0.985051 0 0 -73.469 0.985051 0 0 73.469zm-3.00594 0.00118112l-0.985051 0 0 -73.4702 0.985051 0 0 73.4702zm-3.00476 0l-0.985051 0 0 -73.4702 0.985051 0 0 73.4702zm-3.02956 0l-0.985051 0 0 -72.8442 0.985051 0 0 72.8442zm-3.00476 0l-0.985051 0.00118112 0 -72.8454 0.985051 0 0 72.8442zm-3.00594 0.00118112l-0.985051 0 0 -72.8454 0.985051 0 0 72.8454zm-3.00476 0l-0.985051 0 0 -72.8454 0.985051 0 0 72.8454zm-2.95515 0l-0.985051 0 0 -72.8454 0.985051 0 0 72.8454zm-3.00476 0l-0.985051 0 0 -72.8454 0.985051 0 0 72.8454zm-3.00594 0l-0.979146 0 -0.00590558 0 0 -72.8454 0.985051 0 0 72.8454z"/>
  <path class="fil55" d="M7.85915 45.6325c0.161813,-0.203152 0.342524,-0.395674 0.53977,-0.577566 0.588196,-0.597645 1.33348,-1.08663 2.17562,-1.42088 0.811427,-0.321264 1.7138,-0.501975 2.65515,-0.501975l0 0.00236223 102.002 -0.0248035 0.00354335 0 0.127561 0.00118112 0.00472447 0c1.66774,0.0283468 3.23272,0.60237 4.3784,1.51419 0.377957,0.301185 0.712213,0.638984 0.992138,1.00749l-1.34884 0c-0.0850404,-0.0779537 -0.173624,-0.152364 -0.26457,-0.225593 -0.982689,-0.781899 -2.33152,-1.27443 -3.77367,-1.29923l-0.122836 -0.00118112 -101.999 0.0248035 0 0.00236223c-0.820876,0 -1.59805,0.153545 -2.28664,0.426383 -0.651977,0.258665 -1.23663,0.627173 -1.70908,1.07245l-1.37482 0zm112.805 76.9616c-0.225593,0.284649 -0.483077,0.5504 -0.766545,0.792529 -1.11616,0.954342 -2.65279,1.55199 -4.3347,1.55199 -22.0385,0 -28.3669,0.00472447 -36.3949,0.0070867 -16.1317,0.0070867 -34.7898,0.0177168 -66.2725,0.0177168 -1.68309,0 -3.22209,-0.594102 -4.33942,-1.55081 -0.291736,-0.249216 -0.553944,-0.523235 -0.784262,-0.818514l1.36537 0 0.0685048 0.060237c0.94135,0.805522 2.25003,1.3075 3.68981,1.3075 40.8525,0 54.4436,-0.0070867 66.2725,-0.0129923l36.3949 -0.0118112c1.43742,0 2.74373,-0.503156 3.68508,-1.30868l0.040158 -0.0342524 1.376 0z"/>
  <path class="fil56" d="M7.96073 58.8633l0.188979 -9.59539 -0.00236223 0c0,-0.594102 0.140553,-1.17049 0.392131,-1.70317l0 -0.00236223c0.25394,-0.532684 0.629535,-1.02639 1.0949,-1.45632 0.588196,-0.597645 1.33348,-1.08663 2.17562,-1.42088 0.811427,-0.321264 1.7138,-0.501975 2.65515,-0.501975l0 0.00236223 100.009 -0.0248035 0.00354335 0 0.127561 0.00118112 0.00472447 0c1.66774,0.0283468 3.23272,0.60237 4.3784,1.51419 1.17994,0.938988 1.93231,2.24176 1.93231,3.69453l0 0.0661425 -0.00236223 0.00826782c-0.0366146,2.15554 -0.00590558,3.90832 0.0248035,5.70952 0.0224412,1.32994 0.0472447,2.68704 0.0472447,4.03942l0 61.4334c0,1.34293 -0.582291,2.57956 -1.539,3.52445l-1.61222 0c0.23268,-0.141734 0.450006,-0.300004 0.650795,-0.472447 0.923633,-0.788986 1.49884,-1.87325 1.49884,-3.05201l0 -61.4334c0,-1.59805 -0.0212601,-2.82523 -0.0425202,-4.02288 -0.0318902,-1.80711 -0.0625992,-3.56579 -0.0248035,-5.73432l-0.00236223 0 0 -0.0661425c0,-1.13033 -0.604732,-2.15908 -1.55199,-2.91263 -0.982689,-0.781899 -2.33152,-1.27443 -3.77367,-1.29923l-0.122836 -0.00118112 -100.005 0.0248035 0 0.00236223c-0.820876,0 -1.59805,0.153545 -2.28664,0.426383 -0.713395,0.283468 -1.34411,0.696859 -1.839,1.20001l-0.0188979 0.0177168c-0.374414,0.343705 -0.675599,0.737017 -0.878751,1.1634l-0.00118112 0c-0.186616,0.396855 -0.291736,0.827963 -0.291736,1.27561l-0.00236223 0.00944894 -0.188979 9.62256 0 0.0177168 -0.00944894 0.162994 -0.00354335 0.13701 0.00236223 0 0 61.4346c0,1.18348 0.574023,2.26656 1.49411,3.05319 0.188979,0.161813 0.393312,0.311815 0.609456,0.446462l-1.59569 0c-0.938988,-0.940169 -1.50947,-2.16381 -1.50947,-3.49965l0 -61.4346 0.00236223 -0.00944894 0.00354335 -0.164175 0 -0.0177168 0.00944894 -0.162994z"/>
  <path class="fil57" d="M6.97686 58.8633l0.188979 -9.59539 -0.00236223 0c0,-0.594102 0.140553,-1.17049 0.392131,-1.70317l0 -0.00236223c0.25394,-0.532684 0.629535,-1.02639 1.0949,-1.45632 0.588196,-0.597645 1.33348,-1.08663 2.17562,-1.42088 0.811427,-0.321264 1.7138,-0.501975 2.65515,-0.501975l0 0.00236223 102.002 -0.0248035 0.00354335 0 0.127561 0.00118112 0.00472447 0c1.66774,0.0283468 3.23272,0.60237 4.3784,1.51419 1.17994,0.938988 1.93231,2.24176 1.93231,3.69453l0 0.0661425 -0.00236223 0.00826782c-0.0366146,2.15554 -0.00590558,3.90832 0.0248035,5.70952 0.0224412,1.32994 0.0472447,2.68704 0.0472447,4.03942l0 61.4334c0,1.48348 -0.709851,2.83586 -1.85081,3.81028 -1.11616,0.954342 -2.65279,1.55199 -4.3347,1.55199 -22.0385,0 -28.3669,0.00472447 -36.3949,0.0070867 -16.1317,0.0070867 -34.7898,0.0177168 -66.2725,0.0177168 -1.68309,0 -3.22209,-0.594102 -4.33942,-1.55081 -1.13742,-0.97324 -1.84609,-2.32326 -1.84609,-3.81146l0 -61.4346 0.00236223 -0.00944894 0.00354335 -0.164175 0 -0.0177168 0.00944894 -0.162994zm1.18584 -9.58594l-0.188979 9.62256 0 0.0177168 -0.00944894 0.162994 -0.00354335 0.13701 0.00236223 0 0 61.4346c0,1.18348 0.574023,2.26656 1.49411,3.05319 0.94135,0.805522 2.25003,1.3075 3.68981,1.3075 40.8525,0 54.4436,-0.0070867 66.2725,-0.0129923l36.3949 -0.0118112c1.43742,0 2.74373,-0.503156 3.68508,-1.30868 0.923633,-0.788986 1.49884,-1.87325 1.49884,-3.05201l0 -61.4334c0,-1.59805 -0.0212601,-2.82523 -0.0425202,-4.02288 -0.0318902,-1.80711 -0.0625992,-3.56579 -0.0248035,-5.73432l-0.00236223 0 0 -0.0661425c0,-1.13033 -0.604732,-2.15908 -1.55199,-2.91263 -0.982689,-0.781899 -2.33152,-1.27443 -3.77367,-1.29923l-0.122836 -0.00118112 -101.999 0.0248035 0 0.00236223c-0.820876,0 -1.59805,0.153545 -2.28664,0.426383 -0.713395,0.283468 -1.34411,0.696859 -1.839,1.20001l-0.0188979 0.0177168c-0.374414,0.343705 -0.675599,0.737017 -0.878751,1.1634l-0.00118112 0c-0.186616,0.396855 -0.291736,0.827963 -0.291736,1.27561l-0.00236223 0.00944894z"/>
  <g id="_86534224">
   <polygon id="_86537944" class="fil43" points="7.23788,74.9112 121.979,75.5442 121.979,57.5145 7.23788,57.7956 "/>
   <g>
    <path id="_86437192" class="fil44" d="M7.23907 74.1541c38.2469,0.199609 76.4927,0.400399 114.74,0.60237 0,-5.71542 0,-11.4273 0,-17.1415 -38.2469,0.0897649 -76.4927,0.178349 -114.74,0.266932 0,5.42487 0,10.8474 0,16.2722z"/>
    <path id="_86565944" class="fil45" d="M7.23907 73.3993c38.2469,0.188979 76.4927,0.38032 114.74,0.570479 0,-5.41896 0,-10.8344 0,-16.2533 -38.2469,0.0850404 -76.4927,0.1689 -114.74,0.252759 0,5.14495 0,10.2863 0,15.4301z"/>
    <path id="_86308576" class="fil46" d="M7.23907 72.6446c38.2469,0.17953 76.4927,0.35906 114.74,0.53977 0,-5.12369 0,-10.2438 0,-15.3663 -38.2469,0.0803159 -76.4927,0.159451 -114.74,0.238586 0,4.86384 0,9.72414 0,14.588z"/>
    <path id="_86463880" class="fil47" d="M7.23907 71.891c38.2469,0.1689 76.4927,0.338981 114.74,0.509061 0,-4.82841 0,-9.65209 0,-14.4793 -38.2469,0.0755915 -76.4927,0.150002 -114.74,0.224412 0,4.58273 0,9.1631 0,13.7458z"/>
    <path id="_86333984" class="fil48" d="M7.23907 71.1351c38.2469,0.15827 76.4927,0.31772 114.74,0.477171 0,-4.53076 0,-9.06035 0,-13.5923 -38.2469,0.070867 -76.4927,0.141734 -114.74,0.212601 0,4.30163 0,8.60089 0,12.9025z"/>
    <path id="_86142656" class="fil49" d="M7.23907 70.3816c38.2469,0.14764 76.4927,0.297641 114.74,0.446462 0,-4.23549 0,-8.46861 0,-12.7053 -38.2469,0.0661425 -76.4927,0.132285 -114.74,0.198428 0,4.02052 0,8.03986 0,12.0604z"/>
    <path id="_86555848" class="fil50" d="M7.23907 69.6268c38.2469,0.138191 76.4927,0.276381 114.74,0.415753 0,-3.94021 0,-7.87805 0,-11.8183 -38.2469,0.0614181 -76.4927,0.122836 -114.74,0.184254 0,3.73942 0,7.47765 0,11.2182z"/>
    <path id="_86552232" class="fil51" d="M7.23907 68.8721c38.2469,0.127561 76.4927,0.256302 114.74,0.383863 0,-3.64375 0,-7.28513 0,-10.9301 -38.2469,0.0566936 -76.4927,0.113387 -114.74,0.170081 0,3.45949 0,6.91662 0,10.3761z"/>
   </g>
   <polygon id="_86534248" class="fil52" points="7.23788,68.1186 121.979,68.4717 121.979,58.4275 7.23788,58.5834 "/>
  </g>
  <path class="fil58" d="M7.53907 48.0289c0,-1.06537 0.504337,-2.04451 1.33702,-2.80515 1.06537,-1.08427 2.68114,-1.77876 4.48116,-1.77876l101.219 0c3.19374,0 5.99417,2.12483 5.94574,4.77762"/>
  <path class="fil59" d="M7.0619 82.9924l16.6219 0 0 0.895287c-0.297641,1.30159 -0.953161,3.8906 -1.55317,4.4162 -0.807884,0.70867 -0.504337,1.92286 0.101576,2.83468 0.605913,0.911822 0.90946,3.54453 0.90946,3.54453l0.251578 6.07567 0.239767 -0.121655 0 0.329532 -16.6219 0 0.050788 -17.9742z"/>
  <path class="fil59" d="M7.0619 82.9924l16.6219 0 0 0.895287 -0.050788 0.219688 0 -0.153545 -16.5734 0 0.00236223 -0.961429zm14.6187 6.8552c0.0826782,0.442919 0.289374,0.895287 0.551582,1.29096 0.605913,0.911822 0.90946,3.54453 0.90946,3.54453l0.251578 6.07567 0.239767 -0.121655 0 0.329532 -0.321264 0 -0.220869 -5.32211c0,0 -0.303547,-2.63271 -0.90946,-3.54453 -0.461817,-0.694497 -0.747647,-1.56498 -0.500794,-2.25239z"/>
  <path class="fil60" d="M23.229 83.0172l0.45473 -0.0248035 0 0.895287c-0.297641,1.30159 -0.953161,3.8906 -1.55317,4.4162 -0.807884,0.70867 -0.504337,1.92286 0.101576,2.83468 0.605913,0.911822 0.90946,3.54453 0.90946,3.54453l0.251578 6.07567 0.239767 -0.121655 0 0.329532 -0.707489 0 -2.51342 -0.0177168 2.63389 -1.76813 -0.207877 -4.49769c0,0 -0.707489,-2.63271 -1.3134,-3.54453 -0.605913,-0.911822 -0.805522,-2.21814 -0.101576,-2.83468 0.703946,-0.616543 1.20474,-1.46931 1.50238,-2.7709l0.303547 -2.51578z"/>
  <path class="fil61" d="M121.305 50.0274l5.48629 10.4552c0.364965,2.84295 -0.32835,4.57328 -1.77994,4.63234 -40.81,0 -81.6211,0 -122.43,0 -0.467722,-0.0129923 -1.09608,-0.125198 -1.47049,-0.445281 -0.224412,-0.191341 -0.262208,-3.14531 -0.220869,-3.51382l5.70834 -11.1285 114.707 0z"/>
  <path class="fil62" d="M4.12682 61.4949l0 2.50633 -0.985051 0 0 -2.50633 0.985051 0zm122.807 0.203152c-0.122836,0.95198 -0.445281,1.63703 -0.938988,2.00081l0 -2.00081 0.938988 0zm-2.9587 2.30318l-0.985051 0 0 -2.30318 0.985051 0 0 2.30318zm-2.95515 0l-0.985051 0 0 -2.30318 0.985051 0 0 2.30318zm-3.00476 0l-0.985051 0 0 -2.30318 0.985051 0 0 2.30318zm-3.00594 0l-0.985051 0 0 -2.30318 0.0519691 0 0 -0.203152 0.251578 0 0 0.203152 0.681504 0 0 2.30318zm-2.95279 0l-1.03702 0 0 -2.30318 0.0519691 0 0 -0.203152 0.985051 0 0 2.50633zm-2.95515 0l-0.985051 0 0 -2.50633 0.985051 0 0 2.50633zm-3.00476 0l-0.985051 0 0 -2.50633 0.985051 0 0 2.50633zm-3.00594 0l-0.985051 0 0 -2.50633 0.985051 0 0 2.50633zm-3.00476 0l-0.985051 0 0 -2.50633 0.985051 0 0 2.50633zm-2.97878 0l-0.985051 0 0 -2.50633 0.985051 0 0 2.50633zm-3.00476 0l-0.985051 0 0 -2.50633 0.985051 0 0 2.50633zm-3.00594 0l-0.985051 0 0 -2.50633 0.985051 0 0 2.50633zm-3.00476 0l-0.985051 0 0 -2.50633 0.985051 0 0 2.50633zm-2.95515 0l-0.985051 0 0 -2.50633 0.985051 0 0 2.50633zm-3.00476 0l-0.985051 0 0 -2.50633 0.985051 0 0 2.50633zm-3.00594 0l-0.985051 0 0 -2.50633 0.985051 0 0 2.50633zm-3.00476 0l-0.985051 0 0 -2.50633 0.985051 0 0 2.50633zm-3.02956 0l-0.985051 0 0 -2.50633 0.985051 0 0 2.50633zm-3.00476 0l-0.985051 0 0 -2.50633 0.985051 0 0 2.50633zm-3.00594 0l-0.985051 0 0 -2.50633 0.985051 0 0 2.50633zm-3.00476 0l-0.985051 0 0 -2.50633 0.985051 0 0 2.50633zm-2.95515 0l-0.985051 0 0 -2.50633 0.985051 0 0 2.50633zm-3.00476 0l-0.985051 0 0 -2.50633 0.985051 0 0 2.50633zm-3.00594 0l-0.985051 0 0 -2.50633 0.985051 0 0 2.50633zm-3.00476 0l-0.985051 0 0 -2.50633 0.985051 0 0 2.50633zm-2.97641 0l-0.985051 0 0 -2.50633 0.985051 0 0 2.50633zm-3.00476 0l-0.985051 0 0 -2.50633 0.985051 0 0 2.50633zm-3.00594 0l-0.985051 0 0 -2.50633 0.985051 0 0 2.50633zm-3.00476 0l-0.985051 0 0 -2.50633 0.985051 0 0 2.50633zm-2.95515 0l-0.985051 0 0 -2.50633 0.985051 0 0 2.50633zm-3.00476 0l-0.985051 0 0 -2.50633 0.985051 0 0 2.50633zm-3.00594 0l-0.985051 0 0 -2.50633 0.985051 0 0 2.50633zm-3.00476 0l-0.985051 0 0 -2.50633 0.985051 0 0 2.50633zm-3.02956 0l-0.985051 0 0 -2.50633 0.985051 0 0 2.50633zm-3.00476 0l-0.985051 0 0 -2.50633 0.985051 0 0 2.50633zm-3.00594 0l-0.985051 0 0 -2.50633 0.985051 0 0 2.50633zm-3.00476 0l-0.985051 0 0 -2.50633 0.985051 0 0 2.50633zm-2.95515 0l-0.985051 0 0 -2.50633 0.985051 0 0 2.50633zm-3.00476 0l-0.985051 0 0 -2.50633 0.985051 0 0 2.50633zm-3.00594 0l-0.985051 0 0 -2.50633 0.985051 0 0 2.50633z"/>
  <path class="fil63" d="M121.407 43.9505l5.48629 17.2408c-0.0389769,0.868121 -0.32835,1.63585 -1.77994,1.6949 -40.81,0 -81.6211,0 -122.43,0 -0.748828,-0.020079 -1.9016,-0.292917 -1.79175,-1.27561l5.80873 -17.6601 114.707 0z"/>
  <path class="fil63" d="M121.407 43.9505l5.48629 17.2408c-0.0389769,0.868121 -0.32835,1.63585 -1.77994,1.6949 -40.81,0 -81.6211,0 -122.43,0 -0.748828,-0.020079 -1.9016,-0.292917 -1.79175,-1.27561l5.80873 -17.6601 114.707 0z"/>
  <polygon class="fil64" points="65.1103,117.201 85.7314,97.9323 76.0297,97.9323 75.0753,97.9323 75.0753,97.6607 88.8755,97.6607 88.8873,97.6914 65.7421,119.188 65.1103,119.745 64.4784,119.188 40.1769,97.6914 40.1887,97.6607 53.1833,97.6607 53.1833,97.9323 52.2266,97.9323 43.3316,97.9323 "/>
  <path class="fil65" d="M65.1103 118.473l23.144 -21.4963 -12.2257 0 0.00118112 -13.9277 -24.005 0 0 13.9277 -11.2159 0 24.3015 21.4963zm-13.049 -38.358l24.0086 0 0.0637803 -7.18946 -24.0086 0 -0.0637803 7.18946z"/>
  <path class="fil66" d="M88.6216 98.0185l1.17994 -1.04175 -13.7718 0 0 1.04175 12.5919 0zm-12.5907 -13.9277l0 -1.04175 -23.8042 0 0 1.04175 23.8042 0zm-23.8042 12.886l-11.4179 0 1.17994 1.04175 10.2379 0 0 -1.04175zm-0.214963 -17.216l0.0141734 0 0.0980327 -5.79338 23.9944 0 0.0153545 -1.04175 -24.0097 0 -0.112206 6.83512z"/>
  <polygon class="fil67" points="52.0506,79.9935 76.0757,79.9935 76.0757,80.9514 52.0506,80.9514 "/>
  <path class="fil59" d="M121.982 82.9924l-17.9542 0 0 0.788986c0.584653,0.675599 1.38427,1.46813 2.10475,3.80556 0.376776,1.22482 -1.2508,2.23231 -1.19175,3.85635 0.109844,2.93626 0.999225,6.39929 0.437013,8.91035 -0.0212601,0.0944894 -0.0555125,0.20079 -0.0968516,0.309453l16.701 0 0 -17.6707z"/>
  <path class="fil60" d="M108.297 82.9924l-4.26856 0 0 0.788986c0.584653,0.675599 1.38427,1.46813 2.10475,3.80556 0.376776,1.22482 -1.29923,2.23113 -1.19175,3.85635 0.196065,2.93389 0.905917,6.39811 0.437013,8.91035 -0.0177168,0.0956705 -0.0555125,0.20079 -0.0968516,0.309453l0.807884 0c0.0413391,-0.108663 0.0744104,-0.214963 0.0968516,-0.309453 0.596464,-2.50987 -0.230318,-5.97527 -0.437013,-8.91035 -0.113387,-1.62522 1.56852,-2.63271 1.19175,-3.85635 -0.7193,-2.33743 1.94058,-3.12996 1.35592,-3.80556l0 -0.788986z"/>
  <path class="fil68" d="M53.0912 42.9324l10.9867 0.0295279 10.9867 -0.0295279 0 0.0590558 41.6273 0.115749 0.354335 0c0.929539,0.00236223 0.8882,0.196065 0.420478,-0.577566l-2.87956 -5.67999 0 -3.03311 5.92803 8.82294c0.861034,1.26616 1.53309,1.53781 -0.68741,2.06932l-0.309453 0.479533 -0.565755 -0.00236223 -54.8747 -0.14764 -54.8747 0.14764 -0.565755 0.00236223 -0.309453 -0.479533c-2.2205,-0.531503 -1.54844,-0.803159 -0.68741,-2.06932l5.32211 -7.92057 0 2.57838 -2.87956 5.23235c-0.467722,0.773632 -0.509061,0.579928 0.420478,0.577566l0.354335 0 42.2332 -0.115749 0 -0.0590558z"/>
  <polygon class="fil69" points="11.6765,36.6335 12.9628,34.7189 12.9628,37.2973 11.6765,39.6347 "/>
  <path class="fil70" d="M121.407 43.9505l5.48629 17.2408c-0.0389769,0.868121 -0.32835,1.63585 -1.77994,1.6949 -40.81,0 -81.6211,0 -122.43,0 -0.748828,-0.020079 -1.9016,-0.292917 -1.79175,-1.27561l5.80873 -17.6601 114.707 0z"/>
  <path class="fil71" d="M121.407 43.9505l5.48629 17.2408c-0.0389769,0.868121 -0.32835,1.63585 -1.77994,1.6949 -40.81,0 -81.6211,0 -122.43,0 -0.748828,-0.020079 -1.9016,-0.292917 -1.79175,-1.27561l0.00944894 -0.0283468c0.38032,0.282287 0.96261,0.381501 1.40435,0.393312 40.8088,0 81.6199,0 122.43,0 1.45159,-0.0590558 1.74097,-0.826782 1.77994,-1.6949l-5.19691 -16.3301 0.0885838 0z"/>
  <g id="_86099000">
   <path id="_86345808" class="fil72" d="M13.2639 125.725c0.0933082,-0.680323 0.295279,-1.34529 0.635441,-1.97837 2.82877,-5.2666 8.48396,-24.5058 32.1205,-28.557 16.5805,-2.84177 21.0321,17.236 18.5872,30.5271 -11.6753,0.00472447 -26.9354,0.00826782 -51.3432,0.00826782z"/>
   <g>
    <path id="_86322176" class="fil73" d="M13.4742 125.725c0.0661425,-0.709851 0.256302,-1.40317 0.608275,-2.05987 2.57602,-4.79533 8.29498,-23.1983 29.8149,-26.8869 15.6947,-2.69058 19.2085,17.0057 16.2522,28.9397l-46.6754 0.0070867z"/>
    <path id="_86146744" class="fil74" d="M13.6951 125.725c0.030709,-0.738198 0.203152,-1.46222 0.568117,-2.14136 2.32208,-4.32289 8.10601,-21.892 27.5106,-25.2168 14.8596,-2.54767 17.3164,16.9585 13.7777,27.3535l-41.8564 0.00472447z"/>
    <path id="_46686104" class="fil75" d="M13.9325 125.725c-0.0129923,-0.765364 0.133466,-1.52128 0.510242,-2.22168 2.06932,-3.85162 7.91821,-20.5845 25.205,-23.5479 14.1321,-2.42129 15.299,17.2797 11.0564,25.7661l-36.7717 0.00354335z"/>
    <path id="_86050544" class="fil76" d="M14.1935 125.725c-0.0673237,-0.792529 0.0425202,-1.58033 0.429927,-2.302 1.81656,-3.38036 7.72923,-19.277 22.8995,-21.8778 13.7092,-2.34924 13.0053,18.6652 7.76821,24.1775l-31.0976 0.00236223z"/>
    <path id="_86048600" class="fil77" d="M14.4888 125.725c-0.13701,-0.814971 -0.0803159,-1.63821 0.318902,-2.38113 1.56144,-2.90909 7.53907,-17.9719 20.594,-20.2089 13.0549,-2.23822 10.2072,19.6514 4.40438,21.3298 -0.934263,0.270476 -1.88506,0.716938 -2.86893,1.25907l-22.4483 0.00118112z"/>
    <path id="_86047784" class="fil78" d="M14.823 125.725c-0.223231,-0.829144 -0.245672,-1.69608 0.165356,-2.46145 1.30868,-2.43783 7.35009,-16.6644 18.2884,-18.5388 10.9383,-1.87561 7.72332,15.886 2.86185,17.2916 -1.78231,0.514967 -3.66737,2.09176 -5.77802,3.70753l-15.5376 0.00118112z"/>
    <path id="_86490184" class="fil79" d="M15.2234 125.725c-0.330713,-0.82442 -0.480715,-1.75042 -0.0555125,-2.54176 1.05592,-1.96656 7.16229,-15.3569 15.9829,-16.8699 8.82294,-1.51183 5.23943,12.1206 1.31931,13.2545 -2.0953,0.604732 -4.43746,3.77485 -7.25678,6.15716l-9.98989 0z"/>
    <path id="_86574352" class="fil80" d="M15.7313 125.725c-0.435832,-0.748828 -0.832687,-1.78585 -0.382682,-2.62326 0.801978,-1.49411 6.97331,-14.0506 13.6785,-15.1998 6.7052,-1.14923 2.75555,8.35522 -0.225593,9.21626 -2.07286,0.598826 -4.61226,6.06858 -7.79773,8.6068l-5.27251 0z"/>
   </g>
   <path id="_86099024" class="fil81" d="M16.2722 125.502c0,0 -1.2945,-1.45514 -0.745285,-2.4768 0.549219,-1.02285 6.78434,-12.7431 11.373,-13.5297 4.58982,-0.786624 0.271657,4.58864 -1.76813,5.17802 -2.03979,0.589377 -5.13313,12.3226 -8.85956,10.8285z"/>
  </g>
  <g id="_86485200">
   <path id="_85831584" class="fil72" d="M115.93 126.46c0,0 7.5745,-2.02207 4.36068,-3.44414 -3.21382,-1.42206 -9.63791,-6.61662 -36.4906,-7.71033 -26.8515,-1.09371 -25.7046,10.3891 -13.7706,11.21 11.934,0.819695 24.0971,2.02207 45.9006,-0.0555125z"/>
   <g>
    <path id="_86134112" class="fil73" d="M116.116 126.129c0,0 6.89536,-1.84136 3.96973,-3.13587 -2.92563,-1.29569 -9.42295,-6.26464 -33.8721,-7.26033 -24.4456,-0.995682 -22.8806,9.37334 -12.0167,10.1198 10.8651,0.746466 22.0668,2.16735 41.919,0.276381z"/>
    <path id="_86136352" class="fil74" d="M116.3 125.797c0,0 6.21858,-1.65947 3.57997,-2.82759 -2.63862,-1.16694 -9.20917,-5.91031 -31.2524,-6.80796 -22.0432,-0.89883 -20.0613,8.35522 -10.2639,9.02964 9.79618,0.672056 20.0376,2.31145 37.9363,0.605913z"/>
    <path id="_85949632" class="fil75" d="M116.485 125.469c0,0 5.53944,-1.47876 3.18902,-2.51932 -2.35042,-1.04056 -8.99421,-5.55834 -28.6338,-6.35795 -19.6384,-0.799616 -17.2384,7.33946 -8.51113,7.93947 8.72845,0.600007 18.0085,2.45672 33.9559,0.937807z"/>
    <path id="_44565840" class="fil76" d="M116.671 125.137c0,0 4.86148,-1.29687 2.79925,-2.20987 -2.06223,-0.913003 -8.77924,-5.20518 -26.0153,-5.90795 -17.2337,-0.701583 -14.4167,6.32252 -6.75717,6.8493 7.65954,0.526778 15.9793,2.602 29.9732,1.26852z"/>
    <path id="_46549248" class="fil77" d="M116.854 124.807c0,0 4.18352,-1.11734 2.4083,-1.90278 -1.77522,-0.785443 -8.56546,-4.85203 -23.3956,-5.45558 -14.8313,-0.604732 -11.595,5.30558 -5.00439,5.75913 6.59181,0.452368 13.949,2.74728 25.9917,1.59923z"/>
    <path id="_46218776" class="fil78" d="M117.039 124.476c0,0 3.50555,-0.935445 2.01853,-1.59333 -1.48703,-0.657882 -8.3505,-4.49887 -20.777,-5.00557 -12.4265,-0.506699 -8.77334,4.28864 -3.25043,4.66896 5.5229,0.379139 11.9198,2.89256 22.0089,1.92995z"/>
    <path id="_46189456" class="fil79" d="M117.225 124.147c0,0 2.82641,-0.754734 1.62758,-1.28506 -1.19883,-0.531503 -8.13553,-4.1469 -18.1585,-4.55557 -10.0218,-0.407485 -5.95047,3.27287 -1.49766,3.57878 4.45517,0.30709 9.89067,3.03783 18.0286,2.26184z"/>
    <path id="_45175504" class="fil80" d="M117.409 123.815c0,0 2.14963,-0.572842 1.23781,-0.976784 -0.911822,-0.402761 -7.92175,-3.79257 -15.5388,-4.1032 -7.6182,-0.310634 -3.12996,2.25475 0.255121,2.48861 3.38626,0.23268 7.86151,3.18193 14.0458,2.59137z"/>
   </g>
   <path id="_46185536" class="fil81" d="M117.594 123.489c0,0 1.47049,-0.392131 0.846861,-0.668512 -0.62363,-0.276381 -7.70679,-3.44059 -12.9202,-3.65319 -5.21345,-0.212601 -0.30709,1.23899 2.00908,1.39844 2.31735,0.159451 5.83117,3.32721 10.0643,2.92326z"/>
  </g>
  <path class="fil82" d="M9.36626 43.1391c-1.21537,3.26461 -2.42483,6.52331 -3.6343,9.78555 -1.20828,3.25752 -2.40594,6.52095 -3.6343,9.78319 -0.350792,-0.0814971 -0.689772,-0.181892 -0.964973,-0.303547 1.20356,-3.20909 2.42483,-6.41819 3.6343,-9.62965 1.20828,-3.20791 2.41893,-6.42291 3.62249,-9.63555 0.312996,0 0.638984,0 0.976784,0zm110.212 0c0.914184,2.60909 1.82955,5.21581 2.74373,7.82136 0.914184,2.60554 1.83427,5.21109 2.74492,7.81781 0.116931,0.336618 0.125198,0.669693 0.050788,0.982689 -0.977965,-2.7709 -1.93703,-5.53826 -2.90791,-8.30798 -0.969697,-2.76736 -1.92995,-5.53826 -2.89492,-8.31388 0.0744104,0 0.162994,0 0.263389,0zm3.8469 18.325c-0.288193,0.13701 -0.625992,0.259846 -0.977965,0.357878 -1.01458,-3.11224 -2.04806,-6.22449 -3.06972,-9.33909 -1.02048,-3.11106 -2.04333,-6.22567 -3.05791,-9.34382 0.312996,0 0.638984,0 0.976784,0 1.01576,3.05791 2.03743,6.11464 3.05791,9.16547 1.02167,3.05555 2.05632,6.10637 3.0709,9.15956zm-3.09571 0.682686c-0.150002,0.00826782 -0.312996,0.0129923 -0.47599,0.0129923 -0.212601,0.00118112 -0.426383,0.00354335 -0.627173,0.00354335 -0.989776,-3.16894 -1.96656,-6.33669 -2.94452,-9.51035 -0.975603,-3.16657 -1.95475,-6.34024 -2.91972,-9.5139 0.312996,0 0.638984,0 0.976784,0 0.989776,3.1713 1.98782,6.3426 2.9835,9.50681 0.995682,3.16776 1.99254,6.33433 3.00712,9.5009zm-3.3839 0.0318902c-0.375595,0.00236223 -0.739379,0.00472447 -1.10198,0.00590558 -0.928358,-3.17248 -1.84254,-6.34378 -2.75791,-9.52098 -0.913003,-3.16894 -1.81656,-6.34732 -2.73192,-9.52453 0.325988,0 0.638984,0 0.977965,0 0.927177,3.1772 1.85672,6.35323 2.79452,9.52216 0.940169,3.17484 1.87916,6.34496 2.81933,9.51744zm-3.3839 0.0224412c-0.375595,0.00118112 -0.75119,0.00354335 -1.11497,0.00590558 -0.864578,-3.1772 -1.70553,-6.35559 -2.55712,-9.53161 -0.851585,-3.1772 -1.70435,-6.35559 -2.54413,-9.53634 0.314177,0 0.651977,0 0.990957,0 0.864578,3.17957 1.73742,6.35795 2.60672,9.53161 0.870483,3.17839 1.74215,6.35323 2.61854,9.53043zm-3.3839 0.0212601c-0.375595,0.00472447 -0.75119,0.00590558 -1.11497,0.00826782 -0.788986,-3.18075 -1.58506,-6.36031 -2.36814,-9.54342 -0.781899,-3.17839 -1.57915,-6.36268 -2.35633,-9.54815 0.325988,0 0.651977,0 0.989776,0 0.801978,3.18311 1.61104,6.36622 2.41893,9.54461 0.807884,3.17957 1.61695,6.35795 2.43074,9.5387zm-3.35792 0.0236223c-0.376776,0.00236223 -0.752371,0.00472447 -1.11616,0.00590558 -0.726387,-3.18429 -1.45986,-6.3674 -2.18034,-9.55287 -0.720481,-3.18193 -1.44096,-6.37094 -2.16853,-9.55996 0.325988,0 0.664969,0 0.990957,0 0.739379,3.18665 1.48466,6.37567 2.22995,9.55642 0.745285,3.18547 1.50474,6.36622 2.24412,9.55051zm-3.39689 0.0224412c-0.375595,0.00118112 -0.739379,0.00354335 -1.10316,0.00590558 -0.650795,-3.18902 -1.33466,-6.37449 -1.99254,-9.5635 -0.656701,-3.18783 -1.31576,-6.38039 -1.96774,-9.57177 0.314177,0 0.640165,0 0.977965,0 0.67678,3.19138 1.36655,6.38039 2.04333,9.56823 0.675599,3.18547 1.36537,6.37213 2.04215,9.56114zm-3.3839 0.0212601c-0.375595,0.00236223 -0.75119,0.00472447 -1.11497,0.00590558 -0.589377,-3.1902 -1.19647,-6.38276 -1.79175,-9.57531 -0.594102,-3.1902 -1.19057,-6.3863 -1.79294,-9.58122 0.325988,0 0.664969,0 0.990957,0 0.613,3.19492 1.24017,6.38748 1.85435,9.57768 0.614181,3.1902 1.24017,6.38276 1.85435,9.57295zm-3.3839 0.0236223c-0.375595,0.00236223 -0.75119,0.00472447 -1.11497,0.00590558 -0.526778,-3.19374 -1.07127,-6.3922 -1.60396,-9.58831 -0.531503,-3.19374 -1.06537,-6.39339 -1.59215,-9.59185 0.314177,0 0.651977,0 0.990957,0 0.5504,3.19846 1.10316,6.39575 1.65356,9.58949 0.551582,3.19374 1.11616,6.39102 1.66656,9.58476zm-3.33311 0.0224412c-0.375595,0.00118112 -0.752371,0.00354335 -1.11497,0.00590558 -0.464179,-3.19846 -0.947256,-6.40047 -1.41616,-9.59894 -0.470085,-3.19965 -0.940169,-6.40047 -1.40435,-9.60366 0.312996,0 0.651977,0 0.989776,0 0.488982,3.20083 0.97324,6.40283 1.46695,9.59894 0.494888,3.19846 0.989776,6.39929 1.47876,9.59776zm-3.3839 0.0212601c-0.375595,0.00472447 -0.752371,0.00590558 -1.11497,0.00826782 -0.40158,-3.20201 -0.820876,-6.40638 -1.22836,-9.61075 -0.406304,-3.20083 -0.814971,-6.40874 -1.21537,-9.61547 0.324807,0 0.663788,0 0.989776,0 0.426383,3.20437 0.852766,6.4111 1.27797,9.61193 0.425202,3.20083 0.864578,6.40402 1.29096,9.60602zm-3.39689 0.0236223c-0.375595,0.00236223 -0.739379,0.00472447 -1.10198,0.00590558 -0.338981,-3.20555 -0.689772,-6.41465 -1.02757,-9.6202 -0.337799,-3.20673 -0.689772,-6.41701 -1.02757,-9.62728 0.312996,0 0.638984,0 0.976784,0 0.363784,3.20909 0.727568,6.42055 1.09017,9.62374 0.362603,3.20555 0.727568,6.41228 1.09017,9.61783zm-3.38272 0.0224412c-0.376776,0.00118112 -0.739379,0.00354335 -1.10316,0.00590558 -0.276381,-3.21028 -0.564574,-6.42409 -0.839774,-9.63319 -0.2752,-3.21028 -0.564574,-6.42409 -0.839774,-9.63673 0.325988,0 0.651977,0 0.977965,0 0.300004,3.21264 0.60237,6.42528 0.902373,9.63555 0.300004,3.20673 0.601189,6.41819 0.902373,9.62846zm-3.40988 0.0236223c-0.375595,0.00236223 -0.75119,0.00354335 -1.11497,0.00590558 -0.212601,-3.21264 -0.43347,-6.43 -0.651977,-9.645 -0.218507,-3.21264 -0.425202,-6.43236 -0.638984,-9.64854 0.325988,0 0.651977,0 0.989776,0 0.238586,3.21618 0.472447,6.43354 0.702765,9.645 0.231499,3.21264 0.487801,6.42882 0.713395,9.64264zm-3.39571 0.0236223c-0.375595,0.00236223 -0.739379,0.00354335 -1.10316,0.00590558 -0.150002,-3.21854 -0.301185,-6.43945 -0.451187,-9.65799 -0.148821,-3.21854 -0.312996,-6.43827 -0.462998,-9.65917 0.324807,0 0.650795,0 0.976784,0 0.175986,3.22091 0.351973,6.43827 0.526778,9.65681 0.174805,3.21736 0.350792,6.43591 0.513786,9.65445zm-3.3839 0.0212601c-0.375595,0.00236223 -0.739379,0.00472447 -1.10316,0.00590558 -0.0874027,-3.22209 -0.175986,-6.44535 -0.263389,-9.66744 -0.0874027,-3.22327 -0.174805,-6.44654 -0.262208,-9.67099 0.324807,0 0.638984,0 0.976784,0 0.100395,3.22209 0.219688,6.44535 0.325988,9.66626 0.106301,3.22209 0.225593,6.44417 0.325988,9.66626zm-3.3839 0.0248035c-0.375595,0.00118112 -0.752371,0.00354335 -1.11497,0.0070867 -0.0129923,-3.22799 -0.0578747,-6.45362 -0.0755915,-9.67925 -0.0188979,-3.22681 -0.0496069,-6.4548 -0.0755915,-9.68516 0.325988,0 0.664969,0 0.990957,0 0.0496069,3.22917 0.0933082,6.45598 0.13701,9.68043 0.0425202,3.22445 0.100395,6.45008 0.138191,9.67689zm-3.33311 0.0212601c-0.376776,0.00236223 -0.752371,0.00590558 -1.11616,0.00826782 0.050788,-3.23272 0.070867,-6.46307 0.113387,-9.69225 0.0437013,-3.23035 0.0744104,-6.45953 0.112206,-9.69461 0.325988,0 0.664969,0 0.989776,0 -0.0118112,3.23272 -0.0318902,6.46307 -0.0496069,9.69106 -0.0188979,3.22799 -0.0248035,6.45717 -0.0496069,9.68752zm-3.37209 0.0212601c-0.375595,0.00472447 -0.75119,0.00590558 -1.11497,0.00826782 0.100395,-3.2339 0.194884,-6.4678 0.301185,-9.70169 0.105119,-3.23272 0.199609,-6.47016 0.300004,-9.70642 0.325988,0 0.651977,0 0.990957,0 -0.0885838,3.23626 -0.157089,6.47016 -0.238586,9.70288 -0.0803159,3.23154 -0.162994,6.46307 -0.238586,9.69697zm-3.39571 0.0248035c-0.376776,0.00354335 -0.739379,0.00590558 -1.10316,0.0070867 0.162994,-3.23744 0.325988,-6.47606 0.488982,-9.71351 0.162994,-3.23744 0.325988,-6.47725 0.488982,-9.71823 0.325988,0 0.650795,0 0.976784,0 -0.13701,3.24098 -0.2752,6.47961 -0.425202,9.71469 -0.150002,3.23508 -0.289374,6.47134 -0.426383,9.70996zm-3.3839 0.0212601c-0.375595,0.00354335 -0.739379,0.00590558 -1.10316,0.00826782 0.225593,-3.24217 0.445281,-6.48551 0.67678,-9.7265 0.231499,-3.2398 0.451187,-6.48315 0.689772,-9.72768 0.312996,0 0.638984,0 0.976784,0 -0.212601,3.24217 -0.420478,6.48433 -0.625992,9.72414 -0.206695,3.24098 -0.413391,6.48197 -0.614181,9.72177zm-3.3461 0.0236223c-0.376776,0.00354335 -0.752371,0.00590558 -1.11616,0.00826782 0.288193,-3.24571 0.572842,-6.4926 0.865759,-9.73713 0.294098,-3.24689 0.588196,-6.4926 0.876389,-9.74067 0.325988,0 0.651977,0 0.990957,0 -0.276381,3.24689 -0.546857,6.4926 -0.814971,9.73595 -0.269295,3.24335 -0.538589,6.49024 -0.801978,9.73358zm-3.39689 0.0224412c-0.375595,0.00354335 -0.739379,0.00590558 -1.10316,0.0070867 0.351973,-3.24925 0.696859,-6.50087 1.05356,-9.74894 0.356697,-3.24807 0.714576,-6.49732 1.06537,-9.75012 0.325988,0 0.650795,0 0.989776,0 -0.338981,3.25043 -0.672056,6.50087 -1.00277,9.74658 -0.331894,3.24689 -0.67678,6.49732 -1.00277,9.7454zm-3.3839 0.0212601c-0.375595,0.00354335 -0.75119,0.00590558 -1.11497,0.00826782 0.413391,-3.25398 0.833869,-6.50795 1.25317,-9.75957 0.419296,-3.25043 0.839774,-6.50559 1.25317,-9.76193 0.325988,0 0.651977,0 0.989776,0 -0.400399,3.25398 -0.790167,6.50559 -1.19057,9.75839 -0.400399,3.25043 -0.788986,6.50323 -1.19057,9.75484zm-3.3839 0.0236223c-0.375595,0.00236223 -0.75119,0.00354335 -1.11497,0.00590558 0.47599,-3.25516 0.959067,-6.51622 1.44096,-9.77138 0.481896,-3.25516 0.964973,-6.51268 1.44214,-9.77138 0.324807,0 0.663788,0 0.989776,0 -0.451187,3.2587 -0.915366,6.51504 -1.37836,9.7702 -0.462998,3.25516 -0.915366,6.50914 -1.37954,9.76666zm-3.33311 0.020079c-0.375595,0.00354335 -0.752371,0.00590558 -1.11497,0.00826782 0.538589,-3.2587 1.08427,-6.52095 1.62876,-9.77965 0.544495,-3.25988 1.09017,-6.52331 1.62876,-9.78555 0.325988,0 0.664969,0 0.990957,0 -0.513786,3.26224 -1.04175,6.52449 -1.56734,9.78201 -0.525597,3.25634 -1.03938,6.5174 -1.56616,9.77492zm-3.3839 0.0212601c-0.375595,0.00472447 -0.752371,0.00590558 -1.11497,0.00826782 0.601189,-3.26106 1.20946,-6.52921 1.81656,-9.79146 0.607094,-3.26224 1.21537,-6.52921 1.82955,-9.795 0.325988,0 0.651977,0 0.990957,0 -0.589377,3.26461 -1.17875,6.53158 -1.76695,9.79146 -0.588196,3.26224 -1.16576,6.52567 -1.75514,9.78673zm-3.39689 0.0236223c-0.375595,0.00236223 -0.739379,0.00472447 -1.10198,0.0070867 0.67678,-3.26579 1.32876,-6.53984 2.00436,-9.80091 0.67678,-3.27051 1.35356,-6.53748 2.01853,-9.80799 0.325988,0 0.651977,0 0.976784,0 -0.638984,3.26815 -1.30277,6.53512 -1.95475,9.80327 -0.650795,3.26224 -1.29096,6.53394 -1.94294,9.79855zm-3.38272 0.0224412c-0.376776,0.00236223 -0.752371,0.00354335 -1.11616,0.00590558 0.739379,-3.26933 1.46695,-6.54221 2.20633,-9.81272 0.738198,-3.26933 1.46577,-6.54339 2.20515,-9.81744 0.325988,0 0.651977,0 0.989776,0 -0.713395,3.27169 -1.42797,6.54693 -2.14255,9.81508 -0.713395,3.26815 -1.42915,6.53984 -2.14255,9.80918zm-3.40988 0.0212601c-0.375595,0.00236223 -0.75119,0.00472447 -1.11497,0.00590558 0.801978,-3.27287 1.59215,-6.54811 2.39412,-9.82217 0.801978,-3.27406 1.60396,-6.55166 2.40594,-9.82925 0.312996,0 0.651977,0 0.989776,0 -0.777175,3.27642 -1.56026,6.55284 -2.34334,9.82571 -0.783081,3.27051 -1.55435,6.54811 -2.33152,9.81981zm-3.39571 0.0224412c-0.375595,0.00118112 -0.739379,0.00354335 -1.10316,0.00590558 0.864578,-3.2776 1.71853,-6.5611 2.58192,-9.83516 0.865759,-3.27996 1.72916,-6.55874 2.59373,-9.8387 0.325988,0 0.651977,0 0.977965,0 -0.839774,3.27996 -1.68545,6.55874 -2.53113,9.83752 -0.844499,3.27287 -1.67955,6.5552 -2.51932,9.83044zm-3.3839 0.0212601c-0.375595,0.00236223 -0.752371,0.00472447 -1.11497,0.00590558 0.927177,-3.27878 1.85435,-6.56347 2.78153,-9.84461 0.925996,-3.28114 1.85553,-6.56701 2.78271,-9.85051 0.312996,0 0.651977,0 0.989776,0 -0.915366,3.2835 -1.81183,6.56937 -2.71893,9.84697 -0.90946,3.28232 -1.81774,6.56347 -2.72011,9.84225zm-3.3839 0.0224412c-0.375595,0.00118112 -0.752371,0.00354335 -1.11497,0.00590558 0.989776,-3.2835 1.97955,-6.57292 2.96933,-9.85642 0.989776,-3.2835 1.98073,-6.57292 2.97051,-9.86114 0.325988,0 0.651977,0 0.989776,0 -0.964973,3.28823 -1.93585,6.5741 -2.90673,9.85878 -0.969697,3.28114 -1.94294,6.56937 -2.90791,9.85288zm-3.33311 0.0212601c-0.376776,0.00236223 -0.752371,0.00354335 -1.11616,0.00590558 1.05356,-3.28705 2.10121,-6.58118 3.15831,-9.86587 1.05946,-3.29059 2.10593,-6.58118 3.15831,-9.87296 0.325988,0 0.651977,0 0.989776,0 -1.02757,3.28941 -2.06223,6.58 -3.09571,9.86823 -1.03348,3.28587 -2.05514,6.57764 -3.09453,9.86469zm-3.3839 0.0224412c-0.376776,0.00118112 -0.752371,0.00354335 -1.11616,0.00590558 1.11616,-3.29177 2.22522,-6.58709 3.3461,-9.87886 1.12088,-3.29177 2.24412,-6.58591 3.3591,-9.88241 0.312996,0 0.651977,0 0.989776,0 -1.10198,3.29414 -2.19924,6.58827 -3.29532,9.88122 -1.0949,3.28705 -2.18152,6.58236 -3.2835,9.87414zm-3.39689 0.0212601c-0.375595,0.00236223 -0.739379,0.00354335 -1.10316,0.00590558 0,0 0,0 0,0 1.17875,-3.29532 2.3516,-6.59536 3.53508,-9.88831 1.18466,-3.2965 2.36814,-6.59418 3.54689,-9.89422 0.324807,0 0.650795,0 0.976784,0 -1.15277,3.29768 -2.31853,6.59418 -3.48429,9.89067 -1.16458,3.29059 -2.30554,6.59063 -3.4713,9.88595z"/>
  <path class="fil83" d="M115.002 33.539l5.92566 8.8194c0.138191,0.203152 0.256302,0.361422 0.356697,0.496069l0.00236223 0.00236223c0.164175,0.220869 0.304728,0.409848 0.40158,0.592921l0.0814971 0 0.112206 0.350792 5.054 15.8825 0.297641 0.566936 0.0543314 0.175986 0.0342524 0.294098 0 0.0118112 0.0212601 0.227956 0.0248035 0.0791348 0.0236223 0.188979 -0.0153545 0.204333 0.00118112 0.0366146 0 0.00354335c0.0496069,1.2012 -0.118112,2.1768 -0.473628,2.8713 -0.0992138,0.193703 -0.212601,0.366146 -0.338981,0.517329l-4.78825 0 0 -0.246853 3.23508 0c0.43347,-0.0259846 0.777175,-0.278744 1.00395,-0.724025 0.278744,-0.540952 0.406304,-1.34884 0.364965,-2.37404l-0.00354335 -0.0744104 0 -0.060237 0.0106301 -0.133466 -0.0106301 -0.0330713 -0.0212601 -0.107482 -0.0248035 -0.274019 -0.00118112 0 -0.0236223 -0.20079 -0.271657 -0.517329 -0.0330713 -0.0826782 -4.95715 -15.5813 -0.22205 0 0.00590558 -0.504337c0,-0.0342524 -0.144096,-0.229137 -0.342524,-0.49725 -0.122836,-0.165356 -0.261027,-0.350792 -0.382682,-0.52914l-0.00236223 -0.00354335 -5.92803 -8.82294 0.829144 -0.555125zm-114.398 31.1697c-0.090946,-0.287011 -0.144096,-0.705127 -0.173624,-1.16104 -0.060237,-0.957886 -0.0614181,-2.20515 -0.0354335,-2.44491l0.0519691 -0.173624 0.400399 -0.781899 5.37881 -16.3514 0.114568 -0.346067 0.127561 0c0.0968516,-0.183073 0.237404,-0.372052 0.40158,-0.592921l0.00236223 -0.00236223c0.100395,-0.134647 0.218507,-0.292917 0.356697,-0.496069l5.31975 -7.91703 0.59174 0.17953 -0.677961 1.96774 0 -0.230318 -4.40675 6.55874 -0.00236223 0.00354335c-0.121655,0.178349 -0.259846,0.363784 -0.382682,0.52914 -0.198428,0.268114 -0.342524,0.462998 -0.342524,0.49725l0.00590558 0.504337 -0.271657 0 -5.27605 16.0396 -0.030709 0.0720481 -0.374414 0.72993c-0.0153545,0.341343 -0.00472447,1.36537 0.0460636,2.19333 0.0295279,0.472447 -0.0271657,0.774813 0.0070867,0.804341 0.106301,0.090946 0.263389,0.161813 0.434651,0.213782l0 0.00118112c0.235042,0.070867 0.494888,0.103938 0.713395,0.111025l0 -0.00236223 4.65124 0 0 0.0944894 -6.62961 0z"/>
  <polygon class="fil84" points="125.968,64.8055 1.4008,64.8055 1.4008,63.8039 125.968,63.8039 "/>
  <path class="fil36" d="M18.9853 28.8311l0 0.411029 0.92009 2.10711 0.921271 -2.10711 0 -0.411029c0,-0.101576 0.0295279,-0.185435 0.0874027,-0.249216 0.0590558,-0.0649614 0.135828,-0.0968516 0.227956,-0.0968516 0.0921271,0 0.167719,0.030709 0.226774,0.0956705 0.0590558,0.0625992 0.0874027,0.145277 0.0874027,0.250397l0 0.46536c0,0.0318902 -0.00354335,0.0614181 -0.0118112,0.0921271 -0.0070867,0.0283468 -0.0165356,0.0578747 -0.0318902,0.090946l-0.990957 2.27011c-0.0460636,0.105119 -0.0933082,0.175986 -0.141734,0.216144 -0.0484258,0.0366146 -0.108663,0.0543314 -0.180711,0.0543314l-0.386225 0c-0.0744104,0 -0.134647,-0.0177168 -0.180711,-0.0531503 -0.0460636,-0.0377957 -0.0933082,-0.109844 -0.141734,-0.217326l-0.990957 -2.26538c-0.0177168,-0.0389769 -0.0283468,-0.0696859 -0.0342524,-0.0956705 -0.0070867,-0.0283468 -0.00944894,-0.0566936 -0.00944894,-0.0921271l0 -0.46536c0,-0.106301 0.0283468,-0.19016 0.0862215,-0.251578 0.0566936,-0.0637803 0.132285,-0.0944894 0.227956,-0.0944894 0.0921271,0 0.1689,0.0318902 0.227956,0.0968516 0.0578747,0.0637803 0.0874027,0.14764 0.0874027,0.249216zm21.9617 -1.66301l2.1201 0c0.174805,0 0.320083,0.0614181 0.445281,0.183073 0.122836,0.121655 0.184254,0.270476 0.184254,0.446462l0 1.47994c0,0.175986 -0.0614181,0.324807 -0.184254,0.446462 -0.125198,0.121655 -0.270476,0.183073 -0.445281,0.183073l-1.84136 0 0 1.48585 2.1201 0c0.105119,0 0.188979,0.0271657 0.25394,0.0862215 0.0649614,0.0590558 0.0968516,0.134647 0.0968516,0.226774 0,0.0933082 -0.0318902,0.1689 -0.0992138,0.226774 -0.0661425,0.0590558 -0.150002,0.0874027 -0.251578,0.0874027l-2.74964 0 0 -2.11302c0,-0.174805 0.0614181,-0.322445 0.183073,-0.445281 0.121655,-0.122836 0.269295,-0.184254 0.446462,-0.184254l1.84136 0 0 -1.47994 -2.1201 0c-0.107482,0 -0.191341,-0.0283468 -0.256302,-0.0862215 -0.0637803,-0.0578747 -0.0944894,-0.133466 -0.0944894,-0.227956 0,-0.0944894 0.0318902,-0.170081 0.0992138,-0.227956 0.0661425,-0.0578747 0.148821,-0.0874027 0.251578,-0.0874027zm-4.35123 0.629535l0 3.59532 1.84254 0 0 -3.59532 -1.84254 0zm0.0649614 -0.629535l1.7079 0c0.224412,0 0.395674,0.060237 0.517329,0.17953 0.120474,0.119293 0.180711,0.290555 0.180711,0.516148l0 3.46185c0,0.224412 -0.060237,0.396855 -0.180711,0.514967 -0.121655,0.120474 -0.292917,0.17953 -0.517329,0.17953l-1.7079 0c-0.223231,0 -0.395674,-0.0590558 -0.514967,-0.17953 -0.119293,-0.118112 -0.17953,-0.290555 -0.17953,-0.514967l0 -3.46185c0,-0.225593 0.060237,-0.396855 0.17953,-0.516148 0.119293,-0.119293 0.291736,-0.17953 0.514967,-0.17953zm-2.92917 3.62012l0.614181 0c0.0921271,0 0.1689,0.0330713 0.226774,0.0956705 0.0590558,0.0637803 0.0862215,0.145277 0.0862215,0.248035l0 0.46536c0,0.107482 -0.0271657,0.192522 -0.0850404,0.256302 -0.0578747,0.0637803 -0.133466,0.0944894 -0.227956,0.0944894l-0.614181 0c-0.0921271,0 -0.170081,-0.0318902 -0.226774,-0.0980327 -0.0590558,-0.0673237 -0.0874027,-0.150002 -0.0874027,-0.252759l0 -0.46536c0,-0.106301 0.0283468,-0.19016 0.0862215,-0.252759 0.0566936,-0.060237 0.132285,-0.090946 0.227956,-0.090946zm-3.70871 -2.99059l0 3.59532 1.84254 0 0 -3.59532 -1.84254 0zm0.0661425 -0.629535l1.70671 0c0.224412,0 0.395674,0.060237 0.51851,0.17953 0.120474,0.119293 0.180711,0.290555 0.180711,0.516148l0 3.46185c0,0.224412 -0.060237,0.396855 -0.180711,0.514967 -0.122836,0.120474 -0.294098,0.17953 -0.51851,0.17953l-1.70671 0c-0.224412,0 -0.396855,-0.0590558 -0.516148,-0.17953 -0.119293,-0.118112 -0.17953,-0.290555 -0.17953,-0.514967l0 -3.46185c0,-0.225593 0.060237,-0.396855 0.17953,-0.516148 0.119293,-0.119293 0.291736,-0.17953 0.516148,-0.17953zm-2.43664 3.62012l0.614181 0c0.0921271,0 0.1689,0.0330713 0.226774,0.0956705 0.0590558,0.0637803 0.0862215,0.145277 0.0862215,0.248035l0 0.46536c0,0.107482 -0.0271657,0.192522 -0.0850404,0.256302 -0.0578747,0.0637803 -0.133466,0.0944894 -0.227956,0.0944894l-0.614181 0c-0.0921271,0 -0.170081,-0.0318902 -0.226774,-0.0980327 -0.0590558,-0.0673237 -0.0874027,-0.150002 -0.0874027,-0.252759l0 -0.46536c0,-0.106301 0.0283468,-0.19016 0.0862215,-0.252759 0.0566936,-0.060237 0.132285,-0.090946 0.227956,-0.090946zm-4.3158 -3.62012l2.1201 0c0.173624,0 0.320083,0.0614181 0.4441,0.183073 0.124017,0.121655 0.185435,0.270476 0.185435,0.446462l0 1.47994c0,0.175986 -0.0614181,0.324807 -0.185435,0.446462 -0.124017,0.121655 -0.270476,0.183073 -0.4441,0.183073l-1.84254 0 0 1.48585 2.1201 0c0.105119,0 0.19016,0.0271657 0.25394,0.0862215 0.0661425,0.0590558 0.0980327,0.134647 0.0980327,0.226774 0,0.0933082 -0.0318902,0.1689 -0.0992138,0.226774 -0.0661425,0.0590558 -0.150002,0.0874027 -0.252759,0.0874027l-2.74846 0 0 -2.11302c0,-0.174805 0.0614181,-0.322445 0.183073,-0.445281 0.121655,-0.122836 0.269295,-0.184254 0.445281,-0.184254l1.84254 0 0 -1.47994 -2.1201 0c-0.107482,0 -0.192522,-0.0283468 -0.256302,-0.0862215 -0.0637803,-0.0578747 -0.0944894,-0.133466 -0.0944894,-0.227956 0,-0.0944894 0.0318902,-0.170081 0.0980327,-0.227956 0.0673237,-0.0578747 0.150002,-0.0874027 0.252759,-0.0874027z"/>
  <path class="fil85" d="M22.0656 27.0358l0.020079 -0.0531503 -0.00118112 -0.00118112c0.0732292,-0.181892 0.188979,-0.336618 0.335437,-0.467722 0.129923,-0.114568 0.2752,-0.201971 0.435832,-0.258665 0.157089,-0.0578747 0.31772,-0.0862215 0.480715,-0.0862215l2.1201 0c0.21142,0 0.419296,0.0413391 0.620086,0.124017l0.0070867 0c0.185435,0.0779537 0.357878,0.192522 0.516148,0.347248 0.120474,0.116931 0.218507,0.249216 0.295279,0.395674l-4.82959 0zm6.51622 0c0.0732292,-0.144096 0.167719,-0.272838 0.279925,-0.387406l0.00354335 -0.00826782c0.311815,-0.311815 0.724025,-0.471266 1.22364,-0.471266l1.70671 0c0.218507,0 0.427564,0.0342524 0.617724,0.0992138 0.229137,0.0779537 0.429927,0.201971 0.600007,0.368508l0.00826782 0.00354335c0.113387,0.113387 0.210239,0.245672 0.28583,0.395674l-4.72565 0zm6.57173 0c0.0755915,-0.151183 0.171262,-0.282287 0.284649,-0.395674 0.162994,-0.162994 0.363784,-0.289374 0.605913,-0.372052 0.188979,-0.0649614 0.398036,-0.0992138 0.616543,-0.0992138l1.7079 0c0.218507,0 0.427564,0.0342524 0.617724,0.0992138 0.236223,0.0803159 0.440557,0.205514 0.607094,0.372052 0.0625992,0.0625992 0.119293,0.129923 0.170081,0.203152 0.0696859,-0.125198 0.161813,-0.239767 0.279925,-0.341343l0.00118112 0.00118112c0.121655,-0.107482 0.262208,-0.188979 0.415753,-0.244491l0 -0.00118112c0.159451,-0.0590558 0.321264,-0.0885838 0.48662,-0.0885838l2.1201 0c0.220869,0 0.432289,0.0425202 0.627173,0.124017l-0.00118112 0.00236223c0.191341,0.0791348 0.363784,0.193703 0.51851,0.344886l0.00354335 0.00354335c0.121655,0.120474 0.219688,0.251578 0.295279,0.392131l-9.35681 0z"/>
  <g id="_45826376">
   <path id="_85978360" class="fil85" d="M94.3287 24.9924l15.4041 0c0.161813,0 0.318902,0.0720481 0.424021,0.177168l0.0106301 0.0106301c0.0992138,0.105119 0.166537,0.250397 0.166537,0.413391l-0.00236223 0 -0.0118112 4.78589 0.00236223 0c0,0.159451 -0.0661425,0.305909 -0.166537,0.413391l-0.0212601 0.0212601c-0.105119,0.0992138 -0.250397,0.166537 -0.413391,0.166537l-15.4041 0c-0.159451,0 -0.305909,-0.0661425 -0.413391,-0.166537l-0.0106301 -0.0106301c-0.105119,-0.105119 -0.177168,-0.262208 -0.177168,-0.424021l0.00236223 0 0.0118112 -4.78589 -0.00236223 0c0,-0.159451 0.0661425,-0.314177 0.177168,-0.424021l0.00944894 -0.00944894 0.00118112 -0.00118112c0.105119,-0.0992138 0.250397,-0.166537 0.413391,-0.166537zm15.0049 1.00159l-14.6081 0 -0.00944894 3.98509 14.6081 0 0.00944894 -3.98509z"/>
   <polygon id="_46482024" class="fil86" points="106.882,26.9873 95.7425,26.9873 95.7425,28.9882 106.882,28.9882 "/>
  </g>
  <g id="_85972200">
   <path id="_86011088" class="fil87" d="M94.3287 25.8523l15.4041 0c0.161813,0 0.318902,0.0720481 0.424021,0.177168l0.0106301 0.0106301c0.0992138,0.105119 0.166537,0.250397 0.166537,0.413391l-0.00236223 0 -0.0118112 4.78589 0.00236223 0c0,0.159451 -0.0661425,0.305909 -0.166537,0.413391l-0.0212601 0.0212601c-0.105119,0.0992138 -0.250397,0.166537 -0.413391,0.166537l-15.4041 0c-0.159451,0 -0.305909,-0.0661425 -0.413391,-0.166537l-0.0106301 -0.0106301c-0.105119,-0.105119 -0.177168,-0.262208 -0.177168,-0.424021l0.00236223 0 0.0118112 -4.78589 -0.00236223 0c0,-0.159451 0.0661425,-0.314177 0.177168,-0.424021l0.00944894 -0.00944894 0.00118112 -0.00118112c0.105119,-0.0992138 0.250397,-0.166537 0.413391,-0.166537zm15.0049 1.00159l-14.6081 0 -0.00944894 3.98509 14.6081 0 0.00944894 -3.98509z"/>
   <polygon id="_86142392" class="fil88" points="106.882,27.8472 95.7425,27.8472 95.7425,29.848 106.882,29.848 "/>
  </g>
  <g id="_86334112">
   <path id="_27411656" class="fil89" d="M112.631 71.1824c0,0 4.50596,-3.45713 3.27406,-6.12173 -1.23309,-2.6646 -2.99649,-12.2517 -16.5073,-14.9671 -13.512,-2.71421 -16.3408,18.1231 -10.4352,19.9349 5.9044,1.81301 11.8147,4.32407 23.6684,1.15395z"/>
   <g>
    <path id="_86136456" class="fil90" d="M112.825 70.5871c0,0 4.10202,-3.14768 2.98114,-5.57369 -1.12324,-2.42483 -2.99177,-11.6057 -15.2919,-14.0777 -12.3025,-2.4709 -14.5844,16.3573 -9.20681,18.0061 5.37526,1.6512 10.7257,4.53195 21.5176,1.6453z"/>
    <path id="_86133976" class="fil91" d="M113.019 69.9953c0,0 3.69926,-2.83822 2.68822,-5.02565 -1.0134,-2.18625 -2.98586,-10.9596 -14.0777,-13.1895 -11.0919,-2.22759 -12.8269,14.5915 -7.97844,16.0797 4.8473,1.48821 9.63673,4.73746 19.368,2.13546z"/>
    <path id="_86133016" class="fil92" d="M113.212 69.4012c0,0 3.29532,-2.52877 2.39412,-4.47761 -0.901192,-1.94766 -2.97996,-10.3147 -12.8612,-12.3002 -9.88241,-1.98546 -11.0694,12.8257 -6.75008,14.151 4.31816,1.32639 8.54774,4.94534 17.2171,2.6268z"/>
    <path id="_86357792" class="fil93" d="M113.405 68.8083c0,0 2.89137,-2.21932 2.10121,-3.92958 -0.791348,-1.70908 -2.97405,-9.6698 -11.6458,-11.412 -8.67294,-1.74215 -9.31311,11.0612 -5.5229,12.2234 3.7902,1.16458 7.45875,5.15321 15.0675,3.11815z"/>
    <path id="_46417392" class="fil94" d="M113.601 68.2142c0,0 2.48861,-1.90868 1.80829,-3.38036 -0.681504,-1.47049 -2.96933,-9.02373 -10.4316,-10.5238 -7.4623,-1.50002 -7.5556,9.29657 -4.29336,10.297 3.26106,1.00041 6.36976,5.35873 12.9167,3.60713z"/>
    <path id="_86313248" class="fil95" d="M113.794 67.6213c0,0 2.08467,-1.59923 1.51537,-2.83232 -0.571661,-1.2319 -2.96342,-8.37884 -9.21626,-9.63555 -6.25283,-1.25671 -5.79928,7.53198 -3.06618,8.37058 2.7331,0.837412 5.28077,5.56542 10.7671,4.09729z"/>
    <path id="_86321464" class="fil96" d="M113.987 67.0272c0,0 1.68073,-1.28978 1.22127,-2.28428 -0.459454,-0.993319 -2.95752,-7.73395 -7.9997,-8.74617 -5.04337,-1.01458 -4.04178,5.76621 -1.83782,6.44181 2.20396,0.67678 4.19178,5.7733 8.61625,4.58864z"/>
    <path id="_86327264" class="fil97" d="M114.181 66.4355c0,0 1.27797,-0.980327 0.928358,-1.73624 -0.349611,-0.754734 -2.95161,-7.08788 -6.78552,-7.85797 -3.83272,-0.771269 -2.28428,4.00044 -0.609456,4.51541 1.676,0.513786 3.10279,5.97881 6.46662,5.0788z"/>
   </g>
   <path id="_86332736" class="fil98" d="M114.375 65.8449c0,0 0.874027,-0.670874 0.635441,-1.1882 -0.239767,-0.517329 -2.94689,-6.44417 -5.57015,-6.97095 -2.62326,-0.527959 -0.527959,2.23585 0.618905,2.58783 1.14686,0.351973 2.0138,6.18787 4.3158,5.57133z"/>
  </g>
  <path class="fil99" d="M21.5117 10.4895c0.112206,-0.183073 0.23268,-0.357878 0.361422,-0.525597 0.207877,-0.301185 0.438194,-0.579928 0.68741,-0.833869 0.270476,-0.0389769 0.545676,-0.060237 0.82442,-0.060237l80.2971 0.556306 0.0118112 0 0.327169 0.0106301 0.0129923 0c0.231499,0.0141734 0.460636,0.0425202 0.686229,0.0838593 0.347248,0.40158 0.649614,0.852766 0.896468,1.34411 -0.514967,-0.216144 -1.06537,-0.349611 -1.63112,-0.383863l-0.314177 -0.0106301 -80.2864 -0.556306c-0.65552,0 -1.2886,0.133466 -1.87325,0.375595z"/>
  <polygon class="fil62" points="116.097,36.1741 116.097,39.9985 114.462,36.7741 114.462,33.741 "/>
 </g>
</svg>
