<?xml version="1.0" encoding="UTF-8"?>
<!DOCTYPE svg PUBLIC "-//W3C//DTD SVG 1.1//EN" "http://www.w3.org/Graphics/SVG/1.1/DTD/svg11.dtd">
<!-- Creator: CorelDRAW -->
<svg xmlns="http://www.w3.org/2000/svg" xml:space="preserve" width="16px" height="16px" style="shape-rendering:geometricPrecision; text-rendering:geometricPrecision; image-rendering:optimizeQuality; fill-rule:evenodd; clip-rule:evenodd"
viewBox="0 0 16 16"
 xmlns:xlink="http://www.w3.org/1999/xlink">
 <defs>
  <style type="text/css">
   <![CDATA[
    .fil23 {fill:none}
    .fil16 {fill:#8FCDFF}
    .fil24 {fill:#EDA54E}
    .fil18 {fill:#D8F392}
    .fil27 {fill:#86A158;fill-rule:nonzero}
    .fil28 {fill:#96B85A;fill-rule:nonzero}
    .fil22 {fill:#AB6C28;fill-rule:nonzero}
    .fil31 {fill:#B87630;fill-rule:nonzero}
    .fil29 {fill:#FFD199;fill-rule:nonzero}
    .fil0 {fill:black;fill-opacity:0.000000}
    .fil1 {fill:black;fill-opacity:0.003922}
    .fil2 {fill:black;fill-opacity:0.007843}
    .fil3 {fill:black;fill-opacity:0.015686}
    .fil4 {fill:black;fill-opacity:0.019608}
    .fil5 {fill:black;fill-opacity:0.023529}
    .fil6 {fill:black;fill-opacity:0.027451}
    .fil7 {fill:black;fill-opacity:0.031373}
    .fil8 {fill:black;fill-opacity:0.035294}
    .fil9 {fill:black;fill-opacity:0.043137}
    .fil10 {fill:black;fill-opacity:0.047059}
    .fil11 {fill:black;fill-opacity:0.050980}
    .fil12 {fill:black;fill-opacity:0.054902}
    .fil13 {fill:black;fill-opacity:0.058824}
    .fil20 {fill:#86A158;fill-opacity:0.439216}
    .fil25 {fill:#FFB75E;fill-rule:nonzero;fill-opacity:0.439216}
    .fil32 {fill:#9C5F22;fill-rule:nonzero;fill-opacity:0.501961}
    .fil30 {fill:url(#id0)}
    .fil26 {fill:url(#id1)}
    .fil19 {fill:url(#id2)}
    .fil15 {fill:url(#id3)}
    .fil21 {fill:url(#id4)}
    .fil17 {fill:url(#id5);fill-rule:nonzero}
    .fil14 {fill:url(#id6);fill-rule:nonzero;fill-opacity:0.501961}
   ]]>
  </style>
  <linearGradient id="id0" gradientUnits="userSpaceOnUse" x1="7.91638" y1="5.99901" x2="7.91638" y2="7.19637">
   <stop offset="0" style="stop-color:#FFB861"/>
   <stop offset="1" style="stop-color:#FAB764"/>
  </linearGradient>
  <linearGradient id="id1" gradientUnits="userSpaceOnUse" x1="7.94557" y1="8.99043" x2="8.20438" y2="13.9891">
   <stop offset="0" style="stop-color:#8C551E"/>
   <stop offset="1" style="stop-color:#804716"/>
  </linearGradient>
  <linearGradient id="id2" gradientUnits="userSpaceOnUse" x1="7.66069" y1="3.79165" x2="8.28914" y2="11.456">
   <stop offset="0" style="stop-color:#C0E36F"/>
   <stop offset="0.419608" style="stop-color:#ACD156"/>
   <stop offset="1" style="stop-color:#9EC444"/>
  </linearGradient>
  <linearGradient id="id3" gradientUnits="userSpaceOnUse" x1="8.05924" y1="4.31181" x2="7.77634" y2="7.36985">
   <stop offset="0" style="stop-color:#9D6123"/>
   <stop offset="0.568627" style="stop-color:#B3732A"/>
   <stop offset="1" style="stop-color:#C48231"/>
  </linearGradient>
  <linearGradient id="id4" gradientUnits="userSpaceOnUse" x1="8.05641" y1="6.96761" x2="8.05641" y2="13.0976">
   <stop offset="0" style="stop-color:#E69D45"/>
   <stop offset="1" style="stop-color:#D49242"/>
  </linearGradient>
  <linearGradient id="id5" gradientUnits="userSpaceOnUse" x1="8.00283" y1="6.59486" x2="8.00283" y2="1.95961">
   <stop offset="0" style="stop-color:#4E87B4"/>
   <stop offset="1" style="stop-color:#66A1D1"/>
  </linearGradient>
  <linearGradient id="id6" gradientUnits="userSpaceOnUse" x1="5.66537" y1="3.42626" x2="5.2311" y2="14.9174">
   <stop offset="0" style="stop-color:#F8FFC4"/>
   <stop offset="1" style="stop-color:#ADD158"/>
  </linearGradient>
 </defs>
 <g id="Слой_x0020_1">
  <metadata id="CorelCorpID_0Corel-Layer"/>
  <g id="_45789168">
   <path id="_90197360" class="fil0" d="M8.08561 13.8303c4.10176,-0.162426 6.45057,0.0649139 7.78315,0.46035l0 1.74984 -15.4288 0 0 -1.20899c1.04259,-0.438523 3.19722,-0.824888 7.64567,-1.0012z"/>
   <g>
    <path id="_90441848" class="fil1" d="M8.06973 13.868c4.12671,-0.157608 6.48232,0.0915598 7.79902,0.504004l0 1.66849 -15.4288 0 0 -1.1676c1.02955,-0.441641 3.17795,-0.835093 7.62979,-1.00489z"/>
    <path id="_86179448" class="fil2" d="M8.05358 13.9063c4.14258,-0.151655 6.51152,0.119906 7.81518,0.547091l0 1.58713 -15.4288 0 0 -1.12962c1.02218,-0.442208 3.17369,-0.841896 7.61363,-1.00461z"/>
    <path id="_90414600" class="fil3" d="M8.03713 13.9446c4.14769,-0.144852 6.53873,0.14882 7.83162,0.58791l0 1.50804 -15.4288 0 0 -1.0973c1.02048,-0.440507 3.18673,-0.844731 7.59719,-0.998654z"/>
    <path id="_87799184" class="fil4" d="M8.02126 13.9826c4.13805,-0.136631 6.56339,0.178017 7.84749,0.625328l0 1.3887c-1.58004,0.111402 -4.50344,-0.0411027 -7.58245,0.0416696l-0.085607 0.00226773 -7.62072 0 -0.140033 -0.0164411 0 -1.05421c1.02388,-0.436539 3.21792,-0.843314 7.58132,-0.987315z"/>
    <path id="_45787400" class="fil5" d="M8.00482 14.0208c4.11395,-0.127277 6.58777,0.206647 7.86394,0.65821l0 1.21522c-1.54036,0.115654 -4.50259,-0.0269293 -7.60995,0.0481894 -3.35029,0.0810715 -6.4432,0.147686 -7.81886,-0.0218269l0 -0.930622c1.0321,-0.429169 3.27092,-0.836227 7.56488,-0.969173z"/>
    <path id="_86086424" class="fil6" d="M7.98923 14.0591c4.072,-0.116505 6.61158,0.234427 7.87953,0.685423l0 1.04769c-1.495,0.118206 -4.49947,-0.0130395 -7.63716,0.0541422 -3.33612,0.0717171 -6.44263,0.128977 -7.79165,-0.0286301l0 -0.813833c1.04372,-0.419247 3.34377,-0.824605 7.54929,-0.944795z"/>
    <path id="_90412832" class="fil7" d="M7.97279 14.0971c4.01304,-0.104316 6.63936,0.261073 7.89597,0.706399l0 0.886684c-1.44256,0.119056 -4.4938,0.00113387 -7.66494,0.0603784 -3.32195,0.0620792 -6.44292,0.109418 -7.76387,-0.0345829l0 -0.705265c1.05818,-0.406491 3.43874,-0.80703 7.53285,-0.913613z"/>
    <path id="_45963776" class="fil8" d="M7.95663 14.1354c3.93537,-0.0907094 6.67281,0.286018 7.91213,0.720006l0 0.734179c-1.38162,0.117639 -4.48416,0.0144568 -7.69244,0.0649139 -3.30777,0.0521579 -6.44518,0.089859 -7.73638,-0.0394019l0 -0.604351c1.07349,-0.391184 3.55382,-0.784069 7.51669,-0.875345z"/>
    <path id="_136017312" class="fil9" d="M7.94047 14.1736c3.83927,-0.0759691 6.71533,0.308412 7.92828,0.725675l0 0.590745c-1.31018,0.11282 -4.47055,0.0269293 -7.71993,0.068599 -3.29502,0.0422366 -6.44972,0.0694494 -7.70888,-0.0436539l0 -0.51024c1.08823,-0.373042 3.68847,-0.756006 7.50053,-0.831125z"/>
    <path id="_90437824" class="fil10" d="M7.9246 14.2116c3.72504,-0.0592446 6.77287,0.328821 7.94416,0.723691l0 0.456665c-1.22514,0.104032 -4.45043,0.0385515 -7.74686,0.0705832 -3.28198,0.0320317 -6.45681,0.0493232 -7.68195,-0.0459216l0 -0.423783c1.10155,-0.352633 3.84183,-0.723407 7.48466,-0.781234z"/>
    <path id="_46494880" class="fil11" d="M7.90759 14.2499c3.59549,-0.0411027 6.85479,0.346113 7.96117,0.713202l0 0.33364c-1.11941,0.0904259 -4.42208,0.0479059 -7.77521,0.0700163 -3.26922,0.0215435 -6.46474,0.0280632 -7.6536,-0.047339l0 -0.344412c1.11204,-0.330239 4.01304,-0.685706 7.46765,-0.725108z"/>
    <path id="_46468960" class="fil12" d="M7.89172 14.2881c3.45178,-0.02126 6.97215,0.361704 7.97704,0.694777l0 0.222521c-0.983913,0.0691659 -4.37956,0.0541422 -7.80271,0.0654808 -3.25732,0.0110552 -6.47665,0.0068032 -7.62611,-0.0470555l0 -0.271278c1.11799,-0.305861 4.19956,-0.644037 7.45178,-0.664446z"/>
   </g>
   <path id="_86136832" class="fil13" d="M7.87499 14.3264c3.30239,0 7.15555,0.375594 7.99376,0.668698l0 0.125009c-1.5242,0.0720006 -13.1208,0.0720006 -15.4288,0.00963787l0 -0.204946c1.11828,-0.279782 4.40111,-0.598398 7.43505,-0.598398z"/>
  </g>
  <path class="fil14" d="M12.7639 4.87166l0.00311813 3.91298 -0.101198 0 -0.00311813 -3.91298 0 -1.18149 0 0 0.0008504 -2.05117c0.0351499,0.0192757 0.0688824,0.0354333 0.100631,0.0484728l-0.000566934 2.00269 0.000283467 0 0 1.18149zm-9.80455 3.96542l-0.0034016 -3.98894 0 -0.570619 -0.000566934 0 0 -0.060095 0 -2.63596c0,-0.0368507 0.0025512,-0.0731344 0.00737014,-0.108851 0.0328821,-0.0059528 0.0677486,-0.0107717 0.10545,-0.0155907 -0.00737014,0.0399688 -0.0113387,0.0819219 -0.0113387,0.124442l0 2.57558 0.000283467 0 0 0.0603784 0 0.630714 0.0034016 3.98894 -0.101198 0z"/>
  <path class="fil15" d="M2.38566 4.24038l11.3682 0.48076c0.164978,0.000566934 0.210616,0.135214 0.300191,0.250868l0.397137 0.288002 -0.115938 1.93069c-0.00822054,0.137765 -0.135214,0.250868 -0.299908,0.250868l-12.2696 0c-0.164694,0 -0.294239,-0.11282 -0.299908,-0.250868l-0.081355 -1.68323 0.701297 -1.01623c0.0824888,-0.11934 0.13493,-0.251152 0.299908,-0.250868z"/>
  <path class="fil16" d="M3.13628 2.64418l-0.0221104 -1.6923c0,-0.166678 0.10545,-0.300191 0.194458,-0.419247 0.113954,-0.16923 0.3892,-0.285451 0.581674,-0.285451l8.31862 -0.0144568c0.341294,-0.000566934 0.639218,0.33364 0.635533,0.746085 -0.00566934,0.573453 0.0286301,1.13132 0.0289136,1.69031l0.00368507 5.3374 -9.79151 -0.025512 0.0493232 -5.28581c0.000283467,-0.017008 0.000566934,-0.0342995 0.00141733,-0.051024z"/>
  <path class="fil17" d="M3.02941 2.88031l-0.0221104 -1.68266 -0.00198427 -0.0059528c0,-0.3189 0.14797,-0.520162 0.280916,-0.697328l-0.0008504 -0.000566934c0.104316,-0.155056 0.267309,-0.281766 0.442492,-0.367656 0.178868,-0.0875912 0.38268,-0.138899 0.553611,-0.138899l0 0.00198427 7.58387 -0.0017008 0.00198427 -0.00198427 0.0068032 0 0.00396854 0.00198427c0.316916,0.0025512 0.606902,0.151088 0.812699,0.388916 0.188505,0.217136 0.309262,0.516193 0.310113,0.844164l0.00198427 0 0 0.0110552 -0.00198427 0.00396854c-0.00283467,0.297924 0.0059528,0.602934 0.0141733,0.905109 0.00822054,0.290837 0.0167245,0.58139 0.0167245,0.781234l-0.00198427 0 -0.0462051 5.04628 0.000283467 0.500035 -0.498335 0 -9.00886 0.100914 -0.502587 0 0.00453547 -0.504004 0.0496067 -5.13387 0 -0.00566934 0.00113387 -0.0453547zm0.973992 -1.66338l0.0221104 1.6614 -0.498051 0.0059528 0.498051 0.00963787 -0.00113387 0.051024 -0.0447878 4.62419 8.00765 -0.100914 0.0464886 -4.54624 -0.00198427 0c0,-0.310963 -0.00651974,-0.532351 -0.012756,-0.754022 -0.008504,-0.305577 -0.0172915,-0.550493 -0.0141733,-0.873078l-0.00198427 0 0 -0.0110552 0.00198427 0c0,-0.0759691 -0.0269293,-0.144285 -0.068032,-0.191624 -0.0223939,-0.0257955 -0.0450712,-0.0428035 -0.0626462,-0.0450712l0 0.0017008 -0.0068032 0 0 -0.00198427 -7.58387 -0.0362838 -0.00198427 0.00198427c-0.0300475,0 -0.0731344,0.0124725 -0.115938,0.0334491 -0.0272128,0.0133229 -0.0479059,0.025512 -0.0518744,0.0314648l-0.0136064 0.0175749 -0.0107717 0.0144568 -0.00198427 0.00198427c-0.038268,0.051024 -0.0819219,0.102048 -0.0819219,0.10545l-0.00198427 0z"/>
  <path class="fil18" d="M13.6509 5.76968l0.0201261 0.124725 -11.4373 -0.0677486 0 -2.70116c0,-0.166395 0.0660478,-0.319184 0.174616,-0.43824 0.139182,-0.16923 0.350365,-0.277514 0.585359,-0.277514l9.92587 0.0677486c0.41698,0.000566934 0.787187,0.343562 0.782652,0.758274l-0.0303309 2.53391 -0.0209765 0z"/>
  <path class="fil19" d="M2.19772 6.11126l-0.00198427 -1.69258c0,-0.166395 0.0660478,-0.319467 0.174899,-0.437956 0.139182,-0.169513 0.301042,-0.105733 0.536036,-0.105733l10.1532 -0.00566934c0.41698,0.000566934 0.658777,0.185671 0.653958,0.598398 -0.0068032,0.573453 0.0351499,1.15428 0.0357168,1.71327l0.00481894 5.19821 -11.5538 0.0575438 -0.00481894 -5.27447c0,-0.0172915 0.000566934,-0.0342995 0.00198427,-0.051024z"/>
  <path class="fil20" d="M2.0455 5.29119l-0.0008504 -0.684005c4.15874,-0.012756 7.8954,0.055843 12.053,-0.017008 -0.00141733,0.233293 0.0051024,0.46772 0.0133229,0.701013l-12.0655 0z"/>
  <path class="fil21" d="M1.46751 7.01495l0.0215435 -1.09928c0,-0.121891 0.0575438,-0.23386 0.152505,-0.320601 0.121891,-0.123875 0.306428,-0.203246 0.512225,-0.203246l11.8058 -0.00283467c0.364822,0 0.684289,0.243215 0.679186,0.545957 -0.00708667,0.420381 0.00793707,0.705549 0.00793707,1.11459l0 7.06853c0,0.303309 -0.292538,0.555595 -0.649422,0.555595 -4.27836,0 -4.58479,0.00283467 -11.8818,0.00283467 -0.356601,0 -0.649422,-0.250018 -0.649422,-0.555595l0 -7.06853c0,-0.0124725 0.000283467,-0.0249451 0.00141733,-0.0374176z"/>
  <path class="fil22" d="M15.0209 7.49373l0 6.44745c0,0.304443 -0.141166,0.577705 -0.367373,0.770746 -0.20438,0.174899 -0.481894,0.284601 -0.782368,0.284601l0 -0.00198427 -4.09298 0.00113387 -7.66267 0.00368507c-0.299624,0 -0.577705,-0.109418 -0.782935,-0.284317 -0.225923,-0.193041 -0.366523,-0.466303 -0.366523,-0.771313l0 -6.45 1.00007 0 0 6.45 0.0150237 0.0133229c0.0303309,0.0257955 0.0779534,0.0422366 0.134363,0.0422366l7.66267 0.000283467 4.09298 -0.00113387 0 -0.00198427c0.055843,0 0.103465,-0.0164411 0.133796,-0.04252l0.0158741 -0.012756 0 -6.44745 1.00007 0z"/>
  <path class="fil23" d="M1.43689 5.75097c0,-0.122458 0.0578272,-0.234711 0.153639,-0.322302 0.122458,-0.124442 0.307845,-0.204096 0.514776,-0.204096l11.6278 0c0.366806,0 0.688541,0.243781 0.683155,0.548792"/>
  <path class="fil24" d="M14.5237 5.24187l0.624477 1.80512c-0.00453547,0.0997803 -0.0379846,0.187938 -0.204663,0.194742 -4.68826,0 -9.33598,0.0289136 -14.024,0.0289136 -0.0861739,-0.00226773 -0.218553,-0.0337325 -0.205797,-0.146552l0.632698 -1.88222 13.1772 0z"/>
  <polygon class="fil25" points="8.12019,13.8329 11.1037,10.9138 9.98909,10.9138 9.87967,10.9138 9.87967,10.8823 12.4691,10.9761 12.7345,11.0555 8.21147,14.615 8.1389,14.6793 8.06633,14.615 3.532,11.0356 3.53341,11.032 5.99589,10.907 5.99589,10.9384 5.88619,10.9384 4.86429,10.9384 "/>
  <polygon class="fil26" points="8.10687,13.9069 11.6397,11.007 9.92105,11.007 9.94402,9.07235 6.03813,9.07235 6.02169,11.007 4.50996,11.007 "/>
  <path class="fil27" d="M14.0682 5.87428l0.089292 0.547374 -0.589044 -0.00368507 -11.0337 -0.0677486 -0.498051 -0.00283467 0 -0.495216 0 -2.70172c0,-0.142584 0.0291971,-0.283467 0.0819219,-0.415846 0.0532918,-0.134363 0.130111,-0.255404 0.223655,-0.358019l0.000566934 0.000566934c0.114804,-0.134363 0.257671,-0.245199 0.418114,-0.320884 0.128977,-0.0609454 0.26901,-0.101198 0.415846,-0.115371l0 1.02275c-0.0317483,0.0164411 -0.059528,0.0391184 -0.080788,0.0651974l-0.0155907 0.0195592c-0.0167245,0.0184253 -0.0294805,0.0371342 -0.0360003,0.0535752 -0.00481894,0.0121891 -0.0076536,0.0286301 -0.0076536,0.0484728l0 2.20651 9.94628 0.0615123 -0.0201261 -0.123592 0.115938 0 0.0243781 -2.03387 -0.00198427 0 0 -0.00651974 0.00198427 0c0,-0.0606619 -0.0308979,-0.120473 -0.0788038,-0.166395 -0.0223939,-0.0215435 -0.0479059,-0.0399688 -0.0751187,-0.0541422l0 -1.02218c0.291687,0.0308979 0.560697,0.160726 0.762809,0.353483 0.236695,0.226207 0.387499,0.541422 0.387216,0.889235l0.00198427 0 0 0.00651974 -0.00198427 0.0059528 -0.0303309 2.53391 -0.0008504 0.0734179z"/>
  <path class="fil28" d="M3.17681 1.9409c0.0396854,-0.00396854 0.0796542,-0.0059528 0.119906,-0.0059528l0.00198427 0.00198427 9.51995 0.0677486 0 -0.00198427 0.00737014 0 0.00396854 0.00198427c0.0402523,0.000566934 0.0799376,0.00311813 0.11934,0.00708667l0 1.02218c-0.0385515,-0.0201261 -0.080788,-0.0320317 -0.123308,-0.0331656l0 0.00198427 -0.00737014 0 -0.00198427 -0.00198427 -9.51995 -0.0677486 0 0.00198427c-0.0402523,0 -0.0782368,0.00878747 -0.109985,0.0238112l-0.00992134 0.00481894 0 -1.02275z"/>
  <path class="fil29" d="M14.2332 5.11402l0.131812 0.257104c0.0989299,0.19049 0.302176,0.636383 0.0470555,0.716321l-0.0354333 0.0720006 -0.0649139 -0.000283467 -12.608 0 -0.0357168 0.0172915c-0.25512,-0.0796542 -0.36879,-0.614839 -0.26986,-0.805329l0.166962 -0.257104 12.6681 0z"/>
  <path class="fil30" d="M14.5495 5.99986l0.596131 0.99015c-0.00453547,0.0997803 -0.0377011,0.187938 -0.20438,0.194742 -4.68826,0 -9.3476,0.0116221 -14.0356,0.0116221 -0.0861739,-0.00226773 -0.218553,-0.0334491 -0.20608,-0.146552l0.672667 -1.027 0.242364 -0.0238112 12.9349 0.0008504z"/>
  <path class="fil31" d="M14.0395 3.47304l1.05903 1.4213 0.00113387 0.00141733c0.0756856,0.110836 0.108284,0.198427 0.164411,0.350365l0.0739848 0.193608 0.636666 1.61293 -0.917299 0.324853 -0.636666 -1.61264 -0.000566934 -0.0017008 -0.0756856 -0.198143 -0.00113387 -0.00283467c-0.0436539,-0.118489 -0.220821,-0.439657 -0.263057,-0.501453l0.150237 0.251152 -0.209198 -0.338743 0.0181419 -1.50011zm-14.0809 3.74346l0.631564 -1.6716 0.0521579 -0.14882c0.0484728,-0.142017 0.102332,-0.29764 0.16186,-0.386365l1.25774 -1.45078 0.0504571 1.42272 -0.502587 0.330239 -0.00226773 0.00283467c-0.0226773,0.0325987 -0.0657643,0.158174 -0.105166,0.273829l-0.000566934 0.0017008 -0.0521579 0.14882 -0.00226773 0.00566934 -0.633832 1.67727 -0.854936 -0.205513z"/>
  <polygon class="fil22" points="16.0422,8.01276 0.00793707,8.01276 0.00793707,7.00078 16.0422,7.00078 "/>
  <polygon class="fil32" points="14.8868,8.69251 1.30253,8.69251 1.30253,7.93367 14.8868,7.93367 "/>
 </g>
</svg>
