<?xml version="1.0" encoding="UTF-8"?>
<!DOCTYPE svg PUBLIC "-//W3C//DTD SVG 1.1//EN" "http://www.w3.org/Graphics/SVG/1.1/DTD/svg11.dtd">
<!-- Creator: CorelDRAW -->
<svg xmlns="http://www.w3.org/2000/svg" xml:space="preserve" width="48px" height="48px" style="shape-rendering:geometricPrecision; text-rendering:geometricPrecision; image-rendering:optimizeQuality; fill-rule:evenodd; clip-rule:evenodd"
viewBox="0 0 48 48"
 xmlns:xlink="http://www.w3.org/1999/xlink">
 <defs>
  <style type="text/css">
   <![CDATA[
    .fil48 {fill:none}
    .fil14 {fill:#8FCDFF}
    .fil19 {fill:#E8DACF}
    .fil49 {fill:#EDA54E}
    .fil23 {fill:#D8F392}
    .fil72 {fill:#F3F3F3}
    .fil21 {fill:white;fill-rule:nonzero}
    .fil70 {fill:#86A158;fill-rule:nonzero}
    .fil69 {fill:#915118;fill-rule:nonzero}
    .fil71 {fill:#9BBA65;fill-rule:nonzero}
    .fil55 {fill:#9E6021;fill-rule:nonzero}
    .fil22 {fill:#C4AE9A;fill-rule:nonzero}
    .fil53 {fill:#FFB75E;fill-rule:nonzero}
    .fil54 {fill:#FFD199;fill-rule:nonzero}
    .fil73 {fill:#F3F3F3;fill-rule:nonzero}
    .fil0 {fill:black;fill-opacity:0.000000}
    .fil25 {fill:#5C3106;fill-opacity:0.000000}
    .fil36 {fill:#BD7E31;fill-opacity:0.000000}
    .fil58 {fill:#C48231;fill-opacity:0.000000}
    .fil1 {fill:black;fill-opacity:0.003922}
    .fil37 {fill:#BD7E31;fill-opacity:0.007843}
    .fil59 {fill:#C48231;fill-opacity:0.007843}
    .fil2 {fill:black;fill-opacity:0.007843}
    .fil26 {fill:#5C3106;fill-opacity:0.011765}
    .fil3 {fill:black;fill-opacity:0.015686}
    .fil38 {fill:#BD7E31;fill-opacity:0.019608}
    .fil60 {fill:#C48231;fill-opacity:0.019608}
    .fil4 {fill:black;fill-opacity:0.019608}
    .fil5 {fill:black;fill-opacity:0.023529}
    .fil27 {fill:#5C3106;fill-opacity:0.027451}
    .fil39 {fill:#BD7E31;fill-opacity:0.027451}
    .fil61 {fill:#C48231;fill-opacity:0.027451}
    .fil6 {fill:black;fill-opacity:0.027451}
    .fil7 {fill:black;fill-opacity:0.031373}
    .fil40 {fill:#BD7E31;fill-opacity:0.035294}
    .fil62 {fill:#C48231;fill-opacity:0.035294}
    .fil8 {fill:black;fill-opacity:0.035294}
    .fil28 {fill:#5C3106;fill-opacity:0.039216}
    .fil9 {fill:black;fill-opacity:0.043137}
    .fil41 {fill:#BD7E31;fill-opacity:0.043137}
    .fil63 {fill:#C48231;fill-opacity:0.043137}
    .fil10 {fill:black;fill-opacity:0.047059}
    .fil11 {fill:black;fill-opacity:0.050980}
    .fil29 {fill:#5C3106;fill-opacity:0.054902}
    .fil42 {fill:#BD7E31;fill-opacity:0.054902}
    .fil64 {fill:#C48231;fill-opacity:0.054902}
    .fil12 {fill:black;fill-opacity:0.054902}
    .fil13 {fill:black;fill-opacity:0.058824}
    .fil43 {fill:#BD7E31;fill-opacity:0.062745}
    .fil65 {fill:#C48231;fill-opacity:0.062745}
    .fil30 {fill:#5C3106;fill-opacity:0.066667}
    .fil44 {fill:#BD7E31;fill-opacity:0.070588}
    .fil66 {fill:#C48231;fill-opacity:0.070588}
    .fil31 {fill:#5C3106;fill-opacity:0.078431}
    .fil45 {fill:#BD7E31;fill-opacity:0.078431}
    .fil67 {fill:#C48231;fill-opacity:0.078431}
    .fil32 {fill:#5C3106;fill-opacity:0.094118}
    .fil33 {fill:#5C3106;fill-opacity:0.105882}
    .fil34 {fill:#5C3106;fill-opacity:0.121569}
    .fil20 {fill:#5E6947;fill-opacity:0.219608}
    .fil52 {fill:#693E19;fill-opacity:0.439216}
    .fil50 {fill:#FFB75E;fill-rule:nonzero;fill-opacity:0.439216}
    .fil47 {fill:#F8EBB3;fill-opacity:0.580392}
    .fil57 {fill:#FFD199;fill-opacity:0.580392}
    .fil46 {fill:#FFB75E;fill-rule:nonzero;fill-opacity:0.780392}
    .fil24 {fill:url(#id0)}
    .fil51 {fill:url(#id1)}
    .fil18 {fill:url(#id2)}
    .fil56 {fill:url(#id3)}
    .fil35 {fill:url(#id4)}
    .fil68 {fill:url(#id5);fill-rule:nonzero}
    .fil16 {fill:url(#id6);fill-rule:nonzero}
    .fil15 {fill:url(#id7);fill-rule:nonzero;fill-opacity:0.439216}
    .fil17 {fill:url(#id8);fill-rule:nonzero;fill-opacity:0.501961}
   ]]>
  </style>
  <linearGradient id="id0" gradientUnits="userSpaceOnUse" x1="23.0256" y1="9.98504" x2="25.0665" y2="34.8768">
   <stop offset="0" style="stop-color:#C0E36F"/>
   <stop offset="0.419608" style="stop-color:#ACD156"/>
   <stop offset="1" style="stop-color:#9EC444"/>
  </linearGradient>
  <linearGradient id="id1" gradientUnits="userSpaceOnUse" x1="24.0012" y1="28.6913" x2="24.8126" y2="43.6417">
   <stop offset="0" style="stop-color:#8C551E"/>
   <stop offset="1" style="stop-color:#804716"/>
  </linearGradient>
  <linearGradient id="id2" gradientUnits="userSpaceOnUse" x1="24.5894" y1="13.4846" x2="23.6811" y2="23.2925">
   <stop offset="0" style="stop-color:#9D6123"/>
   <stop offset="0.568627" style="stop-color:#B3732A"/>
   <stop offset="1" style="stop-color:#C48231"/>
  </linearGradient>
  <linearGradient id="id3" gradientUnits="userSpaceOnUse" x1="24.1311" y1="17.7413" x2="24.1311" y2="22.3878">
   <stop offset="0" style="stop-color:#FFB861"/>
   <stop offset="1" style="stop-color:#FAB764"/>
  </linearGradient>
  <linearGradient id="id4" gradientUnits="userSpaceOnUse" x1="24.0685" y1="22.0028" x2="24.0685" y2="41.6634">
   <stop offset="0" style="stop-color:#E69D45"/>
   <stop offset="1" style="stop-color:#D49242"/>
  </linearGradient>
  <linearGradient id="id5" gradientUnits="userSpaceOnUse" x1="23.9906" y1="13.1161" x2="24.3142" y2="23.0657">
   <stop offset="0" style="stop-color:#C48231"/>
   <stop offset="1" style="stop-color:#985C21"/>
  </linearGradient>
  <linearGradient id="id6" gradientUnits="userSpaceOnUse" x1="23.9693" y1="9.36614" x2="24.0449" y2="2.81339">
   <stop offset="0" style="stop-color:#4E87B4"/>
   <stop offset="1" style="stop-color:#66A1D1"/>
  </linearGradient>
  <linearGradient id="id7" gradientUnits="userSpaceOnUse" xlink:href="#id6" x1="31.1799" y1="6.45" x2="31.2933" y2="1.51299">
  </linearGradient>
  <linearGradient id="id8" gradientUnits="userSpaceOnUse" x1="16.9098" y1="10.6453" x2="15.5185" y2="47.498">
   <stop offset="0" style="stop-color:#F8FFC4"/>
   <stop offset="1" style="stop-color:#ADD158"/>
  </linearGradient>
 </defs>
 <g id="Слой_x0020_1">
  <metadata id="CorelCorpID_0Corel-Layer"/>
  <g id="_86916408">
   <path id="_90444384" class="fil0" d="M23.0575 41.0161c14.7638,-0.640157 20.7413,0.858661 23.0646,2.80512l0 4.07008c-0.131102,0.0389764 -0.270472,0.0755906 -0.419291,0.108661l-43.976 0 0 -3.15354c1.76102,-1.62402 6.82559,-3.20079 21.3307,-3.83031z"/>
   <g>
    <path id="_45789168" class="fil1" d="M23.1083 41.3752c14.8193,-0.620079 20.7992,0.973228 23.0138,2.93858l0 3.48661c-0.237402,0.0767717 -0.506693,0.142913 -0.807874,0.199606l-43.3406 0 -0.24685 -0.0956693 0 -2.58543c1.58268,-1.65118 6.50197,-3.32244 21.3815,-3.9437z"/>
    <path id="_85942784" class="fil2" d="M23.1567 41.7319c14.8394,-0.595276 20.8701,1.08898 22.9654,3.05551l0 2.9185c-0.340157,0.121654 -0.766535,0.219685 -1.26732,0.294094l-42.5386 0c-0.231496,-0.0673228 -0.427559,-0.140551 -0.58937,-0.222047l0 -1.99961c1.38898,-1.66535 6.19252,-3.43583 21.4299,-4.04646z"/>
    <path id="_88010984" class="fil3" d="M23.2051 42.0909c14.8276,-0.56811 20.9657,1.20236 22.9169,3.15354l0 2.36693c-0.434646,0.174803 -1.04646,0.301181 -1.81063,0.388583l-41.6138 0c-0.427559,-0.100394 -0.753543,-0.218504 -0.970866,-0.357874l0 -1.41142c1.14331,-1.66299 5.87126,-3.54331 21.4783,-4.13976z"/>
    <path id="_88533160" class="fil4" d="M23.2535 42.4488c14.785,-0.533858 21.1063,1.31457 22.8685,3.2315l0 1.83189c-0.516142,0.245669 -1.38307,0.398031 -2.53465,0.487795l-40.4386 0c-0.727559,-0.133465 -1.21654,-0.308268 -1.42205,-0.530315l0 -0.752362c0.732283,-1.64409 5.38346,-3.68386 21.5268,-4.2685z"/>
    <path id="_89381824" class="fil5" d="M23.302 42.8079c14.7496,-0.499606 21.339,1.43504 22.8201,3.3l0 1.29449c-0.569291,0.344882 -1.84488,0.517323 -3.63543,0.597638l-11.3433 0c-1.10669,-0.00590551 -2.24055,-0.00708661 -3.39685,0l-24.039 0c-1.20709,-0.165354 -1.8874,-0.409843 -1.8874,-0.758268 0,-1.58976 4.57087,-3.86102 21.4819,-4.43386z"/>
    <path id="_87370752" class="fil6" d="M23.3504 43.1657c14.8346,-0.464173 21.7972,1.59449 22.7717,3.39685l0 0.698031c-0.605906,0.615354 -3.44055,0.73937 -7.47047,0.73937 -4.00157,0 -9.17717,-0.120472 -14.5122,0l-19.6713 0c-1.55079,-0.145276 -2.4437,-0.379134 -2.4437,-0.732283 0,-1.47638 5.32441,-3.6 21.326,-4.10197z"/>
    <path id="_86461152" class="fil7" d="M23.3988 43.5248c15.0898,-0.429921 22.5898,1.81299 22.6323,3.52205 0.0437008,1.40433 -10.6996,0.667323 -22.0358,0.9l-2.69291 0.0531496 -15.6295 0c-2.15787,-0.11811 -3.44409,-0.337795 -3.44409,-0.706299 0,-1.36181 6.07913,-3.34016 21.1701,-3.7689z"/>
    <path id="_86006312" class="fil8" d="M23.4472 43.8827c14.1803,-0.357874 22.3382,1.69252 22.3736,3.23031 0.0354331,1.18819 -10.6382,0.583465 -21.8055,0.777165 -2.5311,0.0437008 -5.02205,0.0838583 -7.36299,0.109843l-8.34921 0c-3.5811,-0.0685039 -5.87008,-0.261024 -5.87008,-0.680315 0,-1.24843 6.83268,-3.07913 21.0142,-3.43701z"/>
    <path id="_45197832" class="fil9" d="M23.4957 44.2417c13.2709,-0.287008 22.0854,1.57087 22.1138,2.93622 0.0295276,0.973228 -10.5744,0.499606 -21.5764,0.654331 -10.9984,0.154724 -21.3957,0.248031 -21.3957,-0.486614 0,-1.13504 7.5874,-2.81811 20.8583,-3.10394z"/>
    <path id="_89631792" class="fil10" d="M23.5441 44.5996c12.3591,-0.21378 21.835,1.45039 21.8551,2.64449 0.0224409,0.757087 -10.5142,0.415748 -21.3461,0.531496 -10.8319,0.115748 -21.2114,0.172441 -21.2114,-0.405118 0,-1.01929 8.33976,-2.55591 20.7024,-2.77087z"/>
    <path id="_89662360" class="fil11" d="M23.5925 44.9587c11.4496,-0.142913 21.5823,1.32992 21.5965,2.35157 0.0141732,0.540945 -10.4528,0.330709 -21.1169,0.408661 -10.6642,0.0767717 -21.026,0.0968504 -21.026,-0.322441 0,-0.905906 9.09449,-2.29488 20.5465,-2.4378z"/>
    <path id="_87500960" class="fil12" d="M23.6421 45.3154c10.539,-0.0708661 21.3295,1.20945 21.3354,2.05866 0.00826772,0.325984 -10.3902,0.248031 -20.8866,0.285827 -10.4953,0.0389764 -20.8417,0.0224409 -20.8417,-0.238583 0,-0.791339 9.85039,-2.03386 20.3929,-2.10591z"/>
   </g>
   <path id="_87783232" class="fil13" d="M23.687 45.6768c9.63189,0 21.0791,1.0878 21.0791,1.76575 0,0.220866 -41.315,0.212598 -41.315,0.00708661 0,-0.677953 10.6039,-1.77283 20.2358,-1.77283z"/>
  </g>
  <path class="fil14" d="M38.439 11.0126l0.0543307 0.399213 -29.0268 -0.114567 0 -8.84409c0,-0.535039 0.177165,-1.0252 0.470079,-1.40551 0.374409,-0.543307 0.943701,-0.890551 1.57795,-0.890551l24.9531 0.0519685c1.12441,0.0023622 2.12126,1.10079 2.10945,2.43307l-0.0814961 8.37047 -0.0566929 0z"/>
  <path class="fil15" d="M8.96929 2.93031c0.113386,-0.0188976 0.229134,-0.0295276 0.347244,-0.0295276l0 0.0023622 1.30984 -0.819685 26.3657 -0.0614173c0.820866,0.0779528 0.938976,0.455906 1.45512,0.93189l0.00354331 0.25748 0.0555118 0.0153543 0.0224409 0.478346c-0.532677,-0.32126 -0.681496,-0.465354 -1.36063,-0.673228l-26.426 0.0519685 -1.36772 0.426378 0 0c-0.112205,0 -0.222047,0.0129921 -0.327165,0.0366142l-0.00826772 -0.283465 -0.0507874 0.0106299 -0.0188976 -0.343701z"/>
  <path class="fil16" d="M38.8996 11.6646l0.0744094 0.553937 -0.571654 -0.0023622 -28.8756 -0.115748 -0.500787 -0.0011811 0 -0.497244 0 -8.84409c0,-0.309449 0.0531496,-0.616535 0.148819,-0.903543l0 -0.0023622c0.0992126,-0.296457 0.245669,-0.56811 0.425197,-0.801969 0.230315,-0.328346 0.524409,-0.601181 0.858661,-0.788976l0 -0.0023622c0.336614,-0.188976 0.716929,-0.297638 1.11496,-0.297638l0.0023622 0.0023622 24.8008 0.0519685 0 -0.0023622 0.011811 0 0.00354331 0.0023622c0.703937,0.00590551 1.36181,0.344882 1.8378,0.883465l0.0023622 0.0023622c0.458268,0.522047 0.753543,1.24252 0.752362,2.02795l0.0023622 0 0 0.0177165 -0.0023622 0.00354331 -0.0814961 8.37047 -0.00354331 0.343701zm-28.872 -0.558661l27.8031 0.111024 -0.0555118 -0.400394 0.135827 0 0.0767717 -7.86969 -0.0023622 0 0 -0.0177165 0.0023622 0c0,-0.531496 -0.197244,-1.01929 -0.506693,-1.37126 -0.294094,-0.33189 -0.687402,-0.542126 -1.09252,-0.545669l0 0.0023622 -0.011811 0 -0.0023622 -0.0023622 -24.8008 -0.0519685 0 0.0023622c-0.222047,0 -0.435827,0.0614173 -0.625984,0.167717l-0.0011811 -0.0023622c-0.206693,0.115748 -0.392126,0.292913 -0.539764,0.507874l-0.0129921 0.0188976c-0.116929,0.152362 -0.211417,0.327165 -0.274016,0.51378l-0.0011811 0c-0.057874,0.175984 -0.0909449,0.376772 -0.0909449,0.58937l0 8.34803z"/>
  <path class="fil17" d="M39.678 15.2811l0.0106299 12.5492 -0.324803 0 -0.0106299 -12.5492 0 -3.79016 0 0 0.00354331 -6.57874c0.112205,0.0614173 0.219685,0.114567 0.322441,0.155906l-0.0023622 6.42283 0.0011811 0 0 3.79016zm-31.4469 12.7181l-0.0106299 -12.7949 0 -1.82835 0 0 0 -0.194882 0 -8.45315c0,-0.11811 0.00708661,-0.233858 0.0224409,-0.349606 0.105118,-0.0177165 0.218504,-0.034252 0.338976,-0.0496063 -0.023622,0.12874 -0.0366142,0.262205 -0.0366142,0.399213l0 8.26063 0 0 0 0.19252 0 2.02323 0.011811 12.7949 -0.325984 0z"/>
  <path class="fil18" d="M6.39213 13.2567l36.4606 1.54134c0.529134,0.0011811 0.675591,0.433465 0.962598,0.804331l1.27441 0.923622 -0.372047 6.19252c-0.0259843,0.441732 -0.433465,0.804331 -0.962598,0.804331l-39.3508 0c-0.527953,0 -0.944882,-0.362598 -0.962598,-0.804331l-0.261024 -5.39882 2.25 -3.25866c0.264567,-0.383858 0.432283,-0.806693 0.961417,-0.804331z"/>
  <path class="fil19" d="M6.95787 12.0827l-0.0767717 -5.42835c0,-0.532677 0.369685,-0.961417 0.680315,-1.34291 0.400394,-0.543307 1.36535,-0.916535 2.03976,-0.916535l28.774 -0.127559c1.19646,-0.00590551 2.24055,1.07008 2.22756,2.39291 -0.0188976,1.83898 0.100394,3.62835 0.101575,5.42126l0.0129921 17.1177 -33.9366 0 0.172441 -16.9524c0,-0.0555118 0.0011811,-0.109843 0.00472441,-0.164173z"/>
  <path class="fil20" d="M7.15866 13.4492l-0.0767717 -5.42835c0,-0.392126 0.100394,-0.757087 0.277559,-1.07717 0.10748,-0.0141732 0.216142,-0.0212598 0.328346,-0.0212598l32.3858 0.0602362c0.18189,0 0.361417,0.0200787 0.535039,0.0590551 0.127559,0.301181 0.199606,0.634252 0.196063,0.983858 -0.0188976,1.84016 0.0992126,3.62835 0.101575,5.42126l0.0023622 4.49291 -33.7984 -0.0555118 0.0437008 -4.27205c0.0011811,-0.0543307 0.0023622,-0.109843 0.00472441,-0.162992z"/>
  <path class="fil21" d="M7.4126 4.69252c0.116929,-0.0188976 0.23622,-0.0295276 0.357874,-0.0295276l0 0.0023622 1.35236 -0.819685 29.3917 0c0.84685,0.0779528 0.968504,0.455906 1.50118,0.93189l0.00354331 0.25748 0.0566929 0.0153543 0.023622 0.478346c-0.549213,-0.32126 -0.702756,-0.465354 -1.40433,-0.673228l-29.4531 -0.00944882 -1.41142 0.426378 0 0c-0.115748,0 -0.229134,0.0129921 -0.337795,0.0366142l-0.00826772 -0.283465 -0.0519685 0.0106299 -0.0200787 -0.343701zm34.7067 4.61929c0.0413386,0.223228 0.0708661,0.453543 0.0779528,0.698031l0.00944882 0.364961 -0.65315 0 -0.00708661 -0.272835 -0.0531496 0 -0.00944882 -0.347244 -0.0200787 -0.715748 0.595276 0 0.0437008 0.272835 0.0165354 0z"/>
  <path class="fil22" d="M40.9724 14.7839l0.080315 0.561024 -0.579921 -0.00472441 -32.9752 -0.244488 -0.498425 -0.00354331 0 -0.494882 0 -8.84528c0,-0.314173 0.0566929,-0.624803 0.16063,-0.914173l-0.0023622 -0.0011811c0.101575,-0.282283 0.252756,-0.551575 0.441732,-0.786614 0.245669,-0.334252 0.559843,-0.609449 0.918898,-0.800787l0.0023622 -0.0023622c0.350787,-0.185433 0.745276,-0.291732 1.15748,-0.291732l0 0.0023622 28.5957 0.0212598 0 -0.0023622 0.0212598 0 0.00354331 0.0023622c0.732283,0.00708661 1.4185,0.34252 1.91457,0.871654 0.491339,0.524409 0.806693,1.24488 0.806693,2.03268l0 0.0259843 -0.0023622 0.00354331 -0.0413386 8.53228 -0.00354331 0.338976zm-32.9717 -0.681496l31.8969 0.23622 -0.057874 -0.398031 0.144094 0 0.0366142 -8.0315 -0.0023622 0 0 -0.0259843c0,-0.524409 -0.209055,-1.00157 -0.532677,-1.34764 -0.317717,-0.338976 -0.746457,-0.555118 -1.19055,-0.559843l0 0.0023622 -0.0212598 0 0 -0.0023622 -28.5957 -0.0212598 0 0.0023622c-0.24685,0 -0.484252,0.0637795 -0.692126,0.173622l0 -0.0011811c-0.223228,0.119291 -0.424016,0.297638 -0.582283,0.512598l-0.0177165 0.0212598c-0.120472,0.146457 -0.218504,0.320079 -0.285827,0.509055l-0.0023622 0c-0.0625984,0.174803 -0.0968504,0.372047 -0.0968504,0.579921l0 8.35039zm-0.402756 -10.0512l0.0011811 -0.0011811"/>
  <path class="fil23" d="M42.6791 19.239l0.0649606 0.400394 -37.2331 -0.0602362 0 -8.66339c0,-0.533858 0.211417,-1.02402 0.559843,-1.40551 0.446457,-0.543307 1.12323,-0.890551 1.87677,-0.890551l32.3858 0.0602362c1.33819,0.0023622 2.5252,1.10197 2.51102,2.43189l-0.0980315 8.12717 -0.0673228 0z"/>
  <path class="fil24" d="M5.51693 17.7531l-0.00590551 -5.42835c0,-0.533858 0.211417,-1.02402 0.561024,-1.40551 0.446457,-0.542126 1.12205,-0.890551 1.87677,-0.890551l32.0126 0.0602362c1.33819,0.0023622 2.5063,1.0689 2.49094,2.39291 -0.0224409,1.84016 0.112205,3.70276 0.114567,5.49567l0.0153543 16.6713 -37.0559 0.184252 -0.0153543 -16.9157c0,-0.0555118 0.0023622,-0.109843 0.00590551,-0.164173z"/>
  <g id="_46046088">
   <path id="_46054088" class="fil25" d="M4.25197 12.8693l38.8654 -0.281102c0.00708661,1.63228 0.11811,3.27165 0.120472,4.85787l0.0011811 2.61024 -38.987 -0.125197 -0.0023622 -2.72953c0,-0.0543307 0.0023622,-0.109843 0.00590551,-0.164173l-0.00354331 -4.16811z"/>
   <g>
    <path id="_46052736" class="fil26" d="M4.25197 13.3736l38.8713 -0.281102c0.023622,1.46457 0.112205,2.93031 0.114567,4.35354l0.0023622 3.11339 -38.9882 -0.125197 -0.0023622 -3.23268c0,-0.0543307 0.0023622,-0.109843 0.00590551,-0.164173l-0.00354331 -3.66378z"/>
    <path id="_46051384" class="fil27" d="M4.25197 13.878l38.8819 -0.281102c0.0318898,1.29685 0.101575,2.59016 0.103937,3.84921l0.0023622 3.61654 -38.987 -0.124016 -0.00354331 -3.73701c0,-0.0543307 0.0023622,-0.109843 0.00590551,-0.164173l-0.00354331 -3.15945z"/>
    <path id="_46050032" class="fil28" d="M4.25197 14.3835l38.8961 -0.282283c0.0354331,1.12677 0.0885827,2.24882 0.0897638,3.34488l0.00354331 4.11969 -38.9882 -0.124016 -0.00354331 -4.24016c0,-0.0543307 0.0023622,-0.109843 0.00590551,-0.164173l-0.00354331 -2.65394z"/>
    <path id="_46048680" class="fil29" d="M4.25315 14.8878l38.9114 -0.282283c0.0330709,0.956693 0.0720472,1.90748 0.0732283,2.84055l0.00354331 4.62402 -38.987 -0.125197 -0.00472441 -4.74331c0,-0.0543307 0.0023622,-0.109843 0.00590551,-0.164173l-0.0023622 -2.14961z"/>
    <path id="_46043040" class="fil30" d="M4.25315 15.3921l38.928 -0.281102c0.0283465,0.785433 0.0555118,1.56732 0.0566929,2.33504l0.00354331 5.12717 -38.987 -0.125197 -0.00472441 -5.24646c0,-0.0543307 0.0023622,-0.109843 0.00590551,-0.164173l-0.0023622 -1.64528z"/>
    <path id="_46041816" class="fil31" d="M4.25433 15.8965l38.9457 -0.282283c0.0200787,0.616535 0.0366142,1.22717 0.0377953,1.83189l0.00354331 5.63031 -38.9858 -0.125197 -0.00590551 -5.74961c0,-0.0543307 0.0023622,-0.109843 0.00590551,-0.164173l-0.0011811 -1.14094z"/>
    <path id="_46040944" class="fil32" d="M4.25551 16.402l38.9598 -0.283465c0.011811,0.446457 0.0212598,0.88937 0.0224409,1.32756l0.00472441 6.13465 -38.987 -0.126378 -0.00590551 -6.25276c0,-0.0543307 0.0023622,-0.109843 0.00590551,-0.164173l0 -0.635433z"/>
    <path id="_46039968" class="fil33" d="M4.25551 16.9063l38.9717 -0.283465c0.00590551,0.276378 0.00944882,0.550394 0.0106299,0.823228l0.00590551 6.6378 -38.9882 -0.126378 -0.00590551 -6.75591c0,-0.0543307 0.0023622,-0.109843 0.00590551,-0.164173l0 -0.131102z"/>
   </g>
   <polygon id="_46046128" class="fil34" points="4.24961,17.4094 43.2354,17.1272 43.2378,17.4461 43.2437,24.587 4.25551,24.4606 "/>
  </g>
  <path class="fil35" d="M3.44764 22.1551l0.0685039 -3.52677c0,-0.389764 0.185433,-0.748819 0.490157,-1.02756 0.390945,-0.398031 0.982677,-0.651969 1.64173,-0.651969l36.8409 -0.00944882c1.17047,0 2.19567,0.780709 2.17913,1.75157 -0.0224409,1.34764 0.0259843,2.26299 0.0259843,3.5752l0 22.6701c0,0.973228 -0.938976,1.78228 -2.08346,1.78228 -13.7209,0 -13.6819,0.00826772 -37.0843,0.00826772 -1.14449,0 -2.08346,-0.801969 -2.08346,-1.7811l0 -22.6713c0,-0.0401575 0.0011811,-0.080315 0.00472441,-0.119291z"/>
  <g id="_45934328">
   <path id="_45949960" class="fil36" d="M43.285 46.9972c0,0 2.79094,-0.744094 1.60748,-1.2685 -1.18465,-0.523228 -3.55157,-2.4378 -13.4457,-2.84055 -9.89291,-0.402756 -9.47008,3.82795 -5.07283,4.13031 4.39606,0.301181 8.87835,0.745276 16.911,-0.0212598z"/>
   <g>
    <path id="_45948552" class="fil37" d="M43.3535 46.8768c0,0 2.54055,-0.680315 1.4622,-1.1563 -1.07835,-0.478346 -3.47126,-2.30787 -12.4783,-2.6752 -9.00827,-0.367323 -8.43189,3.45354 -4.42795,3.72874 4.00276,0.275197 8.13071,0.798425 15.4441,0.102756z"/>
    <path id="_45947176" class="fil38" d="M43.422 46.7539c0,0 2.29134,-0.612992 1.31811,-1.04291 -0.972047,-0.429921 -3.39213,-2.17677 -11.5146,-2.50866 -8.12126,-0.329528 -7.39134,3.07913 -3.78071,3.32717 3.60945,0.248031 7.38189,0.851575 13.9772,0.224409z"/>
    <path id="_45945800" class="fil39" d="M43.4894 46.6323c0,0 2.04213,-0.54685 1.1752,-0.929528 -0.865748,-0.382677 -3.31417,-2.04685 -10.5496,-2.34213 -7.23661,-0.294094 -6.35197,2.70354 -3.13583,2.92441 3.21732,0.222047 6.63543,0.907087 12.5102,0.347244z"/>
    <path id="_45944392" class="fil40" d="M43.5591 46.5106c0,0 1.79055,-0.479528 1.02992,-0.814961 -0.759449,-0.336614 -3.23386,-1.91811 -9.58346,-2.17677 -6.35079,-0.258661 -5.3126,2.32913 -2.48976,2.52402 2.82283,0.193701 5.88661,0.957874 11.0433,0.467717z"/>
    <path id="_45942880" class="fil41" d="M43.6264 46.389c0,0 1.54016,-0.413386 0.887008,-0.701575 -0.655512,-0.28937 -3.15591,-1.78701 -8.62087,-2.01024 -5.46378,-0.222047 -4.27205,1.95472 -1.8437,2.12126 2.42835,0.167717 5.14016,1.01339 9.57756,0.590551z"/>
    <path id="_45941504" class="fil42" d="M43.6949 46.2673c0,0 1.29094,-0.346063 0.742913,-0.588189 -0.548031,-0.242126 -3.07677,-1.65709 -7.65591,-1.8437 -4.57795,-0.186614 -3.2315,1.58031 -1.19764,1.72087 2.03504,0.13937 4.39252,1.06535 8.11063,0.711024z"/>
    <path id="_45940144" class="fil43" d="M43.7622 46.1457c0,0 1.04173,-0.279921 0.6,-0.474803 -0.441732,-0.194882 -2.99764,-1.52717 -6.68976,-1.67717 -3.69331,-0.15 -2.19331,1.20591 -0.552756,1.31929 1.64173,0.112205 3.64488,1.1185 6.64252,0.832677z"/>
    <path id="_45938168" class="fil44" d="M43.8307 46.0228c0,0 0.791339,-0.211417 0.455906,-0.360236 -0.336614,-0.148819 -2.9185,-1.39724 -5.72598,-1.51181 -2.80748,-0.114567 -1.15276,0.831496 0.0944882,0.916535 1.24843,0.0862205 2.89724,1.17283 5.17559,0.955512z"/>
   </g>
   <path id="_45934352" class="fil45" d="M43.898 45.9035c0,0 0.542126,-0.144094 0.311811,-0.24685 -0.229134,-0.101575 -2.83819,-1.26732 -4.75984,-1.34528 -1.92047,-0.0779528 -0.113386,0.455906 0.740551,0.514961 0.853937,0.057874 2.14843,1.22598 3.70748,1.07717z"/>
  </g>
  <g id="_86681640">
   <path id="_86568816" class="fil36" d="M43.285 46.9972c0,0 2.79094,-0.744094 1.60748,-1.2685 -1.18465,-0.523228 -3.55157,-2.4378 -13.4457,-2.84055 -9.89291,-0.402756 -9.47008,3.82795 -5.07283,4.13031 4.39606,0.301181 8.87835,0.745276 16.911,-0.0212598z"/>
   <g>
    <path id="_46036768" class="fil37" d="M43.3535 46.8768c0,0 2.54055,-0.680315 1.4622,-1.1563 -1.07835,-0.478346 -3.47126,-2.30787 -12.4783,-2.6752 -9.00827,-0.367323 -8.43189,3.45354 -4.42795,3.72874 4.00276,0.275197 8.13071,0.798425 15.4441,0.102756z"/>
    <path id="_89994824" class="fil38" d="M43.422 46.7539c0,0 2.29134,-0.612992 1.31811,-1.04291 -0.972047,-0.429921 -3.39213,-2.17677 -11.5146,-2.50866 -8.12126,-0.329528 -7.39134,3.07913 -3.78071,3.32717 3.60945,0.248031 7.38189,0.851575 13.9772,0.224409z"/>
    <path id="_86551544" class="fil39" d="M43.4894 46.6323c0,0 2.04213,-0.54685 1.1752,-0.929528 -0.865748,-0.382677 -3.31417,-2.04685 -10.5496,-2.34213 -7.23661,-0.294094 -6.35197,2.70354 -3.13583,2.92441 3.21732,0.222047 6.63543,0.907087 12.5102,0.347244z"/>
    <path id="_89381800" class="fil40" d="M43.5591 46.5106c0,0 1.79055,-0.479528 1.02992,-0.814961 -0.759449,-0.336614 -3.23386,-1.91811 -9.58346,-2.17677 -6.35079,-0.258661 -5.3126,2.32913 -2.48976,2.52402 2.82283,0.193701 5.88661,0.957874 11.0433,0.467717z"/>
    <path id="_27620360" class="fil41" d="M43.6264 46.389c0,0 1.54016,-0.413386 0.887008,-0.701575 -0.655512,-0.28937 -3.15591,-1.78701 -8.62087,-2.01024 -5.46378,-0.222047 -4.27205,1.95472 -1.8437,2.12126 2.42835,0.167717 5.14016,1.01339 9.57756,0.590551z"/>
    <path id="_46423216" class="fil42" d="M43.6949 46.2673c0,0 1.29094,-0.346063 0.742913,-0.588189 -0.548031,-0.242126 -3.07677,-1.65709 -7.65591,-1.8437 -4.57795,-0.186614 -3.2315,1.58031 -1.19764,1.72087 2.03504,0.13937 4.39252,1.06535 8.11063,0.711024z"/>
    <path id="_46469576" class="fil43" d="M43.7622 46.1457c0,0 1.04173,-0.279921 0.6,-0.474803 -0.441732,-0.194882 -2.99764,-1.52717 -6.68976,-1.67717 -3.69331,-0.15 -2.19331,1.20591 -0.552756,1.31929 1.64173,0.112205 3.64488,1.1185 6.64252,0.832677z"/>
    <path id="_87828456" class="fil44" d="M43.8307 46.0228c0,0 0.791339,-0.211417 0.455906,-0.360236 -0.336614,-0.148819 -2.9185,-1.39724 -5.72598,-1.51181 -2.80748,-0.114567 -1.15276,0.831496 0.0944882,0.916535 1.24843,0.0862205 2.89724,1.17283 5.17559,0.955512z"/>
   </g>
   <path id="_87760480" class="fil45" d="M43.898 45.9035c0,0 0.542126,-0.144094 0.311811,-0.24685 -0.229134,-0.101575 -2.83819,-1.26732 -4.75984,-1.34528 -1.92047,-0.0779528 -0.113386,0.455906 0.740551,0.514961 0.853937,0.057874 2.14843,1.22598 3.70748,1.07717z"/>
  </g>
  <g id="_45979768">
   <path id="_45992232" class="fil36" d="M5.45787 46.728c0.0354331,-0.251575 0.109843,-0.497244 0.235039,-0.729921 1.04173,-1.94055 3.1252,-9.02835 11.8346,-10.5213 6.10866,-1.04646 7.74921,6.34961 6.84803,11.2476 -4.30157,0.0011811 -9.92362,0.00354331 -18.9177,0.00354331z"/>
   <g>
    <path id="_45990888" class="fil37" d="M5.53583 46.728c0.0248031,-0.262205 0.0944882,-0.518504 0.224409,-0.759449 0.949606,-1.76693 3.05669,-8.54764 10.9843,-9.90591 5.78386,-0.992126 7.07835,6.26457 5.98819,10.6618l-17.1969 0.00354331z"/>
    <path id="_45989512" class="fil38" d="M5.61732 46.728c0.0106299,-0.272835 0.0744094,-0.539764 0.209055,-0.790157 0.855118,-1.59213 2.98701,-8.06575 10.1362,-9.29055 5.47441,-0.938976 6.38031,6.24803 5.07638,10.0783l-15.4217 0.0023622z"/>
    <path id="_45988168" class="fil39" d="M5.70472 46.728c-0.00472441,-0.283465 0.0496063,-0.561024 0.187795,-0.819685 0.762992,-1.4185 2.91732,-7.58386 9.28701,-8.6752 5.20748,-0.892913 5.6374,6.36614 4.07362,9.49252l-13.5484 0.0023622z"/>
    <path id="_45986352" class="fil40" d="M5.80157 46.728c-0.0248031,-0.292913 0.0141732,-0.583465 0.158268,-0.849213 0.668504,-1.24488 2.84764,-7.10197 8.43661,-8.06102 5.05039,-0.864567 4.79173,6.87756 2.86181,8.90906l-11.4567 0.0011811z"/>
    <path id="_45984976" class="fil41" d="M5.91024 46.728c-0.0507874,-0.301181 -0.0307087,-0.604724 0.116929,-0.87874 0.575197,-1.07126 2.77795,-6.62126 7.58858,-7.44567 4.80945,-0.824409 3.76063,7.24134 1.62165,7.86024 -0.343701,0.0992126 -0.694488,0.263386 -1.05709,0.462992l-8.27008 0.0011811z"/>
    <path id="_45983616" class="fil42" d="M6.03307 46.728c-0.0826772,-0.305906 -0.0909449,-0.625984 0.0602362,-0.908268 0.483071,-0.897638 2.70945,-6.13937 6.73819,-6.83031 4.02992,-0.690945 2.84646,5.85354 1.05472,6.37087 -0.656693,0.190157 -1.35118,0.77126 -2.12835,1.36654l-5.7248 0.0011811z"/>
    <path id="_45978896" class="fil43" d="M6.18071 46.728c-0.121654,-0.304724 -0.177165,-0.646063 -0.0200787,-0.936614 0.388583,-0.725197 2.63858,-5.65866 5.8878,-6.21614 3.25157,-0.55748 1.9311,4.46575 0.486614,4.88268 -0.772441,0.223228 -1.63583,1.39134 -2.67402,2.27008l-3.68031 0z"/>
    <path id="_45977536" class="fil44" d="M6.36732 46.728c-0.16063,-0.276378 -0.307087,-0.659055 -0.140551,-0.967323 0.295276,-0.550394 2.5689,-5.17677 5.03976,-5.60079 2.46969,-0.422835 1.01575,3.07913 -0.0838583,3.39685 -0.762992,0.219685 -1.69961,2.23465 -2.87244,3.17126l-1.94291 0z"/>
   </g>
   <path id="_45979808" class="fil45" d="M6.56693 46.6453c0,0 -0.477165,-0.53622 -0.275197,-0.912992 0.20315,-0.376772 2.50039,-4.69488 4.19055,-4.98425 1.69134,-0.290551 0.100394,1.69016 -0.650787,1.90748 -0.752362,0.217323 -1.89094,4.54016 -3.26457,3.98976z"/>
  </g>
  <g id="_87999816">
   <path id="_45179056" class="fil36" d="M5.45787 46.728c0.0354331,-0.251575 0.109843,-0.497244 0.235039,-0.729921 1.04173,-1.94055 3.1252,-9.02835 11.8346,-10.5213 6.10866,-1.04646 7.74921,6.34961 6.84803,11.2476 -4.30157,0.0011811 -9.92362,0.00354331 -18.9177,0.00354331z"/>
   <g>
    <path id="_43956808" class="fil37" d="M5.53583 46.728c0.0248031,-0.262205 0.0944882,-0.518504 0.224409,-0.759449 0.949606,-1.76693 3.05669,-8.54764 10.9843,-9.90591 5.78386,-0.992126 7.07835,6.26457 5.98819,10.6618l-17.1969 0.00354331z"/>
    <path id="_46509656" class="fil38" d="M5.61732 46.728c0.0106299,-0.272835 0.0744094,-0.539764 0.209055,-0.790157 0.855118,-1.59213 2.98701,-8.06575 10.1362,-9.29055 5.47441,-0.938976 6.38031,6.24803 5.07638,10.0783l-15.4217 0.0023622z"/>
    <path id="_45827264" class="fil39" d="M5.70472 46.728c-0.00472441,-0.283465 0.0496063,-0.561024 0.187795,-0.819685 0.762992,-1.4185 2.91732,-7.58386 9.28701,-8.6752 5.20748,-0.892913 5.6374,6.36614 4.07362,9.49252l-13.5484 0.0023622z"/>
    <path id="_86905200" class="fil40" d="M5.80157 46.728c-0.0248031,-0.292913 0.0141732,-0.583465 0.158268,-0.849213 0.668504,-1.24488 2.84764,-7.10197 8.43661,-8.06102 5.05039,-0.864567 4.79173,6.87756 2.86181,8.90906l-11.4567 0.0011811z"/>
    <path id="_86563064" class="fil41" d="M5.91024 46.728c-0.0507874,-0.301181 -0.0307087,-0.604724 0.116929,-0.87874 0.575197,-1.07126 2.77795,-6.62126 7.58858,-7.44567 4.80945,-0.824409 3.76063,7.24134 1.62165,7.86024 -0.343701,0.0992126 -0.694488,0.263386 -1.05709,0.462992l-8.27008 0.0011811z"/>
    <path id="_46459448" class="fil42" d="M6.03307 46.728c-0.0826772,-0.305906 -0.0909449,-0.625984 0.0602362,-0.908268 0.483071,-0.897638 2.70945,-6.13937 6.73819,-6.83031 4.02992,-0.690945 2.84646,5.85354 1.05472,6.37087 -0.656693,0.190157 -1.35118,0.77126 -2.12835,1.36654l-5.7248 0.0011811z"/>
    <path id="_88600360" class="fil43" d="M6.18071 46.728c-0.121654,-0.304724 -0.177165,-0.646063 -0.0200787,-0.936614 0.388583,-0.725197 2.63858,-5.65866 5.8878,-6.21614 3.25157,-0.55748 1.9311,4.46575 0.486614,4.88268 -0.772441,0.223228 -1.63583,1.39134 -2.67402,2.27008l-3.68031 0z"/>
    <path id="_86464424" class="fil44" d="M6.36732 46.728c-0.16063,-0.276378 -0.307087,-0.659055 -0.140551,-0.967323 0.295276,-0.550394 2.5689,-5.17677 5.03976,-5.60079 2.46969,-0.422835 1.01575,3.07913 -0.0838583,3.39685 -0.762992,0.219685 -1.69961,2.23465 -2.87244,3.17126l-1.94291 0z"/>
   </g>
   <path id="_87802064" class="fil45" d="M6.56693 46.6453c0,0 -0.477165,-0.53622 -0.275197,-0.912992 0.20315,-0.376772 2.50039,-4.69488 4.19055,-4.98425 1.69134,-0.290551 0.100394,1.69016 -0.650787,1.90748 -0.752362,0.217323 -1.89094,4.54016 -3.26457,3.98976z"/>
  </g>
  <path class="fil46" d="M44.0669 23.5701l0.151181 21.4866c0,0.587008 -0.735827,1.00039 -1.18346,1.38425 -0.120472,0.102756 -0.253937,0.196063 -0.39685,0.275197 0.00826772,-0.250394 -0.0023622,-0.0614173 -0.135827,-0.250394 0.0507874,-0.034252 0.0980315,-0.0720472 0.144094,-0.109843 0.305906,-0.262205 0.46063,-1.03228 0.46063,-1.42087l0 -21.3343 0.960236 -0.0307087zm-39.1417 -0.0602362l0 21.5114c0,0.344882 0.148819,0.66378 0.395669,0.915354 -0.0602362,0.220866 -0.11811,0.462992 -0.172441,0.711024 -0.0519685,-0.0377953 -0.102756,-0.0779528 -0.152362,-0.119291 -0.447638,-0.383858 -0.969685,-0.917717 -0.969685,-1.50709l0.230315 -21.5114 0.668504 0z"/>
  <polygon class="fil47" points="3.17362,31.0949 8.99409,31.0949 8.99409,31.4244 9.04961,37.585 9.13819,37.5402 9.13819,37.6618 3.13583,37.6618 "/>
  <path class="fil47" d="M44.7874 31.0949l-5.76614 -0.0614173 0 0.290551 0.0106299 6.16772c0,0.034252 -0.0188976,0.0732283 -0.0330709,0.113386l5.78858 0 0 -6.51024z"/>
  <g id="_46013976">
   <polygon id="_46025296" class="fil25" points="3.22441,28.3098 44.6965,28.5425 44.6965,21.9 3.22441,22.0039 "/>
   <g>
    <path id="_46023920" class="fil26" d="M3.22559 28.0311c13.8236,0.0732283 27.6472,0.147638 41.4709,0.220866 0,-2.10472 0,-4.20945 0,-6.31417 -13.8236,0.0330709 -27.6472,0.0649606 -41.4709,0.0980315 0,1.99961 0,3.99567 0,5.99528z"/>
    <path id="_46022408" class="fil27" d="M3.22559 27.7524c13.8236,0.0708661 27.6472,0.140551 41.4709,0.210236 0,-1.99606 0,-3.99094 0,-5.98819 -13.8236,0.0318898 -27.6472,0.0637795 -41.4709,0.0944882 0,1.89567 0,3.78898 0,5.68346z"/>
    <path id="_46021032" class="fil28" d="M3.22559 27.4748c13.8236,0.0661417 27.6472,0.132283 41.4709,0.199606 0,-1.8874 0,-3.7748 0,-5.66102 -13.8236,0.0283465 -27.6472,0.057874 -41.4709,0.0874016 0,1.79173 0,3.58228 0,5.37402z"/>
    <path id="_46019656" class="fil29" d="M3.22559 27.1961c13.8236,0.0625984 27.6472,0.125197 41.4709,0.187795 0,-1.77756 0,-3.55512 0,-5.33386 -13.8236,0.0271654 -27.6472,0.0555118 -41.4709,0.0838583 0,1.6878 0,3.37441 0,5.0622z"/>
    <path id="_46018248" class="fil30" d="M3.22559 26.9185c13.8236,0.057874 27.6472,0.116929 41.4709,0.175984 0,-1.6689 0,-3.3378 0,-5.00669 -13.8236,0.0259843 -27.6472,0.0519685 -41.4709,0.0779528 0,1.58504 0,3.16772 0,4.75276z"/>
    <path id="_46016872" class="fil31" d="M3.22559 26.6409c13.8236,0.0543307 27.6472,0.108661 41.4709,0.164173 0,-1.56024 0,-3.12047 0,-4.68071 -13.8236,0.0248031 -27.6472,0.0496063 -41.4709,0.0732283 0,1.48228 0,2.9622 0,4.44331z"/>
    <path id="_46008536" class="fil32" d="M3.22559 26.3622c13.8236,0.0507874 27.6472,0.102756 41.4709,0.153543 0,-1.45157 0,-2.90197 0,-4.35354 -13.8236,0.0224409 -27.6472,0.046063 -41.4709,0.0673228 0,1.37953 0,2.75551 0,4.13268z"/>
    <path id="_46007496" class="fil33" d="M3.22559 26.0846c13.8236,0.046063 27.6472,0.0933071 41.4709,0.141732 0,-1.34173 0,-2.68465 0,-4.02638 -13.8236,0.0212598 -27.6472,0.0425197 -41.4709,0.0625984 0,1.27441 0,2.54882 0,3.82205z"/>
   </g>
   <polygon id="_46014000" class="fil34" points="3.22441,25.8071 44.6965,25.937 44.6965,22.2366 3.22441,22.2945 "/>
  </g>
  <path class="fil48" d="M3.34961 18.1004c0,-0.392126 0.185433,-0.752362 0.49252,-1.03346 0.392126,-0.399213 0.987402,-0.654331 1.65118,-0.654331l37.2933 0c1.17638,0 2.20866,0.78189 2.19094,1.75984"/>
  <path class="fil49" d="M45.3224 16.4681l2.00197 5.78858c-0.0141732,0.320079 -0.120472,0.603543 -0.655512,0.624803 -15.0366,0 -29.9433,0.0933071 -44.9787,0.0933071 -0.276378,-0.00826772 -0.701575,-0.108661 -0.660236,-0.470079l2.02913 -6.03661 42.2634 0z"/>
  <polygon class="fil50" points="24.6224,44.8004 32.1898,37.3677 28.6146,37.3677 28.2638,37.3677 28.2638,37.2673 33.6555,37.174 34.5071,37.428 24.9154,46.1409 24.6827,46.3465 24.45,46.1409 13.8697,37.128 13.8744,37.1161 20.1969,37.2673 20.1969,37.3677 19.8449,37.3677 16.5673,37.3677 "/>
  <path class="fil51" d="M24.6224 45.2693l9.16181 -8.10472 -4.61693 0 -0.00590551 -5.3315 -9.96614 0 0.023622 5.3315 -4.18937 0 9.59291 8.10472zm-5.43307 -15.2728l9.97795 -0.046063 0 -2.88661 -9.97677 0 -0.0011811 2.93268z"/>
  <path class="fil52" d="M32.2606 38.061l0.96378 -0.896457 -4.60039 0 0.0755906 0.95315 3.56102 -0.0566929zm-3.64488 -5.30079l0 -0.745276 -8.99764 0 0.0377953 0.725197 8.95984 0.0200787zm-9.02717 4.40433l-4.1315 0.0177165 1.11732 0.897638 3.07205 0.0177165 -0.057874 -0.933071zm-0.0106299 -9.00354l9.0685 -0.0377953 0.00590551 -0.725197 -9.03543 0 -0.0389764 0.762992z"/>
  <polygon class="fil53" points="19.135,29.9043 29.0906,29.8146 29.0717,30.8504 19.1138,30.8031 "/>
  <path class="fil54" d="M42.9744 15.9661l0.129921 0c0.34252,0 0.327165,0.0720472 0.154724,-0.212598l-0.385039 -0.675591 0.288189 -1.50709 1.81299 2.69646c0.316535,0.466535 0.564567,0.566929 -0.253937,0.762992l-0.113386 0.175984 -0.209055 -0.0011811 -40.4362 0 -0.114567 0.0425197c-0.818504,-0.194882 -0.779528,-0.51378 -0.46063,-0.980315l1.77874 -2.64685 -0.0011811 1.5189 -0.166535 0.706299c-0.172441,0.285827 -0.233858,0.129921 0.10748,0.129921l0.131102 0c12.9815,-0.0354331 24.7583,0.177165 37.7374,-0.00944882z"/>
  <path class="fil55" d="M44.9657 23.4874l0 21.2787c0,0.638976 -0.302362,1.22008 -0.790157,1.63583 -0.462992,0.398031 -1.09961,0.646063 -1.79291,0.646063l0 -0.0023622 -36.6862 -0.0649606 0 0.0023622c-0.694488,0 -1.33228,-0.249213 -1.79646,-0.646063 -0.484252,-0.414567 -0.787795,-0.994488 -0.787795,-1.63701l0 -21.098 1.00157 0 0 21.098c0,0.337795 0.168898,0.650787 0.435827,0.87874 0.28937,0.248031 0.69685,0.402756 1.14685,0.402756l0 0.0023622 36.6862 0.0649606 0 -0.0023622c0.448819,0 0.853937,-0.154724 1.14331,-0.402756 0.269291,-0.230315 0.438189,-0.543307 0.438189,-0.877559l0 -21.2787 1.00157 0z"/>
  <path class="fil56" d="M45.3248 17.0114l1.99252 5.44843c-0.0141732,0.320079 -0.121654,0.603543 -0.656693,0.624803 -15.0354,0 -29.9799,0.0377953 -45.0154,0.0377953 -0.276378,-0.00826772 -0.700394,-0.108661 -0.660236,-0.470079l2.07638 -5.56654 0.777165 -0.0779528 41.4862 0.00354331z"/>
  <path class="fil57" d="M47.2063 21.8008l0.0614173 0.256299c-0.0141732,0.442913 -0.120472,0.83622 -0.655512,0.865748 -15.0366,0 -29.9811,0.0519685 -45.0165,0.0519685 -0.275197,-0.0106299 -0.699213,-0.15 -0.660236,-0.651969l0.137008 -0.572835c0.114567,0.256299 0.40748,0.337795 0.616535,0.346063 15.0354,0 29.9799,-0.0519685 45.0154,-0.0519685 0.249213,-0.0141732 0.403937,-0.105118 0.501969,-0.243307z"/>
  <g id="_45952688">
   <path id="_45966768" class="fil58" d="M41.8843 25.252c0,0 1.66063,-1.27441 1.20591,-2.25591 -0.453543,-0.982677 -1.10315,-4.51535 -6.0815,-5.51575 -4.97835,-1.00039 -6.02126,6.67795 -3.84449,7.34528 2.17559,0.667323 4.35236,1.59331 8.72008,0.426378z"/>
   <g>
    <path id="_45965392" class="fil59" d="M41.9551 25.0311c0,0 1.51299,-1.15984 1.09961,-2.05276 -0.413386,-0.894094 -1.10315,-4.27677 -5.63504,-5.1874 -4.53307,-0.909449 -5.37283,6.02717 -3.39213,6.63543 1.98071,0.607087 3.95197,1.6689 7.92756,0.604724z"/>
    <path id="_45964016" class="fil60" d="M42.0272 24.8126c0,0 1.36299,-1.04646 0.989764,-1.85197 -0.372047,-0.805512 -1.09961,-4.03819 -5.18622,-4.85906 -4.08661,-0.822047 -4.72559,5.37638 -2.93976,5.92323 1.78701,0.549213 3.55039,1.74567 7.13622,0.787795z"/>
    <path id="_45962640" class="fil61" d="M42.0992 24.5953c0,0 1.21299,-0.93189 0.882283,-1.64882 -0.333071,-0.71811 -1.09961,-3.80079 -4.73858,-4.53307 -3.64252,-0.731102 -4.07835,4.72677 -2.48858,5.21457 1.59094,0.488976 3.15,1.82244 6.34488,0.967323z"/>
    <path id="_45961264" class="fil62" d="M42.1689 24.3768c0,0 1.06535,-0.818504 0.773622,-1.44803 -0.290551,-0.630709 -1.09606,-3.56339 -4.29094,-4.20472 -3.19488,-0.64252 -3.42992,4.07598 -2.03386,4.50354 1.39606,0.427559 2.74843,1.89803 5.55118,1.14921z"/>
    <path id="_45959888" class="fil63" d="M42.2421 24.1583c0,0 0.916535,-0.705118 0.666142,-1.24724 -0.250394,-0.540945 -1.0937,-3.32362 -3.84331,-3.87756 -2.75079,-0.551575 -2.78386,3.42638 -1.58268,3.79488 1.20236,0.369685 2.34685,1.9748 4.75984,1.32992z"/>
    <path id="_45958376" class="fil64" d="M42.3118 23.9398c0,0 0.768898,-0.590551 0.558661,-1.04528 -0.210236,-0.454724 -1.09134,-3.0874 -3.39567,-3.55039 -2.30315,-0.462992 -2.13661,2.77559 -1.12913,3.08386 1.00748,0.308268 1.94528,2.05039 3.96614,1.51181z"/>
    <path id="_45957016" class="fil65" d="M42.3839 23.7213c0,0 0.618898,-0.474803 0.45,-0.840945 -0.168898,-0.367323 -1.09016,-2.85 -2.94803,-3.22323 -1.85787,-0.373228 -1.48819,2.12362 -0.676772,2.37402 0.811417,0.248031 1.54488,2.12717 3.1748,1.69016z"/>
    <path id="_45955040" class="fil66" d="M42.4559 23.5028c0,0 0.470079,-0.361417 0.341339,-0.640157 -0.12874,-0.27874 -1.08661,-2.6126 -2.50039,-2.89606 -1.41142,-0.283465 -0.840945,1.47402 -0.223228,1.66417 0.616535,0.188976 1.14213,2.20276 2.38228,1.87205z"/>
   </g>
   <path id="_45952728" class="fil67" d="M42.5268 23.2843c0,0 0.322441,-0.24685 0.233858,-0.437008 -0.0874016,-0.191339 -1.08543,-2.3752 -2.05276,-2.5689 -0.966142,-0.194882 -0.193701,0.823228 0.227953,0.95315 0.422835,0.12874 0.742913,2.27953 1.59094,2.05276z"/>
  </g>
  <path class="fil68" d="M42.9898 12.7949l2.4 3.19488c0.266929,0.394488 0.379134,0.698031 0.529134,1.11614l0.0011811 0 0.0366142 0.100394 0 0.0023622 2.10236 5.84291 -0.937795 0.335433 -2.10118 -5.84055 -0.0011811 0 -0.0366142 -0.100394 0 -0.0023622c-0.125197,-0.349606 -0.218504,-0.6 -0.419291,-0.896457l-0.0023622 -0.0023622 -1.58386 -2.35748 0.0129921 -1.39252zm-42.7441 10.0606l2.0563 -5.40945 -0.0011811 0c0.080315,-0.219685 0.179528,-0.477165 0.292913,-0.737008l0.0011811 0c0.114567,-0.262205 0.243307,-0.518504 0.377953,-0.719291l-0.0011811 0 2.00787 -2.64094 0 1.39488 -1.17874 1.80118 -0.0023622 0.0023622c-0.0980315,0.145276 -0.199606,0.347244 -0.290551,0.558661l0 0.0023622c-0.0933071,0.214961 -0.188976,0.462992 -0.269291,0.682677l-0.0023622 0.00354331 -2.05748 5.41299 -0.933071 -0.351969z"/>
  <polygon class="fil69" points="48.0921,23.9445 0.125197,23.9445 0.125197,22.9087 48.0921,22.9087 "/>
  <path class="fil70" d="M4.97953 16.0016l0 -5.14724c0,-0.32126 0.0649606,-0.636614 0.180709,-0.928346l-0.0011811 -0.0011811c0.116929,-0.297638 0.294094,-0.572835 0.511417,-0.811417l0.0011811 0.0011811c0.271654,-0.323622 0.611811,-0.591732 0.995669,-0.773622l0.0023622 0c0.380315,-0.179528 0.805512,-0.282283 1.24724,-0.282283l0 0.0023622 32.0823 0.0602362 0 -0.0023622 0.0259843 0 0.00354331 0.0023622c0.790157,0.00826772 1.53543,0.337795 2.07756,0.855118l0.0023622 0.0023622c0.548031,0.524409 0.9,1.25197 0.898819,2.04921l0.0023622 0 0 0.023622 -0.0023622 0.00590551 -0.0484252 4.88268 -0.99685 0 0.0484252 -4.88858 -0.0023622 0 0 -0.023622 0.0023622 0c0,-0.509055 -0.231496,-0.981496 -0.591732,-1.32874 -0.367323,-0.350787 -0.86811,-0.575197 -1.3937,-0.581102l0 0.0023622 -0.0259843 0 0 -0.0023622 -32.0823 -0.0602362 0 0.0023622c-0.294094,0 -0.575197,0.0673228 -0.819685,0.18189l0 0.0011811c-0.262205,0.124016 -0.49252,0.304724 -0.672047,0.523228l-0.0153543 0.0200787c-0.135827,0.15 -0.248031,0.322441 -0.320079,0.506693l-0.0023622 0.0011811c-0.0685039,0.170079 -0.106299,0.361417 -0.106299,0.559843l0 5.14724 -1.00157 0z"/>
  <path class="fil71" d="M33.5031 10.1043l6.67087 0c0.197244,0 0.382677,0.0814961 0.514961,0.214961l0.00590551 0.00472441c0.132283,0.133465 0.21378,0.318898 0.21378,0.514961l0 1.86024 -0.725197 0 0 -1.89449 -6.68858 0 0 1.89449 -0.726378 0 0 -1.86024c0,-0.196063 0.0814961,-0.381496 0.214961,-0.514961l0.00472441 -0.00472441c0.133465,-0.133465 0.320079,-0.214961 0.514961,-0.214961z"/>
  <path class="fil21" d="M7.05472 11.7118l0 0.263386 0.533858 1.35354 0.535039 -1.35354 0 -0.263386c0,-0.0661417 0.0177165,-0.119291 0.0507874,-0.16063 0.034252,-0.0413386 0.0791339,-0.0614173 0.132283,-0.0614173 0.0543307,0 0.0980315,0.0200787 0.132283,0.0614173 0.034252,0.0401575 0.0507874,0.0933071 0.0507874,0.16063l0 0.298819c0,0.0212598 -0.0023622,0.0401575 -0.00708661,0.0590551 -0.00472441,0.0188976 -0.00944882,0.0377953 -0.0188976,0.0590551l-0.575197 1.45748c-0.0271654,0.0673228 -0.0543307,0.113386 -0.0826772,0.138189 -0.0283465,0.023622 -0.0625984,0.0354331 -0.105118,0.0354331l-0.223228 0c-0.0437008,0 -0.0791339,-0.011811 -0.105118,-0.034252 -0.0271654,-0.023622 -0.0543307,-0.069685 -0.0826772,-0.13937l-0.575197 -1.45512c-0.0106299,-0.0248031 -0.0165354,-0.0448819 -0.0200787,-0.0614173 -0.00472441,-0.0177165 -0.00590551,-0.0366142 -0.00590551,-0.0590551l0 -0.298819c0,-0.0685039 0.0165354,-0.122835 0.0496063,-0.161811 0.034252,-0.0401575 0.0779528,-0.0602362 0.133465,-0.0602362 0.0531496,0 0.0980315,0.0200787 0.132283,0.0614173 0.0330709,0.0413386 0.0507874,0.0944882 0.0507874,0.16063zm12.7547 -1.06772l1.23189 0c0.100394,0 0.185433,0.0389764 0.25748,0.116929 0.0720472,0.0779528 0.10748,0.173622 0.10748,0.287008l0 0.950787c0,0.112205 -0.0354331,0.207874 -0.10748,0.285827 -0.0720472,0.0791339 -0.157087,0.11811 -0.25748,0.11811l-1.07008 0 0 0.954331 1.23071 0c0.0614173,0 0.111024,0.0177165 0.147638,0.0555118 0.0377953,0.0377953 0.0566929,0.0862205 0.0566929,0.145276 0,0.0602362 -0.0188976,0.108661 -0.057874,0.146457 -0.0377953,0.0377953 -0.0862205,0.0555118 -0.146457,0.0555118l-1.59685 0 0 -1.35709c0,-0.112205 0.0366142,-0.206693 0.106299,-0.285827 0.0708661,-0.0791339 0.157087,-0.11811 0.259843,-0.11811l1.07008 0 0 -0.950787 -1.23189 0c-0.0625984,0 -0.111024,-0.0188976 -0.148819,-0.0555118 -0.0377953,-0.0366142 -0.0555118,-0.0850394 -0.0555118,-0.146457 0,-0.0602362 0.0188976,-0.108661 0.057874,-0.146457 0.0389764,-0.0366142 0.0874016,-0.0555118 0.146457,-0.0555118zm-2.52756 0.403937l0 2.30906 1.07008 0 0 -2.30906 -1.07008 0zm0.0377953 -0.403937l0.992126 0c0.129921,0 0.230315,0.0377953 0.301181,0.114567 0.069685,0.0767717 0.103937,0.186614 0.103937,0.33189l0 2.22283c0,0.144094 -0.034252,0.256299 -0.103937,0.33189 -0.0708661,0.0767717 -0.17126,0.114567 -0.301181,0.114567l-0.992126 0c-0.129921,0 -0.229134,-0.0377953 -0.298819,-0.114567 -0.0685039,-0.0755906 -0.103937,-0.187795 -0.103937,-0.33189l0 -2.22283c0,-0.145276 0.0354331,-0.255118 0.103937,-0.33189 0.069685,-0.0767717 0.168898,-0.114567 0.298819,-0.114567zm-1.70079 2.32441l0.356693 0c0.0531496,0 0.0980315,0.0212598 0.131102,0.0614173 0.034252,0.0413386 0.0507874,0.0944882 0.0507874,0.159449l0 0.298819c0,0.069685 -0.0165354,0.124016 -0.0496063,0.165354 -0.034252,0.0401575 -0.0779528,0.0602362 -0.132283,0.0602362l-0.356693 0c-0.0543307,0 -0.0980315,-0.0200787 -0.132283,-0.0625984 -0.034252,-0.0437008 -0.0507874,-0.0968504 -0.0507874,-0.162992l0 -0.298819c0,-0.0685039 0.0165354,-0.122835 0.0507874,-0.161811 0.0330709,-0.0389764 0.0767717,-0.0590551 0.132283,-0.0590551zm-2.15433 -1.92047l0 2.30906 1.07008 0 0 -2.30906 -1.07008 0zm0.0389764 -0.403937l0.990945 0c0.129921,0 0.230315,0.0377953 0.301181,0.114567 0.069685,0.0767717 0.105118,0.186614 0.105118,0.33189l0 2.22283c0,0.144094 -0.0354331,0.256299 -0.105118,0.33189 -0.0708661,0.0767717 -0.17126,0.114567 -0.301181,0.114567l-0.990945 0c-0.131102,0 -0.230315,-0.0377953 -0.3,-0.114567 -0.0685039,-0.0755906 -0.103937,-0.187795 -0.103937,-0.33189l0 -2.22283c0,-0.145276 0.0354331,-0.255118 0.103937,-0.33189 0.069685,-0.0767717 0.168898,-0.114567 0.3,-0.114567zm-1.41614 2.32441l0.356693 0c0.0543307,0 0.0992126,0.0212598 0.132283,0.0614173 0.034252,0.0413386 0.0507874,0.0944882 0.0507874,0.159449l0 0.298819c0,0.069685 -0.0165354,0.124016 -0.0496063,0.165354 -0.034252,0.0401575 -0.0779528,0.0602362 -0.133465,0.0602362l-0.356693 0c-0.0531496,0 -0.0980315,-0.0200787 -0.131102,-0.0625984 -0.034252,-0.0437008 -0.0507874,-0.0968504 -0.0507874,-0.162992l0 -0.298819c0,-0.0685039 0.0165354,-0.122835 0.0496063,-0.161811 0.034252,-0.0389764 0.0779528,-0.0590551 0.132283,-0.0590551zm-2.5063 -2.32441l1.23189 0c0.101575,0 0.185433,0.0389764 0.258661,0.116929 0.0708661,0.0779528 0.106299,0.173622 0.106299,0.287008l0 0.950787c0,0.112205 -0.0354331,0.207874 -0.106299,0.285827 -0.0732283,0.0791339 -0.157087,0.11811 -0.258661,0.11811l-1.07008 0 0 0.954331 1.23189 0c0.0602362,0 0.109843,0.0177165 0.146457,0.0555118 0.0389764,0.0377953 0.0566929,0.0862205 0.0566929,0.145276 0,0.0602362 -0.0177165,0.108661 -0.0566929,0.146457 -0.0389764,0.0377953 -0.0874016,0.0555118 -0.146457,0.0555118l-1.59685 0 0 -1.35709c0,-0.112205 0.0354331,-0.206693 0.106299,-0.285827 0.0708661,-0.0791339 0.155906,-0.11811 0.258661,-0.11811l1.07008 0 0 -0.950787 -1.23189 0c-0.0625984,0 -0.111024,-0.0188976 -0.148819,-0.0555118 -0.0366142,-0.0366142 -0.0543307,-0.0850394 -0.0543307,-0.146457 0,-0.0602362 0.0177165,-0.108661 0.0566929,-0.146457 0.0389764,-0.0366142 0.0874016,-0.0555118 0.146457,-0.0555118z"/>
  <path class="fil71" d="M8.84291 10.5591l0.011811 -0.034252 0 -0.0011811c0.0425197,-0.116929 0.109843,-0.216142 0.194882,-0.3 0.0755906,-0.0732283 0.159449,-0.129921 0.252756,-0.166535 0.0909449,-0.0366142 0.184252,-0.0555118 0.27874,-0.0555118l1.23189 0c0.122835,0 0.243307,0.0271654 0.360236,0.080315l0.00354331 0c0.108661,0.0496063 0.207874,0.124016 0.3,0.223228 0.069685,0.0744094 0.127559,0.159449 0.17126,0.253937l-2.80512 0zm3.78543 0c0.0425197,-0.0933071 0.0968504,-0.175984 0.161811,-0.249213l0.0023622 -0.00472441c0.180709,-0.200787 0.420472,-0.303543 0.711024,-0.303543l0.990945 0c0.126378,0 0.248031,0.0224409 0.359055,0.0637795 0.132283,0.0507874 0.249213,0.129921 0.348425,0.237402l0.00472441 0.0023622c0.0661417,0.0720472 0.121654,0.157087 0.165354,0.253937l-2.7437 0zm3.81614 0c0.0437008,-0.0968504 0.0992126,-0.18189 0.165354,-0.253937 0.0944882,-0.105118 0.211417,-0.186614 0.351969,-0.239764 0.109843,-0.0413386 0.231496,-0.0637795 0.357874,-0.0637795l0.992126 0c0.126378,0 0.248031,0.0224409 0.359055,0.0637795 0.137008,0.0519685 0.255118,0.132283 0.351969,0.239764 0.0366142,0.0401575 0.069685,0.0826772 0.0992126,0.129921 0.0401575,-0.080315 0.0944882,-0.153543 0.162992,-0.218504l0 0c0.0708661,-0.0685039 0.152362,-0.121654 0.242126,-0.157087l0 0c0.092126,-0.0389764 0.186614,-0.057874 0.282283,-0.057874l1.23071 0c0.12874,0 0.251575,0.0283465 0.364961,0.080315l-0.0011811 0.0011811c0.111024,0.0507874 0.211417,0.124016 0.301181,0.222047l0.0023622 0.0023622c0.0708661,0.0767717 0.127559,0.16063 0.17126,0.251575l-5.43425 0z"/>
  <path class="fil71" d="M8.84409 10.5591l0.0106299 -0.034252 0 -0.0011811c0.0425197,-0.116929 0.109843,-0.216142 0.194882,-0.3 0.0755906,-0.0732283 0.159449,-0.129921 0.252756,-0.166535 0.092126,-0.0366142 0.184252,-0.0555118 0.279921,-0.0555118l1.23071 0c0.122835,0 0.243307,0.0271654 0.360236,0.080315l0.00354331 0c0.10748,0.0496063 0.207874,0.124016 0.3,0.223228 0.0708661,0.0744094 0.127559,0.159449 0.172441,0.253937l-0.0625984 0c0.0283465,0.0425197 0.0555118,0.0885827 0.0779528,0.135827l-2.80512 0 0.0106299 -0.034252 0 -0.0011811 0.0448819 -0.100394 -0.0708661 0zm3.79961 0.135827c0.0224409,-0.0484252 0.0472441,-0.0933071 0.0744094,-0.135827l-0.0897638 0c0.0425197,-0.0933071 0.0968504,-0.175984 0.161811,-0.249213l0.0023622 -0.00472441c0.18189,-0.200787 0.420472,-0.303543 0.709843,-0.303543l0.992126 0c0.126378,0 0.248031,0.0224409 0.357874,0.0637795 0.134646,0.0507874 0.250394,0.129921 0.349606,0.237402l0.00472441 0.0023622c0.0661417,0.0720472 0.121654,0.157087 0.165354,0.253937l-0.0590551 0c0.0271654,0.0425197 0.0531496,0.0874016 0.0744094,0.135827l-2.7437 0zm3.81614 0c0.0212598,-0.0484252 0.0472441,-0.0933071 0.0744094,-0.135827l-0.0897638 0c0.0437008,-0.0968504 0.0992126,-0.18189 0.165354,-0.253937 0.0956693,-0.105118 0.211417,-0.186614 0.351969,-0.239764 0.109843,-0.0413386 0.231496,-0.0637795 0.357874,-0.0637795l0.992126 0c0.126378,0 0.248031,0.0224409 0.357874,0.0637795 0.138189,0.0519685 0.25748,0.132283 0.35315,0.239764 0.0377953,0.0401575 0.069685,0.0826772 0.0992126,0.129921 0.0401575,-0.080315 0.0944882,-0.153543 0.161811,-0.218504l0.0011811 0c0.0708661,-0.0685039 0.152362,-0.121654 0.242126,-0.157087l0 0c0.092126,-0.0389764 0.186614,-0.057874 0.281102,-0.057874l1.23189 0c0.12874,0 0.251575,0.0283465 0.36378,0.080315l0 0.0011811c0.112205,0.0507874 0.212598,0.124016 0.302362,0.222047l0.0011811 0.0023622c0.0708661,0.0767717 0.127559,0.16063 0.17126,0.251575l-0.0637795 0c0.0307087,0.0437008 0.0566929,0.0885827 0.0791339,0.135827l-5.43425 0zm2.66929 -0.135827l0.00826772 0.011811 0.00590551 -0.011811 -0.0141732 0z"/>
  <polygon class="fil72" points="39.6744,11.8476 34.2035,11.8476 34.2035,13.0937 39.6744,13.0937 "/>
  <path class="fil73" d="M33.4783 10.7256l6.67087 0c0.197244,0 0.382677,0.0814961 0.514961,0.214961l0.00590551 0.00472441c0.132283,0.133465 0.21378,0.318898 0.21378,0.516142l0 2.11299c0,0.196063 -0.0814961,0.381496 -0.21378,0.516142l-0.00590551 0.00472441c-0.132283,0.133465 -0.317717,0.214961 -0.514961,0.214961l-6.67087 0c-0.194882,0 -0.381496,-0.0814961 -0.514961,-0.214961l-0.00472441 -0.00472441c-0.133465,-0.134646 -0.214961,-0.320079 -0.214961,-0.516142l0 -2.11299c0,-0.197244 0.0814961,-0.382677 0.214961,-0.516142l0.00472441 -0.00472441c0.133465,-0.133465 0.320079,-0.214961 0.514961,-0.214961zm6.68031 0.700394l-6.68858 0 0 2.25827 6.68858 0 0 -2.25827z"/>
 </g>
</svg>
