<?xml version="1.0" encoding="UTF-8"?>
<!DOCTYPE svg PUBLIC "-//W3C//DTD SVG 1.1//EN" "http://www.w3.org/Graphics/SVG/1.1/DTD/svg11.dtd">
<!-- Creator: CorelDRAW -->
<svg xmlns="http://www.w3.org/2000/svg" xml:space="preserve" width="22px" height="22px" style="shape-rendering:geometricPrecision; text-rendering:geometricPrecision; image-rendering:optimizeQuality; fill-rule:evenodd; clip-rule:evenodd"
viewBox="0 0 22 22"
 xmlns:xlink="http://www.w3.org/1999/xlink">
 <defs>
  <style type="text/css">
   <![CDATA[
    .fil21 {fill:none}
    .fil14 {fill:#8FCDFF}
    .fil22 {fill:#EDA54E}
    .fil16 {fill:#D8F392}
    .fil30 {fill:#86A158;fill-rule:nonzero}
    .fil31 {fill:#8DB341;fill-rule:nonzero}
    .fil27 {fill:#AB6C28;fill-rule:nonzero}
    .fil29 {fill:#B87630;fill-rule:nonzero}
    .fil26 {fill:#FFD199;fill-rule:nonzero}
    .fil0 {fill:black;fill-opacity:0.000000}
    .fil1 {fill:black;fill-opacity:0.003922}
    .fil2 {fill:black;fill-opacity:0.007843}
    .fil3 {fill:black;fill-opacity:0.015686}
    .fil4 {fill:black;fill-opacity:0.019608}
    .fil5 {fill:black;fill-opacity:0.023529}
    .fil6 {fill:black;fill-opacity:0.027451}
    .fil7 {fill:black;fill-opacity:0.031373}
    .fil8 {fill:black;fill-opacity:0.035294}
    .fil9 {fill:black;fill-opacity:0.043137}
    .fil10 {fill:black;fill-opacity:0.047059}
    .fil11 {fill:black;fill-opacity:0.050980}
    .fil12 {fill:black;fill-opacity:0.054902}
    .fil13 {fill:black;fill-opacity:0.058824}
    .fil25 {fill:#763E17;fill-opacity:0.439216}
    .fil18 {fill:#86A158;fill-opacity:0.439216}
    .fil23 {fill:#FFB75E;fill-rule:nonzero;fill-opacity:0.439216}
    .fil32 {fill:#9C5F22;fill-rule:nonzero;fill-opacity:0.501961}
    .fil20 {fill:#F8EBB3;fill-opacity:0.580392}
    .fil24 {fill:url(#id0)}
    .fil17 {fill:url(#id1)}
    .fil28 {fill:url(#id2)}
    .fil19 {fill:url(#id3)}
    .fil15 {fill:url(#id4);fill-rule:nonzero}
   ]]>
  </style>
  <linearGradient id="id0" gradientUnits="userSpaceOnUse" x1="11.0388" y1="11.7965" x2="11.4459" y2="19.6702">
   <stop offset="0" style="stop-color:#8C551E"/>
   <stop offset="1" style="stop-color:#804716"/>
  </linearGradient>
  <linearGradient id="id1" gradientUnits="userSpaceOnUse" x1="10.5405" y1="4.00626" x2="11.4978" y2="15.6846">
   <stop offset="0" style="stop-color:#C0E36F"/>
   <stop offset="0.419608" style="stop-color:#ACD156"/>
   <stop offset="1" style="stop-color:#9EC444"/>
  </linearGradient>
  <linearGradient id="id2" gradientUnits="userSpaceOnUse" x1="10.8897" y1="7.43963" x2="10.8897" y2="9.67507">
   <stop offset="0" style="stop-color:#FFB861"/>
   <stop offset="1" style="stop-color:#FAB764"/>
  </linearGradient>
  <linearGradient id="id3" gradientUnits="userSpaceOnUse" x1="10.7761" y1="9.48571" x2="10.7761" y2="18.2089">
   <stop offset="0" style="stop-color:#E69D45"/>
   <stop offset="1" style="stop-color:#D49242"/>
  </linearGradient>
  <linearGradient id="id4" gradientUnits="userSpaceOnUse" x1="10.968" y1="9.98433" x2="10.968" y2="2.96678">
   <stop offset="0" style="stop-color:#4E87B4"/>
   <stop offset="1" style="stop-color:#66A1D1"/>
  </linearGradient>
 </defs>
 <g id="Слой_x0020_1">
  <metadata id="CorelCorpID_0Corel-Layer"/>
  <g id="_46055856">
   <path id="_90534344" class="fil0" d="M10.331 18.4575c7.09862,-0.293957 10.2738,0.324288 11.654,1.18405l0 2.28192c-0.0640639,0.0127561 -0.130679,0.0243783 -0.200412,0.0354336l-21.7914 0 0 -2.05118c1.34988,-0.633552 4.22453,-1.19737 10.3378,-1.45023z"/>
   <g>
    <path id="_86499096" class="fil1" d="M10.3562 18.6344c7.10627,-0.283469 10.2865,0.37106 11.6287,1.24074l0 2.00809c-0.141167,0.0294807 -0.297075,0.054426 -0.468007,0.0756861l-21.5238 0 0 -1.85275c1.31019,-0.642623 4.17067,-1.22487 10.363,-1.47177z"/>
    <path id="_46429912" class="fil2" d="M10.3812 18.8115c7.0938,-0.271563 10.2995,0.417266 11.6038,1.2895l0 1.7422c-0.225074,0.0501739 -0.494369,0.0875918 -0.80335,0.115655l-21.1884 0 0 -1.66084c1.27533,-0.648009 4.13439,-1.24726 10.388,-1.48651z"/>
    <path id="_45219168" class="fil3" d="M10.4064 18.9887c7.05922,-0.25739 10.3149,0.461203 11.5786,1.32805l0 1.48708c-0.322587,0.0765365 -0.751475,0.125293 -1.26994,0.155057l-6.1799 0c-0.577709,-0.00368509 -1.17101,-0.0045355 -1.77565,0l-12.7133 0 -0.0530086 -0.00935446 0 -1.46865c1.24556,-0.648576 4.12192,-1.26257 10.4132,-1.49218z"/>
    <path id="_135886880" class="fil4" d="M10.4314 19.1659c7.00139,-0.241515 10.337,0.502873 11.5536,1.35611l0 1.24301c-0.467156,0.119057 -1.20446,0.172916 -2.13849,0.193893l-2.7933 0c-1.7714,-0.0192759 -3.82994,-0.0513078 -5.95483,0l-10.7409 0c-0.132096,-0.0167246 -0.253704,-0.0348666 -0.364257,-0.0549929l0 -1.25095c1.21806,-0.643474 4.13722,-1.26966 10.4382,-1.48708z"/>
    <path id="_45273880" class="fil5" d="M10.4563 19.3428c6.92145,-0.223657 10.3716,0.540858 11.5287,1.37199l0 1.0117c-1.45788,0.402809 -6.18273,0.085891 -11.1885,0.212318l-0.800515 0.0201263 -9.21415 0c-0.308697,-0.0266461 -0.57289,-0.0598119 -0.78861,-0.099781l0 -1.046c1.19114,-0.632419 4.18371,-1.26739 10.4631,-1.47035z"/>
    <path id="_87804488" class="fil6" d="M10.481 19.5202c6.82309,-0.203814 10.4294,0.576292 11.504,1.37709l0 0.790877c-1.30963,0.401675 -6.11442,0.109135 -11.1792,0.222523 -0.759412,0.0170081 -1.50947,0.0334493 -2.24082,0.0481897l-7.1264 0c-0.611158,-0.0308981 -1.10241,-0.0771035 -1.44541,-0.142018l0 -0.855792c1.15854,-0.615694 4.26252,-1.25463 10.4878,-1.44087z"/>
    <path id="_88005832" class="fil7" d="M10.507 19.6977c6.70885,-0.182554 10.5204,0.608891 11.4779,1.37085l0 0.582528c-1.1265,0.397706 -6.02994,0.131246 -11.1687,0.231594 -1.65064,0.0323154 -3.26471,0.0617962 -4.73137,0.0762531l-3.12269 0c-1.36348,-0.0198428 -2.41147,-0.0739853 -2.96905,-0.182554l0 -0.679758c1.11346,-0.592733 4.37222,-1.23224 10.5139,-1.39892z"/>
    <path id="_85948120" class="fil8" d="M10.5317 19.8751c6.6068,-0.159309 10.6879,0.644891 11.4533,1.36122l0 0.375029c-0.868548,0.395155 -5.90805,0.156758 -11.1587,0.243216 -4.923,0.0813555 -9.5614,0.140034 -10.833,-0.116789l0 -0.517897c1.04685,-0.563819 4.50999,-1.19992 10.5385,-1.34478z"/>
    <path id="_46089960" class="fil9" d="M10.5567 20.052c6.60624,-0.136348 11.0794,0.706687 11.4283,1.3717l0 0.130963c-0.379564,0.41188 -5.66937,0.198145 -11.1491,0.271563 -4.9933,0.0668986 -9.74593,0.110553 -10.8427,-0.124443l0 -0.369643c0.942533,-0.529803 4.67071,-1.15882 10.5635,-1.28014z"/>
    <path id="_89468808" class="fil10" d="M10.5816 20.2292c6.40015,-0.106301 11.3059,0.716609 11.3169,1.30651 0.0110553,0.374179 -5.4443,0.205231 -11.0527,0.262208 -5.09705,0.0521582 -10.0005,0.0802216 -10.8526,-0.129262l0 -0.230177c0.764231,-0.490968 4.83484,-1.11403 10.5884,-1.20928z"/>
    <path id="_45178712" class="fil11" d="M10.6068 20.4063c5.92931,-0.0708672 11.1752,0.656797 11.1826,1.16194 0.00708672,0.267311 -5.41198,0.163561 -10.9337,0.201546 -5.30625,0.0368509 -10.4674,0.0473393 -10.8625,-0.135781l0 -0.0805051c0.371344,-0.446463 4.93207,-1.07945 10.6136,-1.1472z"/>
    <path id="_90317400" class="fil12" d="M10.6318 20.5835c5.4579,-0.0354336 11.0445,0.597268 11.0485,1.01709 0.00340162,0.16101 -5.37995,0.122175 -10.8146,0.140884 -5.43494,0.0192759 -10.7919,0.0110553 -10.7919,-0.117923 0,-0.391187 5.09988,-1.00461 10.5581,-1.04005z"/>
   </g>
   <path id="_46075592" class="fil13" d="M10.6564 20.761c4.98735,0 10.9144,0.537457 10.9144,0.872516 0,0.109135 -21.3917,0.104883 -21.3917,0.00311815 0,-0.334776 5.4905,-0.875635 10.4773,-0.875635z"/>
  </g>
  <path class="fil14" d="M4.48589 4.57065l-0.0340162 -2.6116c0,-0.256539 0.162711,-0.462904 0.299626,-0.646308 0.176034,-0.261358 0.60067,-0.44051 0.897745,-0.44051l11.0556 -0.0617962c0.526685,-0.00283469 0.986471,0.515062 0.980801,1.15117 -0.00878753,0.884989 0.0439376,1.7456 0.0445046,2.60819l0.00595284 8.23561 -13.3284 0 0.0762531 -8.15624c0.000283469,-0.0260791 0.000566937,-0.0527252 0.00198428,-0.0785208z"/>
  <path class="fil15" d="M4.01193 4.19307l-0.0371344 -2.59827 -0.00198428 -0.00595284c0,-0.423502 0.22394,-0.697049 0.422085,-0.939415l0.000850406 0.000850406 0.00963793 -0.0116222c0.145136,-0.193326 0.367659,-0.350367 0.607473,-0.458085l-0.000283469 -0.000850406c0.249452,-0.112254 0.532921,-0.178018 0.769334,-0.178018l0 0.00198428 10.6051 -0.0235279 0.00198428 -0.00198428 0.0136065 0 0.00396856 0.00198428c0.423502,0.00425203 0.816106,0.191341 1.09957,0.491535 0.275248,0.291406 0.450999,0.694215 0.452983,1.13869l0.00198428 0.00198428 0 0.0170081 -0.00198428 0.00396856c-0.00481897,0.466306 0.0099214,0.937998 0.0240948,1.40572 0.0119057,0.395439 0.0243783,0.790027 0.0246618,1.19822l0.00623631 8.2359 0.000283469 0.500039 -0.498338 0 -13.0914 -0.0379848 -0.503157 0 0.00510244 -0.504007 0.0833398 -8.15624 0 -0.00963793 0.00198428 -0.0722845zm0.958974 -2.60423l0.0374179 2.60536 -0.498054 0.00595284 0.498054 0.0136065 -0.00226775 0.0788043 -0.0782373 7.6426 12.0899 0.0379848 -0.00595284 -7.73586c0,-0.379848 -0.0124726,-0.775003 -0.0246618,-1.17101 -0.0144569,-0.470841 -0.0291973,-0.945368 -0.0240948,-1.4369l-0.00198428 0 0 -0.0170081 0.00198428 0c-0.00113387,-0.177168 -0.072568,-0.339595 -0.183688,-0.456951 -0.102332,-0.108002 -0.237547,-0.176601 -0.37673,-0.179152l0 0.00198428 -0.0136065 0 0 -0.00198428 -10.6051 0.0235279 -0.00198428 0.00198428c-0.102332,0 -0.234995,0.0328824 -0.358871,0.0884422l-0.00198428 0c-0.0986471,0.0442211 -0.181703,0.0972297 -0.219972,0.149104l-0.01389 0.0175751 -0.0189924 0.0232444 0 0.00198428c-0.0915604,0.11197 -0.19531,0.238964 -0.19531,0.306713l-0.00198428 0z"/>
  <path class="fil16" d="M18.6619 7.40959l0.031465 0.192759 -15.044 -0.1046 0 -4.16841c0,-0.256823 0.101765,-0.492385 0.269579,-0.676073 0.214586,-0.261075 0.540575,-0.428321 0.902848,-0.428321l12.7116 0.1046c0.643757,0.000850406 1.21495,0.530086 1.20786,1.17016l-0.0467723 3.90988 -0.0325989 0z"/>
  <path class="fil17" d="M3.11164 7.51135l-0.00311815 -2.6116c0,-0.256823 0.101765,-0.492952 0.270146,-0.676073 0.214586,-0.261075 0.464322,-0.162711 0.827161,-0.162711l13.6527 -0.00878753c0.643474,0.000850406 1.01652,0.286303 1.00915,0.923257 -0.0107718,0.884989 0.053859,1.78132 0.0547094,2.64363l0.00765365 8.02103 -15.8139 0.0884422 -0.00765365 -8.13838c0,-0.0263626 0.00113387,-0.0527252 0.00311815,-0.0788043z"/>
  <path class="fil18" d="M3.04077 7.12527l-0.00113387 -1.05564c6.13171,-0.0195593 9.558,0.0861745 15.688,-0.0263626 -0.00198428,0.360289 0.00765365,0.721711 0.0195593,1.082l-15.7064 0z"/>
  <path class="fil19" d="M1.2861 9.7482l0.0331658 -1.69656c0,-0.18794 0.0890091,-0.360572 0.235562,-0.494653 0.187656,-0.191058 0.472826,-0.313516 0.790027,-0.313516l16.8624 -0.00425203c0.562969,-0.000283469 1.0562,0.375029 1.04827,0.842185 -0.0110553,0.648576 0.0124726,1.08937 0.0124726,1.72009l0 9.79299c0,0.46744 -0.451849,0.856926 -1.00235,0.856926 -6.60142,0 -5.72011,0.0045355 -16.9795,0.0045355 -0.550496,0 -1.00235,-0.385801 -1.00235,-0.857209l0 -9.79271c0,-0.0195593 0.000850406,-0.0388352 0.00226775,-0.0578276z"/>
  <polygon class="fil20" points="1.81051,14.0496 4.07231,14.0496 4.07231,14.208 4.09385,17.1717 4.12815,17.1501 4.12815,17.2085 1.79577,17.2085 "/>
  <path class="fil20" d="M20.0795 14.087l-1.94148 -0.0291973 0 0.13975 0.00396856 2.96707c0,0.0167246 -0.00623631,0.035717 -0.0113387,0.0547094l1.94885 0 0 -3.13233z"/>
  <path class="fil21" d="M0.891792 7.79794c0,-0.189074 0.0892926,-0.362556 0.236696,-0.497487 0.189074,-0.192192 0.475377,-0.315217 0.794563,-0.315217l17.9421 0c0.565803,0 1.06244,0.376446 1.05394,0.847004"/>
  <path class="fil22" d="M20.3553 7.01245l0.96351 2.78508c-0.00708672,0.153923 -0.0583945,0.289988 -0.315501,0.300477 -7.23412,0 -12.7737,0.0445046 -20.0072,0.0445046 -0.132947,-0.00368509 -0.337044,-0.0518748 -0.317768,-0.226208l0.976266 -2.90385 18.7007 0z"/>
  <polygon class="fil23" points="11.3342,19.2319 15.938,14.7276 14.2179,14.7276 14.0493,14.7276 14.0493,14.6791 18.0448,14.824 18.4544,14.9465 11.4751,20.4389 11.3631,20.5379 11.2512,20.4389 4.25458,14.9158 4.25685,14.9102 8.05646,14.7174 8.05646,14.7656 7.88723,14.7656 6.3103,14.7656 "/>
  <polygon class="fil24" points="11.2529,19.5469 16.7431,14.9161 14.0907,14.9161 13.9832,11.9199 7.9564,11.9199 8.07404,14.9161 5.74166,14.9161 "/>
  <path class="fil25" d="M15.7915 15.9247l0.951888 -1.00801 -2.65242 0 -0.108002 -2.99626 -6.02626 0 0.106584 -0.036284 6.02342 0 0.00425203 4.11681 1.70053 -0.0762531zm-7.72027 -1.00801l-2.32926 0 1.40941 0.97003 0.922407 0.0379848 -0.00255122 -1.00801z"/>
  <path class="fil26" d="M18.911 6.05319l0.0623631 0c0.164979,0.000566937 0.157609,0.0456384 0.0748357,-0.134081l-0.185388 -0.425203 0.176034 -0.645742 0.871949 1.69911c0.152506,0.293673 0.271563,0.356887 -0.122175,0.480196l-0.0547094 0.11112 -0.100064 -0.000566937 -17.4404 0 -0.0549929 0.0269295c-0.393738,-0.123309 -0.374746,-0.324005 -0.221672,-0.617678l0.836799 -1.28836 0.0184255 0.577993 -0.0430872 0.164695c-0.0830563,0.179719 -0.112254,0.081639 0.0521582,0.0813555l0.06293 0c6.2451,-0.0221106 9.82275,0.0881587 16.067,-0.0297642z"/>
  <path class="fil27" d="M1.02219 9.71844l0.00595284 -0.313516 1.0151 0 -0.00680325 0.351218 0 0.0218271 -0.00198428 0.0280634 0.00170081 0 0 9.79271c0,0.0802216 0.0442211,0.158459 0.115372,0.218838 0.0926942,0.0793712 0.226208,0.128978 0.377297,0.128978l11.0145 -0.000566937 5.94972 -0.00170081 0 -0.00226775c0.150522,0 0.283752,-0.0498905 0.376446,-0.128978 0.0717176,-0.0612292 0.116506,-0.139467 0.116506,-0.218554l0 -9.79299 -0.00170081 -0.396573 1.01567 0c0.00255122,0.163845 0.0045355,0.309264 0.0045355,0.396573l0 9.79299c0,0.389486 -0.18227,0.740987 -0.474243,0.990723 -0.270713,0.230743 -0.638088,0.375596 -1.03721,0.375596l0 -0.00198428 -5.94972 0.00170081 -11.0145 0.0045355c-0.39884,0 -0.76735,-0.143719 -1.03778,-0.375312 -0.291689,-0.249452 -0.473676,-0.59982 -0.473676,-0.991006l0 -9.79271 0.00198428 -0.0099214 0.000566937 -0.0289138 0 -0.0198428 0.00198428 -0.0289138 0.000283469 0z"/>
  <path class="fil28" d="M20.0789 7.08842l0.958691 2.62123c-0.00680325,0.153923 -0.0581111,0.289988 -0.315501,0.300477 -7.23384,0 -12.4097,0.018142 -19.6435,0.018142 -0.132663,-0.00368509 -0.337044,-0.0521582 -0.317485,-0.226208l0.998943 -2.67821 0.373612 -0.0371344 17.9453 0.00170081z"/>
  <path class="fil29" d="M18.9731 4.68347l1.52421 2.02708 0.00113387 0.00255122c0.117639,0.170648 0.167813,0.305579 0.254555,0.540291l0.114238 0.299059 0.982219 2.48857 -0.947636 0.266744 -0.982219 -2.48857 -0.000850406 -0.00255122 -0.117639 -0.305863 -0.00170081 -0.00425203c-0.0668986,-0.182837 -0.107435,-0.288571 -0.172349,-0.383817l-0.000850406 -0.00255122 -0.872516 -1.29744 0.219405 -1.13926zm-19.0049 5.43438l0.974282 -2.57928 0.0813555 -0.22961c0.0737018,-0.219121 0.157892,-0.458936 0.249452,-0.595851l1.77565 -2.04239 0.0382683 1.30877 -0.922407 1.14068 -0.00255122 0.00425203c-0.0348666,0.0501739 -0.102332,0.24435 -0.162994,0.422652l-0.000850406 0.00255122 -0.0805051 0.22961 -0.00340162 0.00878753 -0.977967 2.58807 -0.968329 -0.25824z"/>
  <polygon class="fil27" points="21.9629,11 0.0235279,11 0.0235279,10.0186 21.9629,10.0186 "/>
  <path class="fil30" d="M3.01894 6.16147l-0.0294807 -2.49481c0,-0.188507 0.0377013,-0.372194 0.106301,-0.54426l0.000566937 0.000283469c0.0694498,-0.174617 0.170365,-0.332792 0.29339,-0.468007l0.000566937 0.000566937c0.15364,-0.181136 0.345265,-0.330241 0.560701,-0.432006 0.099214,-0.0470558 0.203247,-0.0844737 0.311249,-0.111403l0 1.08257c-0.0442211,0.0328824 -0.0844737,0.0705837 -0.118773,0.112537l-0.0155908 0.0195593c-0.0464889,0.0513078 -0.0836232,0.107718 -0.106301,0.165262l0 0.00198428c-0.0206932,0.0515913 -0.032032,0.110269 -0.032032,0.172916l0.0294807 2.49481 -1.00008 0zm14.602 -4.0777c0.336477,0.06293 0.644891,0.225358 0.884422,0.453833 0.3138,0.29991 0.515062,0.716325 0.513929,1.17554l0.00198428 0 0 0.0099214 -0.00198428 0.00595284 0.00595284 2.43244 -0.996109 0 -0.00595284 -2.4384 -0.00198428 0 0 -0.0099214 0.00198428 0c0.000283469,-0.171782 -0.0802216,-0.333076 -0.205515,-0.452699l-0.00198428 -0.00198428c-0.0572607,-0.0547094 -0.123309,-0.100631 -0.194743,-0.135215l0 -1.03948z"/>
  <path class="fil31" d="M4.24494 2.164c0.128411,-0.0323154 0.262492,-0.0493235 0.399691,-0.0493235l0 0.00198428 12.7036 -0.0266461 0 -0.00198428 0.0110553 0 0.00396856 0.00198428c0.099214,0.00113387 0.197011,0.0107718 0.29254,0.0286303l0 1.03948c-0.0918438,-0.0445046 -0.193042,-0.0703002 -0.296508,-0.072001l0 0.00198428 -0.0110553 0 0 -0.00198428 -12.7036 0.0266461 0 0.00198428c-0.102899,0 -0.200129,0.022961 -0.285169,0.0632135 -0.040536,0.0192759 -0.0788043,0.0422368 -0.114521,0.0685994l0 -1.08257z"/>
  <polygon class="fil32" points="20.5991,12.0633 1.75666,12.0979 1.75666,10.9269 20.5991,10.8923 "/>
  <path class="fil18" d="M3.11929 6.1507l-0.00113387 -1.05564c5.34934,-0.0195593 10.1558,0.0861745 15.5037,-0.0263626 -0.00198428,0.360289 0.00651978,0.721711 0.0170081,1.082l-15.5196 0z"/>
 </g>
</svg>
