<?xml version="1.0" encoding="UTF-8"?>
<!DOCTYPE svg PUBLIC "-//W3C//DTD SVG 1.1//EN" "http://www.w3.org/Graphics/SVG/1.1/DTD/svg11.dtd">
<!-- Creator: CorelDRAW -->
<svg xmlns="http://www.w3.org/2000/svg" xml:space="preserve" width="64px" height="64px" style="shape-rendering:geometricPrecision; text-rendering:geometricPrecision; image-rendering:optimizeQuality; fill-rule:evenodd; clip-rule:evenodd"
viewBox="0 0 64 64"
 xmlns:xlink="http://www.w3.org/1999/xlink">
 <defs>
  <style type="text/css">
   <![CDATA[
    .fil48 {fill:none}
    .fil16 {fill:#6AA7D9}
    .fil14 {fill:#8FCDFF}
    .fil50 {fill:#C48231}
    .fil28 {fill:#CAED79}
    .fil23 {fill:#D4C2B2}
    .fil51 {fill:#EDA54E}
    .fil21 {fill:#F5ECE4}
    .fil60 {fill:#FFC57F}
    .fil72 {fill:#F3F3F3}
    .fil25 {fill:white;fill-rule:nonzero}
    .fil85 {fill:#804716;fill-rule:nonzero}
    .fil32 {fill:#86A158;fill-rule:nonzero}
    .fil30 {fill:#9BBA65;fill-rule:nonzero}
    .fil58 {fill:#9E6021;fill-rule:nonzero}
    .fil57 {fill:#C48231;fill-rule:nonzero}
    .fil27 {fill:#C4AE9A;fill-rule:nonzero}
    .fil17 {fill:#C5E7FC;fill-rule:nonzero}
    .fil26 {fill:#D0F280;fill-rule:nonzero}
    .fil55 {fill:#FFB75E;fill-rule:nonzero}
    .fil56 {fill:#FFD199;fill-rule:nonzero}
    .fil83 {fill:#F3F3F3;fill-rule:nonzero}
    .fil31 {fill:#F8FFC4;fill-rule:nonzero}
    .fil0 {fill:black;fill-opacity:0.000000}
    .fil33 {fill:#5C3106;fill-opacity:0.000000}
    .fil62 {fill:#BD7E31;fill-opacity:0.000000}
    .fil73 {fill:#C48231;fill-opacity:0.000000}
    .fil1 {fill:black;fill-opacity:0.003922}
    .fil63 {fill:#BD7E31;fill-opacity:0.007843}
    .fil74 {fill:#C48231;fill-opacity:0.007843}
    .fil2 {fill:black;fill-opacity:0.007843}
    .fil34 {fill:#5C3106;fill-opacity:0.011765}
    .fil3 {fill:black;fill-opacity:0.015686}
    .fil64 {fill:#BD7E31;fill-opacity:0.019608}
    .fil75 {fill:#C48231;fill-opacity:0.019608}
    .fil4 {fill:black;fill-opacity:0.019608}
    .fil5 {fill:black;fill-opacity:0.023529}
    .fil35 {fill:#5C3106;fill-opacity:0.027451}
    .fil65 {fill:#BD7E31;fill-opacity:0.027451}
    .fil76 {fill:#C48231;fill-opacity:0.027451}
    .fil6 {fill:black;fill-opacity:0.027451}
    .fil7 {fill:black;fill-opacity:0.031373}
    .fil66 {fill:#BD7E31;fill-opacity:0.035294}
    .fil77 {fill:#C48231;fill-opacity:0.035294}
    .fil8 {fill:black;fill-opacity:0.035294}
    .fil36 {fill:#5C3106;fill-opacity:0.039216}
    .fil9 {fill:black;fill-opacity:0.043137}
    .fil67 {fill:#BD7E31;fill-opacity:0.043137}
    .fil78 {fill:#C48231;fill-opacity:0.043137}
    .fil10 {fill:black;fill-opacity:0.047059}
    .fil11 {fill:black;fill-opacity:0.050980}
    .fil37 {fill:#5C3106;fill-opacity:0.054902}
    .fil68 {fill:#BD7E31;fill-opacity:0.054902}
    .fil79 {fill:#C48231;fill-opacity:0.054902}
    .fil12 {fill:black;fill-opacity:0.054902}
    .fil13 {fill:black;fill-opacity:0.058824}
    .fil69 {fill:#BD7E31;fill-opacity:0.062745}
    .fil80 {fill:#C48231;fill-opacity:0.062745}
    .fil38 {fill:#5C3106;fill-opacity:0.066667}
    .fil70 {fill:#BD7E31;fill-opacity:0.070588}
    .fil81 {fill:#C48231;fill-opacity:0.070588}
    .fil39 {fill:#5C3106;fill-opacity:0.078431}
    .fil71 {fill:#BD7E31;fill-opacity:0.078431}
    .fil82 {fill:#C48231;fill-opacity:0.078431}
    .fil40 {fill:#5C3106;fill-opacity:0.094118}
    .fil41 {fill:#5C3106;fill-opacity:0.105882}
    .fil42 {fill:#5C3106;fill-opacity:0.121569}
    .fil24 {fill:#789440;fill-opacity:0.219608}
    .fil47 {fill:#F8EBB3;fill-opacity:0.219608}
    .fil15 {fill:#548ABA;fill-opacity:0.439216}
    .fil54 {fill:#693E19;fill-opacity:0.439216}
    .fil22 {fill:#9BBA65;fill-opacity:0.439216}
    .fil52 {fill:#FFB75E;fill-rule:nonzero;fill-opacity:0.439216}
    .fil46 {fill:#F8EBB3;fill-opacity:0.501961}
    .fil61 {fill:#FFD199;fill-opacity:0.580392}
    .fil45 {fill:#FFB75E;fill-rule:nonzero;fill-opacity:0.780392}
    .fil49 {fill:url(#id0)}
    .fil29 {fill:url(#id1)}
    .fil53 {fill:url(#id2)}
    .fil20 {fill:url(#id3)}
    .fil59 {fill:url(#id4)}
    .fil43 {fill:url(#id5)}
    .fil84 {fill:url(#id6);fill-rule:nonzero}
    .fil18 {fill:url(#id7);fill-rule:nonzero}
    .fil44 {fill:url(#id8);fill-opacity:0.321569}
    .fil19 {fill:url(#id9);fill-rule:nonzero;fill-opacity:0.501961}
   ]]>
  </style>
  <linearGradient id="id0" gradientUnits="userSpaceOnUse" x1="31.9575" y1="31.7602" x2="31.9575" y2="24.9393">
   <stop offset="0" style="stop-color:#9D6123"/>
   <stop offset="0.568627" style="stop-color:#B3732A"/>
   <stop offset="1" style="stop-color:#C48231"/>
  </linearGradient>
  <linearGradient id="id1" gradientUnits="userSpaceOnUse" x1="30.6169" y1="12.1643" x2="33.3382" y2="45.3454">
   <stop offset="0" style="stop-color:#C0E36F"/>
   <stop offset="0.419608" style="stop-color:#ACD156"/>
   <stop offset="1" style="stop-color:#9EC444"/>
  </linearGradient>
  <linearGradient id="id2" gradientUnits="userSpaceOnUse" x1="31.7614" y1="36.819" x2="32.8764" y2="57.3964">
   <stop offset="0" style="stop-color:#8C551E"/>
   <stop offset="1" style="stop-color:#804716"/>
  </linearGradient>
  <linearGradient id="id3" gradientUnits="userSpaceOnUse" xlink:href="#id0" x1="32.7417" y1="16.4423" x2="31.452" y2="30.3736">
  </linearGradient>
  <linearGradient id="id4" gradientUnits="userSpaceOnUse" x1="32.0496" y1="22.8948" x2="32.0496" y2="29.085">
   <stop offset="0" style="stop-color:#FFB861"/>
   <stop offset="1" style="stop-color:#FAB764"/>
  </linearGradient>
  <linearGradient id="id5" gradientUnits="userSpaceOnUse" x1="32.1075" y1="28.7933" x2="32.1075" y2="54.9999">
   <stop offset="0" style="stop-color:#E69D45"/>
   <stop offset="1" style="stop-color:#D49242"/>
  </linearGradient>
  <linearGradient id="id6" gradientUnits="userSpaceOnUse" x1="31.785" y1="16.0514" x2="32.2032" y2="31.3232">
   <stop offset="0" style="stop-color:#C48231"/>
   <stop offset="1" style="stop-color:#985C21"/>
  </linearGradient>
  <linearGradient id="id7" gradientUnits="userSpaceOnUse" x1="31.9102" y1="12.3167" x2="32.0094" y2="3.74414">
   <stop offset="0" style="stop-color:#4E87B4"/>
   <stop offset="1" style="stop-color:#66A1D1"/>
  </linearGradient>
  <linearGradient id="id8" gradientUnits="userSpaceOnUse" x1="28.1555" y1="61.7405" x2="27.9216" y2="38.0261">
   <stop offset="0" style="stop-color:#FFC57F"/>
   <stop offset="1" style="stop-color:#FFC57F"/>
  </linearGradient>
  <linearGradient id="id9" gradientUnits="userSpaceOnUse" x1="22.466" y1="13.6525" x2="20.6093" y2="62.7799">
   <stop offset="0" style="stop-color:#F8FFC4"/>
   <stop offset="1" style="stop-color:#ADD158"/>
  </linearGradient>
 </defs>
 <g id="Слой_x0020_1">
  <metadata id="CorelCorpID_0Corel-Layer"/>
  <g id="_45179056">
   <path id="_45827264" class="fil0" d="M30.7161 54.0101c28.9681,-1.24844 32.8752,3.56697 33.0004,7.47529 0.12638,3.9095 -15.0274,1.68663 -31.9173,2.36105 -16.8864,0.674418 -31.1295,1.24253 -31.1295,-1.65474 0,-2.89728 1.07954,-6.93316 30.0464,-8.1816z"/>
   <g>
    <path id="_92210352" class="fil1" d="M30.7823 54.4908c27.7409,-1.15159 32.5339,3.40516 32.6508,7.08316 0.115749,3.61894 -14.9423,1.57207 -31.6043,2.1957 -16.6632,0.622449 -30.8815,1.14214 -30.8815,-1.54372 0,-2.74373 2.09766,-6.58236 29.835,-7.73513z"/>
    <path id="_43956808" class="fil2" d="M30.8484 54.9715c26.5102,-1.0571 32.1937,3.24335 32.3012,6.68985 0.106301,3.32957 -14.862,1.45986 -31.2961,2.03034 -16.4352,0.571661 -30.6299,1.04056 -30.6299,-1.43269 0,-2.59019 3.11461,-6.23039 29.6248,-7.28749z"/>
    <path id="_45288232" class="fil3" d="M30.9134 55.4523c25.2818,-0.960248 31.8535,3.08153 31.9516,6.29772 0.0956705,3.04019 -14.777,1.34647 -30.9854,1.86616 -16.2096,0.51851 -30.3807,0.938988 -30.3807,-1.32167 0,-2.43783 4.13391,-5.88196 29.4145,-6.84221z"/>
    <path id="_85964120" class="fil4" d="M30.9795 55.9318c24.0546,-0.863396 31.5134,2.91972 31.5996,5.9044 0.0885838,2.752 -14.6931,1.23545 -30.6748,1.70081 -15.9805,0.467722 -30.1303,0.838593 -30.1303,-1.20828 0,-2.28546 5.15203,-5.53235 29.2055,-6.39693z"/>
    <path id="_46459448" class="fil5" d="M31.0457 56.4137c22.8251,-0.766545 31.1709,2.75791 31.25,5.51227 0.0767726,2.46263 -14.6104,1.12206 -30.3642,1.53663 -15.7561,0.414572 -29.8823,0.737017 -29.8823,-1.09844 0,-2.13192 6.17015,-5.18038 28.9964,-5.95047z"/>
    <path id="_85948120" class="fil6" d="M31.1106 56.8968c21.5967,-0.672056 30.8319,2.59491 30.9004,5.11896 0.0685048,2.17207 -14.5266,1.00749 -30.0559,1.37128 -15.527,0.363784 -29.6295,0.636622 -29.6295,-0.987414 0,-1.97955 7.1871,-4.83077 28.785,-5.50282z"/>
    <path id="_87760432" class="fil7" d="M31.1756 57.3751c20.3695,-0.575204 30.4917,2.43192 30.5496,4.72565 0.0590558,1.88388 -14.4415,0.896468 -29.7429,1.2071 -15.3014,0.311815 -29.3803,0.535046 -29.3803,-0.875208 0,-1.82719 8.20404,-4.48116 28.5736,-5.05754z"/>
    <path id="_46443112" class="fil8" d="M31.2417 57.8582c19.14,-0.480715 30.1527,2.26893 30.2012,4.33234 0.0472447,1.59451 -14.3612,0.783081 -29.4346,1.04293 -15.0746,0.259846 -29.1311,0.43347 -29.1311,-0.765364 0,-1.67482 9.22216,-4.13037 28.3645,-4.6099z"/>
    <path id="_46454280" class="fil9" d="M31.3067 58.3389c17.9116,-0.382682 29.8114,2.10829 29.8504,3.94139 0.0377957,1.30395 -14.275,0.669693 -29.124,0.87757 -14.8466,0.207877 -28.8819,0.333075 -28.8819,-0.654339 0,-1.52128 10.2426,-3.77957 28.1555,-4.16462z"/>
    <path id="_46505496" class="fil10" d="M31.3716 58.8196c16.6856,-0.288193 29.4724,1.9453 29.5019,3.54689 0.0283468,1.01694 -14.1935,0.557487 -28.8145,0.713395 -14.621,0.155907 -28.6315,0.231499 -28.6315,-0.543314 0,-1.36773 11.2596,-3.42878 27.944,-3.71697z"/>
    <path id="_88517400" class="fil11" d="M31.4366 59.3003c15.4561,-0.191341 29.1322,1.78467 29.1511,3.15476 0.0188979,0.726387 -14.1073,0.4441 -28.5039,0.549219 -14.3931,0.102757 -28.3799,0.129923 -28.3799,-0.432289 0,-1.21537 12.2765,-3.07917 27.7326,-3.27169z"/>
    <path id="_85951544" class="fil12" d="M31.5027 59.7811c14.2289,-0.0968516 28.7909,1.62167 28.8004,2.76145 0.0106301,0.437013 -14.0246,0.331894 -28.1933,0.382682 -14.1663,0.0519691 -28.1307,0.0295279 -28.1307,-0.320083 0,-1.06182 13.2947,-2.72838 27.5236,-2.82405z"/>
   </g>
   <path id="_85607744" class="fil13" d="M31.5665 60.2641c13.0006,0 28.4507,1.45986 28.4507,2.36932 0,0.29646 -55.7653,0.284649 -55.7653,0.00826782 0,-0.90946 14.314,-2.37759 27.3145,-2.37759z"/>
  </g>
  <path class="fil14" d="M52.6164 15.2766l0.0720481 0.532684 -41.5186 -0.153545 0 -11.7899c0,-0.712213 0.236223,-1.36655 0.627173,-1.87325 0.499612,-0.724025 1.25789,-1.18702 2.10239,-1.18702l36.089 0.151183c1.49884,0.00354335 2.82759,1.46813 2.81224,3.24335l-0.108663 11.0765 -0.0755915 0z"/>
  <path class="fil15" d="M11.5348 3.9154l-0.00118112 -0.0177168 0 -0.765364c0,-0.711032 0.237404,-1.36537 0.627173,-1.87325 0.398036,-0.574023 0.956705,-0.985051 1.59333,-1.12915l0.224412 3.03901 0.400399 0.0944894c-0.393312,0.876389 -2.44727,1.40199 -2.78153,0.755915 -0.335437,-0.64489 -0.040158,-0.0685048 -0.0625992,-0.103938z"/>
  <path class="fil15" d="M50.3439 1.04056l-0.235042 2.79925 -0.399218 0.0968516c0.324807,0.722844 1.56616,1.62404 2.35633,1.20592l0.0106301 -1.11852c0.0129923,-1.32876 -0.731111,-2.48625 -1.7327,-2.9835z"/>
  <path class="fil16" d="M11.184 12.847l0.242129 -7.2367c0,-0.712213 0.235042,-1.36537 0.625992,-1.87325 0.499612,-0.724025 1.01104,-1.18702 1.85553,-1.18702l35.6851 0.101576c1.49766,0.00354335 2.8087,1.42561 2.7898,3.1902 -0.0259846,2.45318 0.125198,4.93471 0.12638,7.32529l0.0165356 23.1676 -41.3308 0.223231 -0.0165356 -23.4936c0,-0.0732292 0.00236223,-0.146458 0.00590558,-0.217326z"/>
  <path class="fil17" d="M11.4403 5.00085c0.266932,-1.47167 0.883475,-2.99059 2.46617,-2.99059l0 0.00236223 35.6863 0 0 -0.00236223 0.020079 0 0.00236223 0.00236223c1.57325,0.0141734 2.55239,1.32876 2.86775,2.7898l-0.0555125 0.0248035c-0.283468,-0.988595 -1.72207,-1.83191 -2.8146,-1.84254l0 0.00236223 -0.020079 0 0 -0.00236223 -35.6863 0.0248035 0 0.00118112c-1.00277,0 -1.85317,0.727568 -2.15672,1.64057 -0.0248035,0.0732292 -0.0460636,0.148821 -0.0649614,0.225593l-0.244491 0.124017z"/>
  <path class="fil18" d="M52.881 15.4762l0.0744104 0.556306 -0.570479 -0.00236223 -40.9623 -0.152364 -0.500794 -0.00118112 0 -0.49725 0 -11.7911c0,-0.396855 0.0673237,-0.785443 0.188979,-1.15159l0 -0.00236223c0.124017,-0.370871 0.308272,-0.716938 0.538589,-1.01576 0.295279,-0.421659 0.670874,-0.77245 1.09844,-1.0134 0.428745,-0.242129 0.907098,-0.377957 1.40435,-0.377957l0 0.00236223 35.5327 0.151183 0 -0.00236223 0.0165356 0 0.00354335 0.00236223c0.891743,0.00826782 1.72561,0.438194 2.32798,1.12324l-0.00118112 0.00118112c0.588196,0.668512 0.966154,1.5886 0.963791,2.59255l0.00236223 0 0 0.0248035 -0.00236223 0.00354335 -0.108663 11.0765 -0.00590558 0.473628zm-40.9576 -0.594102l39.8899 0.150002 -0.0720481 -0.533865 0.153545 0 0.103938 -10.5757 -0.00236223 0 0 -0.0248035 0.00236223 0c0.00118112,-0.75119 -0.278744,-1.43742 -0.714576,-1.93231l-0.00236223 0c-0.421659,-0.478352 -0.989776,-0.781899 -1.58033,-0.787805l0 0.00236223 -0.0165356 0 0 -0.00236223 -35.5327 -0.151183 0 0.00236223c-0.32835,0 -0.638984,0.0874027 -0.915366,0.24331 -0.298823,0.1689 -0.565755,0.420478 -0.777175,0.726387l-0.0153545 0.0212601c-0.165356,0.214963 -0.298823,0.462998 -0.388587,0.731111l-0.00118112 0c-0.0838593,0.255121 -0.131104,0.537408 -0.131104,0.837412l0 11.2938z"/>
  <path class="fil19" d="M52.8148 19.8321l0.0141734 16.7293 -0.432289 0 -0.0153545 -16.7293 0 -5.05164 0.00118112 0 0.00354335 -8.76979c0.150002,0.0826782 0.294098,0.152364 0.429927,0.207877l-0.00236223 8.56192 0.00118112 0 0 5.05164zm-41.9178 16.9538l-0.0141734 -17.0553 0 -2.43783 -0.00118112 0 0 -0.258665 0 -11.269c0,-0.157089 0.0106301,-0.311815 0.030709,-0.46536 0.140553,-0.0248035 0.290555,-0.0460636 0.451187,-0.0661425 -0.0318902,0.171262 -0.0484258,0.349611 -0.0484258,0.531503l0 11.0116 0 0 0 0.257483 0 2.69649 0.0153545 17.0553 -0.43347 0z"/>
  <path class="fil20" d="M8.44499 15.9982l47.7939 0.153545c0.706308,0.00118112 0.901192,0.577566 1.28269,1.07245l2.50751 4.26856 -0.496069 8.25364c-0.0354335,0.589377 -0.577566,1.07245 -1.28269,1.07245l-52.4558 0c-0.703946,0 -1.25789,-0.483077 -1.28269,-1.07245l-0.347248 -8.3316 2.99767 -4.34415c0.353154,-0.510242 0.577566,-1.07482 1.28269,-1.07245z"/>
  <path class="fil21" d="M54.244 19.0963l0.0779537 0.532684 -45.0065 -0.324807 0 -11.7911c0,-0.709851 0.250397,-1.36537 0.667331,-1.87325 0.531503,-0.722844 1.33821,-1.18702 2.23585,-1.18702l39.2284 0.0271657c1.59569,0 3.01067,1.46813 2.99295,3.24217l-0.115749 11.3742 -0.0803159 0z"/>
  <path class="fil22" d="M9.53043 8.85365l0 -0.0177168 0 -0.765364c0,-0.709851 0.223231,-1.36537 0.594102,-1.87325 0.376776,-0.574023 0.907098,-0.985051 1.50947,-1.12915l0.213782 3.03901 0.379139 0.0956705c-0.372052,0.875208 -2.31853,1.4008 -2.63743,0.754734 -0.318902,-0.64489 -0.0377957,-0.0685048 -0.0590558,-0.103938z"/>
  <path class="fil22" d="M52.2325 5.33629l-0.250397 2.79925 -0.424021 0.0956705c0.344886,0.724025 1.66656,1.6264 2.50869,1.2071l0.0106301 -1.1197c0.0850404,-1.41143 -0.64489,-2.6398 -1.8449,-2.98232z"/>
  <path class="fil23" d="M9.44067 16.701l-0.102757 -7.23552c0,-0.711032 0.251578,-1.36419 0.66615,-1.87325 0.532684,-0.722844 1.09135,-1.1386 1.99136,-1.1386l39.3241 -0.170081c1.59569,-0.00826782 2.98823,1.42679 2.97051,3.18902 -0.0259846,2.452 0.133466,4.83667 0.134647,7.22607l0.0188979 22.8192 -45.2391 0 0.230318 -22.5983c0.00118112,-0.0732292 0.00236223,-0.146458 0.00590558,-0.218507z"/>
  <path class="fil24" d="M9.46665 17.7144l-0.102757 -7.23552c0,-0.522054 0.134647,-1.00985 0.36969,-1.43506 0.144096,-0.020079 0.289374,-0.0295279 0.438194,-0.0295279l43.1698 0.0803159c0.24331,0 0.481896,0.0271657 0.714576,0.0791348 0.170081,0.40158 0.265751,0.84568 0.259846,1.31222 -0.0248035,2.452 0.133466,4.83667 0.135828,7.22607l0.00354335 5.98826 -45.0525 -0.0732292 0.0578747 -5.69416c0.00118112,-0.0732292 0.00236223,-0.146458 0.00590558,-0.218507z"/>
  <path class="fil25" d="M11.6423 6.03787c0.155907,-0.0248035 0.315358,-0.0389769 0.477171,-0.0389769l0 0.00236223 39.2284 0.00236223 0 -0.00236223 0.0271657 0 0.00354335 0.00236223c0.263389,0.00236223 0.523235,0.0389769 0.773632,0.106301l0.0129923 1.02403c-0.246853,-0.0921271 -0.509061,-0.144096 -0.777175,-0.14764l0 0.00236223 -0.0271657 0 0 -0.00236223 -39.2414 -0.0141734 0 0.00118112c-0.153545,0 -0.304728,0.0165356 -0.450006,0.0484258l-0.0271657 -0.98387zm43.073 6.88709c0.0555125,0.297641 0.0944894,0.604732 0.103938,0.93072l0.0129923 0.48662 -0.870483 0 -0.0129923 -0.461817 -0.0271657 -0.955524 0.793711 0z"/>
  <path class="fil26" d="M54.6385 13.0006l-0.793711 0c-0.0295279,-1.11025 -0.0519691,-2.21932 -0.040158,-3.27051l-0.00236223 0 0 -0.0354335 0.00236223 0c0,-0.75119 -0.295279,-1.43269 -0.760639,-1.92286l0 -0.00118112c-0.272838,-0.288193 -0.604732,-0.513786 -0.968516,-0.649614l0 -0.910641c0.608275,0.161813 1.16104,0.499612 1.59805,0.961429l0.00118112 0c0.611819,0.64489 0.429927,1.90987 0.428745,2.89492l0.00236223 0 0 0.0354335 -0.00236223 0.00236223c-0.0106301,1.02757 0.350792,1.90042 0.535046,2.8961z"/>
  <path class="fil26" d="M10.6797 6.3615l0.00236223 0c0.298823,-0.15827 0.622449,-0.269295 0.960248,-0.323626l0.0271657 0.98387c-0.204333,0.0425202 -0.398036,0.113387 -0.578747,0.210239l0 0.00118112c-0.614181,-0.0330713 -1.7764,2.92917 -1.65947,3.47957 -0.0992138,0.277562 -0.0354335,-0.0188979 -0.0354335,0.298823 0.144096,-1.54963 -0.399218,-3.75713 1.28387,-4.65006z"/>
  <path class="fil27" d="M54.8404 19.7731l0.0803159 0.563393 -0.578747 -0.00472447 -44.8529 -0.325988 -0.498431 -0.00354335 0 -0.494888 0 -11.7899c0,-0.405123 0.070867,-0.799616 0.20079,-1.1634 0.128742,-0.366146 0.322445,-0.706308 0.563393,-1.00513 0.315358,-0.428745 0.716938,-0.780718 1.17167,-1.02285l0 -0.00118112c0.445281,-0.236223 0.946075,-0.36969 1.46931,-0.36969l0 0.00236223 39.0761 0.0271657 0 -0.00236223 0.0259846 0 0.00354335 0.00236223c0.928358,0.00944894 1.80002,0.434651 2.4331,1.11025l0 0.00236223c0.625992,0.668512 1.02875,1.5886 1.02757,2.59491l0.00236223 0 0 0.0330713 -0.00236223 0.00354335 -0.115749 11.3742 -0.00590558 0.470085zm-44.8482 -0.760639l43.7746 0.31772 -0.0767726 -0.531503 0.164175 0 0.111025 -10.8734 -0.00236223 0 0 -0.0330713 0.00236223 0c0,-0.74056 -0.297641,-1.42088 -0.757096,-1.91341l-0.00118112 0.00118112c-0.453549,-0.484258 -1.06891,-0.791348 -1.70908,-0.798435l0 0.00236223 -0.0259846 0 0 -0.00236223 -39.0761 -0.0271657 0 0.00236223c-0.355516,0 -0.696859,0.090946 -0.999225,0.251578l-0.00236223 0c-0.321264,0.170081 -0.607094,0.424021 -0.833869,0.731111l-0.0177168 0.0212601c-0.172443,0.210239 -0.312996,0.457092 -0.408666,0.726387 -0.090946,0.257483 -0.141734,0.538589 -0.141734,0.830325l0 11.295z"/>
  <path class="fil28" d="M56.8153 25.1082l0.0874027 0.533865 -49.6329 -0.0803159 0 -11.549c0,-0.711032 0.282287,-1.36419 0.746466,-1.87325 0.595283,-0.722844 1.49766,-1.18584 2.50279,-1.18584l43.1698 0.0791348c1.78349,0.00236223 3.36618,1.46931 3.3461,3.24217l-0.129923 10.8332 -0.0897649 0z"/>
  <path class="fil22" d="M54.8971 11.2679l-0.279925 2.79925 -0.474809 0.0956705c0.386225,0.724025 1.8638,1.62522 2.80397,1.2071l0.0129923 -1.11852c0.0165356,-1.32876 -0.868121,-2.48507 -2.06223,-2.9835z"/>
  <path class="fil22" d="M7.26977 14.797l0 -0.0177168 0 -0.766545c0,-0.711032 0.282287,-1.36419 0.746466,-1.87325 0.472447,-0.574023 1.13742,-0.98387 1.89451,-1.12915l0.269295 3.04019 0.47599 0.0944894c-0.468903,0.876389 -2.91263,1.39962 -3.31185,0.755915 -0.400399,-0.64489 -0.0472447,-0.0696859 -0.0744104,-0.103938z"/>
  <path class="fil29" d="M7.27804 22.518l-0.00826782 -7.23552c0,-0.711032 0.282287,-1.36537 0.747647,-1.87325 0.595283,-0.722844 1.49648,-1.18702 2.50161,-1.18702l42.6738 0.0803159c1.78349,0.00236223 3.34138,1.42443 3.32012,3.1902 -0.0295279,2.452 0.150002,4.93471 0.152364,7.32529l0.020079 22.2227 -49.3943 0.245672 -0.0212601 -22.5487c0,-0.0744104 0.00354335,-0.146458 0.00826782,-0.219688z"/>
  <path class="fil30" d="M47.5033 13.1222l6.67095 0c0.197247,0 0.382682,0.0814971 0.514967,0.214963l0.00590558 0.00472447c0.132285,0.133466 0.213782,0.318902 0.213782,0.514967l0 2.1142c0,0.196065 -0.0814971,0.381501 -0.213782,0.514967l-0.00590558 0.00590558c-0.132285,0.132285 -0.31772,0.213782 -0.514967,0.213782l-6.67095 0c-0.194884,0 -0.381501,-0.0814971 -0.514967,-0.213782l-0.00472447 -0.00590558c-0.133466,-0.133466 -0.214963,-0.318902 -0.214963,-0.514967l0 -2.1142c0,-0.196065 0.0814971,-0.381501 0.214963,-0.514967l0.00472447 -0.00472447c0.133466,-0.133466 0.320083,-0.214963 0.514967,-0.214963zm6.6804 0.700402l-6.68866 0 0 2.25711 6.68866 0 0 -2.25711z"/>
  <path class="fil31" d="M10.043 12.1124c0.152364,-0.0342524 0.309453,-0.0625992 0.477171,-0.0862215l0 0.00236223 43.1686 -0.0212601 0 -0.00236223 0.0366146 0 0.00590558 0.00236223c0.4441,0.0496069 0.822057,0.140553 1.14686,0.266932l0 0.936626c-0.320083,-0.120474 -0.700402,-0.188979 -1.15277,-0.197247l0 0.00354335 -0.0366146 0 0 -0.00354335 -43.1686 0.00826782 0 0.00118112c-0.167719,0 -0.325988,0.00826782 -0.477171,0.0259846l0 -0.936626z"/>
  <path class="fil26" d="M7.38316 18.1266c-0.0271657,-2.18507 -0.59174,-5.25597 2.65988,-5.98944l0 0.938988c-2.61854,0.289374 -2.85712,2.95752 -2.85594,4.92526l0.196065 0.125198z"/>
  <path class="fil26" d="M54.8652 12.26c2.40239,0.923633 1.78112,3.91658 1.89097,5.87842l-0.127561 0.198428c-0.0425202,-1.77758 0.173624,-4.35242 -1.75042,-5.07526l-0.0129923 -1.00159z"/>
  <path class="fil32" d="M56.9038 25.0657l0.0933082 0.569298 -0.587015 -0.00118112 -48.8994 -0.0803159 -0.500794 0 0 -0.498431 0 -11.549c0,-0.408666 0.0814971,-0.806703 0.229137,-1.17757 0.152364,-0.382682 0.375595,-0.732292 0.648433,-1.0323l0.00118112 0.00118112c0.346067,-0.415753 0.783081,-0.833869 1.27797,-1.06655 0.485439,-0.230318 1.02757,-0.284649 1.59333,-0.284649l0 0.00236223 42.4363 0.0803159 0 -0.00236223 0.0342524 0 0.00354335 0.00236223c1.00985,0.0106301 1.96184,0.429927 2.65633,1.09371l0.00236223 0.00236223c0.700402,0.670874 1.14923,1.59687 1.14805,2.61145l0.00236223 0 0 0.0318902 -0.00236223 0.00590558 -0.129923 10.8332 -0.0070867 0.458273zm-48.8923 -0.50788l47.8116 0.0779537 -0.0885838 -0.535046 0.185435 0 0.124017 -10.3324 -0.00236223 0 0 -0.0318902 0.00236223 0c0,-0.726387 -0.32835,-1.39962 -0.840955,-1.89097 -0.519691,-0.496069 -1.22718,-0.811427 -1.97247,-0.819695l0 0.00236223 -0.0342524 0 0 -0.00236223 -42.4363 -0.0803159 0 0.00236223c-0.419296,0 -0.816152,0.0944894 -1.16812,0.261027 -0.368508,0.173624 -0.694497,0.429927 -0.949618,0.74056l-0.0153545 0.020079c-0.198428,0.217326 -0.357878,0.464179 -0.461817,0.727568 -0.0992138,0.248035 -0.153545,0.522054 -0.153545,0.809065l0 11.0517z"/>
  <g id="_46046088">
   <path id="_46054088" class="fil33" d="M5.59141 16.6183l51.8073 -0.375595c0.0106301,2.17562 0.15827,4.36186 0.160632,6.47606l0.00236223 3.47957 -51.9691 -0.167719 -0.00354335 -3.63784c0,-0.0732292 0.00236223,-0.146458 0.0070867,-0.218507l-0.00472447 -5.55597z"/>
   <g>
    <path id="_46052736" class="fil34" d="M5.59141 17.2904l51.8156 -0.375595c0.0318902,1.95239 0.150002,3.90713 0.152364,5.80401l0.00354335 4.15044 -51.9703 -0.167719 -0.00354335 -4.30871c0,-0.0732292 0.00236223,-0.146458 0.0070867,-0.218507l-0.00472447 -4.88392z"/>
    <path id="_46051384" class="fil35" d="M5.59259 17.9624l51.8286 -0.375595c0.0425202,1.72916 0.135828,3.45359 0.138191,5.13195l0.00354335 4.82132 -51.9691 -0.166537 -0.00472447 -4.98077c0,-0.0732292 0.00236223,-0.146458 0.0070867,-0.218507l-0.00354335 -4.21186z"/>
    <path id="_46050032" class="fil36" d="M5.59259 18.6357l51.8475 -0.375595c0.0472447,1.50238 0.118112,2.99767 0.119293,4.45872l0.00472447 5.49219 -51.9703 -0.166537 -0.00472447 -5.65164c0,-0.0732292 0.00236223,-0.146458 0.0070867,-0.218507l-0.00354335 -3.53863z"/>
    <path id="_46048680" class="fil37" d="M5.59377 19.3077l51.8687 -0.375595c0.0437013,1.27561 0.0956705,2.54294 0.0968516,3.78666l0.00472447 6.16307 -51.9691 -0.166537 -0.00590558 -6.32252c0,-0.0732292 0.00236223,-0.146458 0.0070867,-0.218507l-0.00236223 -2.86657z"/>
    <path id="_46043040" class="fil38" d="M5.59377 19.981l51.8912 -0.375595c0.0377957,1.04765 0.0732292,2.0894 0.0744104,3.11342l0.00590558 6.83394 -51.9703 -0.166537 -0.00590558 -6.99339c0,-0.0732292 0.00236223,-0.146458 0.0070867,-0.218507l-0.00236223 -2.19333z"/>
    <path id="_46041816" class="fil39" d="M5.59495 20.653l51.9148 -0.375595c0.0271657,0.820876 0.0484258,1.63585 0.0496069,2.44137l0.00590558 7.50482 -51.9691 -0.166537 -0.0070867 -7.66427c0,-0.0732292 0.00236223,-0.146458 0.0070867,-0.218507l-0.00118112 -1.52128z"/>
    <path id="_46040944" class="fil40" d="M5.59613 21.3262l51.9337 -0.376776c0.0165356,0.594102 0.0283468,1.18466 0.0295279,1.76931l0.0070867 8.17687 -51.9703 -0.167719 -0.0070867 -8.33514c0,-0.0732292 0.00236223,-0.146458 0.0070867,-0.218507l0 -0.848042z"/>
    <path id="_46039968" class="fil41" d="M5.59613 21.9983l51.9502 -0.376776c0.0070867,0.368508 0.0118112,0.733474 0.0129923,1.09726l0.00826782 8.84775 -51.9703 -0.167719 -0.00826782 -9.00602c0,-0.0732292 0.00236223,-0.146458 0.0070867,-0.218507l0 -0.175986z"/>
   </g>
   <polygon id="_46046128" class="fil42" points="5.58905,22.6704 57.557,22.2936 57.5594,22.7188 57.5676,32.2374 5.59731,32.0697 "/>
  </g>
  <path class="fil43" d="M3.91304 28.9952l0.0921271 -4.70085c0,-0.519691 0.245672,-0.998044 0.653158,-1.3701 0.520873,-0.52914 1.30986,-0.868121 2.18861,-0.868121l50.5235 -0.0129923c1.55907,0 2.92563,1.03938 2.90437,2.33389 -0.030709,1.79766 0.0330713,3.01657 0.0330713,4.76699l0 30.2201c0,1.29687 -1.2508,2.37404 -2.77681,2.37404 -18.2896,0 -19.6502,0.0129923 -50.8471,0.0129923 -1.52482,0 -2.77681,-1.06891 -2.77681,-2.37523l0 -30.2201c0,-0.0543314 0.00236223,-0.107482 0.00590558,-0.160632z"/>
  <path class="fil44" d="M3.91304 28.9952l0.0838593 -4.25793 0.441738 0 0 36.0312c-0.334256,-0.392131 -0.531503,-0.874027 -0.531503,-1.39254l0 -30.2201c0,-0.0543314 0.00236223,-0.107482 0.00590558,-0.160632zm56.2082 31.2181c-0.127561,0.281106 -0.31772,0.538589 -0.553944,0.757096l0 -36.2331 0.553944 0 0 35.476zm-1.69018 1.14096l-0.553944 0 0 -36.617 0.553944 0 0 36.617zm-1.69136 0l-0.553944 0 0 -36.617 0.553944 0 0 36.617zm-1.69136 0l-0.553944 0 0 -36.617 0.553944 0 0 36.617zm-1.676 0l-0.553944 0 0 -35.8741 0.553944 0 0 35.8741zm-1.69018 0l-0.553944 0 0 -35.8741 0.553944 0 0 35.8741zm-1.69136 0.00118112l-0.553944 0 0 -35.8752 0.553944 0 0 35.8752zm-1.69018 0.00118112l-0.555125 0 0 -35.8764 0.555125 0 0 35.8764zm-1.66301 0l-0.553944 0 0 -35.8764 0.553944 0 0 35.8764zm-1.69136 0l-0.553944 0.00118112 0 -35.8776 0.553944 0 0 35.8764zm-1.69136 0.00118112l-0.553944 0 0 -35.8776 0.553944 0 0 35.8776zm-1.69018 0.00118112l-0.553944 0 0 -35.8788 0.553944 0 0 35.8788zm-1.70435 0l-0.553944 0.00118112 0 -35.5634 0.553944 0 0 35.5622zm-1.69136 0.00118112l-0.553944 0 0 -35.5634 0.553944 0 0 35.5634zm-1.69136 0l-0.553944 0.00118112 0 -35.5646 0.553944 0 0 35.5634zm-1.69018 0.00236223l-0.553944 0 0 -35.5658 0.553944 0 0 35.5658zm-1.66301 0l-0.553944 0 0 -35.5658 0.553944 0 0 35.5658zm-1.69018 0l-0.553944 0 0 -35.5658 0.553944 0 0 35.5658zm-1.69136 0l-0.553944 0 0 -35.5658 0.553944 0 0 35.5658zm-1.69136 0.00118112l-0.553944 0 0 -35.567 0.553944 0 0 35.567zm-1.67364 0l-0.555125 0 0 -36.9406 0.555125 0 0 36.9406zm-1.69136 0l-0.553944 0 0 -36.9406 0.553944 0 0 36.9406zm-1.69136 0.00118112l-0.553944 0 0 -36.9418 0.553944 0 0 36.9418zm-1.69018 0l-0.555125 0 0 -36.9418 0.555125 0 0 36.9418zm-1.66301 0.00118112l-0.553944 0 0 -36.943 0.553944 0 0 36.943zm-1.69018 0l-0.555125 0 0 -36.943 0.555125 0 0 36.943zm-1.69136 0l-0.555125 0 0 -36.943 0.555125 0 0 36.943zm-1.69136 0l-0.553944 0 0 -36.943 0.553944 0 0 36.943zm-1.70435 0l-0.553944 0 0 -36.6288 0.553944 0 0 36.6288zm-1.69018 0l-0.555125 0.00118112 0 -36.63 0.555125 0 0 36.6288zm-1.69136 0.00118112l-0.555125 0 0 -36.63 0.555125 0 0 36.63zm-1.69136 0l-0.553944 0 0 -36.63 0.553944 0 0 36.63zm-1.66301 0l-0.553944 0 0 -36.63 0.553944 0 0 36.63z"/>
  <path class="fil45" d="M4.15871 28.9303l0.0921271 -4.68431 -0.00236223 0c0,-0.318902 0.0744104,-0.627173 0.210239,-0.914184l0.00236223 -0.00236223c0.133466,-0.279925 0.327169,-0.537408 0.566936,-0.760639l0.00472447 -0.00472447c0.304728,-0.309453 0.692135,-0.563393 1.12679,-0.734655 0.419296,-0.166537 0.885838,-0.259846 1.36773,-0.259846l0 0.00118112 49.1853 -0.236223 0.0070867 0 0.0614181 0.00118112c0.858672,0.0153545 1.66537,0.311815 2.25593,0.781899 0.622449,0.492526 1.01694,1.1823 1.01694,1.95475l0 0.0318902 -0.00236223 0.0070867c-0.0177168,1.05119 -0.00236223,1.90868 0.0129923,2.78744 0.00944894,0.674418 0.0236223,1.37836 0.0236223,1.97128l0 30.2201c0,0.783081 -0.373233,1.49529 -0.972059,2.0079 -0.160632,0.13701 -0.337799,0.259846 -0.527959,0.366146 0.0106301,-0.334256 -0.00354335,-0.0826782 -0.180711,-0.334256 0.0673237,-0.0460636 0.131104,-0.0956705 0.191341,-0.146458 0.408666,-0.349611 0.615362,-1.376 0.615362,-1.89333l0 -30.2201c0,-0.842136 -0.0106301,-1.39962 -0.020079,-1.95593 -0.0165356,-0.884657 -0.030709,-1.74687 -0.0129923,-2.80988l-0.00118112 0 0 -0.0318902c0,-0.490164 -0.265751,-0.940169 -0.685048,-1.27206 -0.448824,-0.356697 -1.06655,-0.582291 -1.72797,-0.594102l-0.0614181 -0.00118112 -49.1782 0.236223 0 0.00236223c-0.376776,0 -0.734655,0.0696859 -1.04647,0.193703 -0.323626,0.128742 -0.609456,0.316539 -0.832687,0.542133l-0.0165356 0.0153545c-0.164175,0.151183 -0.298823,0.324807 -0.386225,0.50788l0.00118112 0c-0.0791348,0.1689 -0.124017,0.351973 -0.124017,0.543314l-0.00236223 0.0070867 -0.090946 4.69966 -0.435832 -0.0070867 0.435832 0.0153545 -0.00590558 0.145277 0.00118112 0 0 30.2201c0,0.459454 0.199609,0.884657 0.527959,1.22009 -0.0791348,0.294098 -0.15827,0.616543 -0.230318,0.947256 -0.0685048,-0.050788 -0.13701,-0.103938 -0.201971,-0.159451 -0.597645,-0.511424 -0.969697,-1.22246 -0.969697,-2.0079l0 -30.2201 0.00236223 -0.0153545 0.00590558 -0.160632z"/>
  <path class="fil46" d="M4.15399 40.9139l8.16388 0 0 0.438194c-0.146458,0.640165 -0.418115,1.71734 -0.763002,2.01971 -0.344886,0.303547 -0.246853,0.944894 0.0496069,1.39254 0.297641,0.447643 0.447643,1.74097 0.447643,1.74097l0.0980327 3.05909 0.116931 -0.060237 0 0.161813 -8.1627 0 0.0496069 -8.75208z"/>
  <path class="fil46" d="M4.15399 40.9139l8.16388 0 0 0.438194 -0.0248035 0.108663 0 -0.0755915 -8.14026 0 0.00118112 -0.471266zm7.18001 3.21618c0.040158,0.217326 0.141734,0.440557 0.270476,0.63426 0.297641,0.447643 0.447643,1.74097 0.447643,1.74097l0.122836 2.9835 0.118112 -0.060237 0 0.161813 -0.15827 0 -0.107482 -2.61381c0,0 -0.150002,-1.29214 -0.446462,-1.74097 -0.226774,-0.341343 -0.368508,-0.767726 -0.246853,-1.10553z"/>
  <path class="fil47" d="M12.0946 40.9245l0.223231 -0.0106301 0 0.438194c-0.146458,0.640165 -0.418115,1.71734 -0.763002,2.01971 -0.344886,0.303547 -0.246853,0.944894 0.0496069,1.39254 0.297641,0.447643 0.447643,1.74097 0.447643,1.74097l0.0980327 3.05909 0.116931 -0.060237 0 0.161813 -0.347248 0 -1.23427 -0.00826782 1.31813 -0.944894 -0.101576 -2.20751c0,0 -0.347248,-1.29332 -0.643709,-1.74097 -0.298823,-0.447643 -0.396855,-1.08899 -0.050788,-1.39254 0.344886,-0.302366 0.59174,-0.571661 0.738198,-1.21183l0.148821 -1.23545z"/>
  <path class="fil46" d="M60.596 40.9127l-8.81822 0 0 0.387406c0.287011,0.331894 0.680323,0.720481 1.03348,1.86853 0.185435,0.60237 -0.614181,1.09726 -0.584653,1.89451 0.0543314,1.44214 0.490164,3.14295 0.213782,4.37604 -0.00944894,0.0460636 -0.0259846,0.0992138 -0.0472447,0.152364l8.20286 0 0 -8.67885z"/>
  <path class="fil47" d="M53.8743 40.9127l-2.09648 0 0 0.387406c0.287011,0.331894 0.680323,0.720481 1.03348,1.86853 0.185435,0.60237 -0.637803,1.09608 -0.584653,1.89451 0.0956705,1.44096 0.4441,3.14177 0.214963,4.37604 -0.00944894,0.0472447 -0.0283468,0.0992138 -0.0484258,0.152364l0.396855 0c0.020079,-0.0531503 0.0366146,-0.106301 0.0472447,-0.152364 0.292917,-1.23309 -0.112206,-2.93508 -0.213782,-4.37604 -0.0555125,-0.798435 0.770088,-1.29332 0.584653,-1.89451 -0.353154,-1.14805 0.953161,-1.53663 0.66615,-1.86853l0 -0.387406z"/>
  <g id="_46013976">
   <polygon id="_46025296" class="fil33" points="3.88587,37.2005 60.2393,37.5111 60.2393,28.6563 3.88587,28.7944 "/>
   <g>
    <path id="_46023920" class="fil34" d="M3.88706 36.8284c18.7845,0.0980327 37.5678,0.197247 56.3523,0.295279 0,-2.80633 0,-5.61149 0,-8.41782 -18.7845,0.0437013 -37.5678,0.0874027 -56.3523,0.131104 0,2.66578 0,5.32684 0,7.99144z"/>
    <path id="_46022408" class="fil35" d="M3.88706 36.4575c18.7845,0.0933082 37.5678,0.186616 56.3523,0.279925 0,-2.66106 0,-5.32093 0,-7.98199 -18.7845,0.0425202 -37.5678,0.0838593 -56.3523,0.125198 0,2.52641 0,5.05046 0,7.57686z"/>
    <path id="_46021032" class="fil36" d="M3.88706 36.0867c18.7845,0.0885838 37.5678,0.177168 56.3523,0.265751 0,-2.51578 0,-5.03038 0,-7.54616 -18.7845,0.0389769 -37.5678,0.0779537 -56.3523,0.116931 0,2.3894 0,4.77526 0,7.16347z"/>
    <path id="_46019656" class="fil37" d="M3.88706 35.7158c18.7845,0.0838593 37.5678,0.166537 56.3523,0.250397 0,-2.3705 0,-4.73982 0,-7.11032 -18.7845,0.0366146 -37.5678,0.0744104 -56.3523,0.111025 0,2.25121 0,4.49887 0,6.7489z"/>
    <path id="_46018248" class="fil38" d="M3.88706 35.3461c18.7845,0.0767726 37.5678,0.155907 56.3523,0.233861 0,-2.22522 0,-4.44927 0,-6.67449 -18.7845,0.0354335 -37.5678,0.0696859 -56.3523,0.103938 0,2.11302 0,4.22367 0,6.33669z"/>
    <path id="_46016872" class="fil39" d="M3.88706 34.9752c18.7845,0.0720481 37.5678,0.145277 56.3523,0.218507 0,-2.07995 0,-4.15871 0,-6.23866 -18.7845,0.0330713 -37.5678,0.0661425 -56.3523,0.0980327 0,1.97483 0,3.94729 0,5.92212z"/>
    <path id="_46008536" class="fil40" d="M3.88706 34.6044c18.7845,0.0673237 37.5678,0.135828 56.3523,0.204333 0,-1.93467 0,-3.86816 0,-5.80283 -18.7845,0.0295279 -37.5678,0.060237 -56.3523,0.0897649 0,1.83782 0,3.67209 0,5.50873z"/>
    <path id="_46007496" class="fil41" d="M3.88706 34.2335c18.7845,0.0625992 37.5678,0.125198 56.3523,0.188979 0,-1.78821 0,-3.5776 0,-5.367 -18.7845,0.0283468 -37.5678,0.0566936 -56.3523,0.0838593 0,1.69845 0,3.39689 0,5.09416z"/>
   </g>
   <polygon id="_46014000" class="fil42" points="3.88587,33.8638 60.2393,34.0374 60.2393,29.1051 3.88587,29.1819 "/>
  </g>
  <path class="fil48" d="M4.38903 23.5916c0,-0.523235 0.246853,-1.00395 0.65552,-1.37836 0.524416,-0.531503 1.31813,-0.872845 2.2016,-0.872845l49.7132 0c1.56734,0 2.94334,1.04293 2.91972,2.3457"/>
  <path class="fil49" d="M60.2393 24.7964l2.72011 4.75518c0.17953,1.39608 -0.161813,2.2453 -0.874027,2.27483 -20.0436,0 -40.4155,0.0767726 -60.4578,0.0767726 -0.230318,-0.00590558 -0.538589,-0.0614181 -0.722844,-0.218507 -0.109844,-0.0944894 -0.128742,-1.5449 -0.108663,-1.72561l3.10634 -5.16266 56.3369 0z"/>
  <path class="fil50" d="M2.71303 30.2047l0 1.23072 -0.484258 0 0 -1.23072 0.484258 0zm60.3149 0.100395c-0.060237,0.467722 -0.218507,0.803159 -0.461817,0.982689l0 -0.982689 0.461817 0zm-1.45395 1.13033l-0.483077 0 0 -1.13033 0.483077 0 0 1.13033zm-1.45041 0l-0.484258 0 0 -1.13033 0.484258 0 0 1.13033zm-1.4764 0l-0.483077 0 0 -1.13033 0.483077 0 0 1.13033zm-1.4764 0l-0.483077 0 0 -1.13033 0.0248035 0 0 -0.100395 0.124017 0 0 0.100395 0.334256 0 0 1.13033zm-1.45041 0l-0.509061 0 0 -1.13033 0.0259846 0 0 -0.100395 0.483077 0 0 1.23072zm-1.45041 0l-0.484258 0 0 -1.23072 0.484258 0 0 1.23072zm-1.4764 0l-0.483077 0 0 -1.23072 0.483077 0 0 1.23072zm-1.4764 0l-0.483077 0 0 -1.23072 0.483077 0 0 1.23072zm-1.47522 0l-0.484258 0 0 -1.23072 0.484258 0 0 1.23072zm-1.4634 0l-0.484258 0 0 -1.23072 0.484258 0 0 1.23072zm-1.47522 0l-0.484258 0 0 -1.23072 0.484258 0 0 1.23072zm-1.4764 0l-0.484258 0 0 -1.23072 0.484258 0 0 1.23072zm-1.4764 0l-0.483077 0 0 -1.23072 0.483077 0 0 1.23072zm-1.45159 0l-0.483077 0 0 -1.23072 0.483077 0 0 1.23072zm-1.47522 0l-0.484258 0 0 -1.23072 0.484258 0 0 1.23072zm-1.4764 0l-0.484258 0 0 -1.23072 0.484258 0 0 1.23072zm-1.47522 0l-0.484258 0 0 -1.23072 0.484258 0 0 1.23072zm-1.48821 0l-0.484258 0 0 -1.23072 0.484258 0 0 1.23072zm-1.4764 0l-0.483077 0 0 -1.23072 0.483077 0 0 1.23072zm-1.4764 0l-0.483077 0 0 -1.23072 0.483077 0 0 1.23072zm-1.47522 0l-0.484258 0 0 -1.23072 0.484258 0 0 1.23072zm-1.45159 0l-0.483077 0 0 -1.23072 0.483077 0 0 1.23072zm-1.47522 0l-0.484258 0 0 -1.23072 0.484258 0 0 1.23072zm-1.4764 0l-0.484258 0 0 -1.23072 0.484258 0 0 1.23072zm-1.4764 0l-0.483077 0 0 -1.23072 0.483077 0 0 1.23072zm-1.46104 0l-0.484258 0 0 -1.23072 0.484258 0 0 1.23072zm-1.4764 0l-0.483077 0 0 -1.23072 0.483077 0 0 1.23072zm-1.4764 0l-0.483077 0 0 -1.23072 0.483077 0 0 1.23072zm-1.47522 0l-0.484258 0 0 -1.23072 0.484258 0 0 1.23072zm-1.45159 0l-0.484258 0 0 -1.23072 0.484258 0 0 1.23072zm-1.47522 0l-0.484258 0 0 -1.23072 0.484258 0 0 1.23072zm-1.4764 0l-0.484258 0 0 -1.23072 0.484258 0 0 1.23072zm-1.4764 0l-0.483077 0 0 -1.23072 0.483077 0 0 1.23072zm-1.48821 0l-0.483077 0 0 -1.23072 0.483077 0 0 1.23072zm-1.47522 0l-0.484258 0 0 -1.23072 0.484258 0 0 1.23072zm-1.4764 0l-0.484258 0 0 -1.23072 0.484258 0 0 1.23072zm-1.47522 0l-0.484258 0 0 -1.23072 0.484258 0 0 1.23072zm-1.45159 0l-0.484258 0 0 -1.23072 0.484258 0 0 1.23072zm-1.4764 0l-0.483077 0 0 -1.23072 0.483077 0 0 1.23072zm-1.4764 0l-0.483077 0 0 -1.23072 0.483077 0 0 1.23072z"/>
  <path class="fil51" d="M60.3385 21.4148l2.66932 7.71742c-0.0188979,0.426383 -0.161813,0.803159 -0.874027,0.832687 -20.0436,0 -39.9147,0.122836 -59.957,0.122836 -0.368508,-0.00944894 -0.934263,-0.144096 -0.879932,-0.625992l2.70476 -8.04695 56.3369 0z"/>
  <polygon class="fil52" points="32.6638,57.5641 42.7919,48.101 38.0272,48.101 37.5583,48.101 37.5583,47.9675 44.7454,47.8423 44.7513,47.8577 32.9744,58.5397 32.6638,58.8137 32.3543,58.5397 19.9479,47.8825 19.9526,47.8671 26.8066,47.9675 26.8066,48.101 26.3365,48.101 21.9676,48.101 "/>
  <path class="fil53" d="M32.6638 58.1889l11.5289 -10.3584 -6.1548 0 0.0118112 -6.86465 -12.0332 0 0.0118112 6.86465 -5.58432 0 12.2198 10.3584zm-6.65677 -19.1672l12.0887 0 -0.020079 -2.99649 -12.0876 0 0.0188979 2.99649z"/>
  <path class="fil54" d="M42.8864 49.0258l1.28506 -1.19529 -6.13236 0 0.100395 1.2697 4.74691 -0.0744104zm-4.85911 -7.06662l0 -0.993319 -11.9931 0 0.050788 0.967335 11.9423 0.0259846zm-12.032 5.87133l-5.50637 0.0248035 1.48821 1.19529 4.09493 0.0248035 -0.0767726 -1.2449zm-0.0141734 -10.7871l12.0876 -0.050788 0.00826782 -0.967335 -12.0438 0 -0.0519691 1.01812z"/>
  <polygon class="fil55" points="25.9527,38.9615 38.0721,39.0631 38.0473,39.9383 25.9279,39.9383 "/>
  <path class="fil56" d="M57.7755 21.0286l0.173624 0c0.455911,0.00118112 0.435832,0.0968516 0.206695,-0.283468l-0.695678 -1.42561 0 -1.76695 2.41538 3.59532c0.42284,0.621267 0.752371,0.754734 -0.337799,1.01576l-0.152364 0.235042 -0.276381 -0.00118112 -53.9026 0 -0.152364 0.0566936c-1.09135,-0.259846 -1.0382,-0.685048 -0.615362,-1.30632l2.37168 -3.52918 0 1.39726 -0.911822 1.85317c-0.229137,0.38032 -0.310634,0.173624 0.145277,0.172443l0.173624 0c17.3034,-0.0472447 34.2571,0.236223 51.5581,-0.0129923z"/>
  <polygon class="fil57" points="6.1737,18.7951 7.03237,17.6766 7.09379,19.0538 6.1737,20.2691 "/>
  <path class="fil58" d="M60.9492 31.6457l0 27.4645c0,0.801978 -0.382682,1.53191 -0.9945,2.05514 -0.590558,0.505518 -1.40199,0.820876 -2.28428,0.820876l0 -0.00236223 -18.1845 0.0295279c-9.02728,0.00354335 -20.542,0.0106301 -33.1669,0.0106301 -0.884657,0 -1.69608,-0.314177 -2.28546,-0.819695 -0.610637,-0.523235 -0.992138,-1.2508 -0.992138,-2.05632l0 -27.4775 1.00159 0 0 27.4775c0,0.499612 0.246853,0.961429 0.640165,1.29805 0.414572,0.355516 0.995682,0.576385 1.63585,0.576385 22.7105,0 28.1519,-0.00354335 33.1669,-0.00590558l18.1845 -0.0295279 0 -0.00236223c0.638984,0 1.21891,-0.22205 1.63467,-0.577566 0.395674,-0.337799 0.642528,-0.800797 0.642528,-1.29687l0 -27.4645 1.00159 0z"/>
  <path class="fil59" d="M60.3007 21.9168l2.65633 7.26387c-0.020079,0.426383 -0.161813,0.803159 -0.874027,0.832687 -20.0436,0 -39.9643,0.0496069 -60.0066,0.0496069 -0.367327,-0.00944894 -0.934263,-0.144096 -0.879932,-0.627173l2.76736 -7.41978 1.17757 -0.00236223 55.1593 -0.0968516z"/>
  <path class="fil60" d="M62.7197 28.5322l0.237404 0.648433 -0.00236223 0.0472447 -0.235042 -0.695678zm-57.7117 -6.51858l0.133466 0 0.438194 -0.00118112 -0.975603 2.86539c-0.58111,1.70671 -1.15631,3.41579 -1.74097,5.1225 -0.21142,0.00118112 -0.42284,0.00236223 -0.627173,0.00354335 0.59174,-1.70671 1.1823,-3.41815 1.7764,-5.12369l0.995682 -2.86657zm1.70908 -0.00236223l0.574023 -0.00118112 -0.916547 2.86303c-0.545676,1.70435 -1.09253,3.41107 -1.63585,5.1166 -0.21142,0.00118112 -0.42284,0.00236223 -0.627173,0.00354335 0.556306,-1.70553 1.11379,-3.41343 1.6701,-5.11896l0.935445 -2.86303zm1.73979 -0.00354335l0.570479 -0.00118112 -0.853948 2.86067c-0.511424,1.70435 -1.02285,3.4087 -1.53073,5.11069 -0.21142,0.00118112 -0.42284,0.00236223 -0.627173,0.00354335 0.522054,-1.70317 1.04293,-3.4087 1.56498,-5.11306l0.876389 -2.86067zm1.7386 -0.00354335l0.566936 0 -0.798435 2.8583c-0.474809,1.69963 -0.944894,3.40398 -1.41734,5.10479 -0.21142,0 -0.415753,0.00118112 -0.620086,0.00236223 0.48662,-1.70199 0.966154,-3.40634 1.45277,-5.10715l0.816152 -2.8583zm1.73979 -0.00236223l0.574023 -0.00118112 -0.739379 2.85476c-0.441738,1.69845 -0.875208,3.40044 -1.31222,5.10006 -0.21142,0.00118112 -0.42284,0.00236223 -0.627173,0.00354335 0.451187,-1.70081 0.895287,-3.40162 1.34647,-5.10124l0.758277 -2.85594zm1.74805 -0.00354335l0.572842 -0.00118112 -0.674418 2.85358c-0.40158,1.69726 -0.804341,3.39571 -1.20592,5.09416 -0.21142,0.00118112 -0.42284,0.00118112 -0.627173,0.00236223 0.415753,-1.69726 0.82442,-3.39689 1.24135,-5.09534l0.693316 -2.85358zm1.74097 -0.00236223l0.566936 -0.00118112 -0.618905 2.84885c-0.366146,1.6949 -0.726387,3.39335 -1.09253,5.08943 -0.21142,0.00118112 -0.416934,0.00236223 -0.620086,0.00354335 0.38032,-1.69608 0.747647,-3.39689 1.12797,-5.08943l0.636622 -2.85122zm1.73624 -0.00354335l0.574023 -0.00118112 -0.556306 2.84649c-0.330713,1.6949 -0.65552,3.38862 -0.987414,5.08235 -0.21142,0.00236223 -0.424021,0.00354335 -0.627173,0.00472447 0.337799,-1.69372 0.680323,-3.39099 1.02167,-5.08471l0.575204 -2.84767zm1.73742 -0.00236223l0.574023 -0.00118112 -0.496069 2.84413c-0.295279,1.69136 -0.584653,3.38508 -0.881113,5.07644 -0.21142,0.00236223 -0.42284,0.00354335 -0.627173,0.00472447 0.302366,-1.69254 0.609456,-3.38744 0.916547,-5.0788l0.513786 -2.84531zm1.71144 -0.00354335l0.574023 -0.00118112 -0.437013 2.84177c-0.261027,1.69018 -0.514967,3.38036 -0.775994,5.07172 -0.21142,0.00118112 -0.42284,0.00236223 -0.627173,0.00354335 0.266932,-1.69136 0.538589,-3.3839 0.810246,-5.07526l0.455911 -2.84059zm1.73979 -0.00354335l0.570479 0 -0.375595 2.83822c-0.225593,1.68782 -0.4441,3.37681 -0.669693,5.06581 -0.21142,0.00118112 -0.42284,0.00236223 -0.627173,0.00354335 0.23268,-1.689 0.468903,-3.37918 0.705127,-5.06817l0.396855 -2.83941zm1.7386 -0.00236223l0.569298 -0.00118112 -0.314177 2.83586c-0.187798,1.68545 -0.381501,3.37327 -0.564574,5.0599 -0.21142,0.00236223 -0.415753,0.00354335 -0.621267,0.00472447 0.198428,-1.68782 0.392131,-3.37681 0.592921,-5.06345l0.337799 -2.83586zm1.7386 -0.00354335l0.569298 -0.00118112 -0.255121 2.8335c-0.151183,1.68427 -0.302366,3.36973 -0.451187,5.05518 -0.21142,0.00118112 -0.42284,0.00236223 -0.628354,0.00354335 0.162994,-1.68545 0.322445,-3.37209 0.487801,-5.05636l0.277562 -2.83468zm1.72089 -0.00236223l0.566936 -0.00118112 -0.196065 2.82996c-0.116931,1.68309 -0.23268,3.36618 -0.346067,5.04809 -0.21142,0.00236223 -0.415753,0.00354335 -0.620086,0.00472447 0.12638,-1.68427 0.250397,-3.36855 0.38032,-5.05164l0.214963 -2.82996zm1.73742 -0.00354335l0.568117 -0.00118112 -0.13701 2.82759c-0.0838593,1.68073 -0.162994,3.36146 -0.239767,5.04337 -0.21142,0.00118112 -0.415753,0.00236223 -0.620086,0.00354335 0.090946,-1.68191 0.183073,-3.36264 0.274019,-5.04455l0.154726 -2.82877zm1.73979 -0.00236223l0.570479 -0.00118112 -0.0744104 2.82405c-0.0448824,1.67837 -0.090946,3.35673 -0.133466,5.03628 -0.21142,0.00236223 -0.42284,0.00236223 -0.627173,0.00472447 0.0555125,-1.67955 0.108663,-3.3591 0.1689,-5.03864l0.0956705 -2.82523zm1.73152 -0.00354335l0.572842 -0.00118112 -0.0165356 2.82169c-0.0106301,1.676 -0.0141734,3.35319 -0.0283468,5.03156 -0.21142,0.00118112 -0.42284,0.00236223 -0.628354,0.00354335 0.0295279,-1.67837 0.040158,-3.35673 0.0637803,-5.03274l0.0366146 -2.82287zm1.71144 -0.00354335l0.572842 0 0.0413391 2.81814c0.0236223,1.67482 0.0566936,3.34965 0.0779537,5.02565 -0.21142,0.00118112 -0.42284,0.00236223 -0.627173,0.00354335 -0.0070867,-1.676 -0.0330713,-3.35083 -0.0425202,-5.02565l-0.0224412 -2.82169zm1.74451 -0.00236223l0.563393 -0.00118112 0.105119 2.8146c0.0590558,1.67364 0.12638,3.34729 0.183073,5.01975 -0.21142,0.00118112 -0.415753,0.00236223 -0.621267,0.00354335 -0.0484258,-1.67364 -0.0980327,-3.34729 -0.14764,-5.02093l-0.0826782 -2.81578zm1.73388 -0.00354335l0.565755 -0.00118112 0.166537 2.81342c0.0992138,1.67128 0.197247,3.34256 0.289374,5.01384 -0.21142,0.00118112 -0.415753,0.00236223 -0.621267,0.00354335 -0.0838593,-1.67246 -0.1689,-3.34492 -0.252759,-5.0162l-0.14764 -2.81342zm1.73506 -0.00236223l0.575204 -0.00118112 0.220869 2.80988c0.129923,1.66774 0.274019,3.33784 0.40158,5.00794 -0.21142,0.00118112 -0.42284,0.00118112 -0.627173,0.00236223 -0.120474,-1.66774 -0.244491,-3.33902 -0.367327,-5.00912l-0.203152 -2.80988zm1.7575 -0.00354335l0.565755 -0.00118112 0.284649 2.8087c0.1689,1.66537 0.338981,3.33311 0.50788,4.99967 -0.21142,0.00118112 -0.415753,0.00236223 -0.620086,0.00354335 -0.155907,-1.66774 -0.31772,-3.33666 -0.472447,-5.00321l-0.265751 -2.80751zm1.7386 -0.00354335l0.565755 0 0.343705 2.80515c0.204333,1.66419 0.409848,3.32957 0.614181,4.99376 -0.21142,0.00118112 -0.416934,0.00236223 -0.620086,0.00354335 -0.191341,-1.66537 -0.388587,-3.33193 -0.578747,-4.99612l-0.324807 -2.80633zm1.73034 -0.00236223l0.574023 -0.00118112 0.403942 2.80161c0.238586,1.66301 0.48662,3.32603 0.726387,4.98904 -0.21142,0.00236223 -0.424021,0.00354335 -0.627173,0.00472447 -0.226774,-1.66301 -0.461817,-3.32721 -0.692135,-4.9914l-0.385044 -2.80279zm1.73979 -0.00354335l0.571661 -0.00118112 0.464179 2.79925c0.278744,1.66065 0.557487,3.32248 0.832687,4.98431 -0.21142,0 -0.424021,0.00118112 -0.627173,0.00236223 -0.261027,-1.66065 -0.533865,-3.32366 -0.797254,-4.98431l-0.4441 -2.80043zm1.71026 -0.00236223l0.574023 -0.00118112 0.522054 2.7957c0.309453,1.65947 0.627173,3.31894 0.937807,4.97841 -0.21142,0.00118112 -0.42284,0.00236223 -0.628354,0.00236223 -0.295279,-1.65829 -0.60237,-3.31894 -0.902373,-4.97959l-0.503156 -2.7957zm1.73742 -0.00354335l0.570479 -0.00118112 0.585834 2.79334c0.346067,1.65711 0.69804,3.3154 1.04411,4.97132 -0.21142,0.00118112 -0.42284,0.00236223 -0.628354,0.00354335 -0.330713,-1.65711 -0.672056,-3.31421 -1.00749,-4.9725l-0.564574 -2.79452zm1.73979 -0.00236223l0.569298 -0.00118112 0.646071 2.79098c0.38032,1.65474 0.767726,3.30949 1.14923,4.96542 -0.21142,0 -0.416934,0.00236223 -0.621267,0.00354335 -0.366146,-1.65711 -0.75119,-3.31067 -1.12088,-4.9666l-0.622449 -2.79216zm1.73624 -0.00354335l0.570479 -0.00118112 0.706308 2.78862c0.419296,1.65474 0.846861,3.30595 1.26261,4.95951 -0.212601,0.00118112 -0.424021,0.00236223 -0.628354,0.00354335 -0.408666,-1.65356 -0.820876,-3.30713 -1.226,-4.96187l-0.685048 -2.78862zm1.72207 -0.00354335l0.571661 0 0.767726 2.78507c0.453549,1.6512 0.90946,3.30122 1.36773,4.9536 -0.21142,0.00236223 -0.42284,0.00236223 -0.628354,0.00354335 -0.442919,-1.6512 -0.891743,-3.3024 -1.3323,-4.95597l-0.746466 -2.78625zm1.73742 -0.00236223l0.574023 -0.00118112 0.825601 2.78153c0.490164,1.65002 0.980327,3.29886 1.47403,4.94888 -0.21142,0.00118112 -0.42284,0.00236223 -0.628354,0.00354335 -0.485439,-1.65002 -0.959067,-3.30004 -1.4386,-4.95006l-0.806703 -2.78271zm1.74097 -0.00354335l0.563393 -0.00118112 0.887019 2.78035c0.527959,1.64884 1.0571,3.29532 1.58624,4.94297 -0.21142,0.00118112 -0.416934,0.00236223 -0.620086,0.00236223 -0.523235,-1.64766 -1.03702,-3.29414 -1.55199,-4.94416l-0.864578 -2.78035z"/>
  <path class="fil61" d="M62.8496 28.5228l0.0826782 0.342524c-0.0188979,0.590558 -0.160632,1.11379 -0.874027,1.15395 -20.0436,0 -39.9643,0.0696859 -60.0066,0.0696859 -0.367327,-0.0141734 -0.933082,-0.20079 -0.879932,-0.869302l0.181892 -0.764183c0.152364,0.341343 0.543314,0.450006 0.822057,0.461817 20.0424,0 39.9631,-0.0696859 60.0055,-0.0696859 0.331894,-0.0188979 0.538589,-0.139372 0.668512,-0.324807z"/>
  <g id="_45979768">
   <path id="_45992232" class="fil62" d="M7.20009 61.7512c0.0460636,-0.334256 0.145277,-0.661425 0.312996,-0.972059 1.38899,-2.58665 4.1658,-12.0356 15.775,-14.0258 8.1438,-1.3949 10.33,8.46506 9.12885,14.9931 -5.73432,0.00236223 -13.2285,0.00472447 -25.2168,0.00472447z"/>
   <g>
    <path id="_45990888" class="fil63" d="M7.30403 61.7512c0.0318902,-0.349611 0.125198,-0.689772 0.298823,-1.01222 1.26498,-2.35515 4.07367,-11.3931 14.6423,-13.2049 7.70915,-1.32167 9.43476,8.35168 7.98199,14.2136l-22.9231 0.00354335z"/>
    <path id="_45989512" class="fil64" d="M7.41269 61.7512c0.0141734,-0.362603 0.0992138,-0.718119 0.278744,-1.05238 1.13978,-2.12247 3.98036,-10.7517 13.5108,-12.3852 7.29812,-1.2508 8.50522,8.32924 6.76662,13.4352l-20.5562 0.00236223z"/>
    <path id="_45988168" class="fil65" d="M7.52844 61.7512c-0.00590558,-0.376776 0.0661425,-0.747647 0.250397,-1.09135 1.01694,-1.89215 3.88942,-10.1104 12.3793,-11.5655 6.94142,-1.18938 7.51427,8.48632 5.43078,12.6545l-18.0605 0.00236223z"/>
    <path id="_45986352" class="fil66" d="M7.65718 61.7512c-0.0330713,-0.389769 0.020079,-0.777175 0.21142,-1.13151 0.891743,-1.65947 3.79611,-9.46665 11.2466,-10.7446 6.73237,-1.15395 6.38748,9.16783 3.81501,11.8749l-15.273 0.00118112z"/>
    <path id="_45984976" class="fil67" d="M7.80246 61.7512c-0.0673237,-0.400399 -0.040158,-0.805522 0.155907,-1.17049 0.766545,-1.42797 3.7028,-8.82649 10.1151,-9.92493 6.4111,-1.09962 5.01266,9.65209 2.16263,10.4765 -0.458273,0.132285 -0.925996,0.351973 -1.40907,0.617724l-11.0245 0.00118112z"/>
    <path id="_45983616" class="fil68" d="M7.96663 61.7512c-0.109844,-0.407485 -0.121655,-0.833869 0.0803159,-1.20946 0.643709,-1.19765 3.61067,-8.18396 8.98239,-9.10523 5.37172,-0.921271 3.79375,7.80246 1.40553,8.49223 -0.875208,0.25394 -1.8012,1.02757 -2.83822,1.82128l-7.63002 0.00118112z"/>
    <path id="_45978896" class="fil69" d="M8.1627 61.7512c-0.161813,-0.405123 -0.236223,-0.859853 -0.0271657,-1.24844 0.51851,-0.966154 3.51737,-7.54261 7.8497,-8.28554 4.33352,-0.742923 2.57365,5.95283 0.648433,6.50914 -1.02993,0.297641 -2.18034,1.85435 -3.56461,3.02484l-4.90636 0z"/>
    <path id="_45977536" class="fil70" d="M8.41191 61.7512c-0.213782,-0.368508 -0.408666,-0.87757 -0.187798,-1.2886 0.394493,-0.733474 3.42524,-6.90127 6.71819,-7.46584 3.29295,-0.563393 1.35356,4.10438 -0.111025,4.52722 -1.01812,0.294098 -2.26538,2.97996 -3.82918,4.22722l-2.59019 0z"/>
   </g>
   <path id="_45979808" class="fil71" d="M8.67767 61.6413c0,0 -0.635441,-0.714576 -0.366146,-1.21655 0.270476,-0.501975 3.33193,-6.25874 5.5855,-6.64496 2.25475,-0.386225 0.133466,2.25357 -0.868121,2.54294 -1.00159,0.289374 -2.5205,6.05204 -4.35123,5.31857z"/>
  </g>
  <g id="_45969224">
   <path id="_45973448" class="fil25" d="M9.75839 15.397l0 0.263389 0.59174 1.35356 0.59174 -1.35356 0 -0.263389c0,-0.0661425 0.0188979,-0.119293 0.0555125,-0.160632 0.0377957,-0.0413391 0.0874027,-0.0614181 0.146458,-0.0614181 0.060237,0 0.108663,0.020079 0.146458,0.0614181 0.0377957,0.040158 0.0555125,0.0933082 0.0555125,0.160632l0 0.298823c0,0.0212601 -0.00236223,0.040158 -0.0070867,0.0590558 -0.00472447,0.0188979 -0.0106301,0.0377957 -0.0212601,0.0590558l-0.635441 1.4575c-0.0295279,0.0673237 -0.060237,0.113387 -0.0921271,0.138191 -0.030709,0.0236223 -0.0696859,0.0354335 -0.115749,0.0354335l-0.248035 0c-0.0472447,0 -0.0862215,-0.0118112 -0.115749,-0.0342524 -0.0295279,-0.0236223 -0.060237,-0.0696859 -0.090946,-0.139372l-0.636622 -1.45514c-0.0118112,-0.0248035 -0.0177168,-0.0448824 -0.0224412,-0.0614181 -0.00354335,-0.0177168 -0.00590558,-0.0366146 -0.00590558,-0.0590558l0 -0.298823c0,-0.0685048 0.0188979,-0.122836 0.0555125,-0.161813 0.0366146,-0.040158 0.0850404,-0.060237 0.146458,-0.060237 0.0590558,0 0.108663,0.020079 0.146458,0.0614181 0.0366146,0.0413391 0.0555125,0.0944894 0.0555125,0.160632zm14.1061 -1.06773l1.36065 0c0.112206,0 0.206695,0.0389769 0.28583,0.116931 0.0791348,0.0779537 0.119293,0.173624 0.119293,0.287011l0 0.950799c0,0.112206 -0.040158,0.207877 -0.119293,0.28583 -0.0791348,0.0791348 -0.173624,0.118112 -0.28583,0.118112l-1.1823 0 0 0.954342 1.36183 0c0.0673237,0 0.121655,0.0177168 0.162994,0.0555125 0.0413391,0.0377957 0.0625992,0.0862215 0.0625992,0.145277 0,0.060237 -0.0212601,0.108663 -0.0637803,0.146458 -0.0425202,0.0377957 -0.0968516,0.0555125 -0.161813,0.0555125l-1.76577 0 0 -1.3571c0,-0.112206 0.0389769,-0.206695 0.116931,-0.28583 0.0791348,-0.0791348 0.173624,-0.118112 0.287011,-0.118112l1.1823 0 0 -0.950799 -1.36065 0c-0.0696859,0 -0.124017,-0.0188979 -0.165356,-0.0555125 -0.0413391,-0.0366146 -0.060237,-0.0850404 -0.060237,-0.146458 0,-0.060237 0.020079,-0.108663 0.0625992,-0.146458 0.0437013,-0.0366146 0.0968516,-0.0555125 0.162994,-0.0555125zm-2.79452 0.403942l0 2.30908 1.1823 0 0 -2.30908 -1.1823 0zm0.0413391 -0.403942l1.09608 0c0.144096,0 0.255121,0.0377957 0.333075,0.114568 0.0767726,0.0767726 0.115749,0.186616 0.115749,0.331894l0 2.22286c0,0.144096 -0.0389769,0.256302 -0.115749,0.331894 -0.0779537,0.0767726 -0.188979,0.114568 -0.333075,0.114568l-1.09608 0c-0.144096,0 -0.25394,-0.0377957 -0.330713,-0.114568 -0.0767726,-0.0755915 -0.115749,-0.187798 -0.115749,-0.331894l0 -2.22286c0,-0.145277 0.0389769,-0.255121 0.115749,-0.331894 0.0767726,-0.0767726 0.186616,-0.114568 0.330713,-0.114568zm-1.88152 2.32444l0.394493 0c0.0590558,0 0.108663,0.0212601 0.145277,0.0614181 0.0377957,0.0413391 0.0555125,0.0944894 0.0555125,0.159451l0 0.298823c0,0.0696859 -0.0177168,0.124017 -0.0543314,0.165356 -0.0377957,0.040158 -0.0862215,0.060237 -0.146458,0.060237l-0.394493 0c-0.0590558,0 -0.108663,-0.020079 -0.146458,-0.0625992 -0.0377957,-0.0437013 -0.0555125,-0.0968516 -0.0555125,-0.162994l0 -0.298823c0,-0.0685048 0.0177168,-0.122836 0.0555125,-0.161813 0.0366146,-0.0389769 0.0850404,-0.0590558 0.146458,-0.0590558zm-2.38113 -1.9205l0 2.30908 1.1823 0 0 -2.30908 -1.1823 0zm0.0413391 -0.403942l1.09608 0c0.144096,0 0.255121,0.0377957 0.333075,0.114568 0.0779537,0.0767726 0.115749,0.186616 0.115749,0.331894l0 2.22286c0,0.144096 -0.0377957,0.256302 -0.115749,0.331894 -0.0779537,0.0767726 -0.188979,0.114568 -0.333075,0.114568l-1.09608 0c-0.144096,0 -0.25394,-0.0377957 -0.330713,-0.114568 -0.0767726,-0.0755915 -0.115749,-0.187798 -0.115749,-0.331894l0 -2.22286c0,-0.145277 0.0389769,-0.255121 0.115749,-0.331894 0.0767726,-0.0767726 0.186616,-0.114568 0.330713,-0.114568zm-1.56498 2.32444l0.394493 0c0.0590558,0 0.108663,0.0212601 0.145277,0.0614181 0.0377957,0.0413391 0.0566936,0.0944894 0.0566936,0.159451l0 0.298823c0,0.0696859 -0.0188979,0.124017 -0.0555125,0.165356 -0.0366146,0.040158 -0.0850404,0.060237 -0.146458,0.060237l-0.394493 0c-0.0590558,0 -0.108663,-0.020079 -0.145277,-0.0625992 -0.0377957,-0.0437013 -0.0566936,-0.0968516 -0.0566936,-0.162994l0 -0.298823c0,-0.0685048 0.0188979,-0.122836 0.0555125,-0.161813 0.0377957,-0.0389769 0.0862215,-0.0590558 0.146458,-0.0590558zm-2.7709 -2.32444l1.36065 0c0.112206,0 0.206695,0.0389769 0.28583,0.116931 0.0791348,0.0779537 0.119293,0.173624 0.119293,0.287011l0 0.950799c0,0.112206 -0.040158,0.207877 -0.119293,0.28583 -0.0791348,0.0791348 -0.173624,0.118112 -0.28583,0.118112l-1.1823 0 0 0.954342 1.36183 0c0.0673237,0 0.121655,0.0177168 0.162994,0.0555125 0.0413391,0.0377957 0.0625992,0.0862215 0.0625992,0.145277 0,0.060237 -0.0212601,0.108663 -0.0637803,0.146458 -0.0425202,0.0377957 -0.0968516,0.0555125 -0.161813,0.0555125l-1.76577 0 0 -1.3571c0,-0.112206 0.0389769,-0.206695 0.116931,-0.28583 0.0779537,-0.0791348 0.173624,-0.118112 0.287011,-0.118112l1.1823 0 0 -0.950799 -1.36065 0c-0.0696859,0 -0.124017,-0.0188979 -0.165356,-0.0555125 -0.0413391,-0.0366146 -0.060237,-0.0850404 -0.060237,-0.146458 0,-0.060237 0.020079,-0.108663 0.0625992,-0.146458 0.0437013,-0.0366146 0.0968516,-0.0555125 0.162994,-0.0555125z"/>
   <path id="_45969264" class="fil30" d="M11.7379 14.2443l0.0118112 -0.0342524 0 -0.00118112c0.0472447,-0.116931 0.121655,-0.216144 0.214963,-0.300004 0.0838593,-0.0732292 0.177168,-0.129923 0.279925,-0.166537 0.101576,-0.0366146 0.204333,-0.0555125 0.309453,-0.0555125l1.36065 0c0.135828,0 0.269295,0.0271657 0.399218,0.0803159l0.00354335 0c0.119293,0.0496069 0.230318,0.124017 0.331894,0.223231 0.0779537,0.0744104 0.140553,0.159451 0.19016,0.25394l-3.10161 0zm4.1847 0c0.0472447,-0.0933082 0.107482,-0.175986 0.17953,-0.249216l0.00236223 -0.00472447c0.20079,-0.20079 0.46536,-0.303547 0.785443,-0.303547l1.09608 0c0.140553,0 0.2752,0.0224412 0.396855,0.0637803 0.14764,0.050788 0.276381,0.129923 0.386225,0.237404l0.00472447 0.00236223c0.0732292,0.0720481 0.134647,0.157089 0.183073,0.25394l-3.03429 0zm4.22013 0c0.0484258,-0.0968516 0.109844,-0.181892 0.183073,-0.25394 0.105119,-0.105119 0.233861,-0.186616 0.389769,-0.239767 0.120474,-0.0413391 0.255121,-0.0637803 0.395674,-0.0637803l1.09608 0c0.140553,0 0.2752,0.0224412 0.396855,0.0637803 0.152364,0.0519691 0.283468,0.132285 0.389769,0.239767 0.0413391,0.040158 0.0767726,0.0826782 0.109844,0.129923 0.0448824,-0.0803159 0.103938,-0.153545 0.17953,-0.218507l0.00118112 0c0.0779537,-0.0685048 0.167719,-0.121655 0.266932,-0.157089l0 0c0.102757,-0.0389769 0.206695,-0.0578747 0.311815,-0.0578747l1.36183 0c0.141734,0 0.277562,0.0283468 0.402761,0.0803159l0 0.00118112c0.122836,0.050788 0.233861,0.124017 0.333075,0.22205l0.00236223 0.00236223c0.0779537,0.0767726 0.140553,0.160632 0.188979,0.251578l-6.00952 0z"/>
  </g>
  <polygon class="fil72" points="53.6747,15.0474 48.2037,15.0474 48.2037,16.0301 53.6747,16.0301 "/>
  <g id="_45952688">
   <path id="_45966768" class="fil73" d="M55.7558 33.1232c0,0 2.21341,-1.69845 1.6075,-3.00712 -0.604732,-1.30868 -1.47049,-6.01779 -8.10719,-7.35127 -6.63551,-1.33348 -8.02569,8.9009 -5.12487,9.79146 2.90082,0.889381 5.80283,2.12365 11.6246,0.566936z"/>
   <g>
    <path id="_45965392" class="fil74" d="M55.8503 32.8303c0,0 2.01617,-1.54608 1.46577,-2.73665 -0.551582,-1.19293 -1.47049,-5.70125 -7.51072,-6.91544 -6.04259,-1.21301 -7.16229,8.03396 -4.5225,8.84538 2.64098,0.809065 5.26778,2.22404 10.5675,0.806703z"/>
    <path id="_45964016" class="fil75" d="M55.946 32.5386c0,0 1.81656,-1.3949 1.32049,-2.46972 -0.49725,-1.07364 -1.46695,-5.38235 -6.91426,-6.47725 -5.44731,-1.0949 -6.2989,7.16702 -3.91895,7.89695 2.38231,0.731111 4.73392,2.3268 9.51272,1.05001z"/>
    <path id="_45962640" class="fil76" d="M56.0416 32.2492c0,0 1.61813,-1.24253 1.17639,-2.19924 -0.4441,-0.956705 -1.46458,-5.06581 -6.31661,-6.04141 -4.85439,-0.975603 -5.43668,6.30008 -3.31658,6.95087 2.12129,0.650795 4.19887,2.42838 8.4568,1.28978z"/>
    <path id="_45961264" class="fil77" d="M56.1349 31.9575c0,0 1.42088,-1.09135 1.0323,-1.92995 -0.388587,-0.840955 -1.46104,-4.75045 -5.72015,-5.60558 -4.25911,-0.85631 -4.57328,5.43314 -2.71184,6.00362 1.86144,0.570479 3.66382,2.52995 7.3997,1.53191z"/>
    <path id="_45959888" class="fil78" d="M56.233 31.6657c0,0 1.22127,-0.938988 0.8882,-1.66183 -0.334256,-0.721662 -1.45868,-4.43155 -5.12369,-5.16857 -3.66619,-0.735836 -3.70989,4.5662 -2.10947,5.05754 1.60278,0.492526 3.12878,2.63271 6.34496,1.77286z"/>
    <path id="_45958376" class="fil79" d="M56.3263 31.374c0,0 1.02403,-0.786624 0.744104,-1.39254 -0.279925,-0.605913 -1.45514,-4.11501 -4.52604,-4.73274 -3.0709,-0.616543 -2.84767,3.69926 -1.50592,4.11147 1.34293,0.411029 2.59373,2.7331 5.28786,2.0138z"/>
    <path id="_45957016" class="fil80" d="M56.422 31.0835c0,0 0.825601,-0.633079 0.600007,-1.12088 -0.225593,-0.488982 -1.45277,-3.79965 -3.92958,-4.2969 -2.4768,-0.49725 -1.98428,2.83114 -0.902373,3.16421 1.0819,0.330713 2.05869,2.83586 4.23194,2.25357z"/>
    <path id="_45955040" class="fil81" d="M56.5176 30.7917c0,0 0.627173,-0.481896 0.45473,-0.852766 -0.171262,-0.372052 -1.44805,-3.48193 -3.33193,-3.85989 -1.8827,-0.379139 -1.12206,1.9642 -0.298823,2.21696 0.822057,0.252759 1.52364,2.93744 3.17602,2.4957z"/>
   </g>
   <path id="_45952728" class="fil82" d="M56.6121 30.5012c0,0 0.429927,-0.329532 0.311815,-0.583472 -0.116931,-0.25394 -1.44687,-3.16539 -2.73547,-3.42406 -1.2886,-0.258665 -0.258665,1.09844 0.303547,1.27088 0.563393,0.172443 0.989776,3.03901 2.1201,2.73665z"/>
  </g>
  <polygon class="fil50" points="57.7554,18.2754 57.805,20.079 56.9936,18.9947 56.9936,17.1994 "/>
  <g id="_45934328">
   <path id="_45949960" class="fil62" d="M57.6232 62.1114c0,0 3.72052,-0.993319 2.14255,-1.69136 -1.57915,-0.69804 -4.73392,-3.24925 -17.9223,-3.78666 -13.1884,-0.537408 -12.625,5.10242 -6.76308,5.50519 5.8607,0.402761 11.8348,0.993319 22.5428,-0.0271657z"/>
   <g>
    <path id="_45948552" class="fil63" d="M57.7141 61.9496c0,0 3.38744,-0.905917 1.95002,-1.54136 -1.43742,-0.636622 -4.62762,-3.07563 -16.6349,-3.56579 -12.0072,-0.488982 -11.2395,4.60399 -5.90204,4.97014 5.33629,0.367327 10.8379,1.06537 20.5869,0.13701z"/>
    <path id="_45947176" class="fil64" d="M57.805 61.7866c0,0 3.05437,-0.817333 1.7575,-1.39017 -1.29569,-0.572842 -4.52132,-2.902 -15.3486,-3.34374 -10.8261,-0.440557 -9.85288,4.1032 -5.03983,4.43391 4.81069,0.331894 9.83988,1.13623 18.6309,0.300004z"/>
    <path id="_45945800" class="fil65" d="M57.896 61.6236c0,0 2.72129,-0.727568 1.56616,-1.23781 -1.15395,-0.511424 -4.41738,-2.72956 -14.0624,-3.12287 -9.64618,-0.392131 -8.46743,3.60477 -4.17997,3.89887 4.28745,0.295279 8.8442,1.20828 16.6762,0.461817z"/>
    <path id="_45944392" class="fil66" d="M57.9881 61.4618c0,0 2.38704,-0.638984 1.37364,-1.08663 -1.01222,-0.448824 -4.31108,-2.55594 -12.775,-2.90082 -8.46625,-0.344886 -7.08198,3.10398 -3.31894,3.36382 3.76186,0.258665 7.84616,1.27797 14.7203,0.62363z"/>
    <path id="_45942880" class="fil67" d="M58.0779 61.3c0,0 2.05278,-0.5504 1.1823,-0.935445 -0.872845,-0.386225 -4.20714,-2.38231 -11.4911,-2.67995 -7.28395,-0.295279 -5.69535,2.60672 -2.4579,2.82877 3.23744,0.223231 6.85166,1.35002 12.7667,0.786624z"/>
    <path id="_45941504" class="fil68" d="M58.1688 61.1382c0,0 1.72089,-0.461817 0.990957,-0.784262 -0.731111,-0.323626 -4.10084,-2.20869 -10.2048,-2.4579 -6.10283,-0.248035 -4.30871,2.10711 -1.59687,2.29373 2.71303,0.185435 5.8548,1.4197 10.8108,0.948437z"/>
    <path id="_45940144" class="fil69" d="M58.2598 60.9752c0,0 1.38781,-0.372052 0.799616,-0.631898 -0.589377,-0.261027 -3.9969,-2.03625 -8.91861,-2.23704 -4.9229,-0.199609 -2.92326,1.6075 -0.735836,1.75868 2.18743,0.150002 4.85793,1.49175 8.85483,1.11025z"/>
    <path id="_45938168" class="fil70" d="M58.3507 60.8122c0,0 1.05474,-0.282287 0.607094,-0.480715 -0.447643,-0.198428 -3.88942,-1.86262 -7.63238,-2.01499 -3.74178,-0.152364 -1.53663,1.10789 0.12638,1.22246 1.66301,0.114568 3.86107,1.56262 6.8989,1.27324z"/>
   </g>
   <path id="_45934352" class="fil71" d="M58.4405 60.6527c0,0 0.722844,-0.192522 0.415753,-0.32835 -0.305909,-0.135828 -3.7843,-1.69018 -6.34496,-1.79412 -2.56066,-0.103938 -0.151183,0.608275 0.986233,0.686229 1.1386,0.0779537 2.86421,1.63467 4.94297,1.43624z"/>
  </g>
  <path class="fil83" d="M47.4785 13.7435l6.67095 0c0.197247,0 0.382682,0.0814971 0.514967,0.214963l0.00590558 0.00472447c0.132285,0.133466 0.213782,0.318902 0.213782,0.516148l0 2.11302c0,0.196065 -0.0814971,0.381501 -0.213782,0.516148l-0.00590558 0.00472447c-0.132285,0.133466 -0.31772,0.214963 -0.514967,0.214963l-6.67095 0c-0.194884,0 -0.381501,-0.0814971 -0.514967,-0.214963l-0.00472447 -0.00472447c-0.133466,-0.134647 -0.214963,-0.320083 -0.214963,-0.516148l0 -2.11302c0,-0.197247 0.0814971,-0.382682 0.214963,-0.516148l0.00472447 -0.00472447c0.133466,-0.133466 0.320083,-0.214963 0.514967,-0.214963zm6.6804 0.700402l-6.68866 0 0 2.2583 6.68866 0 0 -2.2583z"/>
  <path class="fil84" d="M56.9405 15.6793l3.34965 4.98786c0.220869,0.327169 0.373233,0.589377 0.500794,0.863396 0.121655,0.26457 0.225593,0.544495 0.348429,0.90946l2.76027 6.80678 0.0354335 0.181892 0.0330713 2.26774 -1.1197 0 0.0862215 -0.030709 0.00354335 -0.00118112 0.0330713 -0.0129923 -0.0318902 -2.11302 -2.72838 -6.72882 -0.00944894 -0.0271657c-0.114568,-0.340162 -0.209058,-0.598826 -0.31772,-0.833869 -0.107482,-0.230318 -0.235042,-0.451187 -0.420478,-0.724025l-0.00236223 -0.00236223 -2.51696 -3.59532 -0.00354335 -1.94766zm-56.9038 16.0171l-0.0165356 -1.59451 0.0543314 -0.230318 0.0826782 -0.173624c0.0342524,-0.0791348 0.0566936,-0.129923 0.119293,-0.22205l2.88547 -6.82922c0.174805,-0.506699 0.312996,-0.890562 0.47599,-1.23899l0.00118112 0c0.175986,-0.38032 0.382682,-0.739379 0.686229,-1.18938l0.00118112 0.00118112 2.70003 -4.01816 0.0212601 1.54136 -1.89333 3.03311 0 0.00236223c-0.276381,0.409848 -0.460636,0.726387 -0.609456,1.05001l0 0.00236223c-0.160632,0.346067 -0.288193,0.696859 -0.448824,1.16222l-0.0118112 0.0318902 -2.90791 6.88355 -0.0555125 0.0968516c-0.0283468,0.040158 -0.0377957,0.0590558 -0.0496069,0.0874027l-0.0531503 0.119293 0.0141734 1.43388c0.0838593,0.0236223 0.171262,0.040158 0.246853,0.050788l-1.24253 0z"/>
  <polygon class="fil85" points="63.8689,31.9492 -0.070867,31.9492 -0.070867,30.989 63.8689,30.989 "/>
 </g>
</svg>
