<?xml version="1.0" encoding="UTF-8"?>
<!DOCTYPE svg PUBLIC "-//W3C//DTD SVG 1.1//EN" "http://www.w3.org/Graphics/SVG/1.1/DTD/svg11.dtd">
<!-- Creator: CorelDRAW -->
<svg xmlns="http://www.w3.org/2000/svg" xml:space="preserve" width="72px" height="72px" style="shape-rendering:geometricPrecision; text-rendering:geometricPrecision; image-rendering:optimizeQuality; fill-rule:evenodd; clip-rule:evenodd"
viewBox="0 0 72 72"
 xmlns:xlink="http://www.w3.org/1999/xlink">
 <defs>
  <style type="text/css">
   <![CDATA[
    .fil50 {fill:none}
    .fil17 {fill:#6AA7D9}
    .fil14 {fill:#8FCDFF}
    .fil52 {fill:#C48231}
    .fil28 {fill:#CAED79}
    .fil24 {fill:#D4C2B2}
    .fil53 {fill:#EDA54E}
    .fil21 {fill:#F5ECE4}
    .fil72 {fill:#FFC57F}
    .fil74 {fill:#F3F3F3}
    .fil26 {fill:white;fill-rule:nonzero}
    .fil73 {fill:#804716;fill-rule:nonzero}
    .fil32 {fill:#86A158;fill-rule:nonzero}
    .fil30 {fill:#9BBA65;fill-rule:nonzero}
    .fil49 {fill:#9E6021;fill-rule:nonzero}
    .fil59 {fill:#C48231;fill-rule:nonzero}
    .fil22 {fill:#C4AE9A;fill-rule:nonzero}
    .fil18 {fill:#CFEDFF;fill-rule:nonzero}
    .fil27 {fill:#D0F280;fill-rule:nonzero}
    .fil57 {fill:#FFB75E;fill-rule:nonzero}
    .fil58 {fill:#FFD199;fill-rule:nonzero}
    .fil86 {fill:#F3F3F3;fill-rule:nonzero}
    .fil31 {fill:#F8FFC4;fill-rule:nonzero}
    .fil0 {fill:black;fill-opacity:0.000000}
    .fil33 {fill:#5C3106;fill-opacity:0.000000}
    .fil62 {fill:#BD7E31;fill-opacity:0.000000}
    .fil75 {fill:#C48231;fill-opacity:0.000000}
    .fil1 {fill:black;fill-opacity:0.003922}
    .fil63 {fill:#BD7E31;fill-opacity:0.007843}
    .fil76 {fill:#C48231;fill-opacity:0.007843}
    .fil2 {fill:black;fill-opacity:0.007843}
    .fil34 {fill:#5C3106;fill-opacity:0.011765}
    .fil3 {fill:black;fill-opacity:0.015686}
    .fil64 {fill:#BD7E31;fill-opacity:0.019608}
    .fil77 {fill:#C48231;fill-opacity:0.019608}
    .fil4 {fill:black;fill-opacity:0.019608}
    .fil5 {fill:black;fill-opacity:0.023529}
    .fil35 {fill:#5C3106;fill-opacity:0.027451}
    .fil65 {fill:#BD7E31;fill-opacity:0.027451}
    .fil78 {fill:#C48231;fill-opacity:0.027451}
    .fil6 {fill:black;fill-opacity:0.027451}
    .fil7 {fill:black;fill-opacity:0.031373}
    .fil66 {fill:#BD7E31;fill-opacity:0.035294}
    .fil79 {fill:#C48231;fill-opacity:0.035294}
    .fil8 {fill:black;fill-opacity:0.035294}
    .fil36 {fill:#5C3106;fill-opacity:0.039216}
    .fil9 {fill:black;fill-opacity:0.043137}
    .fil67 {fill:#BD7E31;fill-opacity:0.043137}
    .fil80 {fill:#C48231;fill-opacity:0.043137}
    .fil10 {fill:black;fill-opacity:0.047059}
    .fil11 {fill:black;fill-opacity:0.050980}
    .fil37 {fill:#5C3106;fill-opacity:0.054902}
    .fil68 {fill:#BD7E31;fill-opacity:0.054902}
    .fil81 {fill:#C48231;fill-opacity:0.054902}
    .fil12 {fill:black;fill-opacity:0.054902}
    .fil13 {fill:black;fill-opacity:0.058824}
    .fil69 {fill:#BD7E31;fill-opacity:0.062745}
    .fil82 {fill:#C48231;fill-opacity:0.062745}
    .fil38 {fill:#5C3106;fill-opacity:0.066667}
    .fil70 {fill:#BD7E31;fill-opacity:0.070588}
    .fil83 {fill:#C48231;fill-opacity:0.070588}
    .fil39 {fill:#5C3106;fill-opacity:0.078431}
    .fil71 {fill:#BD7E31;fill-opacity:0.078431}
    .fil84 {fill:#C48231;fill-opacity:0.078431}
    .fil40 {fill:#5C3106;fill-opacity:0.094118}
    .fil41 {fill:#5C3106;fill-opacity:0.105882}
    .fil42 {fill:#5C3106;fill-opacity:0.121569}
    .fil25 {fill:#789440;fill-opacity:0.219608}
    .fil48 {fill:#F8EBB3;fill-opacity:0.219608}
    .fil16 {fill:#548ABA;fill-opacity:0.439216}
    .fil56 {fill:#693E19;fill-opacity:0.439216}
    .fil23 {fill:#9BBA65;fill-opacity:0.439216}
    .fil54 {fill:#FFB75E;fill-rule:nonzero;fill-opacity:0.439216}
    .fil47 {fill:#F8EBB3;fill-opacity:0.501961}
    .fil61 {fill:#FFD199;fill-opacity:0.501961}
    .fil45 {fill:#9F6223;fill-rule:nonzero;fill-opacity:0.501961}
    .fil46 {fill:#FFB75E;fill-rule:nonzero;fill-opacity:0.780392}
    .fil51 {fill:url(#id0)}
    .fil29 {fill:url(#id1)}
    .fil55 {fill:url(#id2)}
    .fil20 {fill:url(#id3)}
    .fil60 {fill:url(#id4)}
    .fil43 {fill:url(#id5)}
    .fil85 {fill:url(#id6);fill-rule:nonzero}
    .fil15 {fill:url(#id7);fill-rule:nonzero}
    .fil44 {fill:url(#id8);fill-opacity:0.321569}
    .fil19 {fill:url(#id9);fill-rule:nonzero;fill-opacity:0.501961}
   ]]>
  </style>
  <linearGradient id="id0" gradientUnits="userSpaceOnUse" x1="35.9894" y1="35.8618" x2="35.9894" y2="27.711">
   <stop offset="0" style="stop-color:#9D6123"/>
   <stop offset="0.568627" style="stop-color:#B3732A"/>
   <stop offset="1" style="stop-color:#C48231"/>
  </linearGradient>
  <linearGradient id="id1" gradientUnits="userSpaceOnUse" x1="34.2969" y1="13.0701" x2="37.4138" y2="51.0827">
   <stop offset="0" style="stop-color:#C0E36F"/>
   <stop offset="0.419608" style="stop-color:#ACD156"/>
   <stop offset="1" style="stop-color:#9EC444"/>
  </linearGradient>
  <linearGradient id="id2" gradientUnits="userSpaceOnUse" x1="35.6126" y1="41.2311" x2="36.8787" y2="64.5933">
   <stop offset="0" style="stop-color:#8C551E"/>
   <stop offset="1" style="stop-color:#804716"/>
  </linearGradient>
  <linearGradient id="id3" gradientUnits="userSpaceOnUse" xlink:href="#id0" x1="36.7299" y1="17.9705" x2="35.2524" y2="33.9307">
  </linearGradient>
  <linearGradient id="id4" gradientUnits="userSpaceOnUse" x1="35.9965" y1="25.3193" x2="35.9965" y2="32.498">
   <stop offset="0" style="stop-color:#FFB861"/>
   <stop offset="1" style="stop-color:#FAB764"/>
  </linearGradient>
  <linearGradient id="id5" gradientUnits="userSpaceOnUse" x1="36.0047" y1="32.1201" x2="36.0047" y2="62.1437">
   <stop offset="0" style="stop-color:#E69D45"/>
   <stop offset="1" style="stop-color:#D49242"/>
  </linearGradient>
  <linearGradient id="id6" gradientUnits="userSpaceOnUse" x1="35.7839" y1="18.4571" x2="36.2421" y2="35.5902">
   <stop offset="0" style="stop-color:#C48231"/>
   <stop offset="1" style="stop-color:#985C21"/>
  </linearGradient>
  <linearGradient id="id7" gradientUnits="userSpaceOnUse" x1="35.6291" y1="31.7079" x2="35.6291" y2="9.40866">
   <stop offset="0" style="stop-color:#4E87B4"/>
   <stop offset="1" style="stop-color:#66A1D1"/>
  </linearGradient>
  <linearGradient id="id8" gradientUnits="userSpaceOnUse" x1="32.1555" y1="70.1575" x2="31.9217" y2="43.6654">
   <stop offset="0" style="stop-color:#FFC57F"/>
   <stop offset="1" style="stop-color:#FFC57F"/>
  </linearGradient>
  <linearGradient id="id9" gradientUnits="userSpaceOnUse" x1="24.9579" y1="14.7744" x2="22.8319" y2="71.0563">
   <stop offset="0" style="stop-color:#F8FFC4"/>
   <stop offset="1" style="stop-color:#ADD158"/>
  </linearGradient>
 </defs>
 <g id="Слой_x0020_1">
  <metadata id="CorelCorpID_0Corel-Layer"/>
  <g id="_88484392">
   <path id="_90511320" class="fil0" d="M34.4563 60.8835c34.0713,-1.41378 38.6669,4.04173 38.8157,8.46969 0.147638,4.42795 -17.6764,1.90984 -37.5413,2.67402 -19.865,0.764173 -36.6154,1.40787 -36.6154,-1.87441 0,-3.28228 1.2685,-7.85433 35.3409,-9.26929z"/>
   <g>
    <path id="_46528272" class="fil1" d="M34.5343 61.428c32.6268,-1.30394 38.2665,3.85866 38.4035,8.02559 0.137008,4.09961 -17.576,1.7811 -37.174,2.4874 -19.5992,0.705118 -36.3224,1.29331 -36.3224,-1.74921 0,-3.10866 2.46732,-7.45748 35.0929,-8.76378z"/>
    <path id="_87167864" class="fil2" d="M34.6122 61.9724c31.1823,-1.19646 37.8661,3.67441 37.9913,7.57913 0.126378,3.77244 -17.4791,1.65472 -36.8102,2.30079 -19.3311,0.647244 -36.0283,1.17874 -36.0283,-1.62283 0,-2.93504 3.66496,-7.05945 34.8472,-8.25709z"/>
    <path id="_46066120" class="fil3" d="M34.689 62.5169c29.7366,-1.08661 37.4657,3.49134 37.5803,7.13504 0.113386,3.44409 -17.3811,1.52598 -36.4453,2.11417 -19.0654,0.588189 -35.7343,1.06417 -35.7343,-1.49646 0,-2.7626 4.86142,-6.66378 34.5992,-7.75276z"/>
    <path id="_45235160" class="fil4" d="M34.7657 63.0614c28.2933,-0.979134 37.0665,3.30709 37.1693,6.68858 0.102756,3.11811 -17.2843,1.39961 -36.0815,1.92756 -18.7972,0.529134 -35.4402,0.949606 -35.4402,-1.37008 0,-2.58898 6.05906,-6.26693 34.3524,-7.24606z"/>
    <path id="_90654512" class="fil5" d="M34.8425 63.6071c26.8476,-0.869291 36.6661,3.12402 36.7571,6.24449 0.0909449,2.78976 -17.1839,1.27087 -35.7154,1.74094 -18.5315,0.470079 -35.1461,0.835039 -35.1461,-1.24488 0,-2.41535 7.25669,-5.8689 34.1043,-6.74055z"/>
    <path id="_86504200" class="fil6" d="M34.9205 64.1539c25.402,-0.761811 36.2646,2.93976 36.3449,5.79921 0.080315,2.46142 -17.0858,1.14213 -35.3516,1.55433 -18.2634,0.411024 -34.852,0.720472 -34.852,-1.11969 0,-2.24173 8.45433,-5.47205 33.8587,-6.23386z"/>
    <path id="_89344736" class="fil7" d="M34.9961 64.6961c23.9598,-0.651969 35.8654,2.75551 35.9339,5.35394 0.0685039,2.13425 -16.9878,1.01575 -34.9843,1.36772 -17.9988,0.35315 -34.5591,0.605906 -34.5591,-0.992126 0,-2.07047 9.65079,-5.07638 33.6094,-5.72953z"/>
    <path id="_88009848" class="fil8" d="M35.074 65.2429c22.513,-0.544488 35.465,2.57126 35.5217,4.90866 0.057874,1.80591 -16.8898,0.887008 -34.6205,1.1811 -17.7307,0.294094 -34.265,0.491339 -34.265,-0.866929 0,-1.89685 10.8484,-4.67953 33.3638,-5.22283z"/>
    <path id="_87295176" class="fil9" d="M35.1508 65.7886c21.0685,-0.434646 35.0646,2.38819 35.1106,4.46457 0.0448819,1.47756 -16.7917,0.758268 -34.2555,0.994488 -17.465,0.235039 -33.972,0.376772 -33.972,-0.741732 0,-1.72323 12.0472,-4.2815 33.1169,-4.71732z"/>
    <path id="_87602704" class="fil10" d="M35.2276 66.3331c19.624,-0.327165 34.6654,2.20394 34.6996,4.01811 0.034252,1.15157 -16.6937,0.63189 -33.8929,0.807874 -17.1957,0.175984 -33.6768,0.262205 -33.6768,-0.615354 0,-1.54961 13.2437,-3.88465 32.8701,-4.21063z"/>
    <path id="_86890264" class="fil11" d="M35.3043 66.8776c18.1795,-0.217323 34.265,2.02087 34.2874,3.57402 0.0224409,0.823228 -16.5945,0.50315 -33.5268,0.62126 -16.9299,0.116929 -33.3827,0.147638 -33.3827,-0.488976 0,-1.37717 14.4413,-3.48898 32.622,-3.7063z"/>
    <path id="_86864128" class="fil12" d="M35.3823 67.422c16.735,-0.109843 33.8634,1.83661 33.8752,3.12756 0.011811,0.496063 -16.4976,0.376772 -33.163,0.434646 -16.6618,0.0590551 -33.0874,0.0330709 -33.0874,-0.362598 0,-1.20354 15.6378,-3.09094 32.3752,-3.19961z"/>
   </g>
   <path id="_88374176" class="fil13" d="M35.4555 67.9689c15.2917,0 33.4665,1.65354 33.4665,2.68346 0,0.336614 -65.5937,0.322441 -65.5937,0.0106299 0,-1.02992 16.8354,-2.69409 32.1272,-2.69409z"/>
  </g>
  <path class="fil14" d="M59.5713 17.2748l0.0826772 0.61063 -48.1441 -0.116929 0 -13.5071c0,-0.816142 0.270472,-1.56496 0.71811,-2.14606 0.572835,-0.829134 1.44213,-1.36063 2.40945,-1.36063l41.9232 0.115748c1.71732,0.00354331 3.23976,1.68189 3.22087,3.71575l-0.124016 12.6886 -0.0862205 0z"/>
  <path class="fil15" d="M10.9287 17.9268l-0.00472441 0 0 -0.500787 0 -3.63543 0 -0.0153543 0 -0.0153543 0 -0.0153543 0 -8.49331 0 -0.0377953 0 -1.29449c0,-0.45 0.0755906,-0.888189 0.212598,-1.29921 0.140551,-0.419291 0.348425,-0.806693 0.604724,-1.14213 0.33189,-0.478346 0.757087,-0.871654 1.23661,-1.14331l0.0011811 0c0.478346,-0.270472 1.01339,-0.422835 1.57323,-0.422835l0 0.0023622 41.9232 0.115748 0 -0.0023622 0.0177165 0 0.00354331 0.0023622c1.00039,0.00944882 1.93701,0.494882 2.61378,1.26378 0.66378,0.753543 1.08661,1.79055 1.08425,2.92441l0.0023622 0 0 0.0259843 -0.0023622 0.00354331 -0.0248031 2.56417c0.00826772,1.08898 0.0413386,2.20157 0.0732283,3.30354 0.034252,1.27205 0.0720472,2.53819 0.0732283,3.7937l0.0188976 26.5406 0 0.494882 -0.496063 0.00354331 -48.3921 0.256299 -0.499606 0.0023622 -0.0011811 -0.500787 -0.0177165 -22.7787zm0.99685 -4.13622l0 3.13465 0 0.500787 0.0177165 22.7787 47.3953 -0.251575 -0.0188976 -26.0445c0,-1.22598 -0.0389764,-2.49331 -0.0732283,-3.76535 -0.0307087,-1.09961 -0.0637795,-2.21102 -0.0732283,-3.33189l0 -0.00708661 0.0248031 -2.56063 -0.0023622 0 0 -0.0259843 0.0023622 0c0.0011811,-0.877559 -0.324803,-1.68071 -0.838583,-2.26299 -0.496063,-0.563386 -1.16693,-0.92126 -1.86614,-0.928346l0 0.0023622 -0.0177165 0 0 -0.0023622 -41.9232 -0.115748 0 0.0023622c-0.388583,0 -0.757087,0.103937 -1.08307,0.288189 -0.351969,0.198425 -0.667323,0.493701 -0.916535,0.855118l-0.0153543 0.0212598c-0.193701,0.252756 -0.350787,0.543307 -0.455906,0.858661 -0.100394,0.301181 -0.155906,0.633071 -0.155906,0.982677l0 1.29449 0 0.0377953 0 8.49331 0 0.0153543 0 0.0153543 0 0.0153543z"/>
  <path class="fil16" d="M11.5677 5.21575l-0.0011811 -0.0200787 0 -0.876378c0,-0.814961 0.271654,-1.56496 0.71811,-2.14606 0.455906,-0.657874 1.09606,-1.12913 1.8248,-1.29449l0.25748 3.48189 0.458268 0.108661c-0.45,1.00394 -2.80276,1.60512 -3.18661,0.865748 -0.383858,-0.73937 -0.0448819,-0.0791339 -0.0708661,-0.119291z"/>
  <path class="fil16" d="M57.5752 1.08307l-0.269291 3.20669 -0.457087 0.109843c0.372047,0.829134 1.79409,1.86142 2.69882,1.38189l0.0129921 -1.2815c0.0141732,-1.52244 -0.837402,-2.84764 -1.98543,-3.41693z"/>
  <path class="fil17" d="M11.0634 13.9972l0.276378 -8.29016c0,-0.814961 0.270472,-1.56378 0.71811,-2.14606 0.572835,-0.829134 1.15748,-1.35945 2.12598,-1.35945l41.9232 0.116929c1.71614,0.00354331 3.21732,1.63228 3.19606,3.65433 -0.0295276,2.80984 0.142913,5.65276 0.145276,8.39173l0.0188976 26.5406 -48.3921 0.256299 -0.0188976 -26.9138c0,-0.0850394 0.0023622,-0.167717 0.00708661,-0.250394z"/>
  <path class="fil18" d="M11.3575 5.12717c0.304724,-1.68661 1.01102,-3.42638 2.8252,-3.42638l0 0.0023622 41.9244 0.116929 0 -0.0023622 0.0224409 0 0.00354331 0.0023622c1.80236,0.0165354 2.92323,1.40551 3.28465,3.07913l-0.0637795 0.0283465c-0.324803,-1.1315 -1.97244,-2.09882 -3.22441,-2.11063l0 0.0023622 -0.0224409 0 0 -0.0023622 -41.9244 -0.116929 0 0.0023622c-1.14921,0 -2.12362,0.977953 -2.47087,2.02441 -0.0283465,0.0838583 -0.0531496,0.170079 -0.0744094,0.25748l-0.279921 0.142913z"/>
  <path class="fil19" d="M59.7272 21.8539l0.0153543 19.1657 -0.496063 0 -0.0153543 -19.1657 0 -5.7874 0.0011811 0 0.0023622 -10.0465c0.172441,0.0944882 0.337795,0.174803 0.493701,0.237402l-0.00354331 9.80906 0.0023622 0 0 5.7874zm-48.0224 19.422l-0.0165354 -19.5378 0 -2.79331 -0.0011811 0 0 -0.295276 0 -12.9106c0,-0.180709 0.011811,-0.357874 0.0354331,-0.532677 0.16063,-0.0283465 0.333071,-0.0543307 0.517323,-0.0767717 -0.0377953,0.196063 -0.0566929,0.400394 -0.0566929,0.609449l0 12.6154 0.0011811 0 0 0.295276 0 3.08858 0.0165354 19.5378 -0.496063 0z"/>
  <path class="fil20" d="M8.89606 17.4614l54.7535 0.175984c0.807874,0.0023622 1.03228,0.662598 1.46929,1.22953l2.87126 4.88976 -0.566929 9.45591c-0.0401575,0.674409 -0.662598,1.22835 -1.46929,1.22835l-60.0945 0c-0.806693,0 -1.44213,-0.552756 -1.46929,-1.22835l-0.398031 -9.54449 3.43465 -4.97717c0.403937,-0.585827 0.660236,-1.23071 1.46929,-1.22953z"/>
  <path class="fil21" d="M61.2472 21.7654l0.0885827 0.61063 -51.5598 -0.373228 0 -13.5071c0,-0.814961 0.287008,-1.56496 0.764173,-2.14606 0.609449,-0.829134 1.53425,-1.36063 2.56299,-1.36063l44.9409 0.0307087c1.82717,0 3.44882,1.68189 3.42756,3.71457l-0.132283 13.0311 -0.092126 0z"/>
  <path class="fil22" d="M61.5142 22.6937l0.00590551 0.0389764 0.0826772 0.574016 -0.579921 -0.00472441 -51.5598 -0.373228 -0.498425 -0.00354331 0 -0.494882 0 -13.5071c0,-0.455906 0.0814961,-0.9 0.225591,-1.30748 0.145276,-0.413386 0.364961,-0.798425 0.636614,-1.13386 0.354331,-0.483071 0.806693,-0.879921 1.31693,-1.15157l0.0023622 0c0.500787,-0.264567 1.06063,-0.414567 1.64646,-0.414567l0 0.0023622 45.1961 0.0307087 0 -0.0023622 0.0295276 0 0.00354331 0.0023622c1.04409,0.0106299 2.02323,0.488976 2.73661,1.24961l0 0.0023622c0.705118,0.753543 1.15748,1.79173 1.1563,2.92441l0.0023622 0 0 0.0366142 -0.0023622 0.00354331 -0.387402 13.0311 -0.00590551 0.497244 -0.00708661 0zm-1.06654 -0.393307l-0.00590551 -0.0366142 -0.0838583 -0.571654 0.177165 0 0.382677 -12.5303 -0.0023622 0 0 -0.0366142 0.0023622 0c0,-0.86811 -0.347244,-1.66535 -0.885827,-2.24291l-0.0011811 0.0011811c-0.533858,-0.569291 -1.25669,-0.929528 -2.0126,-0.937795l0 0.0023622 -0.0295276 0 0 -0.0023622 -45.1961 -0.0307087 0 0.0023622c-0.420472,0 -0.822047,0.10748 -1.17874,0.295276l0 0.0011811c-0.380315,0.201969 -0.716929,0.498425 -0.981496,0.858661l-0.0177165 0.0212598c-0.204331,0.248031 -0.370866,0.540945 -0.48189,0.855118 -0.106299,0.301181 -0.166535,0.63189 -0.166535,0.974409l0 13.0122 50.4815 0.364961z"/>
  <path class="fil23" d="M9.77598 9.39213l0 -0.0200787 0 -0.876378c0,-0.814961 0.287008,-1.56496 0.764173,-2.14606 0.484252,-0.657874 1.16575,-1.12913 1.94055,-1.29449l0.275197 3.48189 0.487795 0.108661c-0.478346,1.00394 -2.98228,1.60512 -3.39213,0.865748 -0.409843,-0.73937 -0.0484252,-0.0791339 -0.0755906,-0.119291z"/>
  <path class="fil23" d="M59.1319 6.00236l-0.287008 3.20669 -0.485433 0.109843c0.394488,0.829134 1.90866,1.8626 2.87244,1.38307l0.0129921 -1.28268c0.0153543,-1.52126 -0.890551,-2.84764 -2.11299,-3.41693z"/>
  <path class="fil24" d="M10.0665 19.428l-0.11811 -8.28898c0,-0.814961 0.287008,-1.5626 0.762992,-2.14606 0.61063,-0.829134 1.25079,-1.30394 2.28071,-1.30394l45.052 -0.196063c1.82717,-0.00826772 3.42283,1.63465 3.40276,3.65433 -0.0295276,2.80866 0.152362,5.54055 0.154724,8.27835l0.0200787 26.1425 -51.8256 0 0.263386 -25.8898c0.0011811,-0.0838583 0.0023622,-0.167717 0.00708661,-0.250394z"/>
  <path class="fil25" d="M10.0665 19.428l-0.11811 -8.28898c0,-0.597638 0.153543,-1.15748 0.424016,-1.64409 0.164173,-0.0224409 0.330709,-0.034252 0.500787,-0.034252l49.4563 0.092126c0.27874,0 0.552756,0.0318898 0.818504,0.0909449 0.196063,0.459449 0.304724,0.968504 0.298819,1.50354 -0.0295276,2.80866 0.152362,5.54055 0.154724,8.27835l0.00472441 6.85984 -51.613 -0.0838583 0.0661417 -6.52323c0.0011811,-0.0838583 0.0023622,-0.167717 0.00708661,-0.250394z"/>
  <path class="fil26" d="M12.5008 6.83268c0.178346,-0.0283465 0.361417,-0.0437008 0.545669,-0.0437008l0 0.0023622 44.9409 0.0307087 0 -0.0023622 0.0318898 0 0.00354331 0.0023622c0.302362,0.00354331 0.6,0.0448819 0.887008,0.121654l0 1.04409c-0.283465,-0.106299 -0.583465,-0.165354 -0.890551,-0.168898l0 0.0023622 -0.0318898 0 0 -0.0023622 -44.9409 -0.0307087 0 0.0023622c-0.175984,0 -0.348425,0.0188976 -0.514961,0.0543307l-0.0307087 -1.0122zm49.3453 7.89094c0.0625984,0.340157 0.10748,0.692126 0.11811,1.06535l0.0153543 0.558661 -0.99685 0 -0.0153543 -0.530315 -0.0307087 -1.0937 0.909449 0z"/>
  <path class="fil27" d="M61.8461 14.7236l-0.909449 0c-0.034252,-1.27205 -0.0602362,-2.54291 -0.046063,-3.74764l-0.0023622 0 0 -0.0401575 0.0023622 0c0,-0.859843 -0.338976,-1.64055 -0.871654,-2.20276l0 -0.0011811c-0.312992,-0.330709 -0.693307,-0.588189 -1.10906,-0.744094l0 -1.04409c0.695669,0.185433 1.32992,0.572835 1.83071,1.10197l0.0011811 0c0.700394,0.73937 0.49252,2.18858 0.491339,3.31654l0.0023622 0 0 0.0401575 -0.0023622 0.00354331c-0.0129921,1.17638 0.401575,2.17677 0.612992,3.31772z"/>
  <path class="fil27" d="M11.3976 7.20354l0.0023622 0c0.34252,-0.180709 0.713386,-0.308268 1.10079,-0.370866l0.0307087 1.0122c-0.233858,0.0496063 -0.455906,0.131102 -0.66378,0.240945l0 0.0011811c-0.702756,-0.0377953 -2.32441,3.29882 -2.18976,3.92953 -0.113386,0.317717 0.191339,0.18189 0.191339,0.545669 0.164173,-1.7752 -0.400394,-4.33465 1.52835,-5.35866z"/>
  <path class="fil28" d="M64.3098 27.8988l0.0992126 0.611811 -56.8594 -0.092126 0 -13.2307c0,-0.814961 0.322441,-1.56378 0.855118,-2.14606 0.681496,-0.829134 1.71614,-1.35945 2.86654,-1.35945l49.4563 0.092126c2.04331,0.0023622 3.8563,1.68189 3.83386,3.71339l-0.148819 12.411 -0.102756 0z"/>
  <path class="fil23" d="M62.1118 12.0425l-0.320079 3.20787 -0.544488 0.108661c0.442913,0.830315 2.13543,1.8626 3.2126,1.38307l0.0153543 -1.2815c0.0177165,-1.52244 -0.995669,-2.84764 -2.36339,-3.41811z"/>
  <path class="fil23" d="M7.54961 16.0854l0 -0.0200787 0 -0.877559c0,-0.814961 0.322441,-1.56378 0.855118,-2.14606 0.540945,-0.657874 1.30276,-1.12795 2.17087,-1.29331l0.308268 3.48189 0.544488 0.108661c-0.53622,1.00394 -3.33661,1.60394 -3.7937,0.865748 -0.458268,-0.73937 -0.0543307,-0.0791339 -0.0850394,-0.119291z"/>
  <path class="fil29" d="M7.55906 24.9319l-0.00944882 -8.28898c0,-0.816142 0.322441,-1.56496 0.856299,-2.14606 0.681496,-0.829134 1.71496,-1.36063 2.86654,-1.36063l48.887 0.092126c2.04331,0.0023622 3.82795,1.63228 3.80433,3.65433 -0.034252,2.80866 0.17126,5.65394 0.173622,8.39173l0.023622 25.4598 -56.5878 0.281102 -0.023622 -25.8331c0,-0.0838583 0.00354331,-0.167717 0.00944882,-0.250394z"/>
  <path class="fil30" d="M53.6421 14.1673l7.64173 0c0.225591,0 0.438189,0.0933071 0.590551,0.245669l0.00590551 0.00590551c0.152362,0.152362 0.245669,0.364961 0.245669,0.590551l0 2.42126c0,0.224409 -0.0933071,0.437008 -0.245669,0.590551l-0.00590551 0.00590551c-0.152362,0.152362 -0.364961,0.245669 -0.590551,0.245669l-7.64173 0c-0.224409,0 -0.437008,-0.0933071 -0.590551,-0.245669l-0.00590551 -0.00590551c-0.152362,-0.153543 -0.245669,-0.366142 -0.245669,-0.590551l0 -2.42126c0,-0.225591 0.0933071,-0.438189 0.245669,-0.590551l0.00590551 -0.00590551c0.153543,-0.152362 0.366142,-0.245669 0.590551,-0.245669zm7.65236 0.801969l-7.66299 0 0 2.58661 7.66299 0 0 -2.58661z"/>
  <path class="fil31" d="M10.7268 13.1256c0.173622,-0.0389764 0.354331,-0.0720472 0.545669,-0.0992126l0 0.0023622 49.4551 0.092126 0 -0.0023622 0.0425197 0 0.00590551 0.0023622c0.509055,0.057874 0.94252,0.162992 1.31457,0.305906l0 0.915354c-0.367323,-0.138189 -0.80315,-0.217323 -1.32047,-0.224409l0 0.0023622 -0.0425197 0 0 -0.0023622 -49.4551 -0.092126 0 0.0023622c-0.191339,0 -0.373228,0.00944882 -0.545669,0.0295276l0 -0.93189z"/>
  <path class="fil27" d="M7.67953 19.9004c-0.0318898,-2.50276 -0.677953,-5.93504 3.04724,-6.7748l0 0.93189c-3,0.33189 -3.27402,3.44528 -3.27165,5.7l0.224409 0.142913z"/>
  <path class="fil27" d="M62.0906 13.4268c2.75315,1.05709 2.02559,4.23898 2.15197,6.48661l-0.146457 0.227953c-0.0484252,-2.03622 0.198425,-4.97126 -2.00551,-5.79921l0 -0.915354z"/>
  <path class="fil32" d="M64.8402 28.1161l0.00472441 0.0295276 0.0933071 0.579921 -0.585827 -0.0011811 -56.8594 -0.092126 -0.500787 0 0 -0.498425 0 -13.2307c0,-0.459449 0.092126,-0.907087 0.25748,-1.32402 0.168898,-0.421654 0.415748,-0.811417 0.721654,-1.14803 0.392126,-0.473622 0.887008,-0.863386 1.44921,-1.12913 0.54685,-0.258661 1.15748,-0.405118 1.79409,-0.405118l0 0.0023622 49.4563 0.0909449 0 -0.0023622 0.034252 0 0.00354331 0.0023622c1.13976,0.0129921 2.21457,0.485433 2.99882,1.23543 0.79252,0.757087 1.29685,1.80236 1.29449,2.94685l0.0023622 0 0 0.0318898 -0.0023622 0.00354331 -0.147638 12.411 -0.00590551 0.497244 -0.00826772 0zm-1.0748 -0.389764l-0.00472441 -0.0307087 -0.0944882 -0.581102 0.197244 0 0.141732 -11.9102 -0.0023622 0 0 -0.0318898 0.0023622 0c0.0011811,-0.858661 -0.382677,-1.64882 -0.985039,-2.22402 -0.608268,-0.582283 -1.43976,-0.950787 -2.31496,-0.961417l0 0.0023622 -0.034252 0 0 -0.0023622 -49.4563 -0.0909449 0 0.0023622c-0.490157,0 -0.956693,0.111024 -1.3689,0.305906 -0.431102,0.204331 -0.812598,0.505512 -1.1126,0.870472l-0.0177165 0.0200787c-0.230315,0.251575 -0.415748,0.540945 -0.539764,0.852756 -0.115748,0.294094 -0.18189,0.617717 -0.18189,0.955512l0 12.7335 55.7717 0.0897638z"/>
  <g id="_86062752">
   <path id="_87504448" class="fil33" d="M5.62559 18.1724l59.3528 -0.429921c0.011811,2.49213 0.180709,4.99606 0.183071,7.4185l0.00354331 3.98622 -59.537 -0.191339 -0.00354331 -4.16811c0,-0.0838583 0.0023622,-0.167717 0.00826772,-0.250394l-0.00708661 -6.36496z"/>
   <g>
    <path id="_86064312" class="fil34" d="M5.62677 18.9425l59.361 -0.429921c0.0366142,2.23701 0.17126,4.4752 0.173622,6.64843l0.00472441 4.75512 -59.5382 -0.19252 -0.00354331 -4.93583c0,-0.0838583 0.0023622,-0.167717 0.00826772,-0.250394l-0.00590551 -5.59488z"/>
    <path id="_87748704" class="fil35" d="M5.62795 19.7126l59.3752 -0.429921c0.0496063,1.97953 0.155906,3.95551 0.158268,5.87835l0.00472441 5.52402 -59.537 -0.191339 -0.00472441 -5.70591c0,-0.0838583 0.0023622,-0.167717 0.00826772,-0.250394l-0.00472441 -4.8248z"/>
    <path id="_90653264" class="fil36" d="M5.62795 20.4839l59.3965 -0.431102c0.0543307,1.72087 0.135827,3.43465 0.137008,5.10827l0.00590551 6.29173 -59.5382 -0.191339 -0.00472441 -6.47362c0,-0.0838583 0.0023622,-0.167717 0.00826772,-0.250394l-0.00472441 -4.05354z"/>
    <path id="_90653472" class="fil37" d="M5.62913 21.2539l59.4213 -0.431102c0.0507874,1.4622 0.109843,2.91378 0.111024,4.33819l0.00708661 7.06063 -59.5382 -0.191339 -0.00590551 -7.24252c0,-0.0838583 0.0023622,-0.167717 0.00826772,-0.250394l-0.00354331 -3.28346z"/>
    <path id="_46432264" class="fil38" d="M5.62913 22.024l59.4484 -0.429921c0.0425197,1.20118 0.0826772,2.39291 0.0838583,3.56693l0.00708661 7.82953 -59.537 -0.191339 -0.00708661 -8.01142c0,-0.0838583 0.0023622,-0.167717 0.00826772,-0.250394l-0.00354331 -2.51339z"/>
    <path id="_46466776" class="fil39" d="M5.63031 22.7953l59.4744 -0.431102c0.0307087,0.940157 0.0555118,1.87441 0.0566929,2.79685l0.00826772 8.59843 -59.5382 -0.190157 -0.00708661 -8.7815c0,-0.0838583 0.0023622,-0.167717 0.00826772,-0.250394l-0.0023622 -1.74213z"/>
    <path id="_87753200" class="fil40" d="M5.6315 23.5654l59.4969 -0.431102c0.0188976,0.680315 0.0318898,1.35709 0.0330709,2.02677l0.00826772 9.36732 -59.537 -0.191339 -0.00826772 -9.54921c0,-0.0838583 0.0023622,-0.167717 0.00826772,-0.250394l-0.0011811 -0.972047z"/>
    <path id="_89269232" class="fil41" d="M5.63268 24.3354l59.5146 -0.431102c0.00826772,0.421654 0.0129921,0.840945 0.0141732,1.25669l0.00944882 10.1362 -59.5382 -0.191339 -0.00826772 -10.3181c0,-0.0838583 0.0023622,-0.167717 0.00826772,-0.250394l0 -0.201969z"/>
   </g>
   <polygon id="_87794912" class="fil42" points="5.62441,25.1067 65.1591,24.6744 65.1614,25.161 65.172,36.0661 5.63386,35.8748 "/>
  </g>
  <path class="fil43" d="M3.70394 32.3516l0.105118 -5.38465c0,-0.596457 0.282283,-1.14449 0.747638,-1.56969 0.596457,-0.607087 1.50118,-0.995669 2.50866,-0.995669l57.8799 -0.0141732c1.78701,0 3.35197,1.19173 3.32717,2.67402 -0.0354331,2.05866 0.0389764,3.45472 0.0389764,5.46024l0 34.6205c0,1.48701 -1.43386,2.72126 -3.18189,2.72126 -20.9539,0 -22.5118,0.0141732 -58.252,0.0141732 -1.74685,0 -3.18071,-1.2248 -3.18071,-2.72126l0 -34.6205c0,-0.0625984 0.0023622,-0.122835 0.00708661,-0.184252z"/>
  <path class="fil44" d="M4.50236 28.7752l0.555118 0 0 40.8047c-0.194882,-0.0637795 -0.380315,-0.144094 -0.555118,-0.238583l0 -40.5661zm62.5146 0c0.0106299,1.19528 0.0448819,2.27362 0.0448819,3.63189l0 34.6205c0,0.277559 -0.0496063,0.545669 -0.141732,0.797244l0 -39.0496 0.0968504 0zm-1.23307 40.4256c-0.172441,0.111024 -0.357874,0.207874 -0.553937,0.287008l0 -40.7126 0.553937 0 0 40.4256zm-1.66299 0.539764c-0.0791339,0.00590551 -0.159449,0.00826772 -0.239764,0.00826772l-0.314173 0 0 -40.9736 0.553937 0 0 40.9654zm-1.69016 0.00826772l-0.553937 0 0 -40.9736 0.553937 0 0 40.9736zm-1.69134 0l-0.553937 0 0 -40.9736 0.553937 0 0 40.9736zm-1.69134 0l-0.553937 0 0 -40.9736 0.553937 0 0 40.9736zm-1.67598 0l-0.553937 0 0 -40.1421 0.553937 0 0 40.1421zm-1.69016 0l-0.553937 0 0 -40.1421 0.553937 0 0 40.1421zm-1.69134 0.0011811l-0.553937 0 0 -40.1433 0.553937 0 0 40.1433zm-1.69016 0.0011811l-0.555118 0 0 -40.1445 0.555118 0 0 40.1445zm-1.66299 0l-0.553937 0 0 -40.1445 0.553937 0 0 40.1445zm-1.69134 0l-0.553937 0.0011811 0 -40.1457 0.553937 0 0 40.1445zm-1.69134 0.0011811l-0.553937 0 0 -40.1457 0.553937 0 0 40.1457zm-1.69016 0.0011811l-0.553937 0 0 -40.1469 0.553937 0 0 40.1469zm-1.70433 0l-0.553937 0.0011811 0 -39.7949 0.553937 0 0 39.7937zm-1.69134 0.0011811l-0.553937 0 0 -39.7949 0.553937 0 0 39.7949zm-1.69134 0l-0.553937 0.0011811 0 -39.7961 0.553937 0 0 39.7949zm-1.69016 0.0023622l-0.553937 0 0 -39.7972 0.553937 0 0 39.7972zm-1.66299 0l-0.553937 0 0 -39.7972 0.553937 0 0 39.7972zm-1.69016 0.0011811l-0.553937 0 0 -39.7984 0.553937 0 0 39.7984zm-1.69134 0l-0.553937 0 0 -39.7984 0.553937 0 0 39.7984zm-1.69134 0.0011811l-0.553937 0 0 -39.7996 0.553937 0 0 39.7996zm-1.67362 0l-0.555118 0 0 -41.3362 0.555118 0 0 41.3362zm-1.69134 0l-0.553937 0 0 -41.3362 0.553937 0 0 41.3362zm-1.69134 0.0011811l-0.553937 0 0 -41.3374 0.553937 0 0 41.3374zm-1.69016 0l-0.555118 0 0 -41.3374 0.555118 0 0 41.3374zm-1.66299 0.0011811l-0.553937 0 0 -41.3386 0.553937 0 0 41.3386zm-1.69016 0l-0.555118 0 0 -41.3386 0.555118 0 0 41.3386zm-1.69134 0l-0.555118 0 0 -41.3386 0.555118 0 0 41.3386zm-1.69134 0l-0.553937 0 0 -41.3386 0.553937 0 0 41.3386zm-1.70433 0l-0.553937 0 0 -40.9866 0.553937 0 0 40.9866zm-1.69016 0l-0.555118 0.0011811 0 -40.9878 0.555118 0 0 40.9866zm-1.69134 0.0011811l-0.555118 0 0 -40.9878 0.555118 0 0 40.9878zm-1.69134 0l-0.553937 0 0 -40.9878 0.553937 0 0 40.9878zm-1.66299 0l-0.553937 0 0 -40.9878 0.553937 0 0 40.9878zm-1.69016 0l-0.553937 0 0 -40.9878 0.553937 0 0 40.9878zm-1.69134 0l-0.550394 0 -0.00354331 0 0 -40.9878 0.553937 0 0 40.9878z"/>
  <path class="fil45" d="M4.62756 23.987c0.0909449,-0.114567 0.19252,-0.223228 0.303543,-0.324803 0.330709,-0.336614 0.75,-0.611811 1.22362,-0.799606 0.457087,-0.180709 0.964961,-0.282283 1.49409,-0.282283l0 0.0011811 57.3921 -0.0141732 0.0023622 0 0.0720472 0.0011811 0.0023622 0c0.937795,0.0153543 1.8189,0.338976 2.46378,0.851575 0.212598,0.168898 0.400394,0.359055 0.55748,0.566929l-0.461811 0c0.185433,0.154724 0.349606,0.327165 0.490157,0.512598l-0.758268 0c-0.0484252,-0.0437008 -0.0980315,-0.0862205 -0.148819,-0.127559 -0.552756,-0.43937 -1.3122,-0.716929 -2.12362,-0.729921l-0.069685 -0.0011811 -57.3898 0.0141732 0 0.0011811c-0.461811,0 -0.898819,0.0862205 -1.28622,0.239764 -0.367323,0.145276 -0.695669,0.35315 -0.961417,0.603543l-0.773622 0c0.0909449,-0.114567 0.19252,-0.223228 0.303543,-0.324803 0.0637795,-0.0649606 0.131102,-0.127559 0.200787,-0.187795l-0.532677 0zm63.4984 43.8154c-0.127559,0.16063 -0.271654,0.309449 -0.431102,0.446457 -0.628346,0.53622 -1.49291,0.872835 -2.43898,0.872835 -12.4004,0 -15.9614,0.0023622 -20.478,0.00354331 -9.07677,0.00472441 -19.5744,0.0106299 -37.2886,0.0106299 -0.947244,0 -1.81299,-0.334252 -2.44134,-0.872835 -0.164173,-0.140551 -0.311811,-0.294094 -0.441732,-0.46063l0.474803 0 -0.0614173 -0.0519685c-0.164173,-0.140551 -0.311811,-0.294094 -0.441732,-0.46063l0.767717 0 0.0389764 0.034252c0.530315,0.452362 1.26614,0.735827 2.07638,0.735827 22.9854,0 30.6331,-0.00472441 37.2886,-0.00826772l20.478 -0.00590551c0.807874,0 1.5437,-0.283465 2.07283,-0.737008l0.0224409 -0.0188976 0.774803 0c-0.127559,0.16063 -0.271654,0.309449 -0.431102,0.446457l-0.0791339 0.0661417 0.538583 0z"/>
  <path class="fil46" d="M3.98504 32.2772l0.105118 -5.36693 -0.0023622 0c0,-0.364961 0.0850394,-0.71811 0.240945,-1.04646l0.0023622 -0.0023622c0.153543,-0.32126 0.375591,-0.616535 0.649606,-0.871654l0.00590551 -0.00590551c0.349606,-0.354331 0.79252,-0.644882 1.29094,-0.842126 0.479528,-0.190157 1.01457,-0.297638 1.56732,-0.297638l0 0.0023622 56.3469 -0.270472 0.00826772 0 0.0708661 0.0011811c0.982677,0.0165354 1.90748,0.356693 2.58425,0.895276 0.712205,0.564567 1.16457,1.35472 1.16457,2.23937l0 0.0366142 -0.0023622 0.00826772c-0.0200787,1.20472 -0.00354331,2.18622 0.0141732,3.1937 0.011811,0.772441 0.0271654,1.57913 0.0271654,2.25827l0 34.6205c0,0.896457 -0.427559,1.7126 -1.1126,2.29961 -0.184252,0.157087 -0.387402,0.298819 -0.605906,0.420472 0.0129921,-0.383858 -0.00354331,-0.0944882 -0.206693,-0.382677 0.0767717,-0.0531496 0.15,-0.109843 0.219685,-0.168898 0.467717,-0.400394 0.703937,-1.57559 0.703937,-2.1685l0 -34.6205c0,-0.964961 -0.011811,-1.60394 -0.0224409,-2.24173 -0.0188976,-1.01339 -0.0354331,-2.00079 -0.0141732,-3.2185l-0.0023622 0 0 -0.0366142c0,-0.561024 -0.304724,-1.07717 -0.784252,-1.45748 -0.51378,-0.408661 -1.22244,-0.667323 -1.97953,-0.680315l-0.0708661 -0.0011811 -56.3386 0.270472 0 0.0023622c-0.432283,0 -0.842126,0.080315 -1.19882,0.222047 -0.372047,0.147638 -0.699213,0.362598 -0.954331,0.62126l-0.0188976 0.0177165c-0.188976,0.172441 -0.34252,0.372047 -0.442913,0.582283l0.0011811 0c-0.0909449,0.19252 -0.141732,0.402756 -0.141732,0.62126l-0.0023622 0.00826772 -0.105118 5.38465 -0.498425 -0.00826772 0.498425 0.0177165 -0.00590551 0.166535 0.0011811 0 0 34.6205c0,0.526772 0.227953,1.01339 0.604724,1.39724 -0.0909449,0.337795 -0.180709,0.70748 -0.263386,1.08543 -0.0791339,-0.057874 -0.157087,-0.11811 -0.231496,-0.18189 -0.685039,-0.585827 -1.11142,-1.40079 -1.11142,-2.30079l0 -34.6205 0.0023622 -0.0177165 0.00708661 -0.184252z"/>
  <path class="fil47" d="M3.98031 46.0051l9.35197 0 0 0.50315c-0.167717,0.732283 -0.478346,1.96654 -0.874016,2.31378 -0.395669,0.347244 -0.283465,1.08189 0.057874,1.59449 0.340157,0.51378 0.511417,1.99488 0.511417,1.99488l0.112205 3.50433 0.134646 -0.0685039 0 0.185433 -9.35197 0 0.057874 -10.0276z"/>
  <path class="fil47" d="M3.98031 46.0051l9.35197 0 0 0.50315 -0.0283465 0.124016 0 -0.0862205 -9.3248 0 0.0011811 -0.540945zm8.2252 3.68504c0.046063,0.249213 0.162992,0.504331 0.31063,0.726378 0.340157,0.51378 0.511417,1.99488 0.511417,1.99488l0.141732 3.41811 0.134646 -0.0685039 0 0.185433 -0.180709 0 -0.124016 -2.99409c0,0 -0.17126,-1.4811 -0.511417,-1.99488 -0.259843,-0.390945 -0.421654,-0.879921 -0.282283,-1.26732z"/>
  <path class="fil48" d="M13.0772 46.0181l0.255118 -0.0129921 0 0.50315c-0.167717,0.732283 -0.478346,1.96654 -0.874016,2.31378 -0.395669,0.347244 -0.283465,1.08189 0.057874,1.59449 0.340157,0.51378 0.511417,1.99488 0.511417,1.99488l0.112205 3.50433 0.134646 -0.0685039 0 0.185433 -0.398031 0 -1.41378 -0.00944882 1.51063 -1.08189 -0.116929 -2.52992c0,0 -0.398031,-1.4811 -0.738189,-1.99488 -0.341339,-0.512598 -0.453543,-1.24724 -0.057874,-1.59449 0.395669,-0.347244 0.677953,-0.655512 0.845669,-1.3878l0.17126 -1.41614z"/>
  <path class="fil47" d="M68.6409 46.0051l-10.102 0 0 0.442913c0.328346,0.380315 0.778346,0.826772 1.18346,2.14134 0.212598,0.689764 -0.703937,1.25669 -0.669685,2.16969 0.0614173,1.65236 0.562205,3.60118 0.245669,5.01378 -0.011811,0.0531496 -0.0307087,0.113386 -0.0543307,0.174803l9.39685 0 0 -9.94252z"/>
  <path class="fil48" d="M60.9402 46.0051l-2.40118 0 0 0.442913c0.328346,0.380315 0.778346,0.826772 1.18346,2.14134 0.212598,0.689764 -0.731102,1.25551 -0.669685,2.16969 0.109843,1.65118 0.509055,3.6 0.245669,5.01378 -0.0106299,0.0543307 -0.0318898,0.113386 -0.0543307,0.174803l0.454724 0c0.0224409,-0.0614173 0.0413386,-0.121654 0.0543307,-0.174803 0.335433,-1.4126 -0.129921,-3.36142 -0.245669,-5.01378 -0.0637795,-0.914173 0.882283,-1.4811 0.669685,-2.16969 -0.403937,-1.31457 1.09252,-1.76102 0.762992,-2.14134l0 -0.442913z"/>
  <path class="fil49" d="M3.02008 32.0492l0.105118 -5.36693 -0.0023622 0c0,-0.364961 0.0850394,-0.71811 0.240945,-1.04646l0.0023622 -0.0023622c0.153543,-0.32126 0.375591,-0.616535 0.649606,-0.871654l0.00590551 -0.00590551c0.349606,-0.354331 0.79252,-0.644882 1.29094,-0.842126 0.479528,-0.190157 1.01457,-0.297638 1.56732,-0.297638l0 0.0023622 58.278 -0.0425197 0.00826772 0 0.0708661 0.0011811c0.982677,0.0165354 1.90748,0.356693 2.58425,0.895276 0.712205,0.564567 1.16457,1.35472 1.16457,2.23937l0 0.0366142 -0.0023622 0.00826772c-0.0200787,1.20472 -0.00354331,2.18622 0.0141732,3.1937 0.011811,0.772441 0.0271654,1.57913 0.0271654,2.25827l0 34.6205c0,0.896457 -0.427559,1.7126 -1.1126,2.29961 -0.66378,0.566929 -1.57441,0.922441 -2.5689,0.922441l0 -0.0023622 -20.4602 0.00590551c-10.1409,0.00354331 -23.6067,0.0389764 -38.1898,0.0389764 -0.995669,0 -1.90748,-0.35315 -2.57126,-0.92126 -0.685039,-0.585827 -1.11142,-1.40079 -1.11142,-2.30079l0 -34.6205 0.0023622 -0.0177165 0.00708661 -0.184252zm1.10197 -5.35866l-0.105118 5.38465 -0.498425 -0.00826772 0.498425 0.0177165 -0.00590551 0.166535 0.0011811 0 0 34.6205c0,0.595276 0.291732,1.14213 0.759449,1.54252 0.487795,0.416929 1.17047,0.677953 1.92165,0.677953 25.8969,0 32.5571,-0.0318898 38.1898,-0.034252l20.4602 -0.00590551 0 -0.0023622c0.751181,0 1.43031,-0.261024 1.91929,-0.679134 0.467717,-0.400394 0.76063,-0.948425 0.76063,-1.54134l0 -34.6205c0,-0.964961 -0.011811,-1.60394 -0.0224409,-2.24173 -0.0188976,-1.01339 -0.0354331,-2.00079 -0.0141732,-3.2185l-0.0023622 0 0 -0.0366142c0,-0.561024 -0.304724,-1.07717 -0.784252,-1.45748 -0.51378,-0.408661 -1.22244,-0.667323 -1.97953,-0.680315l-0.0708661 -0.0011811 -58.2697 0.0425197 0 0.0023622c-0.432283,0 -0.842126,0.080315 -1.19882,0.222047 -0.372047,0.147638 -0.699213,0.362598 -0.954331,0.62126l-0.0188976 0.0177165c-0.188976,0.172441 -0.34252,0.372047 -0.442913,0.582283l0.0011811 0c-0.0909449,0.19252 -0.141732,0.402756 -0.141732,0.62126l-0.0023622 0.00826772z"/>
  <g id="_87766040">
   <polygon id="_86610968" class="fil33" points="4.07953,41.2854 68.6386,41.6421 68.6386,31.4976 4.07953,31.6559 "/>
   <g>
    <path id="_86337360" class="fil34" d="M4.08071 40.8602c21.5197,0.112205 43.0382,0.225591 64.5579,0.338976 0,-3.21496 0,-6.42992 0,-9.64488 -21.5197,0.0507874 -43.0382,0.101575 -64.5579,0.151181 0,3.05197 0,6.10157 0,9.15472z"/>
    <path id="_86052936" class="fil35" d="M4.08071 40.435c21.5197,0.106299 43.0382,0.21378 64.5579,0.32126 0,-3.04843 0,-6.09567 0,-9.14409 -21.5197,0.0472441 -43.0382,0.0956693 -64.5579,0.142913 0,2.8937 0,5.78622 0,8.67992z"/>
    <path id="_45593584" class="fil36" d="M4.08071 40.011c21.5197,0.100394 43.0382,0.201969 64.5579,0.303543 0,-2.88189 0,-5.76378 0,-8.64567 -21.5197,0.0448819 -43.0382,0.0909449 -64.5579,0.134646 0,2.73661 0,5.47087 0,8.20748z"/>
    <path id="_89223168" class="fil37" d="M4.08071 39.5858c21.5197,0.0956693 43.0382,0.191339 64.5579,0.287008 0,-2.71654 0,-5.43071 0,-8.14724 -21.5197,0.0425197 -43.0382,0.0862205 -64.5579,0.127559 0,2.57835 0,5.15433 0,7.73268z"/>
    <path id="_45872160" class="fil38" d="M4.08071 39.1618c21.5197,0.0885827 43.0382,0.178346 64.5579,0.26811 0,-2.54882 0,-5.09764 0,-7.64646 -21.5197,0.0401575 -43.0382,0.0791339 -64.5579,0.119291 0,2.42008 0,4.83898 0,7.25906z"/>
    <path id="_46539352" class="fil39" d="M4.08071 38.7366c21.5197,0.0838583 43.0382,0.167717 64.5579,0.251575 0,-2.38346 0,-4.76457 0,-7.14803 -21.5197,0.0377953 -43.0382,0.0744094 -64.5579,0.112205 0,2.26181 0,4.52244 0,6.78425z"/>
    <path id="_88034160" class="fil40" d="M4.08071 38.3126c21.5197,0.0779528 43.0382,0.155906 64.5579,0.233858 0,-2.21693 0,-4.43268 0,-6.64961 -21.5197,0.0354331 -43.0382,0.069685 -64.5579,0.103937 0,2.10472 0,4.20709 0,6.31181z"/>
    <path id="_87504000" class="fil41" d="M4.08071 37.8874c21.5197,0.0720472 43.0382,0.144094 64.5579,0.216142 0,-2.05039 0,-4.09843 0,-6.14882 -21.5197,0.0318898 -43.0382,0.0637795 -64.5579,0.0956693 0,1.94646 0,3.89291 0,5.83701z"/>
   </g>
   <polygon id="_89283256" class="fil42" points="4.07953,37.4646 68.6386,37.663 68.6386,32.0114 4.07953,32.1 "/>
  </g>
  <path class="fil50" d="M4.24843 26.1614c0,-0.6 0.283465,-1.15039 0.752362,-1.57913 0.6,-0.609449 1.50945,-1.00039 2.52165,-1.00039l56.9516 0c1.79646,0 3.37205,1.19528 3.34606,2.68819"/>
  <path class="fil51" d="M68.2311 27.5421l3.0874 5.88189c0.205512,1.60039 -0.184252,2.57362 -1.00157,2.60669 -22.9618,0 -45.9248,0 -68.8854,0 -0.263386,-0.00708661 -0.616535,-0.0708661 -0.827953,-0.250394 -0.126378,-0.10748 -0.147638,-1.76929 -0.124016,-1.97717l3.21142 -6.26102 64.5402 0z"/>
  <path class="fil52" d="M2.32913 33.737l0 1.41024 -0.555118 0 0 -1.41024 0.555118 0zm69.0969 0.114567c-0.0685039,0.53622 -0.250394,0.92126 -0.527953,1.12559l0 -1.12559 0.527953 0zm-1.66417 1.29567l-0.553937 0 0 -1.29567 0.553937 0 0 1.29567zm-1.66299 0l-0.553937 0 0 -1.29567 0.553937 0 0 1.29567zm-1.69016 0l-0.553937 0 0 -1.29567 0.553937 0 0 1.29567zm-1.69134 0l-0.553937 0 0 -1.29567 0.0283465 0 0 -0.114567 0.141732 0 0 0.114567 0.383858 0 0 1.29567zm-1.66181 0l-0.583465 0 0 -1.29567 0.0295276 0 0 -0.114567 0.553937 0 0 1.41024zm-1.66299 0l-0.553937 0 0 -1.41024 0.553937 0 0 1.41024zm-1.69016 0l-0.553937 0 0 -1.41024 0.553937 0 0 1.41024zm-1.69134 0l-0.553937 0 0 -1.41024 0.553937 0 0 1.41024zm-1.69016 0l-0.555118 0 0 -1.41024 0.555118 0 0 1.41024zm-1.67598 0l-0.555118 0 0 -1.41024 0.555118 0 0 1.41024zm-1.69134 0l-0.553937 0 0 -1.41024 0.553937 0 0 1.41024zm-1.69134 0l-0.553937 0 0 -1.41024 0.553937 0 0 1.41024zm-1.69016 0l-0.553937 0 0 -1.41024 0.553937 0 0 1.41024zm-1.66299 0l-0.553937 0 0 -1.41024 0.553937 0 0 1.41024zm-1.69016 0l-0.555118 0 0 -1.41024 0.555118 0 0 1.41024zm-1.69134 0l-0.555118 0 0 -1.41024 0.555118 0 0 1.41024zm-1.69134 0l-0.553937 0 0 -1.41024 0.553937 0 0 1.41024zm-1.70433 0l-0.553937 0 0 -1.41024 0.553937 0 0 1.41024zm-1.69016 0l-0.555118 0 0 -1.41024 0.555118 0 0 1.41024zm-1.69134 0l-0.555118 0 0 -1.41024 0.555118 0 0 1.41024zm-1.69134 0l-0.553937 0 0 -1.41024 0.553937 0 0 1.41024zm-1.66299 0l-0.553937 0 0 -1.41024 0.553937 0 0 1.41024zm-1.69016 0l-0.553937 0 0 -1.41024 0.553937 0 0 1.41024zm-1.69134 0l-0.553937 0 0 -1.41024 0.553937 0 0 1.41024zm-1.69016 0l-0.555118 0 0 -1.41024 0.555118 0 0 1.41024zm-1.6748 0l-0.555118 0 0 -1.41024 0.555118 0 0 1.41024zm-1.69134 0l-0.553937 0 0 -1.41024 0.553937 0 0 1.41024zm-1.69134 0l-0.553937 0 0 -1.41024 0.553937 0 0 1.41024zm-1.69016 0l-0.553937 0 0 -1.41024 0.553937 0 0 1.41024zm-1.66299 0l-0.553937 0 0 -1.41024 0.553937 0 0 1.41024zm-1.69016 0l-0.555118 0 0 -1.41024 0.555118 0 0 1.41024zm-1.69134 0l-0.555118 0 0 -1.41024 0.555118 0 0 1.41024zm-1.69134 0l-0.553937 0 0 -1.41024 0.553937 0 0 1.41024zm-1.70433 0l-0.553937 0 0 -1.41024 0.553937 0 0 1.41024zm-1.69016 0l-0.555118 0 0 -1.41024 0.555118 0 0 1.41024zm-1.69134 0l-0.555118 0 0 -1.41024 0.555118 0 0 1.41024zm-1.69134 0l-0.553937 0 0 -1.41024 0.553937 0 0 1.41024zm-1.66299 0l-0.553937 0 0 -1.41024 0.553937 0 0 1.41024zm-1.69016 0l-0.553937 0 0 -1.41024 0.553937 0 0 1.41024zm-1.69134 0l-0.553937 0 0 -1.41024 0.553937 0 0 1.41024z"/>
  <path class="fil53" d="M68.3457 23.6681l3.08622 9.1878c-0.0212598,0.488976 -0.184252,0.920079 -1.00157,0.95315 -22.9618,0 -45.8114,0.141732 -68.772,0.141732 -0.421654,-0.0106299 -1.07008,-0.164173 -1.00866,-0.716929l3.15591 -9.56575 64.5402 0z"/>
  <polygon class="fil54" points="36.6697,65.7083 48.2728,54.8669 42.8138,54.8669 42.2764,54.8669 42.2764,54.7134 50.5098,54.5705 50.5169,54.5882 37.0252,66.8268 36.6697,67.1398 36.3142,66.8268 22.102,54.6165 22.1079,54.6 29.9587,54.7134 29.9587,54.8669 29.4213,54.8669 24.4157,54.8669 "/>
  <path class="fil55" d="M36.6413 65.7969l13.2083 -11.8677 -6.87874 0 -0.0141732 -7.86378 -14.0185 0 0.0141732 7.86378 -6.31063 0 13.9996 11.8677zm-7.68307 -21.639l14.0209 0 0.0354331 -4.13031 -14.0209 0 -0.0354331 4.13031z"/>
  <path class="fil56" d="M49.8839 54.5161l0.66378 -0.587008 -7.74803 0 0 0.587008 7.08425 0zm-7.09843 -7.86496l0 -0.585827 -13.3925 0 0 0.585827 13.3925 0zm-13.3783 7.27795l-6.4252 0 0.66378 0.587008 5.76142 0 0 -0.587008zm-0.135827 -9.91417l0.00826772 0 0.0555118 -3.40157 13.5 0 0.00826772 -0.585827 -13.5083 0 -0.0637795 3.9874z"/>
  <polygon class="fil57" points="29.0091,44.0882 43.0394,44.0882 43.0394,44.8843 29.0091,44.8843 "/>
  <path class="fil58" d="M65.4094 22.9925l0.198425 0c0.523228,0.0011811 0.499606,0.111024 0.237402,-0.324803l-0.797244 -1.63346 0 -2.02441 2.76732 4.1185c0.484252,0.712205 0.862205,0.865748 -0.387402,1.16457l-0.173622 0.269291 -0.317717 -0.0011811 -61.7516 0 -0.318898 0.0011811 -0.173622 -0.269291c-1.24961,-0.298819 -0.871654,-0.452362 -0.38622,-1.16457l2.71654 -4.04291 0 1.60157 -1.04409 2.12244c-0.263386,0.435827 -0.356693,0.198425 0.165354,0.197244l0.199606 0c19.8236,-0.0531496 39.2457,0.271654 59.0657,-0.0141732z"/>
  <polygon class="fil59" points="6.23504,20.3764 6.95906,19.2992 7.02992,20.8772 6.23504,22.0654 "/>
  <path class="fil60" d="M68.3457 23.9232l3.05787 8.95984c-0.0212598,0.487795 -0.184252,0.920079 -1.00157,0.95315 -22.9618,0 -45.7831,0.057874 -68.7437,0.057874 -0.421654,-0.011811 -1.07008,-0.165354 -1.00866,-0.71811l3.15591 -9.13937 64.5402 -0.113386z"/>
  <path class="fil61" d="M71.2807 32.5996l0.0944882 0.283465c-0.0212598,0.487795 -0.184252,0.920079 -1.00157,0.95315 -22.9618,0 -45.7831,0.057874 -68.7437,0.057874 -0.421654,-0.011811 -1.07008,-0.165354 -1.00866,-0.71811l0.209055 -0.63189c0.173622,0.282283 0.622441,0.372047 0.941339,0.381496 22.9606,0 45.7819,-0.057874 68.7437,-0.057874 0.379134,-0.0153543 0.616535,-0.114567 0.765354,-0.26811z"/>
  <g id="_46358016">
   <path id="_88518184" class="fil62" d="M7.46929 69.8776c0.0531496,-0.382677 0.166535,-0.757087 0.357874,-1.11378 1.59213,-2.96339 4.77402,-13.7882 18.0732,-16.0677 9.32835,-1.59921 11.8335,9.69803 10.4575,17.1768 -6.56929,0.0023622 -15.1547,0.00472441 -28.8886,0.00472441z"/>
   <g>
    <path id="_86049200" class="fil63" d="M7.58858 69.8776c0.0366142,-0.400394 0.144094,-0.790157 0.341339,-1.15984 1.45039,-2.69764 4.66772,-13.0524 16.7764,-15.1276 8.82992,-1.51417 10.8071,9.56811 9.14409,16.2827l-26.2618 0.00472441z"/>
    <path id="_45256624" class="fil64" d="M7.7126 69.8776c0.0165354,-0.415748 0.114567,-0.823228 0.318898,-1.20472 1.30748,-2.43307 4.56142,-12.3177 15.4795,-14.1886 8.36102,-1.43386 9.74291,9.54094 7.75157,15.3898l-23.55 0.00354331z"/>
    <path id="_88600384" class="fil65" d="M7.84606 69.8776c-0.00708661,-0.431102 0.0744094,-0.856299 0.287008,-1.25079 1.16457,-2.16732 4.45512,-11.5819 14.1815,-13.2496 7.95118,-1.36181 8.60787,9.72283 6.22087,14.498l-20.6894 0.0023622z"/>
    <path id="_87457544" class="fil66" d="M7.99252 69.8776c-0.0377953,-0.446457 0.023622,-0.88937 0.242126,-1.29567 1.02165,-1.90157 4.34882,-10.8461 12.8846,-12.3094 7.71378,-1.32165 7.31693,10.5024 4.37126,13.6039l-17.498 0.0011811z"/>
    <path id="_88618720" class="fil67" d="M8.15906 69.8776c-0.0767717,-0.459449 -0.0448819,-0.922441 0.179528,-1.34055 0.87874,-1.63701 4.24134,-10.1114 11.5866,-11.3705 7.34646,-1.25906 5.7437,11.0575 2.47913,12.0012 -0.525591,0.152362 -1.06063,0.403937 -1.61457,0.708661l-12.6307 0.0011811z"/>
    <path id="_89298592" class="fil68" d="M8.34685 69.8776c-0.125197,-0.466535 -0.138189,-0.954331 0.0933071,-1.38543 0.735827,-1.37126 4.13504,-9.37677 10.2898,-10.4303 6.15472,-1.05591 4.34528,8.9374 1.61102,9.72874 -1.00394,0.28937 -2.06457,1.17638 -3.25157,2.08583l-8.74252 0.0011811z"/>
    <path id="_45293264" class="fil69" d="M8.57244 69.8776c-0.186614,-0.464173 -0.270472,-0.985039 -0.0318898,-1.43031 0.594094,-1.10669 4.02992,-8.64094 8.99291,-9.49252 4.96417,-0.850394 2.94803,6.81969 0.742913,7.45748 -1.17874,0.341339 -2.49685,2.1248 -4.08307,3.46535l-5.62087 0z"/>
    <path id="_45282872" class="fil70" d="M8.85827 69.8776c-0.245669,-0.421654 -0.468898,-1.00512 -0.214961,-1.47638 0.451181,-0.840945 3.92244,-7.90512 7.69606,-8.55236 3.77244,-0.646063 1.54961,4.70079 -0.127559,5.18622 -1.16575,0.336614 -2.59488,3.41339 -4.38661,4.84252l-2.96693 0z"/>
   </g>
   <path id="_90577104" class="fil71" d="M9.16299 69.7512c0,0 -0.72874,-0.818504 -0.420472,-1.3937 0.309449,-0.575197 3.81732,-7.16929 6.39921,-7.6122 2.58307,-0.442913 0.153543,2.58189 -0.994488,2.91378 -1.14803,0.33189 -2.8878,6.93307 -4.98425,6.09213z"/>
  </g>
  <path class="fil72" d="M5.27717 23.7531c-0.683858,1.69606 -1.36535,3.3874 -2.04567,5.08228 -0.679134,1.69134 -1.35354,3.38622 -2.04449,5.07992 -0.197244,-0.0425197 -0.388583,-0.0944882 -0.543307,-0.157087 0.677953,-1.66654 1.36417,-3.33307 2.04567,-5.00079 0.679134,-1.66654 1.36063,-3.33543 2.0374,-5.00433 0.175984,0 0.360236,0 0.550394,0zm62.0114 0c0.51378,1.35472 1.02874,2.70827 1.5437,4.06181 0.51378,1.35354 1.03228,2.70591 1.5437,4.05945 0.0661417,0.174803 0.0708661,0.348425 0.0295276,0.510236 -0.550394,-1.43858 -1.09016,-2.87598 -1.63701,-4.31339 -0.545669,-1.4374 -1.08543,-2.87598 -1.62874,-4.31811 0.0425197,0 0.092126,0 0.148819,0zm2.16378 9.51614c-0.161811,0.0720472 -0.351969,0.135827 -0.550394,0.186614 -0.570472,-1.61693 -1.15157,-3.23268 -1.72677,-4.85079 -0.574016,-1.61457 -1.14921,-3.23268 -1.72087,-4.85197 0.175984,0 0.360236,0 0.550394,0 0.571654,1.58858 1.14567,3.17598 1.71969,4.75984 0.575197,1.58622 1.15748,3.17126 1.72795,4.7563zm-1.74094 0.354331c-0.0850394,0.00472441 -0.175984,0.00708661 -0.26811,0.00708661 -0.119291,0.0011811 -0.239764,0.0023622 -0.35315,0.0023622 -0.556299,-1.64646 -1.10669,-3.29055 -1.65709,-4.93937 -0.548031,-1.64409 -1.09961,-3.29173 -1.64291,-4.94055 0.177165,0 0.360236,0 0.550394,0 0.556299,1.64646 1.1185,3.29409 1.67835,4.93701 0.559843,1.64528 1.12087,3.28937 1.69252,4.93346zm-1.90394 0.0177165c-0.211417,0.0011811 -0.416929,0.0023622 -0.620079,0.0023622 -0.523228,-1.64764 -1.03701,-3.29409 -1.55197,-4.94409 -0.51378,-1.64528 -1.02283,-3.29646 -1.5378,-4.94646 0.184252,0 0.360236,0 0.550394,0 0.522047,1.65 1.04528,3.3 1.57323,4.94528 0.527953,1.64882 1.05709,3.29528 1.58622,4.94291zm-1.90394 0.0106299c-0.211417,0.0011811 -0.422835,0.0023622 -0.628346,0.00354331 -0.485433,-1.65 -0.959055,-3.3 -1.43858,-4.95 -0.478346,-1.65 -0.959055,-3.3 -1.4315,-4.95236 0.177165,0 0.367323,0 0.55748,0 0.486614,1.65118 0.977953,3.30236 1.46693,4.95 0.490157,1.65 0.980315,3.29882 1.47402,4.94882zm-1.90394 0.011811c-0.211417,0.0023622 -0.422835,0.0023622 -0.628346,0.00354331 -0.442913,-1.65118 -0.891732,-3.30236 -1.33228,-4.95591 -0.43937,-1.65 -0.888189,-3.30354 -1.3252,-4.95827 0.183071,0 0.366142,0 0.556299,0 0.451181,1.65354 0.907087,3.30591 1.36181,4.95709 0.453543,1.65118 0.909449,3.30118 1.36772,4.95354zm-1.88976 0.011811c-0.212598,0.0011811 -0.424016,0.0023622 -0.628346,0.00354331 -0.408661,-1.65354 -0.820866,-3.30709 -1.22598,-4.96181 -0.406299,-1.65236 -0.811417,-3.30827 -1.22126,-4.96417 0.184252,0 0.374409,0 0.558661,0 0.415748,1.65472 0.835039,3.31063 1.25433,4.96299 0.419291,1.65472 0.84685,3.30591 1.2626,4.95945zm-1.91102 0.011811c-0.211417,0 -0.416929,0.0023622 -0.62126,0.00354331 -0.366142,-1.65709 -0.751181,-3.31063 -1.12087,-4.96654 -0.369685,-1.65591 -0.740551,-3.31417 -1.10669,-4.97126 0.175984,0 0.360236,0 0.549213,0 0.381496,1.65709 0.768898,3.31299 1.15039,4.9689 0.380315,1.65472 0.767717,3.30945 1.14921,4.96535zm-1.90394 0.0106299c-0.211417,0.0011811 -0.422835,0.0023622 -0.628346,0.00354331 -0.330709,-1.65709 -0.672047,-3.31417 -1.00748,-4.97244 -0.334252,-1.65709 -0.669685,-3.31654 -1.00866,-4.97598 0.183071,0 0.374409,0 0.55748,0 0.344882,1.65945 0.698031,3.31772 1.04291,4.97362 0.346063,1.65709 0.698031,3.31535 1.04409,4.97126zm-1.90394 0.0129921c-0.211417,0.0011811 -0.422835,0.0023622 -0.628346,0.0023622 -0.295276,-1.65827 -0.602362,-3.3189 -0.902362,-4.97953 -0.298819,-1.65827 -0.598819,-3.32008 -0.895276,-4.98071 0.177165,0 0.366142,0 0.55748,0 0.309449,1.66063 0.62126,3.32126 0.930709,4.97953 0.309449,1.65945 0.627165,3.3189 0.937795,4.97835zm-1.87559 0.011811c-0.211417,0 -0.424016,0.0011811 -0.627165,0.0023622 -0.261024,-1.66063 -0.533858,-3.32362 -0.797244,-4.98425 -0.264567,-1.66181 -0.529134,-3.32362 -0.790157,-4.9878 0.175984,0 0.367323,0 0.55748,0 0.274016,1.66181 0.54685,3.3248 0.824409,4.98543 0.27874,1.66063 0.55748,3.32244 0.832677,4.98425zm-1.90394 0.0106299c-0.211417,0.0023622 -0.424016,0.00354331 -0.627165,0.00472441 -0.226772,-1.66299 -0.461811,-3.32717 -0.692126,-4.99134 -0.227953,-1.66181 -0.458268,-3.32835 -0.683858,-4.9937 0.183071,0 0.374409,0 0.55748,0 0.239764,1.66417 0.479528,3.32953 0.719291,4.99134 0.238583,1.66299 0.486614,3.32598 0.726378,4.98898zm-1.91102 0.011811c-0.211417,0.0011811 -0.416929,0.0023622 -0.620079,0.00354331 -0.191339,-1.66535 -0.388583,-3.33189 -0.57874,-4.99606 -0.190157,-1.66535 -0.388583,-3.33189 -0.577559,-4.99961 0.175984,0 0.359055,0 0.549213,0 0.204331,1.66654 0.408661,3.33425 0.612992,4.99843 0.204331,1.66417 0.409843,3.32953 0.614173,4.9937zm-1.90394 0.011811c-0.211417,0.0011811 -0.415748,0.0023622 -0.620079,0.00354331 -0.155906,-1.66772 -0.317717,-3.33661 -0.472441,-5.00315 -0.155906,-1.66654 -0.317717,-3.33543 -0.473622,-5.00433 0.184252,0 0.367323,0 0.550394,0 0.168898,1.6689 0.338976,3.33661 0.507874,5.00433 0.168898,1.66535 0.338976,3.33307 0.507874,4.99961zm-1.91811 0.0129921c-0.211417,0.0011811 -0.422835,0.0011811 -0.627165,0.0023622 -0.120472,-1.66772 -0.244488,-3.33898 -0.367323,-5.00906 -0.122835,-1.66772 -0.239764,-3.34016 -0.359055,-5.01024 0.183071,0 0.366142,0 0.556299,0 0.134646,1.67008 0.265748,3.34134 0.395669,5.00906 0.129921,1.66772 0.274016,3.3378 0.401575,5.00787zm-1.91102 0.011811c-0.211417,0.0011811 -0.415748,0.0023622 -0.62126,0.00354331 -0.0838583,-1.67244 -0.168898,-3.34488 -0.252756,-5.01614 -0.0838583,-1.67126 -0.177165,-3.3437 -0.261024,-5.01614 0.183071,0 0.366142,0 0.549213,0 0.0992126,1.67244 0.198425,3.3437 0.296457,5.01496 0.0992126,1.67126 0.197244,3.34252 0.28937,5.01378zm-1.90394 0.0106299c-0.211417,0.0011811 -0.415748,0.0023622 -0.62126,0.00354331 -0.0484252,-1.67362 -0.0980315,-3.34724 -0.147638,-5.02087 -0.0496063,-1.67362 -0.0980315,-3.34724 -0.147638,-5.02205 0.183071,0 0.359055,0 0.549213,0 0.0566929,1.67362 0.124016,3.34724 0.184252,5.01969 0.0590551,1.67362 0.126378,3.34724 0.183071,5.01969zm-1.90394 0.0129921c-0.211417,0.0011811 -0.422835,0.0023622 -0.627165,0.00354331 -0.00708661,-1.67598 -0.0330709,-3.35079 -0.0425197,-5.02559 -0.0106299,-1.67598 -0.0283465,-3.35315 -0.0425197,-5.03031 0.183071,0 0.374409,0 0.55748,0 0.0283465,1.67717 0.0519685,3.35315 0.0767717,5.02677 0.023622,1.6748 0.0566929,3.34961 0.0779528,5.02559zm-1.87559 0.011811c-0.211417,0.0011811 -0.422835,0.0023622 -0.628346,0.00354331 0.0295276,-1.67835 0.0401575,-3.35669 0.0637795,-5.03268 0.0248031,-1.67835 0.0425197,-3.35433 0.0637795,-5.03504 0.183071,0 0.374409,0 0.556299,0 -0.00590551,1.67835 -0.0177165,3.35669 -0.0271654,5.03268 -0.0106299,1.67598 -0.0141732,3.35315 -0.0283465,5.0315zm-1.89685 0.0106299c-0.211417,0.0023622 -0.422835,0.0023622 -0.627165,0.00472441 0.0555118,-1.67953 0.108661,-3.35906 0.168898,-5.03858 0.0590551,-1.67953 0.112205,-3.36024 0.168898,-5.04094 0.183071,0 0.367323,0 0.55748,0 -0.0496063,1.68071 -0.0885827,3.36024 -0.134646,5.03858 -0.0448819,1.67835 -0.0909449,3.35669 -0.133465,5.03622zm-1.91102 0.0129921c-0.211417,0.0011811 -0.415748,0.0023622 -0.620079,0.00354331 0.0909449,-1.68189 0.183071,-3.3626 0.274016,-5.04449 0.092126,-1.68071 0.184252,-3.36378 0.275197,-5.04685 0.184252,0 0.366142,0 0.550394,0 -0.0779528,1.68307 -0.154724,3.36496 -0.239764,5.04449 -0.0838583,1.68071 -0.162992,3.36142 -0.239764,5.04331zm-1.90394 0.0106299c-0.211417,0.0023622 -0.415748,0.00354331 -0.620079,0.00472441 0.126378,-1.68425 0.250394,-3.3685 0.380315,-5.05157 0.129921,-1.68189 0.253937,-3.36614 0.388583,-5.05157 0.175984,0 0.359055,0 0.549213,0 -0.119291,1.68425 -0.23622,3.36732 -0.351969,5.05039 -0.116929,1.68307 -0.232677,3.36614 -0.346063,5.04803zm-1.88268 0.0129921c-0.211417,0.0011811 -0.422835,0.0023622 -0.628346,0.00354331 0.162992,-1.68543 0.322441,-3.37205 0.487795,-5.0563 0.165354,-1.68661 0.330709,-3.37205 0.49252,-5.05866 0.184252,0 0.367323,0 0.55748,0 -0.154724,1.68661 -0.307087,3.37205 -0.458268,5.0563 -0.151181,1.68425 -0.302362,3.36969 -0.451181,5.05512zm-1.91102 0.0106299c-0.211417,0.0023622 -0.415748,0.00354331 -0.62126,0.00472441 0.198425,-1.6878 0.392126,-3.37677 0.592913,-5.06339 0.200787,-1.68661 0.402756,-3.37441 0.6,-5.06339 0.183071,0 0.366142,0 0.556299,0 -0.190157,1.6878 -0.377953,3.37559 -0.563386,5.0622 -0.187795,1.68543 -0.381496,3.37323 -0.564567,5.05984zm-1.90394 0.011811c-0.211417,0.0011811 -0.422835,0.0023622 -0.627165,0.00354331 0.232677,-1.68898 0.468898,-3.37913 0.705118,-5.06811 0.235039,-1.6878 0.472441,-3.37795 0.705118,-5.06929 0.183071,0 0.366142,0 0.556299,0 -0.225591,1.69016 -0.444094,3.37913 -0.669685,5.06811 -0.225591,1.6878 -0.444094,3.37677 -0.669685,5.06575zm-1.90394 0.011811c-0.211417,0.0011811 -0.422835,0.0023622 -0.627165,0.00354331 0.266929,-1.69134 0.538583,-3.38386 0.810236,-5.0752 0.271654,-1.69016 0.543307,-3.3815 0.811417,-5.07402 0.183071,0 0.373228,0 0.55748,0 -0.253937,1.69252 -0.514961,3.38386 -0.775984,5.07402 -0.261024,1.69016 -0.514961,3.38031 -0.775984,5.07165zm-1.87559 0.0106299c-0.211417,0.0023622 -0.422835,0.00354331 -0.627165,0.00472441 0.302362,-1.69252 0.609449,-3.3874 0.916535,-5.07874 0.305906,-1.6937 0.612992,-3.38858 0.916535,-5.08228 0.183071,0 0.373228,0 0.55748,0 -0.28937,1.6937 -0.587008,3.38858 -0.882283,5.07992 -0.295276,1.69134 -0.584646,3.38504 -0.881102,5.07638zm-1.90394 0.0106299c-0.211417,0.0023622 -0.424016,0.00354331 -0.627165,0.00472441 0.337795,-1.6937 0.680315,-3.39094 1.02165,-5.08465 0.341339,-1.69488 0.683858,-3.39094 1.02992,-5.08701 0.183071,0 0.366142,0 0.55748,0 -0.33189,1.69606 -0.66378,3.39213 -0.994488,5.08465 -0.330709,1.69488 -0.655512,3.38858 -0.987402,5.08228zm-1.91102 0.0129921c-0.211417,0.0011811 -0.416929,0.0023622 -0.620079,0.00354331 0.380315,-1.69606 0.747638,-3.39685 1.12795,-5.08937 0.380315,-1.69843 0.76063,-3.39567 1.13504,-5.09409 0.183071,0 0.367323,0 0.549213,0 -0.359055,1.69724 -0.732283,3.39331 -1.09961,5.09055 -0.366142,1.69488 -0.726378,3.39331 -1.09252,5.08937zm-1.90394 0.011811c-0.211417,0.0011811 -0.422835,0.0011811 -0.627165,0.0023622 0.415748,-1.69724 0.824409,-3.39685 1.24134,-5.09528 0.414567,-1.69843 0.824409,-3.39803 1.24016,-5.09882 0.183071,0 0.367323,0 0.55748,0 -0.401575,1.69961 -0.804331,3.40039 -1.20591,5.09764 -0.401575,1.69724 -0.804331,3.39567 -1.20591,5.09409zm-1.91811 0.0106299c-0.211417,0.0011811 -0.422835,0.0023622 -0.627165,0.00354331 0.451181,-1.70079 0.895276,-3.40157 1.34646,-5.10118 0.451181,-1.70079 0.902362,-3.40276 1.35354,-5.10472 0.175984,0 0.367323,0 0.55748,0 -0.437008,1.70197 -0.877559,3.40276 -1.31811,5.10236 -0.441732,1.69843 -0.875197,3.40039 -1.3122,5.1zm-1.91102 0.011811c-0.211417,0 -0.415748,0.0011811 -0.620079,0.0023622 0.486614,-1.70197 0.966142,-3.4063 1.45276,-5.10709 0.486614,-1.70315 0.972047,-3.4063 1.45866,-5.10945 0.184252,0 0.367323,0 0.550394,0 -0.472441,1.70315 -0.948425,3.4063 -1.42441,5.10945 -0.474803,1.69961 -0.944882,3.40394 -1.41732,5.10472zm-1.90394 0.0106299c-0.211417,0.0011811 -0.422835,0.0023622 -0.627165,0.00354331 0.522047,-1.70315 1.04291,-3.40866 1.56496,-5.11299 0.520866,-1.70315 1.04409,-3.40984 1.56614,-5.11535 0.175984,0 0.366142,0 0.556299,0 -0.514961,1.70551 -1.01929,3.4122 -1.52953,5.11417 -0.511417,1.70433 -1.02283,3.40866 -1.53071,5.11063zm-1.90394 0.011811c-0.211417,0.0011811 -0.422835,0.0023622 -0.627165,0.00354331 0.556299,-1.70551 1.11378,-3.41339 1.67008,-5.1189 0.55748,-1.70551 1.11496,-3.41339 1.67244,-5.12126 0.183071,0 0.366142,0 0.556299,0 -0.543307,1.70787 -1.08898,3.41457 -1.63583,5.12008 -0.545669,1.70433 -1.09252,3.41102 -1.63583,5.11654zm-1.87559 0.0106299c-0.211417,0.0011811 -0.422835,0.0023622 -0.627165,0.00354331 0.591732,-1.70669 1.18228,-3.41811 1.77638,-5.12362 0.596457,-1.70906 1.18465,-3.41811 1.77756,-5.12717 0.183071,0 0.366142,0 0.556299,0 -0.577559,1.70787 -1.15984,3.41693 -1.74213,5.1248 -0.581102,1.70669 -1.1563,3.41575 -1.74094,5.12244zm-1.90394 0.011811c-0.211417,0.0011811 -0.422835,0.0023622 -0.627165,0.00354331 0.627165,-1.71024 1.25197,-3.42047 1.88268,-5.13071 0.630709,-1.70906 1.2626,-3.41929 1.88976,-5.13189 0.175984,0 0.366142,0 0.556299,0 -0.620079,1.71024 -1.23661,3.42165 -1.85433,5.13189 -0.615354,1.70669 -1.22717,3.41811 -1.84724,5.12717zm-1.91102 0.011811c-0.211417,0.0011811 -0.415748,0.0011811 -0.620079,0.0023622 0,0 0,0 0,0 0.662598,-1.71142 1.32283,-3.4252 1.98898,-5.13543 0.666142,-1.71142 1.33228,-3.42402 1.99488,-5.1378 0.183071,0 0.366142,0 0.550394,0 -0.649606,1.7126 -1.30512,3.42402 -1.96063,5.13661 -0.655512,1.70906 -1.29803,3.42283 -1.95354,5.13425z"/>
  <polygon class="fil73" points="70.3713,35.9988 1.22835,35.9988 1.22835,35.0327 70.3713,35.0327 "/>
  <g id="_86251712">
   <path id="_89445312" class="fil26" d="M10.4008 16.774l0 0.301181 0.676772 1.55079 0.677953 -1.55079 0 -0.301181c0,-0.0755906 0.0224409,-0.137008 0.0649606,-0.184252 0.0425197,-0.0472441 0.0992126,-0.0708661 0.167717,-0.0708661 0.0673228,0 0.122835,0.0224409 0.166535,0.069685 0.0437008,0.046063 0.0637795,0.10748 0.0637795,0.185433l0 0.341339c0,0.023622 -0.0023622,0.046063 -0.00826772,0.0685039 -0.00590551,0.0212598 -0.011811,0.0425197 -0.023622,0.0673228l-0.72874 1.67008c-0.034252,0.0767717 -0.0685039,0.12874 -0.105118,0.158268 -0.0354331,0.0271654 -0.0791339,0.0401575 -0.132283,0.0401575l-0.283465 0c-0.0555118,0 -0.0992126,-0.0129921 -0.133465,-0.0389764 -0.034252,-0.0283465 -0.0685039,-0.080315 -0.105118,-0.159449l-0.72874 -1.66772c-0.0129921,-0.0283465 -0.0200787,-0.0507874 -0.0248031,-0.069685 -0.00472441,-0.0212598 -0.00708661,-0.0425197 -0.00708661,-0.0685039l0 -0.341339c0,-0.0791339 0.0212598,-0.140551 0.0637795,-0.186614 0.0413386,-0.046063 0.0980315,-0.0685039 0.167717,-0.0685039 0.0673228,0 0.124016,0.023622 0.167717,0.0708661 0.0425197,0.0472441 0.0637795,0.108661 0.0637795,0.184252zm16.1587 -1.2248l1.56024 0c0.12874,0 0.23622,0.046063 0.327165,0.134646 0.0909449,0.0897638 0.135827,0.199606 0.135827,0.328346l0 1.09016c0,0.12874 -0.0448819,0.238583 -0.135827,0.327165 -0.0909449,0.0897638 -0.198425,0.135827 -0.327165,0.135827l-1.35472 0 0 1.09252 1.55906 0c0.0779528,0 0.140551,0.0212598 0.186614,0.0637795 0.0484252,0.0437008 0.0720472,0.0992126 0.0720472,0.167717 0,0.0673228 -0.023622,0.122835 -0.0720472,0.166535 -0.0496063,0.0437008 -0.111024,0.0637795 -0.186614,0.0637795l-2.02205 0 0 -1.55433c0,-0.12874 0.0448819,-0.237402 0.134646,-0.328346 0.0897638,-0.0897638 0.198425,-0.134646 0.328346,-0.134646l1.35472 0 0 -1.09016 -1.56024 0c-0.0791339,0 -0.140551,-0.0200787 -0.187795,-0.0625984 -0.0472441,-0.0425197 -0.069685,-0.0980315 -0.069685,-0.167717 0,-0.069685 0.023622,-0.125197 0.0720472,-0.167717 0.0496063,-0.0425197 0.111024,-0.0649606 0.185433,-0.0649606zm-3.20079 0.462992l0 2.64567 1.35472 0 0 -2.64567 -1.35472 0zm0.0472441 -0.462992l1.25669 0c0.165354,0 0.291732,0.0448819 0.381496,0.132283 0.0885827,0.0874016 0.132283,0.21378 0.132283,0.380315l0 2.54646c0,0.165354 -0.0437008,0.292913 -0.132283,0.379134 -0.0897638,0.0885827 -0.216142,0.132283 -0.381496,0.132283l-1.25669 0c-0.164173,0 -0.290551,-0.0437008 -0.379134,-0.132283 -0.0874016,-0.0862205 -0.131102,-0.21378 -0.131102,-0.379134l0 -2.54646c0,-0.166535 0.0437008,-0.292913 0.131102,-0.380315 0.0885827,-0.0874016 0.214961,-0.132283 0.379134,-0.132283zm-2.15551 2.66457l0.452362 0c0.0673228,0 0.124016,0.023622 0.166535,0.069685 0.0437008,0.0472441 0.0637795,0.10748 0.0637795,0.183071l0 0.34252c0,0.0791339 -0.0200787,0.140551 -0.0625984,0.187795 -0.0425197,0.0472441 -0.0980315,0.069685 -0.167717,0.069685l-0.452362 0c-0.0673228,0 -0.124016,-0.0224409 -0.166535,-0.0720472 -0.0437008,-0.0496063 -0.0637795,-0.109843 -0.0637795,-0.185433l0 -0.34252c0,-0.0779528 0.0200787,-0.140551 0.0625984,-0.185433 0.0425197,-0.0448819 0.0980315,-0.0673228 0.167717,-0.0673228zm-2.72835 -2.20157l0 2.64567 1.35591 0 0 -2.64567 -1.35591 0zm0.0484252 -0.462992l1.25669 0c0.164173,0 0.290551,0.0448819 0.380315,0.132283 0.0885827,0.0874016 0.133465,0.21378 0.133465,0.380315l0 2.54646c0,0.165354 -0.0448819,0.292913 -0.133465,0.379134 -0.0897638,0.0885827 -0.216142,0.132283 -0.380315,0.132283l-1.25669 0c-0.165354,0 -0.291732,-0.0437008 -0.379134,-0.132283 -0.0874016,-0.0862205 -0.132283,-0.21378 -0.132283,-0.379134l0 -2.54646c0,-0.166535 0.0448819,-0.292913 0.132283,-0.380315 0.0874016,-0.0874016 0.21378,-0.132283 0.379134,-0.132283zm-1.79291 2.66457l0.452362 0c0.0673228,0 0.124016,0.023622 0.166535,0.069685 0.0437008,0.0472441 0.0637795,0.10748 0.0637795,0.183071l0 0.34252c0,0.0791339 -0.0200787,0.140551 -0.0625984,0.187795 -0.0425197,0.0472441 -0.0980315,0.069685 -0.167717,0.069685l-0.452362 0c-0.0673228,0 -0.124016,-0.0224409 -0.166535,-0.0720472 -0.0437008,-0.0496063 -0.0637795,-0.109843 -0.0637795,-0.185433l0 -0.34252c0,-0.0779528 0.0200787,-0.140551 0.0625984,-0.185433 0.0425197,-0.0448819 0.0980315,-0.0673228 0.167717,-0.0673228zm-3.1748 -2.66457l1.55906 0c0.12874,0 0.23622,0.046063 0.327165,0.134646 0.0909449,0.0897638 0.135827,0.199606 0.135827,0.328346l0 1.09016c0,0.12874 -0.0448819,0.238583 -0.135827,0.327165 -0.0909449,0.0897638 -0.198425,0.135827 -0.327165,0.135827l-1.35472 0 0 1.09252 1.56024 0c0.0767717,0 0.13937,0.0212598 0.186614,0.0637795 0.0484252,0.0437008 0.0708661,0.0992126 0.0708661,0.167717 0,0.0673228 -0.0224409,0.122835 -0.0720472,0.166535 -0.0496063,0.0437008 -0.109843,0.0637795 -0.185433,0.0637795l-2.02323 0 0 -1.55433c0,-0.12874 0.0448819,-0.237402 0.134646,-0.328346 0.0897638,-0.0897638 0.198425,-0.134646 0.328346,-0.134646l1.35472 0 0 -1.09016 -1.55906 0c-0.0791339,0 -0.141732,-0.0200787 -0.188976,-0.0625984 -0.0472441,-0.0425197 -0.069685,-0.0980315 -0.069685,-0.167717 0,-0.069685 0.023622,-0.125197 0.0720472,-0.167717 0.0496063,-0.0425197 0.111024,-0.0649606 0.186614,-0.0649606z"/>
   <path id="_89285704" class="fil30" d="M12.6673 15.4524l0.0153543 -0.0389764 -0.0011811 -0.0011811c0.0543307,-0.133465 0.13937,-0.248031 0.24685,-0.343701 0.0956693,-0.0850394 0.201969,-0.148819 0.320079,-0.190157 0.115748,-0.0425197 0.233858,-0.0637795 0.354331,-0.0637795l1.56024 0c0.154724,0 0.308268,0.0307087 0.455906,0.0909449l0.00472441 0c0.137008,0.057874 0.263386,0.141732 0.380315,0.256299 0.0885827,0.0850394 0.16063,0.183071 0.217323,0.290551l-3.55394 0zm4.79409 0c0.0543307,-0.106299 0.124016,-0.200787 0.206693,-0.284646l0.0023622 -0.00590551c0.229134,-0.230315 0.532677,-0.347244 0.9,-0.347244l1.25551 0c0.161811,0 0.315354,0.0248031 0.454724,0.0732283 0.168898,0.0566929 0.316535,0.148819 0.441732,0.270472l0.00590551 0.00354331c0.0838583,0.0826772 0.154724,0.180709 0.210236,0.290551l-3.47717 0zm4.83543 0c0.0555118,-0.111024 0.126378,-0.207874 0.210236,-0.290551 0.119291,-0.120472 0.266929,-0.21378 0.445276,-0.274016 0.13937,-0.0484252 0.292913,-0.0732283 0.453543,-0.0732283l1.25669 0c0.16063,0 0.314173,0.0248031 0.454724,0.0732283 0.173622,0.0590551 0.323622,0.151181 0.446457,0.274016 0.046063,0.046063 0.0874016,0.0944882 0.125197,0.148819 0.0507874,-0.092126 0.119291,-0.175984 0.205512,-0.251575l0.0011811 0.0011811c0.0897638,-0.0791339 0.19252,-0.13937 0.305906,-0.179528l0 -0.0011811c0.116929,-0.0437008 0.23622,-0.0649606 0.357874,-0.0649606l1.56024 0c0.162992,0 0.317717,0.0307087 0.461811,0.0909449l-0.0011811 0.0023622c0.140551,0.057874 0.26811,0.141732 0.381496,0.253937l0.0023622 0.0023622c0.0897638,0.0885827 0.161811,0.184252 0.217323,0.288189l-6.88465 0z"/>
  </g>
  <polygon class="fil74" points="60.7122,16.3724 54.4441,16.3724 54.4441,17.498 60.7122,17.498 "/>
  <g id="_45786616">
   <path id="_89112736" class="fil75" d="M63.0957 37.0807c0,0 2.53583,-1.94646 1.84252,-3.44528 -0.693307,-1.49882 -1.68661,-6.89291 -9.28819,-8.42126 -7.60276,-1.52717 -9.1937,10.1976 -5.87126,11.2169 3.32244,1.01929 6.64724,2.43307 13.3169,0.649606z"/>
   <g>
    <path id="_86917792" class="fil76" d="M63.2043 36.7453c0,0 2.30906,-1.77165 1.67835,-3.13583 -0.63189,-1.36535 -1.68425,-6.53031 -8.60433,-7.92165 -6.92244,-1.39016 -8.20512,9.20433 -5.18031,10.1327 3.0248,0.927165 6.03425,2.54882 12.1063,0.924803z"/>
    <path id="_87669440" class="fil77" d="M63.3142 36.411c0,0 2.0811,-1.59803 1.51181,-2.82874 -0.569291,-1.23071 -1.67953,-6.16654 -7.92047,-7.42087 -6.24094,-1.25433 -7.21654,8.21102 -4.48937,9.04724 2.72835,0.837402 5.42244,2.66575 10.898,1.20236z"/>
    <path id="_88377440" class="fil78" d="M63.4228 36.0791c0,0 1.85433,-1.42323 1.34764,-2.51929 -0.507874,-1.09606 -1.67717,-5.80394 -7.23661,-6.92126 -5.56063,-1.11732 -6.22795,7.21772 -3.79843,7.96299 2.42953,0.745276 4.80945,2.78268 9.6874,1.47756z"/>
    <path id="_89646912" class="fil79" d="M63.5303 35.7449c0,0 1.62756,-1.24961 1.18228,-2.21102 -0.445276,-0.962598 -1.67362,-5.44134 -6.55276,-6.42165 -4.87913,-0.980315 -5.23937,6.22441 -3.1063,6.87874 2.13189,0.65315 4.19646,2.89843 8.47677,1.75394z"/>
    <path id="_45791760" class="fil80" d="M63.6425 35.4106c0,0 1.39961,-1.0748 1.01693,-1.90276 -0.382677,-0.827953 -1.67008,-5.07756 -5.8689,-5.92205 -4.2,-0.843307 -4.25079,5.2311 -2.41654,5.79449 1.83543,0.563386 3.58346,3.01535 7.2685,2.03031z"/>
    <path id="_86080296" class="fil81" d="M63.75 35.0764c0,0 1.17283,-0.901181 0.851575,-1.59449 -0.320079,-0.694488 -1.66654,-4.71496 -5.18504,-5.42244 -3.5185,-0.706299 -3.2622,4.2378 -1.72441,4.71024 1.5378,0.47126 2.97047,3.1311 6.05787,2.30669z"/>
    <path id="_88541384" class="fil82" d="M63.8587 34.7445c0,0 0.946063,-0.726378 0.687402,-1.28504 -0.258661,-0.559843 -1.66417,-4.35236 -4.50118,-4.92283 -2.83819,-0.569291 -2.27362,3.24449 -1.03346,3.62598 1.23898,0.379134 2.35748,3.24803 4.84724,2.58189z"/>
    <path id="_89629440" class="fil83" d="M63.9685 34.4102c0,0 0.71811,-0.552756 0.520866,-0.977953 -0.196063,-0.425197 -1.65945,-3.98858 -3.81732,-4.42205 -2.15669,-0.433465 -1.28504,2.25118 -0.34252,2.54055 0.94252,0.28937 1.74567,3.36496 3.63898,2.85945z"/>
   </g>
   <path id="_86396152" class="fil84" d="M64.0772 34.0772c0,0 0.491339,-0.377953 0.356693,-0.668504 -0.134646,-0.291732 -1.65709,-3.62598 -3.13346,-3.92244 -1.47638,-0.296457 -0.296457,1.25787 0.348425,1.4563 0.644882,0.197244 1.13268,3.48071 2.42835,3.13465z"/>
  </g>
  <polygon class="fil52" points="65.3291,19.4906 65.3291,21.6425 64.9488,20.8925 64.9488,18.9248 "/>
  <g id="_89142768">
   <path id="_89142984" class="fil62" d="M65.2358 70.2909c0,0 4.26142,-1.13858 2.45315,-1.93819 -1.80827,-0.800787 -5.42244,-3.72283 -20.5311,-4.33819 -15.1087,-0.615354 -14.4638,5.84528 -7.74803,6.30709 6.71457,0.461811 13.5579,1.13858 25.826,-0.0307087z"/>
   <g>
    <path id="_89138176" class="fil63" d="M65.3398 70.1043c0,0 3.87992,-1.03701 2.23346,-1.76457 -1.64646,-0.729921 -5.30197,-3.52441 -19.0571,-4.08543 -13.7563,-0.559843 -12.8764,5.27362 -6.76181,5.69409 6.11339,0.420472 12.4157,1.22008 23.5854,0.155906z"/>
    <path id="_89138088" class="fil64" d="M65.4437 69.9177c0,0 3.49843,-0.935433 2.01378,-1.59213 -1.48465,-0.656693 -5.18031,-3.3248 -17.5843,-3.83031 -12.4028,-0.505512 -11.2878,4.70079 -5.77441,5.07992 5.5122,0.379134 11.2736,1.30157 21.3449,0.34252z"/>
    <path id="_89137904" class="fil65" d="M65.5476 69.7311c0,0 3.11693,-0.832677 1.79409,-1.41732 -1.32165,-0.585827 -5.05984,-3.12756 -16.1102,-3.57756 -11.0504,-0.45 -9.70039,4.12913 -4.78819,4.46693 4.91102,0.337795 10.1315,1.38307 19.1043,0.527953z"/>
    <path id="_89137816" class="fil66" d="M65.6528 69.5457c0,0 2.73543,-0.731102 1.57441,-1.2437 -1.15984,-0.514961 -4.93937,-2.92913 -14.6362,-3.32362 -9.69803,-0.395669 -8.11299,3.5563 -3.80197,3.85276 4.30984,0.296457 8.98937,1.46457 16.8638,0.714567z"/>
    <path id="_89137712" class="fil67" d="M65.7555 69.3602c0,0 2.35276,-0.629528 1.35472,-1.07126 -0.999213,-0.441732 -4.8189,-2.72953 -13.1646,-3.06969 -8.34449,-0.338976 -6.52441,2.98583 -2.81575,3.24094 3.70866,0.255118 7.84961,1.54606 14.6256,0.9z"/>
    <path id="_89137664" class="fil68" d="M65.8606 69.1748c0,0 1.97126,-0.527953 1.13504,-0.897638 -0.837402,-0.370866 -4.69843,-2.5311 -11.6906,-2.81575 -6.99213,-0.284646 -4.93701,2.41299 -1.82953,2.62677 3.10748,0.21378 6.70748,1.62756 12.385,1.08661z"/>
    <path id="_89142624" class="fil69" d="M65.9646 68.9882c0,0 1.58976,-0.425197 0.915354,-0.722835 -0.674409,-0.3 -4.57795,-2.33386 -10.2165,-2.56299 -5.63976,-0.229134 -3.34961,1.84134 -0.843307,2.01378 2.5063,0.172441 5.56535,1.70906 10.1445,1.27205z"/>
    <path id="_89142696" class="fil70" d="M66.0685 68.8016c0,0 1.20827,-0.323622 0.695669,-0.550394 -0.512598,-0.226772 -4.4563,-2.13425 -8.7437,-2.30787 -4.28622,-0.174803 -1.76102,1.2685 0.144094,1.39961 1.90512,0.131102 4.42323,1.79055 7.90394,1.45866z"/>
   </g>
   <path id="_92406984" class="fil71" d="M66.1724 68.6197c0,0 0.826772,-0.222047 0.475984,-0.376772 -0.350787,-0.155906 -4.33583,-1.93583 -7.26969,-2.05512 -2.93386,-0.119291 -0.173622,0.69685 1.13031,0.786614 1.30394,0.0897638 3.2811,1.87205 5.66339,1.64528z"/>
  </g>
  <path class="fil85" d="M64.9488 18.0189l3.2811 4.83189 0.0602362 0.0897638c0.239764,0.351969 0.472441,0.695669 0.690945,1.06535l0.0425197 0.0956693 2.90906 8.62323 0.0259843 0.18189c-0.00708661,0.151181 -0.00826772,0.315354 -0.00826772,0.491339 -0.00354331,0.861024 -0.0106299,1.98898 -0.514961,2.63031l-2.36693 0 -0.0425197 -0.0425197 1.34764 -0.455906 0 0.0011811c0.56811,-0.0496063 0.576378,-1.28268 0.579921,-2.1378l0.00472441 -0.438189 -2.86063 -8.48031c-0.201969,-0.336614 -0.414567,-0.651969 -0.63189,-0.972047l-0.0023622 -0.00354331 -0.0625984 -0.0933071 -2.45197 -3.64843 0 -1.73858zm-64.4764 18.0094c-0.186614,-0.258661 -0.287008,-0.64252 -0.333071,-1.05945 -0.0732283,-0.662598 -0.0295276,-1.46811 0.0141732,-1.84961l0.0212598 -0.0992126 3.02244 -9.1311c0.121654,-0.374409 0.271654,-0.540945 0.452362,-0.740551 0.0755906,-0.0838583 0.164173,-0.180709 0.242126,-0.297638l2.99409 -4.4563 0.137008 0.092126 0 1.49291 -2.30197 3.42638 -0.0023622 0.0023622c-0.12874,0.188976 -0.235039,0.305906 -0.327165,0.408661 -0.102756,0.113386 -0.187795,0.209055 -0.244488,0.382677l0 0.0011811 -3.00709 9.08504c-0.0354331,0.356693 -0.0685039,1.02756 -0.00826772,1.57441 0.0318898,0.287008 0.0779528,0.518504 0.134646,0.566929 0.336614,0.283465 1.2378,0.551575 1.60866,0.551575l0 0.0496063 -2.40236 0z"/>
  <path class="fil86" d="M53.6138 14.8795l7.64173 0c0.225591,0 0.438189,0.0933071 0.590551,0.245669l0.00590551 0.00590551c0.152362,0.152362 0.245669,0.364961 0.245669,0.590551l0 2.42126c0,0.224409 -0.0933071,0.437008 -0.245669,0.590551l-0.00590551 0.00590551c-0.152362,0.152362 -0.364961,0.245669 -0.590551,0.245669l-7.64173 0c-0.224409,0 -0.437008,-0.0933071 -0.590551,-0.245669l-0.00590551 -0.00590551c-0.152362,-0.153543 -0.245669,-0.366142 -0.245669,-0.590551l0 -2.42126c0,-0.225591 0.0933071,-0.438189 0.245669,-0.590551l0.00590551 -0.00590551c0.153543,-0.152362 0.366142,-0.245669 0.590551,-0.245669zm7.65236 0.801969l-7.66299 0 0 2.58661 7.66299 0 0 -2.58661z"/>
  <path class="fil48" d="M-96.8398 84.4972l0.454724 -0.0248031 0 0.895276c-0.297638,1.30157 -0.95315,3.89055 -1.55315,4.41614 -0.807874,0.708661 -0.504331,1.92283 0.101575,2.83465 0.605906,0.911811 0.909449,3.54449 0.909449,3.54449l0.251575 6.07559 0.239764 -0.121654 0 0.329528 -0.70748 0 -2.51339 -0.0177165 2.63386 -1.76811 -0.207874 -4.49764c0,0 -0.70748,-2.63268 -1.31339,-3.54449 -0.605906,-0.911811 -0.805512,-2.21811 -0.101575,-2.83465 0.703937,-0.616535 1.20472,-1.46929 1.50236,-2.77087l0.303543 -2.51575z"/>
 </g>
</svg>
