<?xml version="1.0" encoding="UTF-8"?>
<!DOCTYPE svg PUBLIC "-//W3C//DTD SVG 1.1//EN" "http://www.w3.org/Graphics/SVG/1.1/DTD/svg11.dtd">
<!-- Creator: CorelDRAW -->
<svg xmlns="http://www.w3.org/2000/svg" xml:space="preserve" width="32px" height="32px" style="shape-rendering:geometricPrecision; text-rendering:geometricPrecision; image-rendering:optimizeQuality; fill-rule:evenodd; clip-rule:evenodd"
viewBox="0 0 32 32"
 xmlns:xlink="http://www.w3.org/1999/xlink">
 <defs>
  <style type="text/css">
   <![CDATA[
    .fil47 {fill:none}
    .fil14 {fill:#8FCDFF}
    .fil18 {fill:#E8DACF}
    .fil48 {fill:#EDA54E}
    .fil22 {fill:#D8F392}
    .fil57 {fill:#86A158;fill-rule:nonzero}
    .fil56 {fill:#915118;fill-rule:nonzero}
    .fil53 {fill:#9E6021;fill-rule:nonzero}
    .fil20 {fill:#C4AE9A;fill-rule:nonzero}
    .fil52 {fill:#FFD199;fill-rule:nonzero}
    .fil19 {fill:#FFF2E8;fill-rule:nonzero}
    .fil0 {fill:black;fill-opacity:0.000000}
    .fil24 {fill:#5C3106;fill-opacity:0.000000}
    .fil35 {fill:#BD7E31;fill-opacity:0.000000}
    .fil1 {fill:black;fill-opacity:0.003922}
    .fil36 {fill:#BD7E31;fill-opacity:0.007843}
    .fil2 {fill:black;fill-opacity:0.007843}
    .fil25 {fill:#5C3106;fill-opacity:0.011765}
    .fil3 {fill:black;fill-opacity:0.015686}
    .fil37 {fill:#BD7E31;fill-opacity:0.019608}
    .fil4 {fill:black;fill-opacity:0.019608}
    .fil5 {fill:black;fill-opacity:0.023529}
    .fil26 {fill:#5C3106;fill-opacity:0.027451}
    .fil38 {fill:#BD7E31;fill-opacity:0.027451}
    .fil6 {fill:black;fill-opacity:0.027451}
    .fil7 {fill:black;fill-opacity:0.031373}
    .fil39 {fill:#BD7E31;fill-opacity:0.035294}
    .fil8 {fill:black;fill-opacity:0.035294}
    .fil27 {fill:#5C3106;fill-opacity:0.039216}
    .fil9 {fill:black;fill-opacity:0.043137}
    .fil40 {fill:#BD7E31;fill-opacity:0.043137}
    .fil10 {fill:black;fill-opacity:0.047059}
    .fil11 {fill:black;fill-opacity:0.050980}
    .fil28 {fill:#5C3106;fill-opacity:0.054902}
    .fil41 {fill:#BD7E31;fill-opacity:0.054902}
    .fil12 {fill:black;fill-opacity:0.054902}
    .fil13 {fill:black;fill-opacity:0.058824}
    .fil42 {fill:#BD7E31;fill-opacity:0.062745}
    .fil29 {fill:#5C3106;fill-opacity:0.066667}
    .fil43 {fill:#BD7E31;fill-opacity:0.070588}
    .fil30 {fill:#5C3106;fill-opacity:0.078431}
    .fil44 {fill:#BD7E31;fill-opacity:0.078431}
    .fil31 {fill:#5C3106;fill-opacity:0.094118}
    .fil32 {fill:#5C3106;fill-opacity:0.105882}
    .fil33 {fill:#5C3106;fill-opacity:0.121569}
    .fil21 {fill:#5E6947;fill-opacity:0.219608}
    .fil51 {fill:#763E17;fill-opacity:0.439216}
    .fil49 {fill:#FFB75E;fill-rule:nonzero;fill-opacity:0.439216}
    .fil46 {fill:#F8EBB3;fill-opacity:0.580392}
    .fil45 {fill:#FFB75E;fill-rule:nonzero;fill-opacity:0.780392}
    .fil50 {fill:url(#id0)}
    .fil23 {fill:url(#id1)}
    .fil17 {fill:url(#id2)}
    .fil54 {fill:url(#id3)}
    .fil34 {fill:url(#id4)}
    .fil55 {fill:url(#id5);fill-rule:nonzero}
    .fil15 {fill:url(#id6);fill-rule:nonzero}
    .fil16 {fill:url(#id7);fill-rule:nonzero;fill-opacity:0.501961}
   ]]>
  </style>
  <linearGradient id="id0" gradientUnits="userSpaceOnUse" x1="15.9339" y1="17.8816" x2="16.5244" y2="29.3081">
   <stop offset="0" style="stop-color:#8C551E"/>
   <stop offset="1" style="stop-color:#804716"/>
  </linearGradient>
  <linearGradient id="id1" gradientUnits="userSpaceOnUse" x1="15.3492" y1="6.88144" x2="16.6886" y2="23.211">
   <stop offset="0" style="stop-color:#C0E36F"/>
   <stop offset="0.419608" style="stop-color:#ACD156"/>
   <stop offset="1" style="stop-color:#9EC444"/>
  </linearGradient>
  <linearGradient id="id2" gradientUnits="userSpaceOnUse" x1="16.2977" y1="8.97564" x2="15.7023" y2="15.4094">
   <stop offset="0" style="stop-color:#9D6123"/>
   <stop offset="0.568627" style="stop-color:#B3732A"/>
   <stop offset="1" style="stop-color:#C48231"/>
  </linearGradient>
  <linearGradient id="id3" gradientUnits="userSpaceOnUse" x1="15.9976" y1="11.5151" x2="15.9976" y2="14.5637">
   <stop offset="0" style="stop-color:#FFB861"/>
   <stop offset="1" style="stop-color:#FAB764"/>
  </linearGradient>
  <linearGradient id="id4" gradientUnits="userSpaceOnUse" x1="15.9563" y1="14.5637" x2="15.9563" y2="27.4608">
   <stop offset="0" style="stop-color:#E69D45"/>
   <stop offset="1" style="stop-color:#D49242"/>
  </linearGradient>
  <linearGradient id="id5" gradientUnits="userSpaceOnUse" x1="15.9339" y1="8.84217" x2="16.1394" y2="14.8803">
   <stop offset="0" style="stop-color:#C48231"/>
   <stop offset="1" style="stop-color:#985C21"/>
  </linearGradient>
  <linearGradient id="id6" gradientUnits="userSpaceOnUse" x1="15.9823" y1="6.44087" x2="16.0343" y2="1.95955">
   <stop offset="0" style="stop-color:#4E87B4"/>
   <stop offset="1" style="stop-color:#66A1D1"/>
  </linearGradient>
  <linearGradient id="id7" gradientUnits="userSpaceOnUse" x1="11.2612" y1="7.11177" x2="10.347" y2="31.2901">
   <stop offset="0" style="stop-color:#F8FFC4"/>
   <stop offset="1" style="stop-color:#ADD158"/>
  </linearGradient>
 </defs>
 <g id="Слой_x0020_1">
  <metadata id="CorelCorpID_0Corel-Layer"/>
  <g id="_46052736">
   <path id="_45992232" class="fil0" d="M15.4 27.0285c10.2418,-0.442935 14.0818,0.668537 15.4484,2.04459l0 2.41902c-2.03278,0.772479 -8.19371,0.10158 -14.9192,0.372066l-2.14971 0.0850436 -11.1183 0c-0.597667,-0.0767754 -1.07367,-0.181899 -1.40794,-0.320094l0 -2.02097c1.11147,-1.08903 4.40927,-2.1568 14.1468,-2.57965z"/>
   <g>
    <path id="_45979768" class="fil1" d="M15.4342 27.2624c10.3021,-0.428761 14.1385,0.757124 15.4141,2.14499l0 2.01506c-1.86623,0.800827 -8.11339,0.146464 -14.9027,0.401595l-3.43009 0.125203 -9.25557 0c-0.911856,-0.0826812 -1.59929,-0.211428 -2.00679,-0.403957l0 -1.62173c0.985088,-1.10793 4.17186,-2.24302 14.181,-2.66115z"/>
    <path id="_87760480" class="fil2" d="M15.4649 27.4998c10.36,-0.414587 14.22,0.850436 15.3834,2.23948l0 1.61347c-1.66898,0.832718 -8.01772,0.196073 -14.8909,0.434667 -1.74576,0.0614203 -3.43954,0.119297 -5.02111,0.161819l-6.79167 0c-1.41031,-0.0744131 -2.4261,-0.226783 -2.89148,-0.490182l0 -1.22132c0.840986,-1.11738 3.93445,-2.32689 14.2117,-2.73793z"/>
    <path id="_87828456" class="fil3" d="M15.498 27.7372c10.4107,-0.398051 14.3393,0.94611 15.3504,2.32452l0 1.21305c-1.41739,0.869334 -7.8937,0.250406 -14.8779,0.474827 -2.95763,0.095674 -5.77587,0.184261 -8.15001,0.199616l-1.4422 0c-2.69068,-0.022442 -4.59117,-0.177174 -5.12506,-0.59058l0 -0.805551c0.649638,-1.1162 3.66042,-2.41193 14.2448,-2.81589z"/>
    <path id="_46469576" class="fil4" d="M15.5299 27.9746c10.4993,-0.377971 14.5365,1.0595 15.3185,2.41665l0 0.789015c-1.0595,0.92603 -7.7177,0.323638 -14.8661,0.533885 -7.59722,0.223239 -14.3487,0.401595 -14.7291,-0.511442l0 -0.243319c0.237413,-1.11029 3.04858,-2.57965 14.2767,-2.98479z"/>
    <path id="_46423216" class="fil5" d="M15.5618 28.2097c10.9435,-0.369703 15.0893,1.28628 15.2866,2.6269l0 0.154732c-0.248044,1.11265 -7.30075,0.484276 -14.8531,0.683892 -7.71062,0.204341 -14.6251,0.361435 -14.6251,-0.540972 0,-1.04887 3.01905,-2.54658 14.1916,-2.92455z"/>
    <path id="_27620360" class="fil6" d="M15.5925 28.4447c10.5714,-0.329544 15.0917,1.27683 15.1259,2.51705 0.0318913,1.06777 -7.11059,0.496087 -14.7114,0.674443 -7.59959,0.178355 -14.5023,0.311826 -14.5023,-0.485457 0,-0.974457 3.5175,-2.37531 14.0877,-2.70604z"/>
    <path id="_89381800" class="fil7" d="M15.6256 28.6845c9.96899,-0.283479 14.924,1.19533 14.9535,2.32334 0.0271667,0.924849 -7.07043,0.439392 -14.559,0.592943 -7.48856,0.153551 -14.3806,0.263399 -14.3806,-0.431124 0,-0.897682 4.01595,-2.20168 13.9861,-2.48516z"/>
    <path id="_86551544" class="fil8" d="M15.6586 28.9195c9.3666,-0.236232 14.7574,1.1162 14.781,2.13081 0.022442,0.781928 -7.02909,0.383877 -14.4078,0.511442 -7.37753,0.127565 -14.259,0.21379 -14.259,-0.375609 0,-0.823269 4.51558,-2.03041 13.8857,-2.26665z"/>
    <path id="_89994824" class="fil9" d="M15.6894 29.1546c8.76657,-0.188986 14.5921,1.03706 14.6098,1.9371 0.0200797,0.64137 -6.98775,0.329544 -14.2542,0.431124 -7.2665,0.102761 -14.1361,0.164181 -14.1361,-0.321276 0,-0.747675 5.01166,-1.85797 13.7806,-2.04695z"/>
    <path id="_46036768" class="fil10" d="M15.7212 29.392c8.16654,-0.140558 14.4243,0.957921 14.4397,1.74457 0.0141739,0.49845 -6.94759,0.274029 -14.1042,0.350805 -7.15429,0.0755943 -14.0121,0.113391 -14.0121,-0.266942 0,-0.673261 5.51011,-1.6867 13.6767,-1.82844z"/>
    <path id="_86347672" class="fil11" d="M15.7531 29.6294c7.56415,-0.0944928 14.259,0.876421 14.2696,1.55086 0.00708696,0.355529 -6.90743,0.217334 -13.953,0.269305 -7.04444,0.0507899 -13.8916,0.0637827 -13.8916,-0.212609 0,-0.597667 6.01093,-1.51307 13.5751,-1.60756z"/>
    <path id="_86568816" class="fil12" d="M15.785 29.8668c6.96412,-0.0472464 14.0924,0.797283 14.0972,1.35715 0.00472464,0.214971 -6.8649,0.163 -13.7995,0.188986 -6.93341,0.0248044 -13.7688,0.0141739 -13.7688,-0.157094 0,-0.523254 6.50819,-1.3418 13.4711,-1.38904z"/>
   </g>
   <path id="_46047200" class="fil13" d="M15.8157 30.1031c6.36291,0 13.9259,0.718146 13.9259,1.16462 0,0.145283 -27.2966,0.140558 -27.2966,0.00472464 0,-0.44766 7.00664,-1.16935 13.3707,-1.16935z"/>
  </g>
  <path class="fil14" d="M25.3843 7.35272l0.0354348 0.262218 -19.0427 -0.0744131 0 -5.80304c0,-0.350805 0.115754,-0.67208 0.308283,-0.921305 0.245681,-0.35671 0.618928,-0.584674 1.0347,-0.584674l16.3709 0.0342537c0.738225,0.00118116 1.39141,0.721689 1.38432,1.59575l-0.0543334 5.49122 -0.036616 0z"/>
  <path class="fil15" d="M25.9926 7.84409l0.073232 0.550421 -0.572863 -0.00236232 -19.0439 -0.0744131 -0.49845 -0.00118116 0 -0.497269 0 -5.77706c0,-0.218515 0.0389783,-0.439392 0.107486,-0.644914 0.0685073,-0.205522 0.171268,-0.39687 0.29529,-0.562232l-0.00118116 -0.00118116c0.166544,-0.238594 0.381515,-0.440573 0.627196,-0.578769l0.00118116 0c0.249225,-0.140558 0.527979,-0.219696 0.815001,-0.219696l0 0.00236232 16.3709 -0.0307102 0 -0.00236232 0.0059058 0 0.00236232 0.00236232c0.513805,0.00236232 0.994537,0.288203 1.33707,0.677986l0.00118116 -0.00118116c0.328363,0.372066 0.537428,0.888233 0.536247,1.4481l0.00236232 0 0 0.00826812 -0.00236232 0.00354348 -0.0543334 5.49122 -0.00236232 0.209065zm-19.0403 -0.520892l17.9714 0.0696885 -0.0354348 -0.262218 0.114573 0 0.0496087 -4.9904 -0.00236232 0 0 -0.00826812 0.00236232 0c0,-0.303558 -0.113391,-0.584674 -0.290565,-0.786653l0 -0.00236232c-0.160638,-0.181899 -0.375609,-0.298834 -0.589399,-0.301196l0 0.00236232 -0.0059058 0 0 -0.00236232 -16.3709 -0.00708696 0 0.00236232c-0.118116,0 -0.229145,0.0307102 -0.324819,0.0850436 -0.11221,0.0637827 -0.217334,0.164181 -0.301196,0.283479l-0.0141739 0.0165362c-0.0637827,0.0838624 -0.118116,0.181899 -0.15237,0.287022 -0.0318913,0.0968552 -0.0507899,0.210247 -0.0507899,0.333087l0 5.28097z"/>
  <path class="fil16" d="M26.1981 10.1533l0.0059058 8.23269 -0.21379 0 -0.0059058 -8.23269 0 -2.48634 0 0 0.00236232 -4.31596c0.073232,0.0401595 0.144102,0.0755943 0.211428,0.10158l-0.00236232 4.21438 0.00236232 0 0 2.48634zm-20.6313 8.3449l-0.00708696 -8.39451 0 -1.20006 0 0 0 -0.128746 0 -5.54437c0,-0.0779566 0.00472464,-0.153551 0.0153551,-0.229145 0.0673261,-0.0118116 0.14292,-0.022442 0.220877,-0.0330725 -0.0153551,0.0838624 -0.0236232,0.171268 -0.0236232,0.262218l0 5.41916 0 0 0 0.125203 0 1.32881 0.00826812 8.39451 -0.21379 0z"/>
  <path class="fil17" d="M4.35966 8.82445l23.9209 1.01225c0.347261,0 0.442935,0.28466 0.63074,0.527979l0.836262 0.605935 -0.2445 4.06201c-0.0165362,0.289384 -0.283479,0.527979 -0.63074,0.527979l-25.8166 0c-0.34608,0 -0.618928,-0.237413 -0.63074,-0.527979l-0.171268 -3.54112 1.47527 -2.13908c0.173631,-0.250406 0.283479,-0.527979 0.63074,-0.527979z"/>
  <path class="fil18" d="M4.73055 8.05551l-0.0496087 -3.5612c0,-0.350805 0.242138,-0.631921 0.446479,-0.881146 0.262218,-0.35671 0.89532,-0.601211 1.33825,-0.601211l19.4821 -0.0838624c0.785472,-0.00354348 1.47054,0.701609 1.46228,1.56976 -0.0129928,1.20596 0.066145,2.38004 0.066145,3.55647l0.00944928 11.2305 -22.8708 0 0.113391 -11.1218c0,-0.036616 0.00118116,-0.0720508 0.00236232,-0.107486z"/>
  <path class="fil19" d="M4.14587 3.91437c0.0767754,-0.0129928 0.154732,-0.0188986 0.235051,-0.0188986l0 0.00118116 0.937841 -1.01816 21.2266 -0.0259855c0.556327,0.0507899 0.686254,0.780747 1.03588,1.09257l0.00236232 0.168906 0.036616 0.0106304 0.0153551 0.313008c-0.360254,-0.210247 -0.460653,-0.304739 -0.921305,-0.440573l-21.3684 0.0177174 -0.92603 0.279935 0 0c-0.0755943,0 -0.150007,0.00826812 -0.220877,0.0236232l-0.0059058 -0.185442 -0.0342537 0.00708696 -0.0129928 -0.225602z"/>
  <path class="fil20" d="M4.0065 7.61022l-0.0507899 -3.53994 -0.00236232 -0.0059058c0,-0.510261 0.283479,-0.85516 0.531522,-1.16226l0.00236232 -0.00472464 0.0236232 -0.029529c0.178355,-0.23387 0.457109,-0.426399 0.752399,-0.55987l0.00236232 0c0.318913,-0.14292 0.679167,-0.226783 0.973276,-0.226783l0 0.00236232 19.834 -0.133471 0.00236232 -0.00236232 0.0200797 0 0.00354348 0.00236232c0.524435,0.00472464 1.01462,0.238594 1.3666,0.611841l-0.00118116 0.00118116c0.34608,0.364979 0.568138,0.872878 0.570501,1.42802l0.00236232 0.00236232 0 0.0248044 -0.00236232 0.00354348c-0.0059058,0.642551 0.0141739,1.29101 0.0330725,1.9312 0.0165362,0.574044 0.0354348,1.15045 0.0354348,1.62173l-0.00236232 0 0.00826812 11.2305 0 0.500812 -0.49845 0 -23.2228 0.0496087 -0.503174 0 0.00472464 -0.504356 0.11221 -11.123 0 -0.0177174 0.00472464 -0.100399zm0.94611 -3.54584l0.0507899 3.55411 -0.49845 0.0059058 0.49845 0.0212609 -0.00472464 0.107486 -0.107486 10.6009 22.2212 -0.0496087 -0.00826812 -10.7297 -0.00236232 0c0,-0.596486 -0.0165362,-1.09612 -0.0307102,-1.59339 -0.0200797,-0.642551 -0.0401595,-1.29573 -0.0330725,-1.96309l-0.00236232 0 0 -0.0248044 0.00236232 0c-0.00236232,-0.289384 -0.118116,-0.555145 -0.297652,-0.745312l-0.00236232 -0.00118116c-0.171268,-0.180718 -0.403957,-0.297652 -0.642551,-0.300015l0 0.00236232 -0.0200797 0 0 -0.00236232 -19.834 0.133471 -0.00236232 0.00236232c-0.167725,0 -0.37679,0.0496087 -0.564595,0.133471l0 0.00118116c-0.159457,0.0720508 -0.301196,0.164181 -0.370884,0.259855l-0.0177174 0.0236232 -0.0283479 0.0342537 -0.00118116 -0.00118116c-0.140558,0.175993 -0.301196,0.373247 -0.301196,0.530341l-0.00236232 0zm-0.441754 -1.19652l0.00472464 -0.00472464"/>
  <path class="fil21" d="M4.88764 8.90241l-0.0496087 -3.5612c0,-0.257493 0.0649638,-0.497269 0.181899,-0.707515 0.0708696,-0.00826812 0.140558,-0.0141739 0.21379,-0.0141739l21.2479 0.0401595c0.119297,0 0.237413,0.0129928 0.350805,0.0389783 0.0838624,0.197254 0.131109,0.415768 0.128746,0.644914 -0.0118116,1.20833 0.0649638,2.38004 0.066145,3.55766l0.00236232 2.947 -22.1739 -0.0377971 0.0283479 -2.80171c0.00236232,-0.0354348 0.00236232,-0.0720508 0.00354348,-0.106304z"/>
  <path class="fil22" d="M28.166 12.7494l0.0425218 0.263399 -24.4264 -0.0401595 0 -5.68374c0,-0.349624 0.138196,-0.670899 0.367341,-0.921305 0.292928,-0.35671 0.737044,-0.584674 1.23077,-0.584674l21.2467 0.0401595c0.877602,0.00118116 1.65717,0.72287 1.64772,1.59457l-0.0637827 5.33176 -0.0448841 0z"/>
  <path class="fil23" d="M3.86239 11.977l-0.00354348 -3.5612c0,-0.349624 0.138196,-0.67208 0.367341,-0.921305 0.292928,-0.35671 0.737044,-0.584674 1.23195,-0.584674l21.0022 0.0401595c0.877602,0.00118116 1.64418,0.700428 1.63354,1.56976 -0.0141739,1.20596 0.0744131,2.42847 0.0755943,3.6049l0.00944928 10.9375 -24.3106 0.120478 -0.00944928 -11.0982c0,-0.0354348 0.00118116,-0.0720508 0.00354348,-0.107486z"/>
  <g id="_85964120">
   <path id="_45929600" class="fil24" d="M3.25882 8.32836l25.4989 -0.125203c0.00354348,0.731138 0.0767754,1.46464 0.0779566,2.1757l0 1.16817 -25.5768 -0.0566957 -0.00118116 -1.22132c0,-0.0248044 0.00118116,-0.0496087 0.00472464,-0.0744131l-0.00354348 -1.86623z"/>
   <g>
    <path id="_86494584" class="fil25" d="M3.25882 8.55515l25.5024 -0.126384c0.0141739,0.656725 0.073232,1.31227 0.0744131,1.9501l0.00236232 1.39377 -25.5792 -0.0566957 -0.00118116 -1.44692c0,-0.0248044 0.00118116,-0.0496087 0.00472464,-0.0744131l-0.00354348 -1.63945z"/>
    <path id="_86242952" class="fil26" d="M3.25882 8.78075l25.5095 -0.125203c0.0212609,0.57995 0.066145,1.15872 0.0673261,1.72331l0.00236232 1.61937 -25.578 -0.0555145 -0.00236232 -1.6737c0,-0.0248044 0.00118116,-0.0496087 0.00472464,-0.0744131l-0.00354348 -1.41385z"/>
    <path id="_89921040" class="fil27" d="M3.25882 9.00753l25.519 -0.127565c0.0236232,0.505537 0.0566957,1.00753 0.0578769,1.49889l0.00354348 1.84379 -25.5792 -0.0555145 -0.00236232 -1.89812c0,-0.0248044 0.00118116,-0.0496087 0.00472464,-0.0744131l-0.00354348 -1.18707z"/>
    <path id="_46454280" class="fil28" d="M3.26 9.23195l25.5272 -0.125203c0.022442,0.42758 0.0472464,0.853979 0.0484276,1.27211l0.00354348 2.06939 -25.5792 -0.0555145 -0.00236232 -2.12373c0,-0.0248044 0.00118116,-0.0496087 0.00472464,-0.0744131l-0.00236232 -0.962646z"/>
    <path id="_45799536" class="fil29" d="M3.26 9.45873l25.5391 -0.126384c0.0188986,0.351986 0.0354348,0.701609 0.036616,1.04651l0.00354348 2.29381 -25.5792 -0.0555145 -0.00236232 -2.34815c0,-0.0248044 0.00118116,-0.0496087 0.00472464,-0.0744131l-0.00236232 -0.735863z"/>
    <path id="_87384856" class="fil30" d="M3.26 9.68433l25.5509 -0.126384c0.0141739,0.27521 0.0236232,0.54924 0.0248044,0.820907l0.00354348 2.51942 -25.5768 -0.0555145 -0.00472464 -2.57375c0,-0.0248044 0.00118116,-0.0496087 0.00472464,-0.0744131l-0.00236232 -0.510261z"/>
    <path id="_46058520" class="fil31" d="M3.26237 9.91112l25.5591 -0.127565c0.00826812,0.200797 0.0129928,0.398051 0.0141739,0.595305l0.00354348 2.7462 -25.5768 -0.0566957 -0.00472464 -2.79935c0,-0.0248044 0.00118116,-0.0496087 0.00472464,-0.0744131l0 -0.283479z"/>
    <path id="_43954496" class="fil32" d="M3.26237 10.1367l25.5674 -0.126384c0.00354348,0.122841 0.00472464,0.245681 0.0059058,0.368522l0.00472464 2.97062 -25.578 -0.0566957 -0.00472464 -3.02377c0,-0.0248044 0.00118116,-0.0496087 0.00472464,-0.0744131l0 -0.0578769z"/>
   </g>
   <polygon id="_46088504" class="fil33" points="3.25764,10.3623 28.8345,10.2348 28.8357,10.3789 28.8404,13.5751 3.26237,13.5184 "/>
  </g>
  <path class="fil34" d="M2.42847 14.6629l0.0448841 -2.31389c0,-0.255131 0.12166,-0.491363 0.321276,-0.674443 0.256312,-0.259855 0.644914,-0.42758 1.07722,-0.42758l24.1701 -0.0059058c0.767754,0 1.43983,0.512624 1.4292,1.14927 -0.0153551,0.884689 0.0165362,1.48472 0.0165362,2.34578l0 14.8732c0,0.637827 -0.615385,1.16817 -1.3666,1.16817 -9.00162,0 -8.97564,0.0059058 -24.3295,0.0059058 -0.750037,0 -1.3666,-0.525616 -1.3666,-1.16817l0 -14.8732c0,-0.0271667 0.00118116,-0.0531522 0.00354348,-0.0791378z"/>
  <g id="_46057480">
   <path id="_46433240" class="fil35" d="M28.564 30.9606c0,0 1.8308,-0.487819 1.05478,-0.831537 -0.778385,-0.343718 -2.33043,-1.59929 -8.82209,-1.86387 -6.4893,-0.26458 -6.2129,2.51115 -3.32733,2.70958 2.88321,0.197254 5.8243,0.487819 11.0946,-0.0141739z"/>
   <g>
    <path id="_45282672" class="fil36" d="M28.6089 30.8814c0,0 1.66662,-0.446479 0.957921,-0.758305 -0.706334,-0.314189 -2.27728,-1.51425 -8.18544,-1.7552 -5.90935,-0.240957 -5.53137,2.26665 -2.90565,2.44736 2.62572,0.179536 5.33412,0.523254 10.1332,0.066145z"/>
    <path id="_86905224" class="fil37" d="M28.6526 30.8023c0,0 1.50362,-0.403957 0.864609,-0.685073 -0.636646,-0.282297 -2.22531,-1.42802 -7.55352,-1.64654 -5.32821,-0.216152 -4.84866,2.02097 -2.48044,2.18278 2.36941,0.163 4.84276,0.55987 9.16935,0.148826z"/>
    <path id="_87693320" class="fil38" d="M28.6975 30.722c0,0 1.33944,-0.359073 0.771298,-0.61066 -0.568138,-0.251587 -2.17452,-1.3418 -6.9216,-1.53551 -4.74708,-0.19371 -4.16713,1.77292 -2.0564,1.9182 2.11073,0.145283 4.35258,0.594124 8.2067,0.227964z"/>
    <path id="_86062728" class="fil39" d="M28.7435 30.6417c0,0 1.17525,-0.31537 0.675624,-0.535066 -0.49845,-0.219696 -2.12136,-1.25794 -6.28732,-1.42802 -4.16595,-0.170087 -3.48442,1.52842 -1.63354,1.65599 1.85206,0.126384 3.86239,0.628377 7.24524,0.307102z"/>
    <path id="_89387264" class="fil40" d="M28.7884 30.5625c0,0 1.00989,-0.271667 0.581131,-0.461834 -0.429942,-0.188986 -2.07057,-1.17171 -5.65658,-1.31818 -3.58364,-0.145283 -2.80289,1.28156 -1.20833,1.39141 1.5922,0.111029 3.37221,0.666175 6.28377,0.388602z"/>
    <path id="_89855128" class="fil41" d="M28.8321 30.4822c0,0 0.848073,-0.227964 0.487819,-0.386239 -0.359073,-0.158276 -2.0186,-1.08667 -5.02229,-1.20833 -3.00369,-0.124022 -2.12018,1.03588 -0.786653,1.12801 1.33471,0.0909494 2.88203,0.698066 5.32113,0.466558z"/>
    <path id="_86319496" class="fil42" d="M28.877 30.4019c0,0 0.682711,-0.18308 0.393326,-0.310645 -0.289384,-0.128746 -1.96663,-1.00281 -4.38919,-1.10084 -2.42256,-0.0980363 -1.43865,0.791378 -0.362616,0.865791 1.07722,0.073232 2.39185,0.733501 4.35848,0.545696z"/>
    <path id="_87562512" class="fil43" d="M28.9219 30.3216c0,0 0.518529,-0.139377 0.298834,-0.236232 -0.220877,-0.0980363 -1.91466,-0.916581 -3.75609,-0.990994 -1.84143,-0.0767754 -0.757124,0.544515 0.0614203,0.601211 0.819725,0.0555145 1.90167,0.768935 3.39584,0.626015z"/>
   </g>
   <path id="_85607744" class="fil44" d="M28.9656 30.2436c0,0 0.355529,-0.095674 0.204341,-0.161819 -0.150007,-0.0673261 -1.86151,-0.831537 -3.12299,-0.883508 -1.2603,-0.0507899 -0.073232,0.298834 0.485457,0.337812 0.561051,0.0389783 1.41149,0.80437 2.43319,0.707515z"/>
  </g>
  <path class="fil45" d="M28.8746 15.5913l0.0992175 14.096c0,0.385058 -0.735863,0.656725 -1.02879,0.908312 -0.0791378,0.0673261 -0.167725,0.128746 -0.261036,0.180718 0.0059058,-0.164181 -0.00118116,-0.0401595 -0.088587,-0.164181 0.0330725,-0.022442 0.0637827,-0.0472464 0.0944928,-0.0720508 0.200797,-0.172449 0.302377,-0.676805 0.302377,-0.931936l0 -13.9968 0.882327 -0.0200797zm-25.0737 -0.0389783l0 14.1125c0,0.225602 0.0980363,0.434667 0.259855,0.60003 -0.0389783,0.145283 -0.0767754,0.303558 -0.113391,0.466558 -0.0330725,-0.0248044 -0.0673261,-0.0507899 -0.0992175,-0.0779566 -0.294109,-0.251587 -1.24258,-0.602392 -1.24258,-0.988631l0.151189 -14.1125 1.04415 0z"/>
  <polygon class="fil46" points="2.24893,20.5274 6.06762,20.5274 6.06762,20.7435 6.10424,24.7855 6.16211,24.7571 6.16211,24.8363 2.22413,24.8363 "/>
  <path class="fil46" d="M29.5491 20.5274l-3.53403 -0.0401595 0 0.191348 0.0059058 4.04666c0,0.022442 -0.0118116,0.0472464 -0.0212609,0.0744131l3.54939 0 0 -4.27226z"/>
  <g id="_90577408">
   <polygon id="_89662632" class="fil24" points="2.282,17.8532 29.49,17.9749 29.49,14.4952 2.282,14.5495 "/>
   <g>
    <path id="_88516768" class="fil25" d="M2.282 17.7056c9.07013,0.0389783 18.1391,0.0779566 27.208,0.116935 0,-1.10202 0,-2.20523 0,-3.30725 -9.06895,0.0177174 -18.1379,0.0342537 -27.208,0.0519711 0,1.04769 0,2.09184 0,3.13834z"/>
    <path id="_46518424" class="fil26" d="M2.282 17.5615c9.07013,0.036616 18.1391,0.073232 27.208,0.109848 0,-1.04533 0,-2.09065 0,-3.13716 -9.06895,0.0165362 -18.1379,0.0330725 -27.208,0.0507899 0,0.992175 0,1.98435 0,2.97652z"/>
    <path id="_86310952" class="fil27" d="M2.282 17.4162c9.07013,0.0342537 18.1391,0.0685073 27.208,0.103942 0,-0.988631 0,-1.97726 0,-2.96471 -9.06895,0.0141739 -18.1379,0.0307102 -27.208,0.0448841 0,0.939023 0,1.87568 0,2.81589z"/>
    <path id="_87713928" class="fil28" d="M2.282 17.2697c9.07013,0.0330725 18.1391,0.066145 27.208,0.0980363 0,-0.930754 0,-1.86269 0,-2.79463 -9.06895,0.0153551 -18.1379,0.0307102 -27.208,0.0448841 0,0.884689 0,1.7682 0,2.65171z"/>
    <path id="_46456872" class="fil29" d="M2.282 17.1245c9.07013,0.029529 18.1391,0.0614203 27.208,0.0909494 0,-0.874059 0,-1.74812 0,-2.621 -9.06895,0.0129928 -18.1379,0.0259855 -27.208,0.0401595 0,0.830356 0,1.65835 0,2.48989z"/>
    <path id="_45800792" class="fil30" d="M2.282 16.9792c9.07013,0.0283479 18.1391,0.0578769 27.208,0.0862247 0,-0.817363 0,-1.63473 0,-2.45091 -9.06895,0.0118116 -18.1379,0.0236232 -27.208,0.0377971 0,0.776022 0,1.55086 0,2.32689z"/>
    <path id="_46468784" class="fil31" d="M2.282 16.8315c9.07013,0.0283479 18.1391,0.0555145 27.208,0.0815001 0,-0.759486 0,-1.51897 0,-2.27964 -9.06895,0.0118116 -18.1379,0.0236232 -27.208,0.0342537 0,0.72287 0,1.44338 0,2.16389z"/>
    <path id="_45236208" class="fil32" d="M2.282 16.6863c9.07013,0.0248044 18.1391,0.0496087 27.208,0.0744131 0,-0.701609 0,-1.4044 0,-2.10837 -9.06895,0.0118116 -18.1379,0.022442 -27.208,0.0330725 0,0.668537 0,1.33589 0,2.00089z"/>
   </g>
   <polygon id="_86928136" class="fil33" points="2.282,16.541 29.49,16.6095 29.49,14.6724 2.282,14.7031 "/>
  </g>
  <path class="fil47" d="M2.3635 12.003c0,-0.257493 0.12166,-0.493725 0.323638,-0.677986 0.257493,-0.262218 0.648457,-0.429942 1.08312,-0.429942l24.4666 0c0.771298,0 1.4481,0.513805 1.43747,1.15517"/>
  <path class="fil48" d="M29.8999 10.9328l1.31345 3.79743c-0.00944928,0.210247 -0.0791378,0.395689 -0.429942,0.409863 -9.86505,0 -19.6439,0.0602392 -29.5089,0.0602392 -0.180718,-0.00472464 -0.459471,-0.0708696 -0.432305,-0.308283l1.33117 -3.95925 27.7266 0z"/>
  <polygon class="fil49" points="16.3201,29.1144 22.598,22.9724 20.2522,22.9724 20.0219,22.9724 20.0219,22.9062 23.5594,22.8448 24.1181,23.0114 16.5114,30.3983 16.3591,30.5342 16.2067,30.3983 7.6988,22.8673 7.70235,22.859 11.8506,22.9582 11.8506,23.0244 11.6191,23.0244 9.46936,23.0244 "/>
  <polygon class="fil50" points="16.3981,29.164 23.576,22.8106 19.9593,22.8106 19.9533,18.0257 12.0455,18.0257 12.0632,22.8106 8.88351,22.8106 "/>
  <path class="fil51" d="M22.4326 23.8228l1.14336 -1.01225 -3.61671 0 -0.0059058 -4.78488 -7.90787 0 0.00354348 1.01225 7.90433 0 0.0059058 4.78488 2.47335 0zm-10.373 -1.01225l-3.17614 0 1.1977 1.01225 1.98199 0 -0.00354348 -1.01225z"/>
  <path class="fil52" d="M28.3089 9.98199l0.0850436 0c0.22442,0.00118116 0.214971,0.0484276 0.10158,-0.139377l-0.252768 -0.442935 0.240957 -0.67208 1.18825 1.76938c0.207884,0.305921 0.370884,0.372066 -0.166544,0.500812l-0.0744131 0.115754 -0.135833 -0.00118116 -26.5289 0 -0.0755943 0.0283479c-0.536247,-0.128746 -0.510261,-0.337812 -0.302377,-0.643732l1.16699 -1.73631 0 0.996899 -0.059058 0.171268c-0.113391,0.186623 -0.153551,0.0850436 0.0708696,0.0850436l0.0862247 0c8.51617,-0.0236232 16.1406,0.0909494 24.6555,-0.0318913z"/>
  <path class="fil53" d="M2.02923 14.6488l0.00944928 -0.471283 0.996899 0 -0.00944928 0.494906 -0.49845 -0.00944928 0.49845 0.0141739 -0.00236232 0.0649638 0.00236232 0 0 14.8732c0,0.167725 0.0874059,0.327181 0.225602,0.445298 0.159457,0.135833 0.388602,0.222058 0.64137,0.222058l0 0.00236232 24.228 -0.00472464 0 -0.00236232c0.251587,0 0.479551,-0.0862247 0.639008,-0.223239 0.138196,-0.118116 0.226783,-0.278754 0.226783,-0.446479l0 -14.872 -0.00236232 -0.558689 0.996899 0 0.00708696 0.558689 0 14.872c0,0.472464 -0.223239,0.900044 -0.578769,1.20478 -0.334268,0.287022 -0.792559,0.466558 -1.28865,0.466558l0 -0.00236232 -24.228 0.00472464 0 0.00236232c-0.497269,0 -0.95674,-0.178355 -1.29101,-0.465377 -0.355529,-0.302377 -0.577587,-0.729957 -0.577587,-1.2036l0 -14.8732 0.00236232 -0.0141739 0.00236232 -0.0791378z"/>
  <path class="fil54" d="M29.9011 11.0356l1.30754 3.57537c-0.00944928,0.209065 -0.0791378,0.394508 -0.429942,0.408682 -9.86505,0 -19.6687,0.0248044 -29.5326,0.0248044 -0.181899,-0.00472464 -0.459471,-0.0708696 -0.433486,-0.308283l1.36188 -3.65215 0.510261 -0.0496087 27.2163 0.00118116z"/>
  <path class="fil55" d="M28.3419 8.24804l1.7682 2.27255 0.00236232 0.00354348c0.159457,0.232689 0.227964,0.41695 0.34608,0.737044l0.155913 0.4075 1.33944 3.39347 -0.930754 0.363797 -1.33944 -3.39347 -0.00118116 -0.00354348 -0.159457 -0.41695 -0.00236232 -0.0059058c-0.0921305,-0.249225 -0.146464,-0.393326 -0.235051,-0.523254l-0.00236232 -0.00354348 -1.18943 -1.76938 0.248044 -1.06186zm-28.2226 6.91924l1.32881 -3.5175 0.109848 -0.313008c0.10158,-0.298834 0.214971,-0.626015 0.340174,-0.812638l1.64654 -2.3198 0.349624 1.13746 -1.16699 1.73749 -0.00472464 0.0059058c-0.0472464,0.0685073 -0.138196,0.333087 -0.220877,0.576406l-0.00118116 0.00354348 -0.109848 0.313008 -0.00472464 0.0118116 -1.33353 3.52931 -0.933117 -0.351986z"/>
  <polygon class="fil56" points="31.8689,16.0744 0.116935,16.0744 0.116935,15.0314 31.8689,15.0314 "/>
  <path class="fil57" d="M3.02968 9.14336l0 -2.23357c0,-0.231507 0.0472464,-0.459471 0.131109,-0.67208l-0.00118116 -0.00118116c0.0838624,-0.212609 0.211428,-0.413406 0.367341,-0.584674l0.00118116 0.00118116c0.191348,-0.226783 0.433486,-0.415768 0.707515,-0.545696l0.00354348 -0.00236232c0.271667,-0.127565 0.576406,-0.201978 0.890595,-0.201978l0.277573 0.00236232 21.4723 0.0401595 0 -0.00236232 0.0188986 0 0.00354348 0.00236232c0.55987,0.0059058 1.09139,0.240957 1.47881,0.61066 0.392145,0.374428 0.644914,0.897682 0.643732,1.46582l0.00236232 0 0 0.0177174 -0.00236232 0.0059058 -0.0200797 2.0564 -0.0165362 0.881146c0.113391,0.187805 -0.116935,-0.0248044 -0.341355,-0.0259855l-0.0850436 0 -0.564595 0.00826812 0.0307102 -2.92573 -0.00236232 0 0 -0.0177174 0.00236232 0c0,-0.285841 -0.13229,-0.553964 -0.334268,-0.747675 -0.207884,-0.199616 -0.496087,-0.328363 -0.794921,-0.331906l0 0.00236232 -0.0188986 0 0 -0.00236232 -21.7499 -0.0401595 0 0.00236232c-0.168906,0 -0.329544,0.0377971 -0.46774,0.102761 -0.146464,0.0696885 -0.278754,0.173631 -0.380334,0.297652l-0.0153551 0.0200797c-0.0744131,0.0815001 -0.135833,0.178355 -0.175993,0.279935l-0.00236232 0.00118116c-0.036616,0.0909494 -0.0566957,0.194891 -0.0566957,0.303558l0 3.07692 -0.980363 0.0649638 -0.0212609 -0.908312z"/>
 </g>
</svg>
